<?xml version="1.0" encoding="utf-8"?>
<!-- Generator: Adobe Illustrator 17.0.0, SVG Export Plug-In . SVG Version: 6.00 Build 0)  -->
<!DOCTYPE svg PUBLIC "-//W3C//DTD SVG 1.1//EN" "http://www.w3.org/Graphics/SVG/1.1/DTD/svg11.dtd">
<svg version="1.1" id="Capa_1" xmlns="http://www.w3.org/2000/svg" xmlns:xlink="http://www.w3.org/1999/xlink" x="0px" y="0px"
	 width="450px" height="100px" viewBox="-25 0 450 100" enable-background="new -25 0 450 100" xml:space="preserve">
<g>
	<g enable-background="new    ">
		<path fill="#3A3A3A" d="M-17.2,25.846h-3.881v-3.73H-8.91v3.73h-3.881v9.458H-17.2V25.846z"/>
		<path fill="#3A3A3A" d="M-7.915,22.115H3.333v3.617h-6.914v1.338h6.444v3.184h-6.444v1.432h7.008v3.617H-7.915V22.115z"/>
		<path fill="#3A3A3A" d="M3.517,33.325l2.355-2.808c1.432,1.093,3.07,1.545,4.616,1.545c0.791,0,1.13-0.207,1.13-0.566V31.46
			c0-0.377-0.415-0.585-1.827-0.866c-2.958-0.602-5.557-1.451-5.557-4.24v-0.038c0-2.506,1.959-4.446,5.595-4.446
			c2.544,0,4.427,0.602,5.953,1.808l-2.148,2.976c-1.243-0.904-2.732-1.3-3.957-1.3c-0.659,0-0.961,0.226-0.961,0.547v0.038
			c0,0.358,0.358,0.585,1.753,0.847c3.372,0.622,5.633,1.602,5.633,4.259v0.038c0,2.77-2.28,4.465-5.821,4.465
			C7.605,35.548,5.193,34.794,3.517,33.325z"/>
		<path fill="#3A3A3A" d="M16.815,28.748V28.71c0-3.825,3.146-6.876,7.216-6.876c4.069,0,7.178,3.014,7.178,6.839v0.038
			c0,3.825-3.146,6.876-7.216,6.876C19.923,35.585,16.815,32.571,16.815,28.748z M26.762,28.748V28.71
			c0-1.564-1.074-2.976-2.77-2.976c-1.676,0-2.731,1.394-2.731,2.938v0.038c0,1.564,1.074,2.977,2.77,2.977
			C25.707,31.686,26.762,30.292,26.762,28.748z"/>
		<path fill="#3A3A3A" d="M32.409,22.115h6.444c2.336,0,3.825,0.583,4.748,1.508c0.791,0.791,1.206,1.77,1.206,3.127v0.038
			c0,1.921-0.998,3.259-2.6,4.032l3.07,4.484h-5.029l-2.487-3.768h-0.943v3.768h-4.408C32.409,35.303,32.409,22.115,32.409,22.115z
			 M38.721,28.389c1.055,0,1.696-0.471,1.696-1.281V27.07c0-0.847-0.659-1.262-1.677-1.262h-1.921v2.581H38.721z"/>
		<path fill="#3A3A3A" d="M45.875,22.115h11.248v3.617h-6.914v1.338h6.444v3.184h-6.444v1.432h7.008v3.617H45.875V22.115z"/>
		<path fill="#3A3A3A" d="M58.401,22.115h6.444c2.336,0,3.825,0.583,4.748,1.508c0.791,0.791,1.206,1.77,1.206,3.127v0.038
			c0,1.921-0.998,3.259-2.6,4.032l3.07,4.484h-5.031l-2.487-3.768h-0.943v3.768h-4.407V22.115z M64.713,28.389
			c1.055,0,1.696-0.471,1.696-1.281V27.07c0-0.847-0.659-1.262-1.676-1.262H62.81v2.581H64.713z"/>
		<path fill="#3A3A3A" d="M71.906,22.115h4.408v13.188h-4.408V22.115z M74.261,18.215l4.352,0.979l-3.014,2.166h-3.146
			L74.261,18.215z"/>
		<path fill="#3A3A3A" d="M82.453,22.021h4.372l5.557,13.282h-4.785l-0.697-1.772h-4.616l-0.679,1.772h-4.71L82.453,22.021z
			 M85.808,30.405l-1.206-3.202l-1.206,3.202H85.808z"/>
		<path fill="#3A3A3A" d="M97.709,22.115h4.597l2.826,4.634l2.826-4.634h4.597v13.188h-4.389v-6.538l-3.034,4.691h-0.075
			l-3.034-4.691v6.538h-4.315V22.115H97.709z"/>
		<path fill="#3A3A3A" d="M113.943,29.388v-7.272h4.484v7.216c0,1.64,0.847,2.336,2.034,2.336s2.036-0.64,2.036-2.242v-7.31h4.484
			v7.178c0,4.502-2.619,6.274-6.556,6.274C116.488,35.567,113.943,33.758,113.943,29.388z"/>
		<path fill="#3A3A3A" d="M128.372,22.115h4.125l4.691,5.821v-5.821h4.372v13.188h-3.919l-4.899-6.085v6.085h-4.37L128.372,22.115
			L128.372,22.115z"/>
		<path fill="#3A3A3A" d="M143.1,22.115h4.408v13.188H143.1V22.115z"/>
		<path fill="#3A3A3A" d="M148.751,28.748V28.71c0-3.937,3.07-6.876,7.008-6.876c2.902,0,4.861,1.413,5.972,3.43l-3.636,2.129
			c-0.489-0.942-1.187-1.601-2.393-1.601c-1.489,0-2.468,1.3-2.468,2.882v0.038c0,1.715,1.017,2.921,2.468,2.921
			c1.243,0,1.94-0.679,2.487-1.658l3.636,2.053c-1.111,1.96-2.958,3.561-6.236,3.561C151.934,35.585,148.751,32.835,148.751,28.748z
			"/>
		<path fill="#3A3A3A" d="M162.707,22.115h4.408v13.188h-4.408V22.115z"/>
		<path fill="#3A3A3A" d="M168.659,22.115h5.935c3.504,0,5.897,1.564,5.897,4.691v0.038c0,3.185-2.43,4.88-5.991,4.88h-1.432v3.58
			h-4.408V22.115z M174.254,28.578c1.13,0,1.883-0.509,1.883-1.451v-0.038c0-0.961-0.697-1.451-1.865-1.451h-1.206v2.94H174.254z"/>
		<path fill="#3A3A3A" d="M184.707,22.021h4.372l5.557,13.282h-4.785l-0.698-1.772h-4.616l-0.679,1.772h-4.71L184.707,22.021z
			 M188.06,30.405l-1.205-3.202l-1.206,3.202H188.06z"/>
		<path fill="#3A3A3A" d="M195.178,22.115h4.408v9.42h6.197v3.768h-10.606V22.115z"/>
		<path fill="#3A3A3A" d="M211.525,22.115h5.049c5.237,0,7.856,2.581,7.856,6.48v0.038c0,3.9-2.676,6.669-8.007,6.669h-4.899
			L211.525,22.115L211.525,22.115z M216.669,31.46c2.015,0,3.316-0.829,3.316-2.732V28.69c0-1.904-1.3-2.732-3.316-2.732h-0.736
			v5.501h0.736V31.46z"/>
		<path fill="#3A3A3A" d="M225.631,22.115h11.247v3.617h-6.914v1.338h6.443v3.184h-6.443v1.432h7.008v3.617H225.63V22.115H225.631z"
			/>
		<path fill="#3A3A3A" d="M242.941,22.115h4.125l4.691,5.821v-5.821h4.37v13.188h-3.918l-4.899-6.085v6.085h-4.37L242.941,22.115
			L242.941,22.115z"/>
		<path fill="#3A3A3A" d="M257.669,22.115h4.409v13.188h-4.409V22.115z"/>
		<path fill="#3A3A3A" d="M263.319,28.748V28.71c0-3.937,3.07-6.876,7.008-6.876c2.902,0,4.861,1.413,5.972,3.43l-3.636,2.129
			c-0.49-0.942-1.187-1.601-2.393-1.601c-1.489,0-2.468,1.3-2.468,2.882v0.038c0,1.715,1.018,2.921,2.468,2.921
			c1.243,0,1.94-0.679,2.487-1.658l3.637,2.053c-1.111,1.96-2.958,3.561-6.236,3.561C266.503,35.585,263.319,32.835,263.319,28.748z
			"/>
		<path fill="#3A3A3A" d="M276.56,28.748V28.71c0-3.825,3.147-6.876,7.216-6.876s7.178,3.014,7.178,6.839v0.038
			c0,3.825-3.147,6.876-7.216,6.876S276.56,32.571,276.56,28.748z M286.508,28.748V28.71c0-1.564-1.074-2.976-2.77-2.976
			c-1.676,0-2.732,1.394-2.732,2.938v0.038c0,1.564,1.074,2.977,2.77,2.977C285.453,31.686,286.508,30.292,286.508,28.748z"/>
		<path fill="#3A3A3A" d="M292.156,22.115h4.408v9.42h6.199v3.768h-10.607V22.115z"/>
		<path fill="#3A3A3A" d="M308.318,22.021h4.37l5.559,13.282h-4.787l-0.697-1.772h-4.616l-0.679,1.772h-4.71L308.318,22.021z
			 M310.654,18.028l4.353,0.979l-3.014,2.166h-3.147L310.654,18.028z M311.671,30.405l-1.206-3.202l-1.206,3.202H311.671z"/>
		<path fill="#3A3A3A" d="M317.508,33.325l2.355-2.808c1.432,1.093,3.07,1.545,4.616,1.545c0.791,0,1.13-0.207,1.13-0.566V31.46
			c0-0.377-0.415-0.585-1.828-0.866c-2.958-0.602-5.557-1.451-5.557-4.24v-0.038c0-2.506,1.96-4.446,5.595-4.446
			c2.542,0,4.427,0.602,5.953,1.808l-2.149,2.976c-1.242-0.904-2.731-1.3-3.956-1.3c-0.659,0-0.961,0.226-0.961,0.547v0.038
			c0,0.358,0.357,0.585,1.753,0.847c3.372,0.622,5.632,1.602,5.632,4.259v0.038c0,2.77-2.28,4.465-5.821,4.465
			C321.595,35.548,319.184,34.794,317.508,33.325z"/>
		<path fill="#3A3A3A" d="M335.89,22.115h6.443c2.336,0,3.825,0.583,4.748,1.508c0.791,0.791,1.206,1.77,1.206,3.127v0.038
			c0,1.921-0.998,3.259-2.599,4.032l3.07,4.484h-5.031l-2.488-3.768h-0.942v3.768h-4.408V22.115H335.89z M342.2,28.389
			c1.055,0,1.696-0.471,1.696-1.281V27.07c0-0.847-0.659-1.262-1.677-1.262h-1.921v2.581H342.2z"/>
		<path fill="#3A3A3A" d="M349.055,28.748V28.71c0-3.825,3.147-6.876,7.216-6.876s7.178,3.014,7.178,6.839v0.038
			c0,3.825-3.147,6.876-7.216,6.876S349.055,32.571,349.055,28.748z M359.003,28.748V28.71c0-1.564-1.074-2.976-2.77-2.976
			c-1.676,0-2.732,1.394-2.732,2.938v0.038c0,1.564,1.074,2.977,2.77,2.977C357.948,31.686,359.003,30.292,359.003,28.748z"/>
		<path fill="#3A3A3A" d="M364.65,22.115h4.597l2.825,4.634l2.826-4.634h4.597v13.188h-4.389v-6.538l-3.034,4.691h-0.075
			l-3.034-4.691v6.538h-4.314V22.115H364.65z"/>
		<path fill="#3A3A3A" d="M380.999,22.115h11.247v3.617h-6.914v1.338h6.443v3.184h-6.443v1.432h7.008v3.617h-11.342V22.115H380.999z
			"/>
		<path fill="#3A3A3A" d="M393.524,22.115h6.443c2.336,0,3.825,0.583,4.748,1.508c0.791,0.791,1.206,1.77,1.206,3.127v0.038
			c0,1.921-0.998,3.259-2.6,4.032l3.072,4.484h-5.031l-2.488-3.768h-0.942v3.768h-4.408V22.115H393.524z M399.835,28.389
			c1.055,0,1.696-0.471,1.696-1.281V27.07c0-0.847-0.659-1.262-1.677-1.262h-1.921v2.581H399.835z"/>
		<path fill="#3A3A3A" d="M406.687,28.748V28.71c0-3.825,3.147-6.876,7.216-6.876s7.178,3.014,7.178,6.839v0.038
			c0,3.825-3.147,6.876-7.216,6.876S406.687,32.571,406.687,28.748z M416.636,28.748V28.71c0-1.564-1.074-2.976-2.77-2.976
			c-1.676,0-2.732,1.394-2.732,2.938v0.038c0,1.564,1.074,2.977,2.77,2.977C415.581,31.686,416.636,30.292,416.636,28.748z"/>
	</g>
	<g>
		<g>
			<g>
				<path fill="#7A7A7A" d="M100.434,46.379h3.904v11.678h-3.904V46.379z"/>
				<path fill="#7A7A7A" d="M105.705,46.379h4.071l2.503,4.104l2.503-4.104h4.071v11.678h-3.887v-5.79l-2.687,4.154h-0.067
					l-2.687-4.154v5.79h-3.82V46.379z"/>
				<path fill="#7A7A7A" d="M120.181,46.379h5.255c3.103,0,5.222,1.385,5.222,4.154v0.033c0,2.82-2.152,4.321-5.305,4.321h-1.268
					v3.17h-3.904V46.379z M125.136,52.102c1.001,0,1.668-0.451,1.668-1.285v-0.033c0-0.851-0.617-1.285-1.651-1.285h-1.068v2.603
					C124.085,52.102,125.136,52.102,125.136,52.102z"/>
				<path fill="#7A7A7A" d="M131.389,52.819v-6.44h3.97v6.39c0,1.452,0.75,2.069,1.801,2.069c1.051,0,1.801-0.567,1.801-1.985
					v-6.473h3.97v6.356c0,3.987-2.319,5.556-5.806,5.556C133.641,58.291,131.389,56.689,131.389,52.819z"/>
				<path fill="#7A7A7A" d="M144.165,46.379h9.959v3.203h-6.122v1.185h5.705v2.819h-5.705v1.268h6.206v3.203h-10.044V46.379H144.165
					z"/>
				<path fill="#7A7A7A" d="M154.288,56.305l2.085-2.486c1.268,0.968,2.719,1.368,4.087,1.368c0.7,0,1.001-0.184,1.001-0.501v-0.033
					c0-0.334-0.367-0.518-1.619-0.767c-2.62-0.533-4.921-1.285-4.921-3.754v-0.033c0-2.219,1.736-3.937,4.955-3.937
					c2.251,0,3.92,0.533,5.272,1.601l-1.903,2.635c-1.1-0.801-2.418-1.151-3.503-1.151c-0.583,0-0.851,0.2-0.851,0.484v0.033
					c0,0.317,0.316,0.518,1.552,0.75c2.986,0.551,4.987,1.418,4.987,3.771v0.033c0,2.453-2.019,3.954-5.155,3.954
					C157.907,58.275,155.772,57.607,154.288,56.305z"/>
				<path fill="#7A7A7A" d="M168.899,49.683h-3.437v-3.303h10.779v3.303h-3.437v8.375h-3.905L168.899,49.683L168.899,49.683z"/>
				<path fill="#7A7A7A" d="M176.354,52.251v-0.033c0-3.387,2.787-6.089,6.39-6.089c3.603,0,6.356,2.669,6.356,6.056v0.033
					c0,3.387-2.787,6.089-6.39,6.089C179.107,58.307,176.354,55.638,176.354,52.251z M185.163,52.251v-0.033
					c0-1.385-0.951-2.635-2.453-2.635c-1.484,0-2.419,1.235-2.419,2.602v0.033c0,1.385,0.951,2.637,2.453,2.637
					C184.228,54.854,185.163,53.62,185.163,52.251z"/>
				<path fill="#7A7A7A" d="M100.401,66.394h5.255c3.103,0,5.222,1.385,5.222,4.154v0.033c0,2.819-2.152,4.321-5.305,4.321h-1.268
					v3.17h-3.904C100.401,78.072,100.401,66.394,100.401,66.394z M105.356,72.115c1.001,0,1.668-0.45,1.668-1.284v-0.033
					c0-0.851-0.617-1.284-1.651-1.284h-1.068v2.602h1.051V72.115z"/>
				<path fill="#7A7A7A" d="M111.708,66.394h5.706c2.069,0,3.387,0.517,4.204,1.335c0.7,0.7,1.068,1.568,1.068,2.769v0.033
					c0,1.701-0.884,2.886-2.302,3.57l2.719,3.97h-4.454l-2.202-3.337h-0.835v3.337h-3.904V66.394z M117.298,71.948
					c0.934,0,1.502-0.418,1.502-1.136V70.78c0-0.752-0.583-1.118-1.485-1.118h-1.701v2.286
					C115.613,71.948,117.298,71.948,117.298,71.948z"/>
				<path fill="#7A7A7A" d="M123.634,66.394h9.959v3.202h-6.123v1.185h5.705v2.819h-5.705v1.268h6.206v3.203h-10.044V66.394H123.634
					z"/>
				<path fill="#7A7A7A" d="M134.724,66.394h4.471c4.637,0,6.956,2.285,6.956,5.74v0.032c0,3.454-2.369,5.907-7.09,5.907h-4.338
					L134.724,66.394L134.724,66.394z M139.279,74.668c1.785,0,2.936-0.734,2.936-2.419v-0.033c0-1.685-1.151-2.419-2.936-2.419
					h-0.651v4.872C138.628,74.668,139.279,74.668,139.279,74.668z"/>
				<path fill="#7A7A7A" d="M147.25,66.394h3.905v11.678h-3.905V66.394z"/>
				<path fill="#7A7A7A" d="M156.591,66.309h3.87l4.922,11.762h-4.239l-0.617-1.568h-4.087l-0.601,1.568h-4.171L156.591,66.309z
					 M159.561,73.734l-1.068-2.837l-1.068,2.837H159.561z"/>
				<path fill="#7A7A7A" d="M165.864,66.394h3.904v8.341h5.489v3.337h-9.393L165.864,66.394L165.864,66.394z"/>
			</g>
		</g>
		<g>
			<g>
				<path fill="#B2B2B2" d="M198.966,70.621l12.509-8.972c1.898-1.337,2.631-2.502,2.631-3.666c0-1.294-0.992-2.243-2.718-2.243
					s-3.321,1.079-5.823,3.753l-6.642-5.65c3.494-4.314,7.031-6.642,13.329-6.642c6.902,0,11.862,4.141,11.862,9.878v0.086
					c0,4.616-2.458,7.118-6.082,9.447l-5.391,3.45h11.776v7.894h-25.45v-7.334H198.966z"/>
				<path fill="#B2B2B2" d="M226.399,62.943v-0.086c0-8.326,5.434-15.744,14.58-15.744c9.144,0,14.493,7.333,14.493,15.658v0.087
					c0,8.325-5.434,15.743-14.58,15.743C231.748,78.601,226.399,71.268,226.399,62.943z M245.465,62.943v-0.086
					c0-4.141-1.855-6.988-4.573-6.988c-2.717,0-4.486,2.76-4.486,6.902v0.087c0,4.141,1.855,6.988,4.573,6.988
					C243.696,69.845,245.465,67.085,245.465,62.943z"/>
				<path fill="#B2B2B2" d="M261.986,56.388l-4.917,1.079l-1.813-7.463l9.016-2.458h7.634v30.409h-9.921V56.388L261.986,56.388z"/>
				<path fill="#B2B2B2" d="M288.6,56.086h-13.76V47.76h24.759v7.592l-13.112,22.602H275.53L288.6,56.086z"/>
			</g>
			<g>
				<path fill="#383838" d="M197.072,69.107l12.509-8.972c1.898-1.337,2.631-2.502,2.631-3.666c0-1.294-0.992-2.243-2.718-2.243
					c-1.726,0-3.321,1.079-5.823,3.753l-6.642-5.65c3.494-4.314,7.031-6.642,13.329-6.642c6.902,0,11.861,4.141,11.861,9.878v0.086
					c0,4.616-2.458,7.118-6.081,9.447l-5.392,3.45h11.775v7.894h-25.449V69.107z"/>
				<path fill="#383838" d="M224.506,61.429v-0.086c0-8.326,5.436-15.744,14.58-15.744c9.145,0,14.494,7.333,14.494,15.658v0.087
					c0,8.325-5.436,15.743-14.58,15.743C229.853,77.087,224.506,69.754,224.506,61.429z M243.571,61.429v-0.086
					c0-4.141-1.855-6.988-4.572-6.988c-2.718,0-4.486,2.76-4.486,6.902v0.087c0,4.141,1.855,6.988,4.572,6.988
					C241.802,68.332,243.571,65.57,243.571,61.429z"/>
				<path fill="#383838" d="M260.093,54.872l-4.918,1.079l-1.811-7.463l9.015-2.458h7.634v30.409h-9.92L260.093,54.872
					L260.093,54.872z"/>
				<path fill="#383838" d="M286.706,54.571h-13.759v-8.326h24.759v7.592l-13.113,22.602h-10.956L286.706,54.571z"/>
			</g>
		</g>
	</g>
</g>
</svg>
