<?xml version="1.0" encoding="utf-8"?>
<!-- Generator: Adobe Illustrator 17.0.0, SVG Export Plug-In . SVG Version: 6.00 Build 0)  -->
<!DOCTYPE svg PUBLIC "-//W3C//DTD SVG 1.1//EN" "http://www.w3.org/Graphics/SVG/1.1/DTD/svg11.dtd">
<svg version="1.1" id="Capa_1" xmlns="http://www.w3.org/2000/svg" xmlns:xlink="http://www.w3.org/1999/xlink" x="0px" y="0px"
	 width="150px" height="74px" viewBox="0 0 150 74" enable-background="new 0 0 150 74" xml:space="preserve">
<g>
	<g>
		<path fill="#585857" d="M79.186,7.441"/>
		<path fill="#585857" d="M89.761,7.044h1.193"/>
		<path fill="#585857" d="M97.473,7.524"/>
		<path fill="#585857" d="M81.021,20.742v7.727c0,0.753,0.027,1.548,0.055,2.001h-1.849l-0.096-0.987h-0.026
			c-0.426,0.753-1.234,1.137-2.097,1.137c-1.59,0-2.863-1.357-2.863-3.439c-0.014-2.26,1.396-3.562,2.999-3.562
			c0.823,0,1.466,0.288,1.767,0.754h0.028v-3.632L81.021,20.742L81.021,20.742z M78.94,26.606c0-0.11-0.013-0.261-0.028-0.369
			c-0.122-0.562-0.575-1.028-1.22-1.028c-0.945,0-1.438,0.849-1.438,1.904c0,1.137,0.561,1.85,1.425,1.85
			c0.602,0,1.082-0.411,1.206-1c0.041-0.151,0.055-0.302,0.055-0.479V26.606z"/>
		<path fill="#585857" d="M83.61,27.786c0.069,0.863,0.918,1.273,1.892,1.273c0.711,0,1.287-0.096,1.848-0.274l0.275,1.411
			c-0.685,0.274-1.521,0.411-2.425,0.411c-2.275,0-3.576-1.315-3.576-3.411c0-1.699,1.056-3.575,3.384-3.575
			c2.165,0,2.987,1.684,2.987,3.341c0,0.358-0.041,0.672-0.069,0.823H83.61V27.786z M86.063,26.36c0-0.507-0.219-1.356-1.177-1.356
			c-0.877,0-1.234,0.795-1.287,1.356H86.063z"/>
		<polygon fill="#585857" points="91.953,22.99 89.474,22.99 89.474,21.236 96.57,21.236 96.57,22.99 94.05,22.99 94.05,30.47 
			91.953,30.47 		"/>
		<path fill="#585857" d="M96.186,25.976c0-0.986-0.027-1.63-0.055-2.206h1.795l0.069,1.234h0.055
			c0.343-0.973,1.165-1.384,1.809-1.384c0.19,0,0.287,0,0.439,0.028v1.959c-0.152-0.027-0.329-0.055-0.561-0.055
			c-0.769,0-1.289,0.411-1.427,1.055c-0.026,0.137-0.04,0.302-0.04,0.465v3.398h-2.084V25.976z"/>
		<path fill="#585857" d="M104.365,30.47l-0.123-0.671h-0.041c-0.439,0.534-1.124,0.822-1.918,0.822
			c-1.356,0-2.165-0.987-2.165-2.055c0-1.74,1.562-2.576,3.932-2.562v-0.096c0-0.356-0.192-0.863-1.22-0.863
			c-0.685,0-1.412,0.233-1.848,0.507l-0.384-1.343c0.465-0.26,1.383-0.589,2.603-0.589c2.232,0,2.945,1.315,2.945,2.892v2.328
			c0,0.644,0.027,1.26,0.096,1.63C106.242,30.47,104.365,30.47,104.365,30.47z M104.118,27.305
			c-1.095-0.013-1.944,0.247-1.944,1.054c0,0.535,0.356,0.796,0.823,0.796c0.521,0,0.944-0.343,1.082-0.767
			c0.026-0.11,0.04-0.233,0.04-0.356L104.118,27.305L104.118,27.305z"/>
		<path fill="#585857" d="M107.05,30.47c0.027-0.438,0.055-1.247,0.055-2.001v-7.727h2.082v3.823h0.028
			c0.397-0.575,1.096-0.945,2.027-0.945c1.604,0,2.782,1.329,2.767,3.384c0,2.412-1.534,3.617-3.068,3.617
			c-0.781,0-1.534-0.288-2.014-1.082h-0.028l-0.081,0.932h-1.768V30.47z M109.187,27.62c0,0.137,0.014,0.261,0.041,0.37
			c0.137,0.561,0.617,0.985,1.22,0.985c0.89,0,1.438-0.685,1.438-1.89c0-1.041-0.465-1.863-1.438-1.863
			c-0.562,0-1.082,0.425-1.22,1.027c-0.027,0.124-0.041,0.247-0.041,0.385V27.62z"/>
		<path fill="#585857" d="M118.421,30.47l-0.122-0.671h-0.042c-0.438,0.534-1.123,0.822-1.918,0.822
			c-1.356,0-2.164-0.987-2.164-2.055c0-1.74,1.56-2.576,3.931-2.562v-0.096c0-0.356-0.191-0.863-1.219-0.863
			c-0.685,0-1.411,0.233-1.85,0.507l-0.384-1.343c0.467-0.26,1.384-0.589,2.603-0.589c2.234,0,2.947,1.315,2.947,2.892v2.328
			c0,0.644,0.027,1.26,0.095,1.63C120.298,30.47,118.421,30.47,118.421,30.47z M118.174,27.305
			c-1.096-0.013-1.944,0.247-1.944,1.054c0,0.535,0.355,0.796,0.821,0.796c0.521,0,0.946-0.343,1.083-0.767
			c0.027-0.11,0.04-0.233,0.04-0.356V27.305z"/>
		<path fill="#585857" d="M119.777,31.702c0.548-0.04,0.972-0.164,1.233-0.438c0.302-0.316,0.411-0.85,0.411-2.178V23.77h2.097
			v5.809c0,1.465-0.329,2.356-0.947,2.932c-0.616,0.575-1.589,0.821-2.589,0.821L119.777,31.702z M123.571,21.908
			c0,0.575-0.424,1.041-1.123,1.041c-0.657,0-1.083-0.466-1.083-1.041c0-0.602,0.426-1.054,1.111-1.054
			C123.147,20.853,123.557,21.305,123.571,21.908"/>
		<path fill="#585857" d="M131.079,27.045c0,2.453-1.74,3.576-3.535,3.576c-1.959,0-3.465-1.288-3.465-3.452
			s1.425-3.549,3.574-3.549C129.708,23.62,131.079,25.031,131.079,27.045 M126.229,27.113c0,1.152,0.48,2.014,1.369,2.014
			c0.808,0,1.33-0.808,1.33-2.014c0-0.999-0.383-2.014-1.33-2.014C126.599,25.099,126.229,26.127,126.229,27.113"/>
		<path fill="#585857" d="M76.09,37.471l0.999,3.288c0.111,0.396,0.247,0.89,0.329,1.247h0.04c0.097-0.357,0.205-0.863,0.302-1.247
			l0.823-3.288h2.232l-1.562,4.411c-0.959,2.658-1.602,3.727-2.356,4.398c-0.727,0.63-1.494,0.849-2.014,0.918l-0.439-1.766
			c0.26-0.041,0.589-0.165,0.904-0.357c0.314-0.164,0.657-0.493,0.863-0.836c0.069-0.095,0.109-0.205,0.109-0.301
			c0-0.069-0.014-0.178-0.097-0.343l-2.452-6.123h2.319V37.471z"/>
		<path fill="#585857" d="M83.158,35.059c0.671-0.11,1.67-0.192,2.781-0.192c1.37,0,2.328,0.206,2.987,0.727
			c0.548,0.438,0.849,1.082,0.849,1.931c0,1.179-0.836,1.987-1.63,2.275v0.041c0.644,0.261,0.999,0.877,1.233,1.726
			c0.288,1.04,0.574,2.247,0.753,2.602h-2.136c-0.151-0.26-0.37-1.013-0.645-2.15c-0.247-1.151-0.643-1.466-1.493-1.48h-0.631v3.631
			h-2.069L83.158,35.059L83.158,35.059z M85.227,39.032h0.822c1.041,0,1.658-0.52,1.658-1.329c0-0.85-0.576-1.275-1.534-1.288
			c-0.508,0-0.795,0.041-0.946,0.069V39.032z"/>
		<path fill="#585857" d="M92.131,41.485c0.069,0.862,0.918,1.273,1.891,1.273c0.713,0,1.287-0.096,1.85-0.274l0.273,1.412
			c-0.685,0.274-1.521,0.411-2.425,0.411c-2.273,0-3.575-1.316-3.575-3.411c0-1.699,1.055-3.575,3.384-3.575
			c2.165,0,2.987,1.685,2.987,3.342c0,0.356-0.041,0.671-0.07,0.823L92.131,41.485L92.131,41.485z M94.584,40.06
			c0-0.507-0.22-1.356-1.18-1.356c-0.875,0-1.231,0.795-1.287,1.356H94.584z"/>
		<path fill="#585857" d="M97.063,42.347c0.383,0.233,1.178,0.507,1.795,0.507c0.63,0,0.89-0.219,0.89-0.561
			c0-0.343-0.205-0.507-0.987-0.767c-1.383-0.466-1.917-1.219-1.904-2.014c0-1.247,1.069-2.192,2.726-2.192
			c0.781,0,1.479,0.178,1.89,0.384l-0.369,1.438c-0.302-0.165-0.877-0.385-1.452-0.385c-0.507,0-0.794,0.206-0.794,0.548
			c0,0.315,0.26,0.48,1.083,0.768c1.272,0.437,1.807,1.081,1.821,2.068c0,1.247-0.987,2.165-2.904,2.165
			c-0.878,0-1.658-0.192-2.166-0.466L97.063,42.347z"/>
		<path fill="#585857" d="M108.652,42.018c0,0.878,0.028,1.589,0.056,2.15H106.9l-0.096-0.945h-0.043
			c-0.259,0.412-0.889,1.096-2.095,1.096c-1.355,0-2.356-0.849-2.356-2.917V37.47h2.096v3.603c0,0.973,0.316,1.561,1.041,1.561
			c0.576,0,0.904-0.396,1.041-0.726c0.056-0.123,0.07-0.287,0.07-0.452V37.47h2.095L108.652,42.018L108.652,42.018z"/>
		<rect x="109.639" y="34.443" fill="#585857" width="2.082" height="9.727"/>
		<path fill="#585857" d="M115.051,35.552v1.918h1.494v1.534h-1.494v2.425c0,0.808,0.191,1.178,0.822,1.178
			c0.26,0,0.466-0.026,0.616-0.054l0.014,1.575c-0.275,0.109-0.768,0.179-1.357,0.179c-0.671,0-1.233-0.233-1.561-0.575
			c-0.385-0.398-0.576-1.041-0.576-1.987v-2.74h-0.891v-1.534h0.891v-1.453L115.051,35.552z"/>
		<path fill="#585857" d="M120.871,44.169l-0.122-0.671h-0.041c-0.439,0.535-1.123,0.822-1.918,0.822
			c-1.357,0-2.165-0.986-2.165-2.055c0-1.739,1.562-2.575,3.932-2.561v-0.096c0-0.356-0.192-0.863-1.22-0.863
			c-0.685,0-1.41,0.233-1.849,0.507l-0.383-1.343c0.465-0.26,1.383-0.589,2.602-0.589c2.233,0,2.947,1.315,2.947,2.891v2.329
			c0,0.644,0.026,1.26,0.095,1.63L120.871,44.169L120.871,44.169z M120.625,41.005c-1.095-0.013-1.944,0.247-1.944,1.055
			c0,0.534,0.356,0.795,0.822,0.795c0.52,0,0.944-0.343,1.083-0.768c0.026-0.109,0.04-0.232,0.04-0.355L120.625,41.005
			L120.625,41.005z"/>
		<path fill="#585857" d="M130.105,34.443v7.727c0,0.753,0.027,1.548,0.055,1.999h-1.849l-0.097-0.986h-0.026
			c-0.425,0.753-1.233,1.137-2.096,1.137c-1.589,0-2.864-1.356-2.864-3.439c-0.013-2.26,1.399-3.562,3.001-3.562
			c0.822,0,1.465,0.288,1.767,0.754h0.028v-3.631L130.105,34.443L130.105,34.443z M128.024,40.306c0-0.11-0.015-0.261-0.028-0.37
			c-0.123-0.562-0.574-1.028-1.22-1.028c-0.945,0-1.438,0.849-1.438,1.904c0,1.137,0.562,1.85,1.426,1.85
			c0.602,0,1.081-0.412,1.205-1.001c0.04-0.15,0.056-0.301,0.056-0.479v-0.876H128.024z"/>
		<path fill="#585857" d="M137.709,40.744c0,2.452-1.739,3.576-3.534,3.576c-1.961,0-3.467-1.288-3.467-3.452
			s1.425-3.548,3.576-3.548C136.337,37.32,137.709,38.731,137.709,40.744 M132.859,40.813c0,1.151,0.479,2.013,1.369,2.013
			c0.809,0,1.33-0.808,1.33-2.013c0-1-0.384-2.014-1.33-2.014C133.228,38.799,132.859,39.827,132.859,40.813"/>
		<path fill="#585857" d="M138.298,42.347c0.383,0.233,1.177,0.507,1.795,0.507c0.631,0,0.89-0.219,0.89-0.561
			c0-0.343-0.205-0.507-0.987-0.767c-1.383-0.466-1.917-1.219-1.904-2.014c0-1.247,1.069-2.192,2.727-2.192
			c0.779,0,1.479,0.178,1.89,0.384l-0.369,1.438c-0.302-0.165-0.878-0.385-1.453-0.385c-0.507,0-0.794,0.206-0.794,0.548
			c0,0.315,0.26,0.48,1.082,0.768c1.273,0.437,1.807,1.081,1.822,2.068c0,1.247-0.987,2.165-2.904,2.165
			c-0.877,0-1.658-0.192-2.166-0.466L138.298,42.347z"/>
		<path fill="#585857" d="M6.713,72.327v-9.302H9.17l1.932,3.409c0.552,0.979,1.104,2.139,1.518,3.188h0.041
			c-0.137-1.228-0.18-2.484-0.18-3.877v-2.719h1.933v9.302h-2.209l-1.988-3.588c-0.552-0.994-1.159-2.195-1.613-3.285l-0.042,0.014
			c0.054,1.228,0.083,2.539,0.083,4.057v2.802L6.713,72.327L6.713,72.327z"/>
		<path fill="#585857" d="M17.683,63.701c0,0.581-0.441,1.049-1.131,1.049c-0.663,0-1.104-0.469-1.092-1.049
			c-0.012-0.607,0.429-1.062,1.105-1.062C17.242,62.639,17.67,63.095,17.683,63.701 M15.517,65.579h2.097v6.749h-2.097V65.579z"/>
		<path fill="#585857" d="M23.672,72.161c-0.373,0.166-1.077,0.304-1.878,0.304c-2.181,0-3.573-1.326-3.573-3.451
			c0-1.973,1.351-3.589,3.864-3.589c0.551,0,1.157,0.097,1.6,0.263l-0.331,1.559c-0.248-0.11-0.621-0.207-1.174-0.207
			c-1.104,0-1.821,0.786-1.808,1.891c0,1.241,0.829,1.891,1.85,1.891c0.497,0,0.883-0.083,1.201-0.207L23.672,72.161z"/>
		<path fill="#585857" d="M30.653,68.877c0,2.47-1.752,3.602-3.56,3.602c-1.974,0-3.491-1.297-3.491-3.477s1.435-3.575,3.602-3.575
			C29.274,65.426,30.653,66.848,30.653,68.877 M25.769,68.945c0,1.16,0.484,2.029,1.38,2.029c0.814,0,1.338-0.813,1.338-2.029
			c0-1.006-0.386-2.028-1.338-2.028C26.141,66.917,25.769,67.952,25.769,68.945"/>
		<rect x="31.259" y="62.528" fill="#585857" width="2.099" height="9.799"/>
		<path fill="#585857" d="M38.201,72.327l-0.124-0.677h-0.041c-0.44,0.538-1.131,0.829-1.932,0.829c-1.366,0-2.181-0.994-2.181-2.07
			c0-1.752,1.574-2.595,3.96-2.581v-0.096c0-0.359-0.192-0.87-1.227-0.87c-0.69,0-1.421,0.235-1.863,0.511l-0.386-1.352
			c0.469-0.263,1.394-0.594,2.622-0.594c2.249,0,2.966,1.326,2.966,2.912v2.347c0,0.648,0.028,1.27,0.096,1.642L38.201,72.327
			L38.201,72.327z M37.952,69.139c-1.104-0.014-1.959,0.248-1.959,1.062c0,0.538,0.36,0.801,0.828,0.801
			c0.524,0,0.952-0.345,1.09-0.773c0.028-0.11,0.041-0.235,0.041-0.359V69.139z M39.346,62.639l-1.684,2.097h-1.447l1.186-2.097
			H39.346z"/>
		<path fill="#585857" d="M40.947,70.492c0.386,0.234,1.186,0.511,1.807,0.511c0.634,0,0.898-0.221,0.898-0.566
			s-0.207-0.511-0.994-0.773c-1.395-0.469-1.933-1.228-1.918-2.029c0-1.256,1.076-2.207,2.745-2.207
			c0.787,0,1.492,0.179,1.906,0.386l-0.375,1.448c-0.303-0.165-0.883-0.386-1.462-0.386c-0.51,0-0.8,0.207-0.8,0.551
			c0,0.318,0.263,0.483,1.09,0.774c1.284,0.441,1.822,1.089,1.836,2.083c0,1.256-0.993,2.181-2.926,2.181
			c-0.883,0-1.669-0.193-2.18-0.469L40.947,70.492z"/>
		<path fill="#585857" d="M95.81,72.38v-0.614l0.785-0.762c1.887-1.797,2.739-2.751,2.751-3.865c0-0.751-0.364-1.444-1.465-1.444
			c-0.672,0-1.229,0.341-1.57,0.626l-0.318-0.705c0.512-0.433,1.238-0.751,2.09-0.751c1.593,0,2.264,1.091,2.264,2.149
			c0,1.363-0.99,2.466-2.548,3.967l-0.591,0.546v0.023h3.32v0.83C100.528,72.38,95.81,72.38,95.81,72.38z"/>
		<path fill="#585857" d="M105.987,68.605c0,2.513-0.934,3.899-2.57,3.899c-1.445,0-2.421-1.353-2.444-3.797
			c0-2.478,1.068-3.843,2.569-3.843C105.098,64.865,105.987,66.252,105.987,68.605 M101.972,68.719c0,1.922,0.592,3.013,1.501,3.013
			c1.023,0,1.511-1.194,1.511-3.082c0-1.819-0.465-3.012-1.5-3.012C102.608,65.638,101.972,66.706,101.972,68.719"/>
		<polygon fill="#585857" points="108.511,65.922 108.488,65.922 107.203,66.615 107.01,65.854 108.626,64.99 109.477,64.99 
			109.477,72.38 108.511,72.38 		"/>
		<path fill="#585857" d="M115.821,65.695c-0.204-0.012-0.466,0-0.751,0.045c-1.568,0.261-2.397,1.41-2.568,2.626h0.035
			c0.351-0.465,0.966-0.852,1.784-0.852c1.307,0,2.228,0.943,2.228,2.388c0,1.353-0.92,2.603-2.455,2.603
			c-1.579,0-2.614-1.228-2.614-3.149c0-1.454,0.523-2.603,1.251-3.331c0.615-0.602,1.432-0.978,2.365-1.091
			c0.296-0.046,0.546-0.057,0.727-0.057v0.818H115.821z M115.537,69.957c0-1.057-0.602-1.693-1.523-1.693
			c-0.602,0-1.159,0.376-1.432,0.91c-0.068,0.114-0.115,0.262-0.115,0.443c0.024,1.217,0.581,2.115,1.626,2.115
			C114.957,71.732,115.537,71.016,115.537,69.957"/>
		<rect x="118.541" y="68.935" fill="#585857" width="2.806" height="0.74"/>
		<path fill="#585857" d="M123.475,72.38v-0.614l0.785-0.762c1.887-1.797,2.74-2.751,2.751-3.865c0-0.751-0.363-1.444-1.466-1.444
			c-0.671,0-1.228,0.341-1.57,0.626l-0.318-0.705c0.512-0.433,1.24-0.751,2.091-0.751c1.593,0,2.263,1.091,2.263,2.149
			c0,1.363-0.989,2.466-2.547,3.967l-0.591,0.546v0.023h3.319v0.83C128.192,72.38,123.475,72.38,123.475,72.38z"/>
		<path fill="#585857" d="M133.652,68.605c0,2.513-0.933,3.899-2.569,3.899c-1.445,0-2.422-1.353-2.445-3.797
			c0-2.478,1.069-3.843,2.569-3.843C132.764,64.865,133.652,66.252,133.652,68.605 M129.638,68.719c0,1.922,0.592,3.013,1.501,3.013
			c1.022,0,1.511-1.194,1.511-3.082c0-1.819-0.465-3.012-1.5-3.012C130.275,65.638,129.638,66.706,129.638,68.719"/>
		<polygon fill="#585857" points="136.176,65.922 136.153,65.922 134.869,66.615 134.675,65.854 136.289,64.99 137.143,64.99 
			137.143,72.38 136.176,72.38 		"/>
		<path fill="#585857" d="M139.18,70.503c0-0.932,0.557-1.591,1.465-1.978l-0.01-0.034c-0.819-0.385-1.172-1.022-1.172-1.66
			c0-1.171,0.989-1.966,2.286-1.966c1.432,0,2.148,0.898,2.148,1.819c0,0.625-0.307,1.296-1.216,1.728v0.035
			c0.92,0.363,1.489,1.012,1.489,1.909c0,1.285-1.103,2.149-2.513,2.149C140.111,72.505,139.18,71.583,139.18,70.503
			 M143.159,70.458c0-0.898-0.627-1.33-1.626-1.614c-0.864,0.25-1.331,0.818-1.331,1.524c-0.034,0.75,0.535,1.409,1.479,1.409
			C142.578,71.777,143.159,71.22,143.159,70.458 M140.407,66.763c0,0.739,0.557,1.137,1.409,1.365
			c0.637-0.216,1.126-0.671,1.126-1.342c0-0.592-0.353-1.206-1.252-1.206C140.86,65.58,140.407,66.126,140.407,66.763"/>
		<path fill="#585857" d="M48.963,63.15c0.608-0.125,1.478-0.193,2.304-0.193c1.285,0,2.112,0.234,2.692,0.759
			c0.47,0.413,0.732,1.048,0.732,1.766c0,1.228-0.774,2.042-1.752,2.373v0.041c0.717,0.248,1.144,0.911,1.365,1.877
			c0.304,1.297,0.525,2.194,0.718,2.553H53.78c-0.152-0.262-0.359-1.062-0.621-2.222c-0.276-1.284-0.773-1.767-1.863-1.808h-1.131
			v4.03h-1.201L48.963,63.15L48.963,63.15z M50.164,67.386h1.229c1.282,0,2.097-0.704,2.097-1.766c0-1.201-0.87-1.725-2.139-1.739
			c-0.581,0-0.993,0.055-1.187,0.11V67.386z"/>
		<path fill="#585857" d="M61.756,68.932c0,2.47-1.712,3.547-3.327,3.547c-1.807,0-3.202-1.326-3.202-3.436
			c0-2.236,1.462-3.547,3.313-3.547C60.458,65.496,61.756,66.89,61.756,68.932 M56.457,69.001c0,1.462,0.841,2.567,2.028,2.567
			c1.159,0,2.028-1.091,2.028-2.595c0-1.131-0.566-2.566-2.001-2.566C57.078,66.407,56.457,67.732,56.457,69.001"/>
		<path fill="#585857" d="M62.596,67.455c0-0.689-0.014-1.256-0.056-1.807h1.063l0.056,1.077h0.04
			c0.375-0.635,0.994-1.228,2.099-1.228c0.911,0,1.6,0.552,1.891,1.338h0.027c0.207-0.373,0.471-0.662,0.745-0.87
			c0.401-0.304,0.841-0.469,1.476-0.469c0.884,0,2.195,0.579,2.195,2.898v3.933h-1.186v-3.781c0-1.284-0.47-2.056-1.449-2.056
			c-0.691,0-1.229,0.511-1.435,1.104c-0.056,0.166-0.097,0.386-0.097,0.608v4.126h-1.187v-4.002c0-1.063-0.47-1.836-1.394-1.836
			c-0.759,0-1.31,0.608-1.504,1.214c-0.07,0.18-0.098,0.386-0.098,0.594v4.03h-1.186L62.596,67.455L62.596,67.455z"/>
		<path fill="#585857" d="M74.09,69.208c0.027,1.642,1.077,2.318,2.292,2.318c0.869,0,1.393-0.152,1.848-0.345l0.208,0.869
			c-0.428,0.193-1.16,0.414-2.223,0.414c-2.055,0-3.283-1.352-3.283-3.367s1.186-3.602,3.132-3.602c2.182,0,2.76,1.919,2.76,3.148
			c0,0.248-0.027,0.441-0.042,0.565L74.09,69.208L74.09,69.208z M77.65,68.338c0.014-0.772-0.316-1.973-1.683-1.973
			c-1.229,0-1.766,1.131-1.863,1.973H77.65z"/>
		<path fill="#585857" d="M79.637,67.732c0-0.787-0.014-1.463-0.056-2.084h1.063l0.04,1.311h0.056
			c0.303-0.897,1.035-1.463,1.849-1.463c0.138,0,0.234,0.013,0.345,0.041v1.146c-0.124-0.029-0.248-0.041-0.414-0.041
			c-0.856,0-1.462,0.648-1.628,1.559c-0.028,0.165-0.056,0.358-0.056,0.565v3.561h-1.2L79.637,67.732L79.637,67.732z"/>
		<path fill="#585857" d="M89.365,68.932c0,2.47-1.711,3.547-3.326,3.547c-1.807,0-3.202-1.326-3.202-3.436
			c0-2.236,1.463-3.547,3.313-3.547C88.068,65.496,89.365,66.89,89.365,68.932 M84.067,69.001c0,1.462,0.841,2.567,2.029,2.567
			c1.158,0,2.027-1.091,2.027-2.595c0-1.131-0.566-2.566-2-2.566C84.688,66.407,84.067,67.732,84.067,69.001"/>
		<polygon fill="#C7C7C7" points="6.859,8.612 17.288,8.612 30.896,28.607 30.896,8.612 41.423,8.612 41.423,44.754 30.896,44.754 
			17.362,24.909 17.362,44.754 6.859,44.754 		"/>
		<path fill="#C6C6C6" d="M30.922,44.754V8.612h18.613c3.451,0,6.09,0.295,7.914,0.887s3.295,1.69,4.413,3.291
			c1.117,1.603,1.677,3.555,1.677,5.855c0,2.006-0.427,3.735-1.284,5.191c-0.855,1.454-2.031,2.633-3.527,3.537
			c-0.952,0.575-2.261,1.052-3.922,1.43c1.33,0.445,2.299,0.888,2.907,1.333c0.41,0.296,1.005,0.929,1.786,1.9
			c0.779,0.97,1.302,1.719,1.564,2.245l5.409,10.473H53.853l-5.969-11.045c-0.756-1.43-1.43-2.358-2.022-2.787
			c-0.805-0.558-1.717-0.838-2.736-0.838H42.14v14.669H30.922V44.754z M42.139,23.256h4.709c0.508,0,1.495-0.165,2.958-0.494
			c0.74-0.148,1.344-0.526,1.813-1.134c0.469-0.608,0.702-1.307,0.702-2.095c0-1.167-0.369-2.062-1.109-2.688
			c-0.74-0.624-2.129-0.936-4.167-0.936h-4.906V23.256z"/>
	</g>
	<g>
		<g>
			<defs>
				<path id="SVGID_1_" d="M22.358,10.518c-0.141,1.194-0.425,2.637-0.917,4.195c-0.488,1.556-1.171,3.192-2.005,4.759
					c-0.824,1.533-1.713,2.844-2.579,3.855c-0.839,0.985-1.649,1.678-2.336,2.13c-1.319,0.865-2.177,0.875-2.174,0.903
					c0.005-0.003,0.169,0.172,0.512,0.376c0.353,0.204,0.901,0.443,1.66,0.422c0.791-0.019,1.826-0.33,3.007-1.225
					c1.233-0.924,2.617-2.498,3.786-4.625c1.21-2.175,1.994-4.572,2.347-6.627c0.358-2.047,0.296-3.702,0.069-4.893
					c-0.22-1.166-0.59-1.901-0.871-2.352c-0.276-0.436-0.47-0.613-0.47-0.619C22.364,6.823,22.633,8.154,22.358,10.518"/>
			</defs>
			<clipPath id="SVGID_2_">
				<use xlink:href="#SVGID_1_"  overflow="visible"/>
			</clipPath>
			
				<radialGradient id="SVGID_3_" cx="-399.4817" cy="-149.967" r="0.507" gradientTransform="matrix(-71.653 0 0 71.653 -28612.8789 10762.582)" gradientUnits="userSpaceOnUse">
				<stop  offset="0" style="stop-color:#CE1417"/>
				<stop  offset="1" style="stop-color:#421C16"/>
			</radialGradient>
			<rect x="12.346" y="6.817" clip-path="url(#SVGID_2_)" fill="url(#SVGID_3_)" width="11.673" height="20.363"/>
		</g>
	</g>
	<g>
		<g>
			<defs>
				<path id="SVGID_4_" d="M34.234,2.528c-1.827,0.303-3.669,1.944-4.235,3.686c-0.558,1.738,0.31,3.096,2.051,3.034
					c1.871-0.07,4.022-1.732,4.672-3.718c0.585-1.79-0.307-3.05-1.922-3.05C34.62,2.48,34.43,2.496,34.234,2.528"/>
			</defs>
			<clipPath id="SVGID_5_">
				<use xlink:href="#SVGID_4_"  overflow="visible"/>
			</clipPath>
			
				<radialGradient id="SVGID_6_" cx="-388.9632" cy="-146.1814" r="0.5077" gradientTransform="matrix(41.3038 0 0 41.3038 16092.416 6036.1177)" gradientUnits="userSpaceOnUse">
				<stop  offset="0" style="stop-color:#81BB27"/>
				<stop  offset="0.4177" style="stop-color:#4C872D"/>
				<stop  offset="0.798" style="stop-color:#2B652A"/>
				<stop  offset="1" style="stop-color:#1F5929"/>
			</radialGradient>
			<rect x="29.441" y="2.48" clip-path="url(#SVGID_5_)" fill="url(#SVGID_6_)" width="7.866" height="6.83"/>
		</g>
	</g>
	<g>
		<g>
			<defs>
				<path id="SVGID_7_" d="M42.666,6.664c-1.737,1.177-3.702,2.273-5.694,3.017c-1.865,0.703-3.724,1.083-5.422,1.101
					c-1.584,0.001-2.901-0.32-3.911-0.871c-0.962-0.519-1.661-1.253-2.135-2.001c-0.907-1.436-1.056-2.938-1.078-2.901
					c0.002,0.003-0.109,0.475-0.214,1.283c-0.101,0.807-0.191,1.964-0.05,3.211c0.141,1.274,0.543,2.676,1.412,3.819
					c0.905,1.208,2.385,2.16,4.389,2.344c2.182,0.229,4.728-0.475,7.092-1.727c2.569-1.35,4.841-3.265,6.619-5.149
					c1.862-1.972,3.139-3.84,3.959-5.165c0.831-1.351,1.186-2.124,1.2-2.13l0,0C48.776,1.495,46.386,4.134,42.666,6.664"/>
			</defs>
			<clipPath id="SVGID_8_">
				<use xlink:href="#SVGID_7_"  overflow="visible"/>
			</clipPath>
			
				<radialGradient id="SVGID_9_" cx="-389.1814" cy="-146.4925" r="0.5079" gradientTransform="matrix(41.3038 0 0 41.3038 16110.7285 6062.2632)" gradientUnits="userSpaceOnUse">
				<stop  offset="0" style="stop-color:#81BB27"/>
				<stop  offset="0.4177" style="stop-color:#4C872D"/>
				<stop  offset="0.798" style="stop-color:#2B652A"/>
				<stop  offset="1" style="stop-color:#1F5929"/>
			</radialGradient>
			<rect x="24.02" y="1.495" clip-path="url(#SVGID_8_)" fill="url(#SVGID_9_)" width="24.812" height="14.4"/>
		</g>
	</g>
	<g>
		<g>
			<defs>
				<path id="SVGID_10_" d="M48.686,18.4c-2.702,0.488-4.798,3.305-4.863,6.403c-0.062,3.179,2.023,5.794,4.865,5.764
					c3.082-0.035,5.71-3.12,5.623-6.787c-0.078-3.223-2.232-5.452-4.812-5.452C49.232,18.327,48.96,18.351,48.686,18.4"/>
			</defs>
			<clipPath id="SVGID_11_">
				<use xlink:href="#SVGID_10_"  overflow="visible"/>
			</clipPath>
			
				<radialGradient id="SVGID_12_" cx="-397.7809" cy="-151.5681" r="0.5057" gradientTransform="matrix(-108.1923 0 0 108.1923 -42985.7617 16423.3887)" gradientUnits="userSpaceOnUse">
				<stop  offset="0" style="stop-color:#CE1417"/>
				<stop  offset="1" style="stop-color:#421C16"/>
			</radialGradient>
			<rect x="43.761" y="18.327" clip-path="url(#SVGID_11_)" fill="url(#SVGID_12_)" width="10.636" height="12.27"/>
		</g>
	</g>
	<g>
		<g>
			<defs>
				<path id="SVGID_13_" d="M49.617,5.422c-1.444,0.883-3.419,2.208-5.44,4.078c-1.918,1.773-3.891,4.07-5.394,6.827
					c-1.466,2.671-2.528,5.898-2.69,9.229c-0.195,3.429,0.568,6.752,1.878,9.518c1.403,2.996,3.446,5.433,5.539,7.289
					c2.273,2.018,4.572,3.354,6.285,4.228c1.818,0.918,2.915,1.293,2.921,1.31c0.082-0.022-3.416-2.878-6.431-7.508
					c-1.37-2.113-2.609-4.583-3.407-7.253c-0.768-2.545-1.144-5.312-1.075-8.141c0.092-2.765,0.604-5.428,1.453-7.851
					c0.844-2.432,2.044-4.676,3.313-6.577c2.637-3.951,5.535-6.498,5.468-6.501C52.03,4.084,51.128,4.507,49.617,5.422"/>
			</defs>
			<clipPath id="SVGID_14_">
				<use xlink:href="#SVGID_13_"  overflow="visible"/>
			</clipPath>
			
				<radialGradient id="SVGID_15_" cx="-397.7243" cy="-151.5632" r="0.5075" gradientTransform="matrix(-108.1923 0 0 108.1923 -42973.2617 16422.4512)" gradientUnits="userSpaceOnUse">
				<stop  offset="0" style="stop-color:#CE1417"/>
				<stop  offset="1" style="stop-color:#421C16"/>
			</radialGradient>
			<rect x="35.898" y="4.07" clip-path="url(#SVGID_14_)" fill="url(#SVGID_15_)" width="16.9" height="43.83"/>
		</g>
	</g>
	<g>
		<g>
			<defs>
				<path id="SVGID_16_" d="M19.579,34.934c-0.919,2.279-0.196,4.977,1.776,6.022c2.129,1.121,4.732-0.153,5.632-2.829
					c0.861-2.569-0.282-5.2-2.379-5.927c-0.366-0.126-0.742-0.186-1.112-0.186C21.88,32.014,20.302,33.147,19.579,34.934"/>
			</defs>
			<clipPath id="SVGID_17_">
				<use xlink:href="#SVGID_16_"  overflow="visible"/>
			</clipPath>
			
				<radialGradient id="SVGID_18_" cx="-388.8798" cy="-147.0845" r="0.5072" gradientTransform="matrix(41.3038 0 0 41.3038 16085.4463 6111.8267)" gradientUnits="userSpaceOnUse">
				<stop  offset="0" style="stop-color:#81BB27"/>
				<stop  offset="0.4177" style="stop-color:#4C872D"/>
				<stop  offset="0.798" style="stop-color:#2B652A"/>
				<stop  offset="1" style="stop-color:#1F5929"/>
			</radialGradient>
			<rect x="18.66" y="32.014" clip-path="url(#SVGID_17_)" fill="url(#SVGID_18_)" width="9.188" height="10.063"/>
		</g>
	</g>
	<g>
		<g>
			<defs>
				<path id="SVGID_19_" d="M20.657,25.656c-1.952,0.866-3.642,2.189-4.966,3.5c-1.328,1.318-2.325,2.651-2.989,3.611
					c-0.671,0.978-1.007,1.578-1.015,1.58c-0.008,0.05,1.656-1.652,4.107-2.957c1.25-0.665,2.725-1.227,4.296-1.452
					c1.635-0.243,3.406-0.127,5.205,0.419c1.905,0.601,3.709,1.654,5.282,3.066c1.698,1.515,3.131,3.443,4.258,5.427
					c2.516,4.433,3.431,8.733,3.481,8.668c-0.01-0.014,0.129-1.16,0.118-3.202c-0.019-1.952-0.179-4.663-0.924-7.601
					c-0.684-2.713-1.867-5.538-3.729-7.798c-1.675-2.05-3.907-3.59-6.43-4.097c-0.666-0.142-1.335-0.207-1.999-0.207
					C23.701,24.613,22.086,25.016,20.657,25.656"/>
			</defs>
			<clipPath id="SVGID_20_">
				<use xlink:href="#SVGID_19_"  overflow="visible"/>
			</clipPath>
			
				<radialGradient id="SVGID_21_" cx="-388.9228" cy="-147.1214" r="0.5074" gradientTransform="matrix(41.3038 0 0 41.3038 16089.0508 6114.9614)" gradientUnits="userSpaceOnUse">
				<stop  offset="0" style="stop-color:#81BB27"/>
				<stop  offset="0.4177" style="stop-color:#4C872D"/>
				<stop  offset="0.798" style="stop-color:#2B652A"/>
				<stop  offset="1" style="stop-color:#1F5929"/>
			</radialGradient>
			<rect x="11.678" y="24.613" clip-path="url(#SVGID_20_)" fill="url(#SVGID_21_)" width="26.766" height="22.97"/>
		</g>
	</g>
	<g>
		<g>
			<defs>
				<path id="SVGID_22_" d="M16.738,16.832c-0.791,1.548-0.996,3.266-0.454,3.883c0.567,0.644,1.735-0.126,2.611-1.773
					c0.89-1.681,1.077-3.522,0.425-4.066c-0.12-0.1-0.262-0.147-0.414-0.147C18.263,14.73,17.388,15.558,16.738,16.832"/>
			</defs>
			<clipPath id="SVGID_23_">
				<use xlink:href="#SVGID_22_"  overflow="visible"/>
			</clipPath>
			
				<radialGradient id="SVGID_24_" cx="-399.5283" cy="-149.8528" r="0.5069" gradientTransform="matrix(-71.653 0 0 71.653 -28619.6914 10746.0195)" gradientUnits="userSpaceOnUse">
				<stop  offset="0" style="stop-color:#CE1417"/>
				<stop  offset="1" style="stop-color:#421C16"/>
			</radialGradient>
			<rect x="15.742" y="14.729" clip-path="url(#SVGID_23_)" fill="url(#SVGID_24_)" width="4.229" height="6.629"/>
		</g>
	</g>
	<g>
		<g>
			<defs>
				<polygon id="SVGID_25_" points="4.788,55.086 69.979,56.105 69.979,54.068 				"/>
			</defs>
			<clipPath id="SVGID_26_">
				<use xlink:href="#SVGID_25_"  overflow="visible"/>
			</clipPath>
			
				<radialGradient id="SVGID_27_" cx="-398.0977" cy="-158.2914" r="0.5074" gradientTransform="matrix(-104.7332 -3.7278 2.6159 -73.4946 -41244.7813 -13062.9121)" gradientUnits="userSpaceOnUse">
				<stop  offset="0" style="stop-color:#81BB27"/>
				<stop  offset="0.4177" style="stop-color:#4C872D"/>
				<stop  offset="0.798" style="stop-color:#2B652A"/>
				<stop  offset="1" style="stop-color:#1F5929"/>
			</radialGradient>
			<polygon clip-path="url(#SVGID_26_)" fill="url(#SVGID_27_)" points="69.896,58.423 4.715,56.103 4.871,51.751 70.052,54.071 			
				"/>
		</g>
	</g>
	<g>
		<g>
			<defs>
				<polygon id="SVGID_28_" points="80.02,56.105 145.212,55.086 80.02,54.068 				"/>
			</defs>
			<clipPath id="SVGID_29_">
				<use xlink:href="#SVGID_28_"  overflow="visible"/>
			</clipPath>
			
				<radialGradient id="SVGID_30_" cx="-396.6948" cy="-152.6802" r="0.5073" gradientTransform="matrix(-158.3453 0 0 158.3453 -62704.0195 24231.3457)" gradientUnits="userSpaceOnUse">
				<stop  offset="0" style="stop-color:#CE1417"/>
				<stop  offset="1" style="stop-color:#421C16"/>
			</radialGradient>
			<rect x="80.02" y="54.068" clip-path="url(#SVGID_29_)" fill="url(#SVGID_30_)" width="65.192" height="2.037"/>
		</g>
	</g>
</g>
<g>
	<path fill="#585857" d="M81.228,16.117c-0.507,0.182-1.508,0.481-2.691,0.481c-1.326,0-2.418-0.338-3.276-1.157
		c-0.754-0.728-1.222-1.898-1.222-3.263c0.013-2.613,1.808-4.524,4.745-4.524c1.015,0,1.808,0.221,2.185,0.403l-0.273,0.923
		c-0.468-0.208-1.053-0.377-1.937-0.377c-2.133,0-3.523,1.326-3.523,3.523c0,2.223,1.339,3.536,3.38,3.536
		c0.741,0,1.248-0.104,1.508-0.234v-2.613h-1.78v-0.91h2.886V16.117z"/>
	<path fill="#585857" d="M83.619,13.569c0.026,1.547,1.015,2.184,2.158,2.184c0.819,0,1.313-0.143,1.742-0.325l0.195,0.819
		c-0.403,0.182-1.093,0.39-2.094,0.39c-1.937,0-3.094-1.274-3.094-3.172c0-1.898,1.118-3.393,2.951-3.393
		c2.054,0,2.6,1.807,2.6,2.964c0,0.234-0.025,0.416-0.039,0.533H83.619z M86.974,12.75c0.013-0.728-0.299-1.859-1.586-1.859
		c-1.157,0-1.664,1.066-1.756,1.859H86.974z"/>
	<path fill="#585857" d="M89.495,11.917c0-0.65-0.014-1.183-0.052-1.703h1.014l0.065,1.04h0.025c0.313-0.598,1.04-1.183,2.08-1.183
		c0.871,0,2.224,0.52,2.224,2.678v3.757h-1.145V12.88c0-1.014-0.377-1.859-1.456-1.859c-0.754,0-1.339,0.533-1.534,1.17
		c-0.052,0.143-0.078,0.338-0.078,0.533v3.783h-1.144V11.917z"/>
	<path fill="#585857" d="M98.036,8.408v1.807h1.638v0.871h-1.638v3.393c0,0.78,0.221,1.222,0.858,1.222
		c0.299,0,0.52-0.039,0.663-0.078l0.052,0.858c-0.222,0.091-0.572,0.156-1.015,0.156c-0.532,0-0.962-0.169-1.234-0.481
		c-0.325-0.338-0.442-0.897-0.442-1.638v-3.432h-0.975v-0.871h0.975V8.707L98.036,8.408z"/>
	<path fill="#585857" d="M101.52,13.569c0.026,1.547,1.015,2.184,2.158,2.184c0.819,0,1.313-0.143,1.742-0.325l0.195,0.819
		c-0.403,0.182-1.093,0.39-2.094,0.39c-1.937,0-3.094-1.274-3.094-3.172c0-1.898,1.118-3.393,2.951-3.393
		c2.054,0,2.6,1.807,2.6,2.964c0,0.234-0.025,0.416-0.039,0.533H101.52z M104.874,12.75c0.013-0.728-0.299-1.859-1.586-1.859
		c-1.157,0-1.664,1.066-1.756,1.859H104.874z"/>
</g>
</svg>
