<?xml version="1.0" encoding="UTF-8" standalone="no"?>
<!-- Created with Inkscape (http://www.inkscape.org/) -->

<svg
   xmlns:dc="http://purl.org/dc/elements/1.1/"
   xmlns:cc="http://creativecommons.org/ns#"
   xmlns:rdf="http://www.w3.org/1999/02/22-rdf-syntax-ns#"
   xmlns:svg="http://www.w3.org/2000/svg"
   xmlns="http://www.w3.org/2000/svg"
   xmlns:sodipodi="http://sodipodi.sourceforge.net/DTD/sodipodi-0.dtd"
   xmlns:inkscape="http://www.inkscape.org/namespaces/inkscape"
   width="812"
   height="100"
   viewBox="0 0 214.84167 26.458333"
   version="1.1"
   id="svg8"
   inkscape:version="0.92.0 r15299"
   sodipodi:docname="estadoCuenta.svg">
  <defs
     id="defs2" />
  <sodipodi:namedview
     id="base"
     pagecolor="#ffffff"
     bordercolor="#666666"
     borderopacity="1.0"
     inkscape:pageopacity="0.0"
     inkscape:pageshadow="2"
     inkscape:zoom="1"
     inkscape:cx="347.25641"
     inkscape:cy="59.487179"
     inkscape:document-units="mm"
     inkscape:current-layer="g902"
     showgrid="false"
     units="px"
     inkscape:window-width="1024"
     inkscape:window-height="572"
     inkscape:window-x="0"
     inkscape:window-y="0"
     inkscape:window-maximized="1"
     showguides="true"
     inkscape:guide-bbox="true" />
  <metadata
     id="metadata5">
    <rdf:RDF>
      <cc:Work
         rdf:about="">
        <dc:format>image/svg+xml</dc:format>
        <dc:type
           rdf:resource="http://purl.org/dc/dcmitype/StillImage" />
        <dc:title></dc:title>
      </cc:Work>
    </rdf:RDF>
  </metadata>
  <g
     inkscape:label="Capa 1"
     inkscape:groupmode="layer"
     id="layer1"
     transform="translate(0,-270.54167)">
    <g
       id="g68"
       transform="translate(-38.127149,-3.7630389)">
      <g
         id="g902">
        <g
           id="g59"
           transform="translate(0.25123376,0.39021013)" />
        <g
           id="g1219">
          <g
             id="text12"
             style="font-style:normal;font-weight:normal;font-size:10.58333302px;line-height:6.61458302px;font-family:sans-serif;letter-spacing:0px;word-spacing:0px;fill:#b3b3b3;fill-opacity:1;stroke:none;stroke-width:0.26458332"
             aria-label="ESTADO DE CUENTA"
             transform="translate(0.25123256,0.39020934)">
            <path
               id="path1017"
               style="font-style:normal;font-variant:normal;font-weight:500;font-stretch:normal;font-family:Gotham;-inkscape-font-specification:'Gotham Medium';fill:#b3b3b3;stroke-width:0.26458332"
               d="m 52.150285,287.47501 h 6.371166 v -2.032 h -3.936999 v -0.80434 h 3.619499 v -1.78858 h -3.619499 v -0.75142 h 3.884083 v -2.032 h -6.31825 z" />
            <path
               id="path1019"
               style="font-style:normal;font-variant:normal;font-weight:500;font-stretch:normal;font-family:Gotham;-inkscape-font-specification:'Gotham Medium';fill:#b3b3b3;stroke-width:0.26458332"
               d="m 62.363863,287.61259 c 1.989666,0 3.27025,-0.9525 3.27025,-2.50825 v -0.0212 c 0,-1.49225 -1.27,-2.04258 -3.164417,-2.39183 -0.783167,-0.14817 -0.98425,-0.27517 -0.98425,-0.47625 v -0.0212 c 0,-0.17991 0.169333,-0.30691 0.53975,-0.30691 0.687917,0 1.524,0.22225 2.2225,0.73025 l 1.2065,-1.67217 c -0.85725,-0.67733 -1.915583,-1.016 -3.344333,-1.016 -2.042583,0 -3.14325,1.09008 -3.14325,2.49767 v 0.0212 c 0,1.56634 1.4605,2.04259 3.122083,2.38125 0.79375,0.15875 1.026583,0.27517 1.026583,0.48684 v 0.0212 c 0,0.20109 -0.1905,0.3175 -0.635,0.3175 -0.867833,0 -1.788583,-0.254 -2.592916,-0.86783 l -1.322917,1.57692 c 0.941917,0.8255 2.296584,1.24883 3.799417,1.24883 z" />
            <path
               id="path1021"
               style="font-style:normal;font-variant:normal;font-weight:500;font-stretch:normal;font-family:Gotham;-inkscape-font-specification:'Gotham Medium';fill:#b3b3b3;stroke-width:0.26458332"
               d="m 67.831973,287.47501 h 2.4765 v -5.31284 h 2.180167 v -2.0955 h -6.836834 v 2.0955 h 2.180167 z" />
            <path
               id="path1023"
               style="font-style:normal;font-variant:normal;font-weight:500;font-stretch:normal;font-family:Gotham;-inkscape-font-specification:'Gotham Medium';fill:#b3b3b3;stroke-width:0.26458332"
               d="m 71.557637,287.47501 h 2.645833 l 0.381,-0.99484 h 2.592916 l 0.391584,0.99484 h 2.688166 l -3.122083,-7.46125 H 74.67972 Z m 3.651249,-2.75167 0.677334,-1.79917 0.677333,1.79917 z" />
            <path
               id="path1025"
               style="font-style:normal;font-variant:normal;font-weight:500;font-stretch:normal;font-family:Gotham;-inkscape-font-specification:'Gotham Medium';fill:#b3b3b3;stroke-width:0.26458332"
               d="m 80.572322,287.47501 h 2.751667 c 2.995083,0 4.497916,-1.55575 4.497916,-3.7465 v -0.0212 c 0,-2.19075 -1.471083,-3.64067 -4.41325,-3.64067 h -2.836333 z m 2.4765,-2.159 v -3.09034 h 0.41275 c 1.132417,0 1.862667,0.46567 1.862667,1.53459 v 0.0212 c 0,1.06892 -0.73025,1.53459 -1.862667,1.53459 z" />
            <path
               id="path1027"
               style="font-style:normal;font-variant:normal;font-weight:500;font-stretch:normal;font-family:Gotham;-inkscape-font-specification:'Gotham Medium';fill:#b3b3b3;stroke-width:0.26458332"
               d="m 92.352069,287.63376 c 2.286,0 4.053416,-1.7145 4.053416,-3.86292 v -0.0212 c 0,-2.14841 -1.74625,-3.84175 -4.03225,-3.84175 -2.286,0 -4.053416,1.7145 -4.053416,3.86292 v 0.0212 c 0,2.14841 1.74625,3.84175 4.03225,3.84175 z m 0.02117,-2.19075 c -0.9525,0 -1.55575,-0.79375 -1.55575,-1.67217 v -0.0212 c 0,-0.86783 0.592667,-1.651 1.534584,-1.651 0.9525,0 1.55575,0.79375 1.55575,1.67217 v 0.0212 c 0,0.86783 -0.592667,1.651 -1.534584,1.651 z" />
            <path
               id="path1029"
               style="font-style:normal;font-variant:normal;font-weight:500;font-stretch:normal;font-family:Gotham;-inkscape-font-specification:'Gotham Medium';fill:#b3b3b3;stroke-width:0.26458332"
               d="m 99.775285,287.47501 h 2.751665 c 2.99508,0 4.49792,-1.55575 4.49792,-3.7465 v -0.0212 c 0,-2.19075 -1.47109,-3.64067 -4.41325,-3.64067 h -2.836335 z m 2.476495,-2.159 v -3.09034 h 0.41275 c 1.13242,0 1.86267,0.46567 1.86267,1.53459 v 0.0212 c 0,1.06892 -0.73025,1.53459 -1.86267,1.53459 z" />
            <path
               id="path1031"
               style="font-style:normal;font-variant:normal;font-weight:500;font-stretch:normal;font-family:Gotham;-inkscape-font-specification:'Gotham Medium';fill:#b3b3b3;stroke-width:0.26458332"
               d="m 107.69211,287.47501 h 6.37117 v -2.032 h -3.937 v -0.80434 h 3.6195 v -1.78858 h -3.6195 v -0.75142 h 3.88408 v -2.032 h -6.31825 z" />
            <path
               id="path1033"
               style="font-style:normal;font-variant:normal;font-weight:500;font-stretch:normal;font-family:Gotham;-inkscape-font-specification:'Gotham Medium';fill:#b3b3b3;stroke-width:0.26458332"
               d="m 121.0797,287.63376 c 1.8415,0 2.87866,-0.89959 3.50308,-2.00025 l -2.04258,-1.15359 c -0.30692,0.55034 -0.6985,0.93134 -1.397,0.93134 -0.81492,0 -1.38642,-0.67734 -1.38642,-1.64042 v -0.0212 c 0,-0.889 0.55033,-1.61925 1.38642,-1.61925 0.67733,0 1.06891,0.37042 1.34408,0.89959 l 2.04258,-1.19592 c -0.62441,-1.13242 -1.72508,-1.92617 -3.35491,-1.92617 -2.21192,0 -3.937,1.651 -3.937,3.86292 v 0.0212 c 0,2.29658 1.78858,3.84175 3.84175,3.84175 z" />
            <path
               id="path1035"
               style="font-style:normal;font-variant:normal;font-weight:500;font-stretch:normal;font-family:Gotham;-inkscape-font-specification:'Gotham Medium';fill:#b3b3b3;stroke-width:0.26458332"
               d="m 128.63256,287.62317 c 2.21191,0 3.683,-0.99483 3.683,-3.52425 v -4.03225 h -2.51884 v 4.10634 c 0,0.89958 -0.47625,1.25941 -1.143,1.25941 -0.66675,0 -1.143,-0.39158 -1.143,-1.31233 v -4.05342 h -2.51883 v 4.08517 c 0,2.45533 1.42875,3.47133 3.64067,3.47133 z" />
            <path
               id="path1037"
               style="font-style:normal;font-variant:normal;font-weight:500;font-stretch:normal;font-family:Gotham;-inkscape-font-specification:'Gotham Medium';fill:#b3b3b3;stroke-width:0.26458332"
               d="m 133.09625,287.47501 h 6.37116 v -2.032 h -3.937 v -0.80434 h 3.6195 v -1.78858 h -3.6195 v -0.75142 h 3.88409 v -2.032 h -6.31825 z" />
            <path
               id="path1039"
               style="font-style:normal;font-variant:normal;font-weight:500;font-stretch:normal;font-family:Gotham;-inkscape-font-specification:'Gotham Medium';fill:#b3b3b3;stroke-width:0.26458332"
               d="m 140.12424,287.47501 h 2.45533 v -3.41842 l 2.75167,3.41842 h 2.20133 v -7.40834 h -2.45533 v 3.27025 l -2.63525,-3.27025 h -2.31775 z" />
            <path
               id="path1041"
               style="font-style:normal;font-variant:normal;font-weight:500;font-stretch:normal;font-family:Gotham;-inkscape-font-specification:'Gotham Medium';fill:#b3b3b3;stroke-width:0.26458332"
               d="m 150.26621,287.47501 h 2.4765 v -5.31284 h 2.18017 v -2.0955 h -6.83683 v 2.0955 h 2.18016 z" />
            <path
               id="path1043"
               style="font-style:normal;font-variant:normal;font-weight:500;font-stretch:normal;font-family:Gotham;-inkscape-font-specification:'Gotham Medium';fill:#b3b3b3;stroke-width:0.26458332"
               d="m 153.99188,287.47501 h 2.64584 l 0.381,-0.99484 h 2.59291 l 0.39159,0.99484 h 2.68816 l -3.12208,-7.46125 h -2.45533 z m 3.65125,-2.75167 0.67734,-1.79917 0.67733,1.79917 z" />
          </g>
          <g
             id="text12-3"
             style="font-style:normal;font-weight:normal;font-size:10.58333302px;line-height:6.61458349px;font-family:sans-serif;letter-spacing:0px;word-spacing:0px;fill:#000000;fill-opacity:1;stroke:none;stroke-width:0.26458332"
             aria-label="ESTADO DE CUENTA"
             transform="translate(0.25123256,0.39020934)">
            <path
               id="path1046"
               style="font-style:normal;font-variant:normal;font-weight:500;font-stretch:normal;font-family:Gotham;-inkscape-font-specification:'Gotham Medium';fill:#000000;stroke-width:0.26458332"
               d="m 51.647817,286.69458 h 6.371166 v -2.032 h -3.937 v -0.80433 h 3.6195 v -1.78859 h -3.6195 v -0.75141 h 3.884084 v -2.032 h -6.31825 z" />
            <path
               id="path1048"
               style="font-style:normal;font-variant:normal;font-weight:500;font-stretch:normal;font-family:Gotham;-inkscape-font-specification:'Gotham Medium';fill:#000000;stroke-width:0.26458332"
               d="m 61.861395,286.83216 c 1.989666,0 3.27025,-0.9525 3.27025,-2.50825 v -0.0212 c 0,-1.49225 -1.27,-2.04259 -3.164417,-2.39184 -0.783167,-0.14816 -0.98425,-0.27516 -0.98425,-0.47625 v -0.0212 c 0,-0.17992 0.169333,-0.30692 0.53975,-0.30692 0.687917,0 1.524,0.22225 2.2225,0.73025 l 1.2065,-1.67217 c -0.85725,-0.67733 -1.915583,-1.016 -3.344333,-1.016 -2.042584,0 -3.14325,1.09009 -3.14325,2.49767 v 0.0212 c 0,1.56633 1.4605,2.04258 3.122083,2.38125 0.79375,0.15875 1.026583,0.27516 1.026583,0.48683 v 0.0212 c 0,0.20108 -0.1905,0.3175 -0.635,0.3175 -0.867833,0 -1.788583,-0.254 -2.592916,-0.86784 l -1.322917,1.57692 c 0.941917,0.8255 2.296583,1.24883 3.799417,1.24883 z" />
            <path
               id="path1050"
               style="font-style:normal;font-variant:normal;font-weight:500;font-stretch:normal;font-family:Gotham;-inkscape-font-specification:'Gotham Medium';fill:#000000;stroke-width:0.26458332"
               d="m 67.329505,286.69458 h 2.4765 v -5.31283 h 2.180166 v -2.0955 h -6.836833 v 2.0955 h 2.180167 z" />
            <path
               id="path1052"
               style="font-style:normal;font-variant:normal;font-weight:500;font-stretch:normal;font-family:Gotham;-inkscape-font-specification:'Gotham Medium';fill:#000000;stroke-width:0.26458332"
               d="m 71.055168,286.69458 h 2.645834 l 0.381,-0.99483 h 2.592916 l 0.391584,0.99483 h 2.688166 l -3.122083,-7.46125 h -2.455333 z m 3.65125,-2.75167 0.677334,-1.79916 0.677333,1.79916 z" />
            <path
               id="path1054"
               style="font-style:normal;font-variant:normal;font-weight:500;font-stretch:normal;font-family:Gotham;-inkscape-font-specification:'Gotham Medium';fill:#000000;stroke-width:0.26458332"
               d="m 80.069854,286.69458 h 2.751667 c 2.995083,0 4.497916,-1.55575 4.497916,-3.7465 v -0.0212 c 0,-2.19075 -1.471083,-3.64066 -4.41325,-3.64066 h -2.836333 z m 2.4765,-2.159 v -3.09033 h 0.41275 c 1.132416,0 1.862666,0.46566 1.862666,1.53458 v 0.0212 c 0,1.06891 -0.73025,1.53458 -1.862666,1.53458 z" />
            <path
               id="path1056"
               style="font-style:normal;font-variant:normal;font-weight:500;font-stretch:normal;font-family:Gotham;-inkscape-font-specification:'Gotham Medium';fill:#000000;stroke-width:0.26458332"
               d="m 91.849601,286.85333 c 2.285999,0 4.053416,-1.7145 4.053416,-3.86292 v -0.0212 c 0,-2.14842 -1.74625,-3.84175 -4.03225,-3.84175 -2.286,0 -4.053416,1.7145 -4.053416,3.86291 v 0.0212 c 0,2.14842 1.74625,3.84175 4.03225,3.84175 z m 0.02117,-2.19075 c -0.9525,0 -1.55575,-0.79375 -1.55575,-1.67217 v -0.0212 c 0,-0.86784 0.592667,-1.651 1.534584,-1.651 0.9525,0 1.55575,0.79375 1.55575,1.67216 v 0.0212 c 0,0.86783 -0.592667,1.651 -1.534584,1.651 z" />
            <path
               id="path1058"
               style="font-style:normal;font-variant:normal;font-weight:500;font-stretch:normal;font-family:Gotham;-inkscape-font-specification:'Gotham Medium';fill:#000000;stroke-width:0.26458332"
               d="m 99.272817,286.69458 h 2.751663 c 2.99509,0 4.49792,-1.55575 4.49792,-3.7465 v -0.0212 c 0,-2.19075 -1.47108,-3.64066 -4.41325,-3.64066 h -2.836333 z m 2.476503,-2.159 v -3.09033 h 0.41275 c 1.13241,0 1.86266,0.46566 1.86266,1.53458 v 0.0212 c 0,1.06891 -0.73025,1.53458 -1.86266,1.53458 z" />
            <path
               id="path1060"
               style="font-style:normal;font-variant:normal;font-weight:500;font-stretch:normal;font-family:Gotham;-inkscape-font-specification:'Gotham Medium';fill:#000000;stroke-width:0.26458332"
               d="m 107.18964,286.69458 h 6.37117 v -2.032 h -3.937 v -0.80433 h 3.6195 v -1.78859 h -3.6195 v -0.75141 h 3.88408 v -2.032 h -6.31825 z" />
            <path
               id="path1062"
               style="font-style:normal;font-variant:normal;font-weight:500;font-stretch:normal;font-family:Gotham;-inkscape-font-specification:'Gotham Medium';fill:#000000;stroke-width:0.26458332"
               d="m 120.57723,286.85333 c 1.8415,0 2.87867,-0.89958 3.50308,-2.00025 l -2.04258,-1.15358 c -0.30692,0.55033 -0.6985,0.93133 -1.397,0.93133 -0.81492,0 -1.38642,-0.67733 -1.38642,-1.64042 v -0.0212 c 0,-0.889 0.55034,-1.61925 1.38642,-1.61925 0.67733,0 1.06892,0.37041 1.34408,0.89958 l 2.04259,-1.19592 c -0.62442,-1.13241 -1.72509,-1.92616 -3.35492,-1.92616 -2.21192,0 -3.937,1.651 -3.937,3.86291 v 0.0212 c 0,2.29658 1.78858,3.84175 3.84175,3.84175 z" />
            <path
               id="path1064"
               style="font-style:normal;font-variant:normal;font-weight:500;font-stretch:normal;font-family:Gotham;-inkscape-font-specification:'Gotham Medium';fill:#000000;stroke-width:0.26458332"
               d="m 128.13009,286.84275 c 2.21192,0 3.683,-0.99484 3.683,-3.52425 v -4.03225 h -2.51883 v 4.10633 c 0,0.89958 -0.47625,1.25942 -1.143,1.25942 -0.66675,0 -1.143,-0.39159 -1.143,-1.31234 v -4.05341 h -2.51884 v 4.08516 c 0,2.45534 1.42875,3.47134 3.64067,3.47134 z" />
            <path
               id="path1066"
               style="font-style:normal;font-variant:normal;font-weight:500;font-stretch:normal;font-family:Gotham;-inkscape-font-specification:'Gotham Medium';fill:#000000;stroke-width:0.26458332"
               d="m 132.59378,286.69458 h 6.37116 v -2.032 h -3.937 v -0.80433 h 3.6195 v -1.78859 h -3.6195 v -0.75141 h 3.88409 v -2.032 h -6.31825 z" />
            <path
               id="path1068"
               style="font-style:normal;font-variant:normal;font-weight:500;font-stretch:normal;font-family:Gotham;-inkscape-font-specification:'Gotham Medium';fill:#000000;stroke-width:0.26458332"
               d="m 139.62177,286.69458 h 2.45533 v -3.41842 l 2.75167,3.41842 h 2.20133 v -7.40833 h -2.45533 v 3.27025 l -2.63525,-3.27025 h -2.31775 z" />
            <path
               id="path1070"
               style="font-style:normal;font-variant:normal;font-weight:500;font-stretch:normal;font-family:Gotham;-inkscape-font-specification:'Gotham Medium';fill:#000000;stroke-width:0.26458332"
               d="m 149.76375,286.69458 h 2.4765 v -5.31283 h 2.18016 v -2.0955 h -6.83683 v 2.0955 h 2.18017 z" />
            <path
               id="path1072"
               style="font-style:normal;font-variant:normal;font-weight:500;font-stretch:normal;font-family:Gotham;-inkscape-font-specification:'Gotham Medium';fill:#000000;stroke-width:0.26458332"
               d="m 153.48941,286.69458 h 2.64584 l 0.381,-0.99483 h 2.59291 l 0.39159,0.99483 h 2.68816 l -3.12208,-7.46125 h -2.45533 z m 3.65125,-2.75167 0.67734,-1.79916 0.67733,1.79916 z" />
          </g>
          <g
             id="text53"
             style="font-style:normal;font-weight:normal;font-size:14.59165668px;line-height:9.11978531px;font-family:sans-serif;letter-spacing:0px;word-spacing:0px;fill:#808080;fill-opacity:1;stroke:none;stroke-width:0.26458332"
             aria-label="FORMAS DE PAGO">
            <path
               id="path1104"
               style="font-style:normal;font-variant:normal;font-weight:normal;font-stretch:normal;font-size:6.80944061px;font-family:Gotham;-inkscape-font-specification:Gotham;fill:#808080;stroke-width:0.26458332"
               d="m 75.2982,295.45471 h 1.321032 v -1.70236 h 2.253924 v -1.09632 h -2.253924 v -0.81032 h 2.492255 V 290.6881 H 75.2982 Z" />
            <path
               id="path1106"
               style="font-style:normal;font-variant:normal;font-weight:normal;font-stretch:normal;font-size:6.80944061px;font-family:Gotham;-inkscape-font-specification:Gotham;fill:#808080;stroke-width:0.26458332"
               d="m 82.11062,295.55004 c 1.470839,0 2.573969,-1.10993 2.573969,-2.47863 v -0.0136 c 0,-1.3687 -1.089511,-2.46502 -2.56035,-2.46502 -1.470839,0 -2.573969,1.10994 -2.573969,2.47864 v 0.0136 c 0,1.36869 1.089511,2.46501 2.56035,2.46501 z m 0.01362,-1.19165 c -0.721801,0 -1.21889,-0.59923 -1.21889,-1.28698 v -0.0136 c 0,-0.68775 0.48347,-1.27337 1.205271,-1.27337 0.72861,0 1.225699,0.59923 1.225699,1.28699 v 0.0136 c 0,0.68775 -0.48347,1.27336 -1.21208,1.27336 z" />
            <path
               id="path1108"
               style="font-style:normal;font-variant:normal;font-weight:normal;font-stretch:normal;font-size:6.80944061px;font-family:Gotham;-inkscape-font-specification:Gotham;fill:#808080;stroke-width:0.26458332"
               d="m 85.366064,295.45471 h 1.321032 v -1.4436 h 0.578802 l 0.960132,1.4436 h 1.525314 l -1.137176,-1.6615 c 0.592421,-0.25195 0.980559,-0.73542 0.980559,-1.46403 v -0.0136 c 0,-0.46985 -0.142998,-0.83756 -0.422185,-1.10994 -0.320044,-0.32685 -0.823943,-0.51752 -1.552553,-0.51752 h -2.253925 z m 1.321032,-2.47863 v -1.14399 h 0.864799 c 0.442614,0 0.714991,0.19066 0.714991,0.56518 v 0.0136 c 0,0.34728 -0.258759,0.56519 -0.708182,0.56519 z" />
            <path
               id="path1110"
               style="font-style:normal;font-variant:normal;font-weight:normal;font-stretch:normal;font-size:6.80944061px;font-family:Gotham;-inkscape-font-specification:Gotham;fill:#808080;stroke-width:0.26458332"
               d="m 90.26035,295.45471 h 1.293793 v -2.72377 l 1.212081,1.85216 h 0.02724 l 1.218889,-1.86578 v 2.73739 h 1.314222 v -4.76661 h -1.395935 l -1.137176,1.84536 -1.137177,-1.84536 H 90.26035 Z" />
            <path
               id="path1112"
               style="font-style:normal;font-variant:normal;font-weight:normal;font-stretch:normal;font-size:6.80944061px;font-family:Gotham;-inkscape-font-specification:Gotham;fill:#808080;stroke-width:0.26458332"
               d="m 95.784082,295.45471 h 1.389126 l 0.340472,-0.85118 h 1.838549 l 0.347281,0.85118 h 1.41636 l -2.02921,-4.80065 h -1.273365 z m 2.117736,-1.8794 0.537946,-1.35508 0.531136,1.35508 z" />
            <path
               id="path1114"
               style="font-style:normal;font-variant:normal;font-weight:normal;font-stretch:normal;font-size:6.80944061px;font-family:Gotham;-inkscape-font-specification:Gotham;fill:#808080;stroke-width:0.26458332"
               d="m 103.38448,295.53643 c 1.15761,0 1.92707,-0.57881 1.92707,-1.55256 v -0.0136 c 0,-0.89203 -0.68094,-1.24612 -1.77726,-1.48445 -0.66052,-0.14981 -0.82394,-0.24514 -0.82394,-0.46305 v -0.0136 c 0,-0.17023 0.15661,-0.30642 0.47666,-0.30642 0.42218,0 0.89884,0.16343 1.33465,0.46985 l 0.66051,-0.93289 c -0.51751,-0.41538 -1.15079,-0.63328 -1.96111,-0.63328 -1.14399,0 -1.84536,0.64009 -1.84536,1.52531 v 0.0136 c 0,0.98056 0.78308,1.26656 1.79769,1.49808 0.6469,0.14981 0.80351,0.25876 0.80351,0.45623 v 0.0136 c 0,0.20429 -0.19066,0.32686 -0.54475,0.32686 -0.55157,0 -1.07589,-0.19748 -1.54574,-0.572 l -0.73542,0.87842 c 0.58561,0.52433 1.38912,0.7899 2.23349,0.7899 z" />
            <path
               id="path1116"
               style="font-style:normal;font-variant:normal;font-weight:normal;font-stretch:normal;font-size:6.80944061px;font-family:Gotham;-inkscape-font-specification:Gotham;fill:#808080;stroke-width:0.26458332"
               d="m 107.84254,295.45471 h 1.81131 c 1.71598,0 2.71697,-1.02141 2.71697,-2.39692 v -0.0136 c 0,-1.37551 -0.98737,-2.35607 -2.68973,-2.35607 h -1.83855 z m 1.32103,-1.17122 v -2.42416 h 0.53795 c 0.78989,0 1.31422,0.44261 1.31422,1.20527 v 0.0136 c 0,0.76946 -0.52433,1.20527 -1.31422,1.20527 z" />
            <path
               id="path1118"
               style="font-style:normal;font-variant:normal;font-weight:normal;font-stretch:normal;font-size:6.80944061px;font-family:Gotham;-inkscape-font-specification:Gotham;fill:#808080;stroke-width:0.26458332"
               d="m 113.05602,295.45471 h 3.86776 v -1.12356 h -2.56035 v -0.75584 h 2.28797 v -1.04185 h -2.28797 v -0.7218 h 2.5263 v -1.12356 h -3.83371 z" />
            <path
               id="path1120"
               style="font-style:normal;font-variant:normal;font-weight:normal;font-stretch:normal;font-size:6.80944061px;font-family:Gotham;-inkscape-font-specification:Gotham;fill:#808080;stroke-width:0.26458332"
               d="m 119.49307,295.45471 h 1.32103 v -1.36189 h 0.6537 c 1.18485,0 2.04965,-0.59242 2.04965,-1.71598 v -0.0136 c 0,-1.05547 -0.77628,-1.67513 -1.98155,-1.67513 h -2.04283 z m 1.32103,-2.39692 v -1.25975 h 0.61966 c 0.47666,0 0.76265,0.2179 0.76265,0.62647 v 0.0136 c 0,0.37452 -0.28599,0.61966 -0.75584,0.61966 z" />
            <path
               id="path1122"
               style="font-style:normal;font-variant:normal;font-weight:normal;font-stretch:normal;font-size:6.80944061px;font-family:Gotham;-inkscape-font-specification:Gotham;fill:#808080;stroke-width:0.26458332"
               d="m 123.22134,295.45471 h 1.38913 l 0.34047,-0.85118 h 1.83855 l 0.34728,0.85118 h 1.41636 l -2.02921,-4.80065 h -1.27337 z m 2.11774,-1.8794 0.53794,-1.35508 0.53114,1.35508 z" />
            <path
               id="path1124"
               style="font-style:normal;font-variant:normal;font-weight:normal;font-stretch:normal;font-size:6.80944061px;font-family:Gotham;-inkscape-font-specification:Gotham;fill:#808080;stroke-width:0.26458332"
               d="m 131.14072,295.55004 c 0.8648,0 1.56617,-0.32004 2.07007,-0.73542 v -2.14497 h -2.19264 v 0.96694 h 0.9397 v 0.5788 c -0.19747,0.12938 -0.44261,0.19748 -0.76266,0.19748 -0.75584,0 -1.29379,-0.55157 -1.29379,-1.32103 v -0.0136 c 0,-0.72861 0.53114,-1.30742 1.21889,-1.30742 0.46985,0 0.81032,0.16343 1.1508,0.44943 l 0.77627,-0.9329 c -0.5039,-0.4358 -1.09632,-0.69456 -1.93388,-0.69456 -1.47765,0 -2.56716,1.08951 -2.56716,2.47864 v 0.0136 c 0,1.4436 1.10994,2.46501 2.5944,2.46501 z" />
            <path
               id="path1126"
               style="font-style:normal;font-variant:normal;font-weight:normal;font-stretch:normal;font-size:6.80944061px;font-family:Gotham;-inkscape-font-specification:Gotham;fill:#808080;stroke-width:0.26458332"
               d="m 136.34675,295.55004 c 1.47084,0 2.57397,-1.10993 2.57397,-2.47863 v -0.0136 c 0,-1.3687 -1.08951,-2.46502 -2.56035,-2.46502 -1.47084,0 -2.57397,1.10994 -2.57397,2.47864 v 0.0136 c 0,1.36869 1.08951,2.46501 2.56035,2.46501 z m 0.0136,-1.19165 c -0.7218,0 -1.21889,-0.59923 -1.21889,-1.28698 v -0.0136 c 0,-0.68775 0.48347,-1.27337 1.20527,-1.27337 0.72861,0 1.2257,0.59923 1.2257,1.28699 v 0.0136 c 0,0.68775 -0.48347,1.27336 -1.21208,1.27336 z" />
          </g>
          <g
             id="g889"
             transform="translate(64.727936)">
            <g
               id="text72"
               style="font-style:normal;font-weight:normal;font-size:6.79984331px;line-height:4.24990225px;font-family:sans-serif;letter-spacing:0px;word-spacing:0px;fill:#000000;fill-opacity:1;stroke:none;stroke-width:0.26458332"
               aria-label="CLAVE CATASTRAL">
              <path
                 id="path1075"
                 style="font-style:normal;font-variant:normal;font-weight:normal;font-stretch:normal;font-family:Gotham;-inkscape-font-specification:Gotham;stroke-width:0.26458332"
                 d="m 121.28655,282.91951 c 1.05397,0 1.65916,-0.45559 2.10795,-1.07438 l -0.99278,-0.70718 c -0.28559,0.34679 -0.57798,0.57799 -1.07437,0.57799 -0.66639,0 -1.13558,-0.55759 -1.13558,-1.27157 v -0.0136 c 0,-0.69359 0.46919,-1.25798 1.13558,-1.25798 0.45559,0 0.76838,0.2176 1.04037,0.55759 l 0.99278,-0.76838 c -0.42159,-0.58479 -1.04718,-0.99278 -2.01955,-0.99278 -1.44157,0 -2.50915,1.08798 -2.50915,2.47515 v 0.0136 c 0,1.42117 1.09478,2.46155 2.45475,2.46155 z" />
              <path
                 id="path1077"
                 style="font-style:normal;font-variant:normal;font-weight:normal;font-stretch:normal;font-family:Gotham;-inkscape-font-specification:Gotham;stroke-width:0.26458332"
                 d="m 123.96207,282.82431 h 3.62432 v -1.15597 h -2.30515 v -3.60392 h -1.31917 z" />
              <path
                 id="path1079"
                 style="font-style:normal;font-variant:normal;font-weight:normal;font-stretch:normal;font-family:Gotham;-inkscape-font-specification:Gotham;stroke-width:0.26458332"
                 d="m 127.76478,282.82431 h 1.38717 l 0.33999,-0.84998 h 1.83596 l 0.34679,0.84998 h 1.41437 l -2.02636,-4.79389 h -1.27157 z m 2.11475,-1.87676 0.53719,-1.35317 0.53039,1.35317 z" />
              <path
                 id="path1081"
                 style="font-style:normal;font-variant:normal;font-weight:normal;font-stretch:normal;font-family:Gotham;-inkscape-font-specification:Gotham;stroke-width:0.26458332"
                 d="m 134.42395,282.85831 h 1.22397 l 1.93116,-4.79389 h -1.44837 l -1.08117,3.01233 -1.08118,-3.01233 h -1.47557 z" />
              <path
                 id="path1083"
                 style="font-style:normal;font-variant:normal;font-weight:normal;font-stretch:normal;font-family:Gotham;-inkscape-font-specification:Gotham;stroke-width:0.26458332"
                 d="m 138.03987,282.82431 h 3.86232 v -1.12197 h -2.55675 v -0.75479 h 2.28475 v -1.04037 h -2.28475 v -0.72079 h 2.52275 v -1.12197 h -3.82832 z" />
              <path
                 id="path1085"
                 style="font-style:normal;font-variant:normal;font-weight:normal;font-stretch:normal;font-family:Gotham;-inkscape-font-specification:Gotham;stroke-width:0.26458332"
                 d="m 146.7594,282.91951 c 1.05397,0 1.65916,-0.45559 2.10795,-1.07438 l -0.99278,-0.70718 c -0.28559,0.34679 -0.57798,0.57799 -1.07437,0.57799 -0.66639,0 -1.13558,-0.55759 -1.13558,-1.27157 v -0.0136 c 0,-0.69359 0.46919,-1.25798 1.13558,-1.25798 0.45559,0 0.76838,0.2176 1.04037,0.55759 l 0.99278,-0.76838 c -0.42159,-0.58479 -1.04718,-0.99278 -2.01955,-0.99278 -1.44157,0 -2.50915,1.08798 -2.50915,2.47515 v 0.0136 c 0,1.42117 1.09478,2.46155 2.45475,2.46155 z" />
              <path
                 id="path1087"
                 style="font-style:normal;font-variant:normal;font-weight:normal;font-stretch:normal;font-family:Gotham;-inkscape-font-specification:Gotham;stroke-width:0.26458332"
                 d="m 149.01429,282.82431 h 1.38717 l 0.33999,-0.84998 h 1.83596 l 0.34679,0.84998 h 1.41437 l -2.02636,-4.79389 h -1.27157 z m 2.11475,-1.87676 0.53719,-1.35317 0.53039,1.35317 z" />
              <path
                 id="path1089"
                 style="font-style:normal;font-variant:normal;font-weight:normal;font-stretch:normal;font-family:Gotham;-inkscape-font-specification:Gotham;stroke-width:0.26458332"
                 d="m 155.35227,282.82431 h 1.31917 v -3.60392 h 1.42797 v -1.15597 h -4.1751 v 1.15597 h 1.42796 z" />
              <path
                 id="path1091"
                 style="font-style:normal;font-variant:normal;font-weight:normal;font-stretch:normal;font-family:Gotham;-inkscape-font-specification:Gotham;stroke-width:0.26458332"
                 d="m 157.68675,282.82431 h 1.38716 l 0.34,-0.84998 h 1.83595 l 0.3468,0.84998 h 1.41436 l -2.02635,-4.79389 h -1.27157 z m 2.11475,-1.87676 0.53718,-1.35317 0.53039,1.35317 z" />
              <path
                 id="path1093"
                 style="font-style:normal;font-variant:normal;font-weight:normal;font-stretch:normal;font-family:Gotham;-inkscape-font-specification:Gotham;stroke-width:0.26458332"
                 d="m 165.27643,282.90591 c 1.15598,0 1.92436,-0.57799 1.92436,-1.55037 v -0.0136 c 0,-0.89078 -0.67999,-1.24437 -1.77476,-1.48236 -0.65958,-0.1496 -0.82278,-0.2448 -0.82278,-0.46239 v -0.0136 c 0,-0.17 0.1564,-0.30599 0.47599,-0.30599 0.42159,0 0.89758,0.16319 1.33277,0.46919 l 0.65958,-0.93158 c -0.51679,-0.41479 -1.14917,-0.63239 -1.95835,-0.63239 -1.14238,0 -1.84276,0.63919 -1.84276,1.52317 v 0.0136 c 0,0.97917 0.78198,1.26477 1.79516,1.49596 0.64598,0.1496 0.80238,0.2584 0.80238,0.45559 v 0.0136 c 0,0.204 -0.1904,0.32639 -0.54399,0.32639 -0.55079,0 -1.07437,-0.19719 -1.54356,-0.57118 l -0.73439,0.87718 c 0.58479,0.52358 1.38717,0.78878 2.23035,0.78878 z" />
              <path
                 id="path1095"
                 style="font-style:normal;font-variant:normal;font-weight:normal;font-stretch:normal;font-family:Gotham;-inkscape-font-specification:Gotham;stroke-width:0.26458332"
                 d="m 168.87228,282.82431 h 1.31917 v -3.60392 h 1.42796 v -1.15597 h -4.1751 v 1.15597 h 1.42797 z" />
              <path
                 id="path1097"
                 style="font-style:normal;font-variant:normal;font-weight:normal;font-stretch:normal;font-family:Gotham;-inkscape-font-specification:Gotham;stroke-width:0.26458332"
                 d="m 172.19846,282.82431 h 1.31917 v -1.44157 h 0.57799 l 0.95878,1.44157 h 1.52316 l -1.13557,-1.65916 c 0.59158,-0.2516 0.97917,-0.73438 0.97917,-1.46197 v -0.0136 c 0,-0.46919 -0.14279,-0.83638 -0.42159,-1.10837 -0.31959,-0.32639 -0.82278,-0.51679 -1.55036,-0.51679 h -2.25075 z m 1.31917,-2.47514 v -1.14238 h 0.86358 c 0.44199,0 0.71398,0.1904 0.71398,0.56439 v 0.0136 c 0,0.34679 -0.25839,0.56439 -0.70718,0.56439 z" />
              <path
                 id="path1099"
                 style="font-style:normal;font-variant:normal;font-weight:normal;font-stretch:normal;font-family:Gotham;-inkscape-font-specification:Gotham;stroke-width:0.26458332"
                 d="m 176.61209,282.82431 h 1.38717 l 0.33999,-0.84998 h 1.83596 l 0.34679,0.84998 h 1.41437 l -2.02635,-4.79389 h -1.27157 z m 2.11475,-1.87676 0.53719,-1.35317 0.53039,1.35317 z" />
              <path
                 id="path1101"
                 style="font-style:normal;font-variant:normal;font-weight:normal;font-stretch:normal;font-family:Gotham;-inkscape-font-specification:Gotham;stroke-width:0.26458332"
                 d="m 182.39823,282.82431 h 3.62431 v -1.15597 h -2.30515 v -3.60392 h -1.31916 z" />
            </g>
            <path
               inkscape:connector-curvature="0"
               id="path74"
               d="m 188.24088,285.4172 v 15.34584 H 102.85509 L 116.627,285.4172 Z"
               style="fill:#808080;fill-opacity:1;stroke:none;stroke-width:0.26458332px;stroke-linecap:butt;stroke-linejoin:miter;stroke-opacity:1" />
          </g>
        </g>
      </g>
    </g>
  </g>
</svg>
