<?xml version="1.0" encoding="utf-8"?>
<!-- Generator: Adobe Illustrator 17.0.0, SVG Export Plug-In . SVG Version: 6.00 Build 0)  -->
<!DOCTYPE svg PUBLIC "-//W3C//DTD SVG 1.1//EN" "http://www.w3.org/Graphics/SVG/1.1/DTD/svg11.dtd">
<svg version="1.1"
	 id="svg8" sodipodi:docname="logoSPEI.svg" inkscape:version="0.92.0 r15299" xmlns:inkscape="http://www.inkscape.org/namespaces/inkscape" xmlns:cc="http://creativecommons.org/ns#" xmlns:sodipodi="http://sodipodi.sourceforge.net/DTD/sodipodi-0.dtd" xmlns:dc="http://purl.org/dc/elements/1.1/" xmlns:svg="http://www.w3.org/2000/svg" xmlns:rdf="http://www.w3.org/1999/02/22-rdf-syntax-ns#"
	 xmlns="http://www.w3.org/2000/svg" xmlns:xlink="http://www.w3.org/1999/xlink" x="0px" y="0px" width="110px" height="39px"
	 viewBox="0 0 110 39" enable-background="new 0 0 110 39" xml:space="preserve">
<g>
	<path fill-rule="evenodd" clip-rule="evenodd" fill="#090C01" d="M16.268,35.32c0.121-0.805,0.243-1.61,0.371-2.416h-0.836
		c0.027-0.171,0.052-0.337,0.079-0.508h2.318c-0.023,0.171-0.054,0.337-0.079,0.508h-0.864L16.89,35.32H16.268L16.268,35.32z
		 M19.331,33.594L19.331,33.594h1.181c-0.024,0.162-0.049,0.325-0.071,0.482H19.26c-0.04,0.246-0.076,0.499-0.115,0.747h1.343
		c-0.025,0.169-0.052,0.332-0.079,0.498h-1.963c0.149-0.976,0.297-1.948,0.445-2.924h1.959c-0.026,0.167-0.052,0.328-0.079,0.495
		H19.44C19.406,33.126,19.369,33.364,19.331,33.594L19.331,33.594z M21.713,32.396L21.713,32.396h0.624l-0.37,2.416h1.243
		l-0.082,0.507h-1.857L21.713,32.396L21.713,32.396z M24.699,33.594L24.699,33.594h1.182c-0.024,0.162-0.048,0.325-0.072,0.482
		h-1.18c-0.04,0.246-0.076,0.499-0.115,0.747h1.343c-0.027,0.169-0.051,0.332-0.076,0.498h-1.964
		c0.146-0.976,0.294-1.948,0.442-2.924h1.961c-0.027,0.167-0.052,0.328-0.079,0.495h-1.334
		C24.773,33.126,24.736,33.364,24.699,33.594L24.699,33.594z M28.644,35.266L28.644,35.266c-0.285,0.054-0.708,0.109-0.973,0.109
		c-0.711,0-0.973-0.269-0.986-0.865c-0.004-0.189,0.016-0.401,0.052-0.651c0.16-1.057,0.432-1.514,1.423-1.514
		c0.247,0,0.609,0.034,0.91,0.094c-0.052,0.17-0.097,0.337-0.151,0.506c-0.226-0.037-0.459-0.072-0.688-0.072
		c-0.524,0-0.73,0.244-0.823,0.819c-0.031,0.184-0.068,0.401-0.073,0.549c-0.013,0.402,0.008,0.61,0.559,0.61
		c0.182,0,0.511-0.046,0.751-0.086C28.645,34.932,28.64,35.095,28.644,35.266L28.644,35.266z M29.435,34.48L29.435,34.48
		c-0.004-0.179,0.012-0.383,0.049-0.621c0.164-1.057,0.443-1.522,1.533-1.522c0.834,0,1.128,0.279,1.141,0.898
		c0.004,0.18-0.014,0.388-0.051,0.623c-0.167,1.057-0.445,1.516-1.532,1.516C29.74,35.375,29.448,35.099,29.435,34.48L29.435,34.48z
		 M30.193,33.547L30.193,33.547c-0.061,0.26-0.12,0.66-0.116,0.853c0.007,0.349,0.18,0.451,0.611,0.451
		c0.438,0,0.617-0.183,0.718-0.681c0.052-0.273,0.12-0.652,0.118-0.852c-0.008-0.35-0.183-0.456-0.616-0.456
		C30.467,32.862,30.315,33.049,30.193,33.547L30.193,33.547z M32.721,35.32L32.721,35.32l0.611-2.924h0.748l0.424,1.872l1.004-1.872
		h0.773l-0.282,2.924h-0.58l0.171-1.415l0.147-0.895l-1.022,1.888h-0.579l-0.448-1.888l-0.13,0.898l-0.257,1.411H32.721
		L32.721,35.32z M37.363,32.396L37.363,32.396h0.64l-0.249,1.627c-0.071,0.452-0.097,0.814,0.435,0.814
		c0.446,0,0.59-0.145,0.694-0.814l0.251-1.627h0.631l-0.233,1.559c-0.163,1.088-0.414,1.419-1.407,1.419
		c-0.762,0-1.038-0.212-1.053-0.795c-0.004-0.172,0.017-0.381,0.054-0.624L37.363,32.396L37.363,32.396z M40.321,35.32L40.321,35.32
		l0.448-2.924h0.715l0.879,2.246l0.087-1.074l0.177-1.172h0.58l-0.449,2.924h-0.72l-0.876-2.242l-0.067,0.988L40.9,35.32H40.321
		L40.321,35.32z M43.766,35.32L43.766,35.32c0.147-0.976,0.295-1.948,0.443-2.924h0.622c-0.148,0.976-0.301,1.948-0.447,2.924
		H43.766L43.766,35.32z M47.424,35.266L47.424,35.266c-0.286,0.054-0.71,0.109-0.974,0.109c-0.711,0-0.971-0.269-0.988-0.865
		c-0.004-0.189,0.017-0.401,0.054-0.651c0.161-1.057,0.431-1.514,1.423-1.514c0.247,0,0.611,0.034,0.909,0.094
		c-0.052,0.17-0.098,0.337-0.15,0.506c-0.226-0.037-0.459-0.072-0.686-0.072c-0.527,0-0.734,0.244-0.826,0.819
		c-0.031,0.184-0.068,0.401-0.073,0.549c-0.011,0.402,0.01,0.61,0.56,0.61c0.183,0,0.509-0.046,0.751-0.086
		C47.424,34.932,47.418,35.095,47.424,35.266L47.424,35.266z M50.122,35.32L50.122,35.32l-0.127-0.691h-1.061l-0.329,0.691h-0.637
		l1.427-2.924h0.81l0.553,2.924H50.122L50.122,35.32z M49.734,32.819L49.734,32.819H49.72l-0.608,1.368h0.835L49.734,32.819
		L49.734,32.819z M53.389,35.266L53.389,35.266c-0.285,0.054-0.708,0.109-0.971,0.109c-0.713,0-0.974-0.269-0.989-0.865
		c-0.003-0.189,0.017-0.401,0.055-0.651c0.158-1.057,0.429-1.514,1.422-1.514c0.246,0,0.611,0.034,0.909,0.094
		c-0.051,0.17-0.098,0.337-0.15,0.506c-0.227-0.037-0.457-0.072-0.687-0.072c-0.524,0-0.732,0.244-0.826,0.819
		c-0.03,0.184-0.067,0.401-0.072,0.549c-0.012,0.402,0.009,0.61,0.56,0.61c0.183,0,0.51-0.046,0.752-0.086
		C53.389,34.932,53.385,35.095,53.389,35.266L53.389,35.266z M54.128,35.32L54.128,35.32c0.149-0.976,0.296-1.948,0.444-2.924h0.623
		c-0.149,0.976-0.302,1.948-0.449,2.924H54.128L54.128,35.32z M55.826,34.48L55.826,34.48c-0.005-0.179,0.012-0.383,0.049-0.621
		c0.164-1.057,0.444-1.522,1.534-1.522c0.837,0,1.128,0.279,1.141,0.898c0.005,0.18-0.012,0.388-0.048,0.623
		c-0.17,1.057-0.448,1.516-1.534,1.516C56.131,35.375,55.838,35.099,55.826,34.48L55.826,34.48z M56.584,33.547L56.584,33.547
		c-0.063,0.26-0.12,0.66-0.116,0.853c0.007,0.349,0.179,0.451,0.611,0.451c0.438,0,0.619-0.183,0.719-0.681
		c0.052-0.273,0.121-0.652,0.115-0.852c-0.007-0.35-0.179-0.456-0.616-0.456C56.859,32.862,56.705,33.049,56.584,33.547
		L56.584,33.547z M59.191,35.32L59.191,35.32l0.449-2.924h0.717l0.876,2.246l0.087-1.074l0.179-1.172h0.579L61.63,35.32h-0.719
		l-0.881-2.242l-0.066,0.988L59.77,35.32H59.191L59.191,35.32z M63.526,33.594L63.526,33.594h1.18
		c-0.023,0.162-0.049,0.325-0.069,0.482h-1.18c-0.042,0.246-0.079,0.499-0.115,0.747h1.34c-0.025,0.169-0.051,0.332-0.078,0.498
		H62.64c0.149-0.976,0.298-1.948,0.444-2.924h1.959c-0.024,0.167-0.05,0.328-0.076,0.495h-1.334
		C63.601,33.126,63.564,33.364,63.526,33.594L63.526,33.594z M65.484,34.78L65.484,34.78c0.301,0.038,0.527,0.064,0.773,0.064
		c0.405,0,0.619-0.044,0.652-0.255c0.029-0.18-0.095-0.286-0.377-0.435l-0.389-0.209c-0.312-0.166-0.614-0.387-0.531-0.852
		c0.106-0.601,0.515-0.75,1.24-0.75c0.259,0,0.606,0.035,0.883,0.085l-0.132,0.512c-0.225-0.033-0.485-0.065-0.679-0.065
		c-0.452,0-0.621,0.047-0.656,0.261c-0.029,0.178,0.13,0.268,0.355,0.387l0.374,0.2c0.431,0.231,0.646,0.469,0.583,0.87
		c-0.086,0.542-0.452,0.78-1.333,0.78c-0.286,0-0.599-0.034-0.893-0.085L65.484,34.78L65.484,34.78z M69.836,35.286L69.836,35.286
		c0.146-0.964,0.296-1.925,0.441-2.89h1.104c0.798,0,1.101,0.247,1.115,0.865c0.005,0.171-0.012,0.362-0.045,0.588
		c-0.159,1.061-0.456,1.518-1.509,1.518C70.608,35.368,70.131,35.332,69.836,35.286L69.836,35.286z M70.813,32.9L70.813,32.9
		c-0.1,0.643-0.195,1.283-0.295,1.926c0.163,0.017,0.315,0.029,0.481,0.029c0.549,0,0.701-0.235,0.79-0.835
		c0.037-0.244,0.083-0.516,0.079-0.687c-0.007-0.31-0.151-0.434-0.569-0.434H70.813L70.813,32.9z M74.023,33.594L74.023,33.594
		h1.182c-0.023,0.162-0.049,0.325-0.071,0.482h-1.179c-0.043,0.246-0.08,0.499-0.116,0.747h1.343
		c-0.027,0.169-0.053,0.332-0.078,0.498h-1.966c0.149-0.976,0.297-1.948,0.444-2.924h1.961c-0.025,0.167-0.052,0.328-0.078,0.495
		h-1.334C74.099,33.126,74.06,33.364,74.023,33.594L74.023,33.594z M77.299,35.32L77.299,35.32l0.608-2.924h0.752l0.421,1.872
		l1.005-1.872h0.771l-0.282,2.924h-0.58l0.173-1.415l0.145-0.895l-1.023,1.888h-0.579l-0.448-1.888l-0.128,0.898l-0.258,1.411
		H77.299L77.299,35.32z M82.411,33.594L82.411,33.594h1.179c-0.021,0.162-0.047,0.325-0.071,0.482H82.34
		c-0.041,0.246-0.078,0.499-0.115,0.747h1.342c-0.025,0.169-0.052,0.332-0.079,0.498h-1.962c0.145-0.976,0.295-1.948,0.443-2.924
		h1.958c-0.024,0.167-0.052,0.328-0.078,0.495h-1.333C82.484,33.126,82.447,33.364,82.411,33.594L82.411,33.594z M83.676,31.383
		L83.676,31.383l0.075,0.511l-1.18,0.319c-0.02-0.105-0.035-0.213-0.055-0.319C82.904,31.724,83.292,31.557,83.676,31.383
		L83.676,31.383z M84.058,35.32L84.058,35.32l1.053-1.487l-0.541-1.437h0.691l0.389,1.172l0.769-1.172h0.691l-0.985,1.437
		l0.614,1.487H86.04l-0.454-1.224l-0.842,1.224H84.058L84.058,35.32z M87.394,35.32L87.394,35.32
		c0.149-0.976,0.297-1.948,0.444-2.924h0.623c-0.148,0.976-0.301,1.948-0.449,2.924H87.394L87.394,35.32z M91.052,35.266
		L91.052,35.266c-0.285,0.054-0.708,0.109-0.974,0.109c-0.71,0-0.972-0.269-0.987-0.865c-0.002-0.189,0.017-0.401,0.055-0.651
		c0.158-1.057,0.429-1.514,1.423-1.514c0.244,0,0.608,0.034,0.907,0.094c-0.051,0.17-0.099,0.337-0.151,0.506
		c-0.226-0.037-0.457-0.072-0.687-0.072c-0.524,0-0.731,0.244-0.825,0.819c-0.029,0.184-0.067,0.401-0.072,0.549
		c-0.013,0.402,0.009,0.61,0.559,0.61c0.183,0,0.511-0.046,0.753-0.086C91.052,34.932,91.047,35.095,91.052,35.266L91.052,35.266z
		 M91.842,34.48L91.842,34.48c-0.004-0.179,0.014-0.383,0.05-0.621c0.163-1.057,0.442-1.522,1.533-1.522
		c0.837,0,1.128,0.279,1.141,0.898c0.005,0.18-0.012,0.388-0.049,0.623c-0.167,1.057-0.446,1.516-1.532,1.516
		C92.148,35.375,91.857,35.099,91.842,34.48L91.842,34.48z M92.603,33.547L92.603,33.547c-0.064,0.26-0.123,0.66-0.118,0.853
		c0.008,0.349,0.181,0.451,0.611,0.451c0.438,0,0.618-0.183,0.716-0.681c0.054-0.273,0.122-0.652,0.118-0.852
		c-0.011-0.35-0.182-0.456-0.616-0.456C92.874,32.862,92.723,33.049,92.603,33.547z"/>
	<path fill-rule="evenodd" clip-rule="evenodd" fill="#001949" d="M11.22,5.732h1.569c-0.111,0.719-0.71,1.198-1.462,1.198
		c-0.589,0-0.838-0.284-0.838-0.599C10.489,6.059,10.747,5.732,11.22,5.732L11.22,5.732z M17.744,3.625L17.744,3.625H2.643
		c-0.806,0-1.345,0.533-1.45,1.211C1.001,6.067,0.469,9.664,0.469,9.664h2.626l-0.263,1.737c0.565-1.095,1.422-2.015,2.465-2.662
		H2.193c0.73-2.084,2.541-3.798,6.307-3.798h4.409c0,0-0.054,0.362-0.119,0.789c0,0.001-0.001,0.001-0.001,0.001l3.645,0.002
		c1.061,0,1.466,0.369,1.292,1.532c-0.148,0.977-0.395,2.594-0.395,2.594c0.2,0.121,0.553,0.378,0.766,0.562
		c0.113,0.097,0.318,0.069,0.35-0.146c0.042-0.267,0.548-3.588,0.756-4.989C19.405,3.934,18.694,3.625,17.744,3.625z"/>
	<path fill-rule="evenodd" clip-rule="evenodd" fill="#3F8B47" d="M25.042,25.708l2.611-17.33c0,0,1.967-1.004,2.293-1.176
		c0.368-0.192,0.679-0.111,0.589,0.463c-0.156,1.004-2.734,18.043-2.734,18.043H25.042L25.042,25.708z M14.43,9.094L14.43,9.094
		c-3.348,0-6.19,1.328-7.014,6.856c-0.906,6.102-1.45,9.758-1.45,9.758h2.76c0,0,0.544-3.656,1.453-9.758
		c0.648-4.353,2.868-6.065,7.154-6.094C16.451,9.303,15.568,9.094,14.43,9.094L14.43,9.094z M40.611,23.001L40.611,23.001
		c-1.866,0.691-2.487,0.876-3.848,0.876c-1.879,0-3.199-0.44-2.729-2.899c0,0,2.566-0.371,4.549-0.672
		c2.816-0.426,3.976-1.395,4.258-3.493c0.487-3.644-1.931-4.336-4.319-4.336c-4.421,0-6.517,2.249-7.113,6.058
		c-0.739,4.748-0.278,7.406,4.842,7.406c2.637,0,4.238-1.014,4.766-1.379L40.611,23.001L40.611,23.001z M34.12,18.902L34.12,18.902
		c0.234-2.401,1.502-4.478,4.295-4.478c1.804,0,2.155,1.216,2.044,1.937c-0.144,0.928-0.462,1.656-2.674,1.985
		C35.352,18.71,34.12,18.902,34.12,18.902L34.12,18.902z M21.96,23.001l0.405,1.561c-0.528,0.365-2.129,1.379-4.766,1.379
		c-5.12,0-5.581-2.658-4.841-7.406c0.595-3.808,2.692-6.058,7.113-6.058c2.387,0,4.806,0.692,4.319,4.336
		c-0.282,2.098-1.444,3.067-4.259,3.493c-1.984,0.3-4.548,0.672-4.548,0.672c-0.472,2.459,0.847,2.899,2.73,2.899
		C19.471,23.877,20.094,23.692,21.96,23.001L21.96,23.001L21.96,23.001z M15.469,18.902L15.469,18.902
		c0.235-2.401,1.503-4.478,4.296-4.478c1.803,0,2.154,1.216,2.044,1.937c-0.145,0.928-0.462,1.656-2.674,1.985
		C16.7,18.71,15.469,18.902,15.469,18.902L15.469,18.902z M55.05,13.884L55.05,13.884c-0.83-0.812-1.889-1.407-3.961-1.407
		c-3.3,0-5.951,1.987-6.603,6.201c-0.639,4.138-0.29,7.263,4.561,7.263c2.634,0,3.872-1.014,4.4-1.379l-0.406-1.561
		c-1.247,0.499-1.965,0.876-3.321,0.876c-2.197,0-2.908-1.065-2.275-5.153c0.561-3.629,2.769-4.255,3.773-4.255
		c1.28,0,1.963,0.623,2.323,1.543L55.05,13.884L55.05,13.884z M62.432,12.472c4.109,0,5.091,2.384,4.484,6.361
		c-0.604,3.941-2.212,7.129-6.696,7.129c-4.658,0-5.534-2.317-4.793-7.129C56.12,14.314,58.564,12.472,62.432,12.472L62.432,12.472
		L62.432,12.472z M64.186,18.833c0.559-3.863-0.405-4.411-1.943-4.411c-1.997,0-3.345,0.824-3.889,4.411
		c-0.573,3.779-0.204,5.026,1.947,5.026C62.574,23.859,63.667,22.43,64.186,18.833L64.186,18.833L64.186,18.833z M82.433,12.486
		L82.433,12.486c-1.735,0-2.801,0.668-3.77,1.946c-0.397-1.247-1.772-1.946-2.772-1.946c-1.735,0-2.649,0.535-3.556,1.576H72.28
		c0.054-0.529,0.067-0.655,0.12-1.16c0.062-0.571-0.168-0.644-0.519-0.462c-0.511,0.265-1.922,0.981-1.922,0.981l-1.845,12.29h2.673
		c0.429-2.844,0.853-5.687,1.247-8.283c0.454-1.662,1.618-2.617,2.82-2.617c1.189,0,1.682,1.039,1.442,2.596
		c-0.361,2.342-1.25,8.304-1.25,8.304h2.713c0.43-2.844,0.857-5.687,1.251-8.283c0.35-1.273,1.549-2.617,2.673-2.617
		c1.433,0,1.822,1.039,1.585,2.596c-0.351,2.343-1.248,8.304-1.248,8.304h2.669c0.429-2.844,0.89-5.922,1.284-8.517
		C86.277,15.176,85.844,12.486,82.433,12.486L82.433,12.486z M101.944,12.486L101.944,12.486c-1.734,0-2.799,0.668-3.769,1.946
		c-0.398-1.247-1.772-1.946-2.772-1.946c-1.734,0-2.649,0.535-3.555,1.576h-0.056c0.052-0.529,0.065-0.655,0.12-1.16
		c0.061-0.571-0.17-0.644-0.521-0.462c-0.511,0.265-1.921,0.981-1.921,0.981l-1.845,12.29h2.673
		c0.432-2.844,0.854-5.687,1.248-8.283c0.453-1.662,1.62-2.617,2.818-2.617c1.189,0,1.683,1.039,1.443,2.596
		c-0.362,2.342-1.248,8.304-1.248,8.304h2.712c0.429-2.844,0.857-5.687,1.25-8.283c0.35-1.273,1.551-2.617,2.674-2.617
		c1.433,0,1.821,1.039,1.585,2.596c-0.351,2.343-1.248,8.304-1.248,8.304h2.668c0.43-2.844,0.891-5.922,1.284-8.517
		C105.786,15.176,105.353,12.486,101.944,12.486L101.944,12.486z M106.167,24.793L106.167,24.793c0,1.238,0.755,1.682,1.682,1.682
		c0.933,0,1.681-0.444,1.681-1.682c0-1.229-0.748-1.681-1.681-1.681C106.922,23.112,106.167,23.564,106.167,24.793L106.167,24.793z
		 M106.562,24.793L106.562,24.793c0-0.953,0.587-1.303,1.287-1.303c0.698,0,1.284,0.35,1.284,1.303c0,0.954-0.587,1.303-1.284,1.303
		C107.149,26.096,106.562,25.747,106.562,24.793L106.562,24.793z M107.565,25.047v0.661h-0.416v-1.86h0.746
		c0.52,0,0.681,0.255,0.681,0.613c0,0.286-0.124,0.464-0.359,0.549c0.151,0.246,0.301,0.472,0.453,0.698h-0.453
		c-0.134-0.217-0.265-0.433-0.389-0.651C107.724,25.057,107.659,25.057,107.565,25.047L107.565,25.047L107.565,25.047z
		 M107.876,24.17L107.876,24.17c0.218,0,0.293,0.113,0.293,0.273v0.038c0,0.19-0.104,0.267-0.332,0.267
		c-0.095,0-0.207-0.011-0.272-0.02V24.17H107.876z"/>
	<path fill-rule="evenodd" clip-rule="evenodd" fill="#B00D16" d="M75.339,28.712v-0.001H34.17
		c-5.863,0.004-9.576,0.341-9.576,0.341s5.466,0.334,9.576,0.34h41.046c5.816-0.007,9.494-0.34,9.494-0.34
		S79.424,28.727,75.339,28.712z"/>
</g>
</svg>
