<?xml version="1.0" encoding="utf-8"?>
<!-- Generator: Adobe Illustrator 17.0.0, SVG Export Plug-In . SVG Version: 6.00 Build 0)  -->
<!DOCTYPE svg PUBLIC "-//W3C//DTD SVG 1.1//EN" "http://www.w3.org/Graphics/SVG/1.1/DTD/svg11.dtd">
<svg version="1.1" id="Capa_1" xmlns="http://www.w3.org/2000/svg" xmlns:xlink="http://www.w3.org/1999/xlink" x="0px" y="0px"
	 width="150px" height="43.668px" viewBox="0 0 150 43.668" enable-background="new 0 0 150 43.668" xml:space="preserve">
<g>
	<path fill-rule="evenodd" clip-rule="evenodd" fill="#090C01" d="M21.729,43.593c0.167-1.108,0.334-2.214,0.511-3.323h-1.15
		c0.037-0.235,0.071-0.464,0.108-0.699h3.187c-0.031,0.235-0.074,0.464-0.109,0.699h-1.189l-0.504,3.323H21.729L21.729,43.593z
		 M25.942,41.218L25.942,41.218h1.625c-0.033,0.223-0.068,0.447-0.097,0.663h-1.625c-0.055,0.339-0.105,0.687-0.158,1.027h1.847
		c-0.035,0.233-0.071,0.456-0.108,0.685h-2.7c0.204-1.342,0.408-2.68,0.612-4.021h2.695c-0.035,0.23-0.071,0.451-0.109,0.68h-1.832
		C26.045,40.575,25.993,40.903,25.942,41.218L25.942,41.218z M29.218,39.571L29.218,39.571h0.858l-0.509,3.324h1.709l-0.113,0.698
		H28.61L29.218,39.571L29.218,39.571z M33.324,41.218L33.324,41.218h1.625c-0.033,0.223-0.066,0.447-0.099,0.663h-1.623
		c-0.055,0.339-0.105,0.687-0.158,1.027h1.848c-0.037,0.233-0.07,0.456-0.105,0.685h-2.702c0.201-1.342,0.404-2.68,0.608-4.021
		h2.697c-0.037,0.23-0.071,0.451-0.108,0.68h-1.834C33.427,40.575,33.376,40.903,33.324,41.218L33.324,41.218z M38.75,43.518
		L38.75,43.518c-0.392,0.075-0.974,0.15-1.338,0.15c-0.978,0-1.338-0.37-1.356-1.189c-0.006-0.259,0.022-0.552,0.072-0.895
		c0.22-1.454,0.594-2.082,1.958-2.082c0.34,0,0.838,0.047,1.252,0.13c-0.072,0.234-0.134,0.463-0.208,0.696
		c-0.311-0.051-0.631-0.099-0.947-0.099c-0.721,0-1.004,0.335-1.132,1.126c-0.043,0.253-0.094,0.551-0.1,0.756
		c-0.018,0.552,0.011,0.839,0.768,0.839c0.25,0,0.703-0.063,1.034-0.118C38.753,43.059,38.745,43.283,38.75,43.518L38.75,43.518z
		 M39.839,42.437L39.839,42.437c-0.006-0.246,0.017-0.527,0.068-0.854c0.226-1.454,0.609-2.093,2.109-2.093
		c1.147,0,1.551,0.384,1.57,1.235c0.005,0.248-0.019,0.533-0.07,0.857c-0.23,1.453-0.612,2.085-2.107,2.085
		C40.258,43.668,39.857,43.289,39.839,42.437L39.839,42.437z M40.881,41.155L40.881,41.155c-0.084,0.357-0.165,0.908-0.16,1.173
		c0.009,0.48,0.248,0.621,0.84,0.621c0.603,0,0.849-0.251,0.987-0.937c0.072-0.375,0.165-0.897,0.162-1.172
		c-0.011-0.481-0.252-0.627-0.847-0.627C41.258,40.212,41.048,40.469,40.881,41.155L40.881,41.155z M44.359,43.593L44.359,43.593
		l0.84-4.021h1.029l0.583,2.574l1.38-2.574h1.063l-0.388,4.021h-0.798l0.235-1.946l0.202-1.23L47.1,43.013h-0.796l-0.616-2.596
		l-0.178,1.235l-0.353,1.941H44.359L44.359,43.593z M50.743,39.571L50.743,39.571h0.88l-0.342,2.238
		c-0.097,0.622-0.134,1.119,0.598,1.119c0.614,0,0.811-0.2,0.954-1.119l0.346-2.238h0.868l-0.32,2.144
		c-0.224,1.497-0.57,1.952-1.935,1.952c-1.048,0-1.428-0.291-1.449-1.094c-0.005-0.237,0.024-0.524,0.074-0.858L50.743,39.571
		L50.743,39.571z M54.811,43.593L54.811,43.593l0.616-4.021h0.983l1.21,3.089l0.12-1.477l0.243-1.612h0.798l-0.618,4.021H57.17
		l-1.205-3.083l-0.092,1.359l-0.266,1.724H54.811L54.811,43.593z M59.55,43.593L59.55,43.593c0.202-1.342,0.406-2.68,0.61-4.021
		h0.855c-0.204,1.342-0.414,2.68-0.614,4.021H59.55L59.55,43.593z M64.581,43.518L64.581,43.518c-0.393,0.075-0.976,0.15-1.34,0.15
		c-0.978,0-1.336-0.37-1.358-1.189c-0.005-0.259,0.024-0.552,0.074-0.895c0.221-1.454,0.592-2.082,1.958-2.082
		c0.34,0,0.84,0.047,1.25,0.13c-0.072,0.234-0.134,0.463-0.206,0.696c-0.311-0.051-0.631-0.099-0.943-0.099
		c-0.725,0-1.009,0.335-1.136,1.126c-0.042,0.253-0.093,0.551-0.101,0.756c-0.015,0.552,0.014,0.839,0.77,0.839
		c0.252,0,0.7-0.063,1.033-0.118C64.581,43.059,64.572,43.283,64.581,43.518L64.581,43.518z M68.292,43.593L68.292,43.593
		l-0.175-0.95h-1.459l-0.452,0.95h-0.877l1.963-4.021h1.114l0.761,4.021H68.292L68.292,43.593z M67.757,40.152L67.757,40.152h-0.019
		l-0.836,1.881h1.149L67.757,40.152L67.757,40.152z M72.784,43.518L72.784,43.518c-0.392,0.075-0.974,0.15-1.336,0.15
		c-0.98,0-1.34-0.37-1.361-1.189c-0.004-0.259,0.024-0.552,0.076-0.895c0.217-1.454,0.59-2.082,1.956-2.082
		c0.338,0,0.84,0.047,1.25,0.13c-0.07,0.234-0.134,0.463-0.206,0.696c-0.313-0.051-0.628-0.099-0.945-0.099
		c-0.721,0-1.007,0.335-1.136,1.126c-0.041,0.253-0.092,0.551-0.099,0.756c-0.017,0.552,0.013,0.839,0.77,0.839
		c0.252,0,0.702-0.063,1.035-0.118C72.784,43.059,72.779,43.283,72.784,43.518L72.784,43.518z M73.801,43.593L73.801,43.593
		c0.204-1.342,0.407-2.68,0.61-4.021h0.857c-0.204,1.342-0.416,2.68-0.618,4.021H73.801L73.801,43.593z M76.135,42.437
		L76.135,42.437c-0.007-0.246,0.017-0.527,0.068-0.854c0.226-1.454,0.61-2.093,2.11-2.093c1.151,0,1.552,0.384,1.57,1.235
		c0.007,0.248-0.017,0.533-0.066,0.857c-0.234,1.453-0.616,2.085-2.11,2.085C76.556,43.668,76.152,43.289,76.135,42.437
		L76.135,42.437z M77.179,41.155L77.179,41.155c-0.087,0.357-0.165,0.908-0.16,1.173c0.009,0.48,0.246,0.621,0.84,0.621
		c0.603,0,0.851-0.251,0.989-0.937c0.072-0.375,0.166-0.897,0.158-1.172c-0.009-0.481-0.246-0.627-0.847-0.627
		C77.556,40.212,77.344,40.469,77.179,41.155L77.179,41.155z M80.764,43.593L80.764,43.593l0.618-4.021h0.986l1.205,3.089
		l0.119-1.477l0.247-1.612h0.796l-0.616,4.021h-0.989l-1.211-3.083l-0.09,1.359l-0.267,1.724H80.764L80.764,43.593z M86.727,41.218
		L86.727,41.218h1.623c-0.031,0.223-0.068,0.447-0.096,0.663h-1.623c-0.057,0.339-0.108,0.687-0.158,1.027h1.843
		c-0.035,0.233-0.07,0.456-0.107,0.685h-2.702c0.204-1.342,0.41-2.68,0.61-4.021h2.695c-0.034,0.23-0.068,0.451-0.105,0.68h-1.834
		C86.83,40.575,86.778,40.903,86.727,41.218L86.727,41.218z M89.419,42.849L89.419,42.849c0.414,0.052,0.725,0.088,1.063,0.088
		c0.556,0,0.851-0.06,0.897-0.351c0.04-0.248-0.131-0.394-0.519-0.599l-0.535-0.288c-0.428-0.229-0.844-0.532-0.73-1.172
		c0.145-0.827,0.708-1.032,1.706-1.032c0.356,0,0.833,0.047,1.215,0.116l-0.182,0.704c-0.309-0.046-0.667-0.089-0.934-0.089
		c-0.621,0-0.855,0.065-0.902,0.359c-0.041,0.245,0.178,0.369,0.489,0.533l0.515,0.275c0.593,0.317,0.888,0.646,0.801,1.196
		c-0.118,0.745-0.622,1.073-1.833,1.073c-0.394,0-0.824-0.046-1.228-0.117L89.419,42.849L89.419,42.849z M95.404,43.546
		L95.404,43.546c0.201-1.326,0.407-2.648,0.607-3.975h1.519c1.098,0,1.515,0.339,1.533,1.19c0.007,0.235-0.017,0.497-0.062,0.809
		c-0.219,1.459-0.627,2.087-2.076,2.087C96.467,43.658,95.811,43.609,95.404,43.546L95.404,43.546z M96.748,40.265L96.748,40.265
		c-0.138,0.884-0.268,1.764-0.406,2.649c0.224,0.023,0.433,0.041,0.662,0.041c0.756,0,0.965-0.323,1.086-1.149
		c0.051-0.335,0.114-0.709,0.108-0.944c-0.009-0.427-0.208-0.597-0.783-0.597H96.748L96.748,40.265z M101.164,41.218L101.164,41.218
		h1.625c-0.032,0.223-0.067,0.447-0.098,0.663h-1.621c-0.059,0.339-0.11,0.687-0.16,1.027h1.848
		c-0.037,0.233-0.074,0.456-0.107,0.685h-2.704c0.204-1.342,0.408-2.68,0.61-4.021h2.697c-0.035,0.23-0.072,0.451-0.107,0.68h-1.834
		C101.268,40.575,101.215,40.903,101.164,41.218L101.164,41.218z M105.669,43.593L105.669,43.593l0.837-4.021h1.035l0.579,2.574
		l1.382-2.574h1.061l-0.388,4.021h-0.798l0.239-1.946l0.199-1.23l-1.406,2.596h-0.796l-0.616-2.596l-0.176,1.235l-0.355,1.941
		H105.669L105.669,43.593z M112.7,41.218L112.7,41.218h1.621c-0.029,0.223-0.065,0.447-0.097,0.663h-1.622
		c-0.057,0.339-0.107,0.687-0.158,1.027h1.846c-0.035,0.233-0.071,0.456-0.108,0.685h-2.698c0.2-1.342,0.406-2.68,0.61-4.021h2.693
		c-0.033,0.23-0.072,0.451-0.107,0.68h-1.833C112.801,40.575,112.75,40.903,112.7,41.218L112.7,41.218z M114.441,38.177
		L114.441,38.177l0.103,0.703l-1.623,0.439c-0.028-0.145-0.048-0.292-0.076-0.439C113.378,38.646,113.911,38.416,114.441,38.177
		L114.441,38.177z M114.966,43.593L114.966,43.593l1.449-2.046l-0.744-1.976h0.95l0.535,1.612l1.057-1.612h0.95l-1.355,1.976
		l0.844,2.046h-0.96l-0.625-1.683l-1.158,1.683H114.966L114.966,43.593z M119.554,43.593L119.554,43.593
		c0.204-1.342,0.408-2.68,0.61-4.021h0.856c-0.204,1.342-0.414,2.68-0.617,4.021H119.554L119.554,43.593z M124.585,43.518
		L124.585,43.518c-0.392,0.075-0.974,0.15-1.34,0.15c-0.976,0-1.337-0.37-1.357-1.189c-0.003-0.259,0.024-0.552,0.076-0.895
		c0.217-1.454,0.59-2.082,1.958-2.082c0.336,0,0.836,0.047,1.248,0.13c-0.07,0.234-0.136,0.463-0.208,0.696
		c-0.311-0.051-0.628-0.099-0.944-0.099c-0.721,0-1.006,0.335-1.134,1.126c-0.04,0.253-0.092,0.551-0.099,0.756
		c-0.018,0.552,0.013,0.839,0.768,0.839c0.252,0,0.702-0.063,1.035-0.118C124.585,43.059,124.578,43.283,124.585,43.518
		L124.585,43.518z M125.672,42.437L125.672,42.437c-0.005-0.246,0.019-0.527,0.068-0.854c0.224-1.454,0.608-2.093,2.108-2.093
		c1.151,0,1.552,0.384,1.57,1.235c0.007,0.248-0.017,0.533-0.068,0.857c-0.23,1.453-0.614,2.085-2.107,2.085
		C126.093,43.668,125.692,43.289,125.672,42.437L125.672,42.437z M126.718,41.155L126.718,41.155
		c-0.089,0.357-0.169,0.908-0.162,1.173c0.011,0.48,0.249,0.621,0.84,0.621c0.603,0,0.849-0.251,0.985-0.937
		c0.074-0.375,0.168-0.897,0.162-1.172c-0.015-0.481-0.25-0.627-0.847-0.627C127.091,40.212,126.883,40.469,126.718,41.155z"/>
	<path fill-rule="evenodd" clip-rule="evenodd" fill="#001949" d="M14.786,2.898h2.158c-0.153,0.989-0.976,1.647-2.011,1.647
		c-0.81,0-1.152-0.39-1.152-0.824C13.781,3.347,14.136,2.898,14.786,2.898L14.786,2.898z M23.758,0L23.758,0H2.989
		C1.881,0,1.14,0.732,0.995,1.665C0.732,3.359,0,8.306,0,8.306h3.612L3.25,10.695c0.777-1.506,1.956-2.772,3.39-3.662H2.371
		c1.004-2.866,3.495-5.224,8.675-5.224h6.064c0,0-0.074,0.497-0.164,1.085c0,0.002-0.002,0.002-0.002,0.002l5.013,0.002
		c1.459,0,2.016,0.508,1.777,2.106c-0.204,1.343-0.544,3.568-0.544,3.568c0.275,0.167,0.761,0.52,1.053,0.773
		c0.156,0.133,0.438,0.094,0.481-0.201c0.057-0.368,0.754-4.934,1.04-6.862C26.043,0.425,25.066,0,23.758,0z"/>
	<path fill-rule="evenodd" clip-rule="evenodd" fill="#3F8C47" d="M33.797,30.372l3.591-23.835c0,0,2.706-1.381,3.154-1.618
		c0.506-0.264,0.934-0.153,0.81,0.637c-0.215,1.381-3.761,24.816-3.761,24.816H33.797L33.797,30.372z M19.201,7.522L19.201,7.522
		c-4.604,0-8.514,1.827-9.646,9.43c-1.246,8.392-1.994,13.421-1.994,13.421h3.796c0,0,0.748-5.029,1.998-13.421
		c0.891-5.987,3.945-8.342,9.839-8.381C21.981,7.809,20.766,7.522,19.201,7.522L19.201,7.522z M55.21,26.65L55.21,26.65
		c-2.566,0.95-3.421,1.205-5.292,1.205c-2.584,0-4.4-0.605-3.754-3.987c0,0,3.529-0.511,6.257-0.924
		c3.873-0.586,5.469-1.919,5.856-4.804c0.67-5.012-2.656-5.964-5.941-5.964c-6.08,0-8.963,3.094-9.783,8.332
		c-1.016,6.53-0.382,10.187,6.66,10.187c3.627,0,5.829-1.394,6.555-1.897L55.21,26.65L55.21,26.65z M46.282,21.012L46.282,21.012
		c0.322-3.302,2.066-6.158,5.908-6.158c2.482,0,2.963,1.672,2.811,2.665c-0.198,1.276-0.636,2.278-3.678,2.73
		C47.976,20.748,46.282,21.012,46.282,21.012L46.282,21.012z M29.558,26.65l0.557,2.148c-0.726,0.503-2.928,1.897-6.555,1.897
		c-7.042,0-7.676-3.656-6.658-10.187c0.818-5.238,3.702-8.332,9.783-8.332c3.283,0,6.61,0.951,5.941,5.964
		c-0.388,2.885-1.985,4.218-5.858,4.804c-2.728,0.413-6.255,0.924-6.255,0.924c-0.649,3.383,1.165,3.987,3.755,3.987
		C26.135,27.854,26.992,27.6,29.558,26.65L29.558,26.65L29.558,26.65z M20.63,21.012L20.63,21.012
		c0.324-3.302,2.067-6.158,5.908-6.158c2.48,0,2.963,1.672,2.811,2.665c-0.199,1.276-0.636,2.278-3.678,2.73
		C22.323,20.748,20.63,21.012,20.63,21.012L20.63,21.012z M75.069,14.11L75.069,14.11c-1.141-1.117-2.597-1.935-5.448-1.935
		c-4.538,0-8.185,2.732-9.082,8.529c-0.879,5.691-0.399,9.989,6.274,9.989c3.623,0,5.325-1.394,6.051-1.897l-0.559-2.148
		c-1.715,0.686-2.702,1.205-4.568,1.205c-3.022,0-4-1.464-3.129-7.087c0.772-4.991,3.809-5.853,5.189-5.853
		c1.761,0,2.7,0.858,3.194,2.123L75.069,14.11L75.069,14.11z M85.221,12.168c5.652,0,7.001,3.279,6.167,8.748
		c-0.831,5.42-3.042,9.805-9.209,9.805c-6.406,0-7.612-3.186-6.592-9.805C76.54,14.702,79.902,12.168,85.221,12.168L85.221,12.168
		L85.221,12.168z M87.635,20.916c0.768-5.314-0.557-6.067-2.673-6.067c-2.746,0-4.601,1.133-5.349,6.067
		c-0.789,5.197-0.281,6.913,2.678,6.913C85.418,27.829,86.92,25.864,87.635,20.916L87.635,20.916L87.635,20.916z M112.731,12.188
		L112.731,12.188c-2.386,0-3.853,0.919-5.186,2.676c-0.546-1.715-2.437-2.676-3.812-2.676c-2.386,0-3.643,0.736-4.891,2.167h-0.076
		c0.074-0.727,0.092-0.901,0.165-1.595c0.085-0.786-0.231-0.885-0.714-0.636c-0.703,0.364-2.643,1.349-2.643,1.349l-2.537,16.903
		h3.676c0.59-3.911,1.173-7.821,1.715-11.392c0.625-2.286,2.226-3.599,3.878-3.599c1.636,0,2.314,1.429,1.983,3.57
		c-0.496,3.221-1.719,11.421-1.719,11.421h3.732c0.592-3.911,1.178-7.821,1.72-11.392c0.482-1.751,2.131-3.599,3.676-3.599
		c1.97,0,2.506,1.429,2.18,3.57c-0.483,3.222-1.717,11.421-1.717,11.421h3.671c0.59-3.911,1.225-8.145,1.767-11.714
		C118.018,15.887,117.422,12.188,112.731,12.188L112.731,12.188z M139.565,12.188L139.565,12.188c-2.385,0-3.85,0.919-5.184,2.676
		c-0.547-1.715-2.437-2.676-3.812-2.676c-2.386,0-3.643,0.736-4.89,2.167h-0.077c0.071-0.727,0.09-0.901,0.165-1.595
		c0.084-0.786-0.234-0.885-0.717-0.636c-0.702,0.364-2.642,1.349-2.642,1.349l-2.538,16.903h3.676
		c0.594-3.911,1.174-7.821,1.717-11.392c0.623-2.286,2.228-3.599,3.876-3.599c1.636,0,2.315,1.429,1.985,3.57
		c-0.498,3.221-1.717,11.421-1.717,11.421h3.73c0.59-3.911,1.179-7.821,1.719-11.392c0.481-1.751,2.134-3.599,3.678-3.599
		c1.971,0,2.504,1.429,2.18,3.57c-0.483,3.222-1.717,11.421-1.717,11.421h3.669c0.592-3.911,1.226-8.145,1.767-11.714
		C144.85,15.887,144.254,12.188,139.565,12.188L139.565,12.188z M145.373,29.114L145.373,29.114c0,1.702,1.038,2.313,2.314,2.313
		c1.283,0,2.312-0.611,2.312-2.313c0-1.69-1.029-2.312-2.312-2.312C146.412,26.801,145.373,27.423,145.373,29.114L145.373,29.114z
		 M145.918,29.114L145.918,29.114c0-1.311,0.807-1.792,1.77-1.792c0.96,0,1.767,0.481,1.767,1.792c0,1.313-0.807,1.792-1.767,1.792
		C146.724,30.906,145.918,30.426,145.918,29.114L145.918,29.114z M147.296,29.464v0.909h-0.572v-2.558h1.026
		c0.715,0,0.937,0.351,0.937,0.843c0,0.393-0.171,0.638-0.494,0.756c0.208,0.338,0.414,0.649,0.623,0.96h-0.623
		c-0.184-0.298-0.364-0.596-0.535-0.895C147.515,29.478,147.427,29.478,147.296,29.464L147.296,29.464L147.296,29.464z
		 M147.724,28.257L147.724,28.257c0.3,0,0.403,0.155,0.403,0.375v0.052c0,0.261-0.143,0.367-0.456,0.367
		c-0.13,0-0.285-0.015-0.375-0.028v-0.766H147.724z"/>
	<path fill-rule="evenodd" clip-rule="evenodd" fill="#B10D16" d="M102.974,34.504v-0.002H46.351
		c-8.064,0.005-13.17,0.469-13.17,0.469s7.518,0.459,13.17,0.467h56.454c8-0.01,13.058-0.467,13.058-0.467
		S108.592,34.524,102.974,34.504z"/>
</g>
</svg>
