<?xml version="1.0" encoding="UTF-8" standalone="no"?>
<!-- Created with Inkscape (http://www.inkscape.org/) -->

<svg
   xmlns:dc="http://purl.org/dc/elements/1.1/"
   xmlns:cc="http://creativecommons.org/ns#"
   xmlns:rdf="http://www.w3.org/1999/02/22-rdf-syntax-ns#"
   xmlns:svg="http://www.w3.org/2000/svg"
   xmlns="http://www.w3.org/2000/svg"
   xmlns:sodipodi="http://sodipodi.sourceforge.net/DTD/sodipodi-0.dtd"
   xmlns:inkscape="http://www.inkscape.org/namespaces/inkscape"
   width="110"
   height="39"
   viewBox="0 0 29.104166 10.31875"
   version="1.1"
   id="svg8"
   inkscape:version="0.92.0 r15299"
   sodipodi:docname="logoSPEI.svg">
  <defs
     id="defs2" />
  <sodipodi:namedview
     id="base"
     pagecolor="#ffffff"
     bordercolor="#666666"
     borderopacity="1.0"
     inkscape:pageopacity="0.0"
     inkscape:pageshadow="2"
     inkscape:zoom="2.1094335"
     inkscape:cx="65.730369"
     inkscape:cy="16.432592"
     inkscape:document-units="px"
     inkscape:current-layer="g1057"
     showgrid="false"
     fit-margin-top="0"
     fit-margin-left="0"
     fit-margin-right="0"
     fit-margin-bottom="0"
     units="px"
     inkscape:window-width="1024"
     inkscape:window-height="572"
     inkscape:window-x="0"
     inkscape:window-y="0"
     inkscape:window-maximized="1" />
  <metadata
     id="metadata5">
    <rdf:RDF>
      <cc:Work
         rdf:about="">
        <dc:format>image/svg+xml</dc:format>
        <dc:type
           rdf:resource="http://purl.org/dc/dcmitype/StillImage" />
        <dc:title></dc:title>
      </cc:Work>
    </rdf:RDF>
  </metadata>
  <g
     inkscape:label="Capa 1"
     inkscape:groupmode="layer"
     id="layer1"
     transform="translate(-57.853503,-150.69307)">
    <g
       id="g23">
      <g
         id="g1057"
         transform="translate(-10.1795,37.809571)">
        <g
           id="g1073"
           transform="matrix(0.30662658,0,0,0.30662658,60.1114,90.453881)"
           style="stroke-width:3.26129603">
          <g
             aria-label="SPEI"
             style="font-style:normal;font-weight:normal;font-size:23.11015892px;line-height:14.44384861px;font-family:sans-serif;letter-spacing:0px;word-spacing:0px;fill:#322f84;fill-opacity:1;stroke:none;stroke-width:0.86288452"
             id="text149"
             transform="translate(-0.20801725,-27.530898)">
            <path
               d="m 26.354859,116.3469 4.863515,-0.30468 q 0.157979,1.18485 0.643202,1.80548 0.789898,1.0043 2.256852,1.0043 1.094573,0 1.681354,-0.50779 0.598066,-0.51907 0.598066,-1.19613 0,-0.6432 -0.564213,-1.15099 -0.564213,-0.5078 -2.617948,-0.95917 -3.362708,-0.75604 -4.795809,-2.00859 -1.444385,-1.25256 -1.444385,-3.19345 0,-1.27512 0.733477,-2.40354 0.744761,-1.13971 2.222998,-1.78292 1.489522,-0.65448 4.073617,-0.65448 3.170877,0 4.829662,1.18484 1.670071,1.17357 1.98603,3.74638 l -4.818378,0.2821 q -0.191833,-1.11714 -0.812467,-1.62493 -0.60935,-0.50779 -1.692638,-0.50779 -0.891457,0 -1.342827,0.38366 -0.45137,0.37238 -0.45137,0.91403 0,0.39495 0.37238,0.71091 0.361097,0.32724 1.715207,0.60935 3.351425,0.72219 4.79581,1.46695 1.455669,0.73348 2.110156,1.82805 0.665771,1.09457 0.665771,2.44868 0,1.59108 -0.880172,2.93391 -0.880172,1.34283 -2.459968,2.04245 -1.579796,0.68834 -3.983343,0.68834 -4.220312,0 -5.845245,-1.62493 -1.624933,-1.62494 -1.839334,-4.13004 z"
               style="font-style:normal;font-variant:normal;font-weight:normal;font-stretch:normal;font-family:'Arial Black';-inkscape-font-specification:'Arial Black, ';fill:#322f84;fill-opacity:1;stroke-width:0.86288452"
               id="path956"
               inkscape:connector-curvature="0" />
            <path
               d="m 43.924447,105.27704 h 8.497046 q 2.775927,0 4.152607,1.32026 1.387964,1.32026 1.387964,3.75766 0,2.5051 -1.512091,3.91564 -1.500806,1.41053 -4.592693,1.41053 h -2.798495 v 6.13863 h -5.134338 z m 5.134338,7.05266 h 1.252552 q 1.478238,0 2.076303,-0.50779 0.598066,-0.51907 0.598066,-1.32026 0,-0.77861 -0.519076,-1.32025 -0.519076,-0.54165 -1.952176,-0.54165 h -1.455669 z"
               style="font-style:normal;font-variant:normal;font-weight:normal;font-stretch:normal;font-family:'Arial Black';-inkscape-font-specification:'Arial Black, ';fill:#322f84;fill-opacity:1;stroke-width:0.86288452"
               id="path958"
               inkscape:connector-curvature="0" />
            <path
               d="m 60.636432,105.27704 h 13.699089 v 3.53197 h -8.576036 v 2.62924 h 7.955402 v 3.37399 h -7.955402 v 3.26115 h 8.824289 v 3.74637 H 60.636432 Z"
               style="font-style:normal;font-variant:normal;font-weight:normal;font-stretch:normal;font-family:'Arial Black';-inkscape-font-specification:'Arial Black, ';fill:#fe9300;fill-opacity:1;stroke-width:0.86288452"
               id="path960"
               inkscape:connector-curvature="0" />
            <path
               style="font-style:normal;font-variant:normal;font-weight:normal;font-stretch:normal;font-family:'Arial Black';-inkscape-font-specification:'Arial Black, ';fill:#322f84;fill-opacity:1;stroke-width:3.2612958"
               d="m 294.29102,428.66602 v 23.9121 h 7.27734 v -14.10351 l 12.08594,18.25781 v -28.0664 z m 19.36328,33.15429 -12.13282,15.62305 v -12.36524 h -7.23046 v 26.11133 h 19.36328 z"
               transform="matrix(0.26458333,0,0,0.26458333,-0.31310791,-8.1408057)"
               id="path962"
               inkscape:connector-curvature="0"
               sodipodi:nodetypes="cccccccccccccc" />
          </g>
          <g
             id="g1035"
             transform="translate(-34.416404,-3.1750001)"
             style="stroke-width:7.9088583">
            <g
               aria-label="SISTEMA DE PAGOS"
               style="font-style:normal;font-weight:normal;font-size:3.86078548px;line-height:2.41299081px;font-family:sans-serif;letter-spacing:0px;word-spacing:0px;fill:#959091;fill-opacity:1;stroke:none;stroke-width:0.86288452"
               id="text991">
              <path
                 d="m 120.30198,85.733381 v -0.331787 q 0.36195,0.150812 0.69374,0.150812 0.30162,0 0.43735,-0.105568 0.15081,-0.105568 0.15081,-0.331786 0,-0.180975 -0.10556,-0.301624 -0.0754,-0.07541 -0.55801,-0.286543 -0.3167,-0.150812 -0.45243,-0.331786 -0.13574,-0.180974 -0.13574,-0.467517 0,-0.316705 0.21114,-0.497679 0.22622,-0.196056 0.61833,-0.196056 0.40719,0 0.7239,0.150812 l -0.12065,0.286543 q -0.31671,-0.135731 -0.60325,-0.135731 -0.2413,0 -0.36195,0.105568 -0.12065,0.105569 -0.12065,0.286543 0,0.211137 0.0905,0.316705 0.10557,0.09049 0.49768,0.271461 0.40719,0.165894 0.52784,0.346868 0.13573,0.165893 0.13573,0.422273 0,0.346868 -0.2413,0.558004 -0.2413,0.211137 -0.69373,0.211137 -0.43736,0 -0.69374,-0.120649 z"
                 style="font-style:normal;font-variant:normal;font-weight:bold;font-stretch:normal;font-family:sans-serif;-inkscape-font-specification:'sans-serif Bold';fill:#959091;fill-opacity:1;stroke-width:0.86288452"
                 id="path1094" />
              <path
                 d="m 123.27298,85.823868 h -1.01044 v -0.196056 l 0.33178,-0.07541 v -2.216935 l -0.33178,-0.07541 v -0.196056 h 1.01044 v 0.196056 l -0.33179,0.07541 v 2.216935 l 0.33179,0.07541 z"
                 style="font-style:normal;font-variant:normal;font-weight:bold;font-stretch:normal;font-family:sans-serif;-inkscape-font-specification:'sans-serif Bold';fill:#959091;fill-opacity:1;stroke-width:0.86288452"
                 id="path1096" />
              <path
                 d="m 123.61984,85.733381 v -0.331787 q 0.36195,0.150812 0.69374,0.150812 0.30162,0 0.43735,-0.105568 0.15082,-0.105568 0.15082,-0.331786 0,-0.180975 -0.10557,-0.301624 -0.0754,-0.07541 -0.55801,-0.286543 -0.3167,-0.150812 -0.45243,-0.331786 -0.13573,-0.180974 -0.13573,-0.467517 0,-0.316705 0.21113,-0.497679 0.22622,-0.196056 0.61833,-0.196056 0.40719,0 0.7239,0.150812 l -0.12065,0.286543 q -0.3167,-0.135731 -0.60325,-0.135731 -0.2413,0 -0.36195,0.105568 -0.12065,0.105569 -0.12065,0.286543 0,0.211137 0.0905,0.316705 0.10557,0.09049 0.49768,0.271461 0.40719,0.165894 0.52784,0.346868 0.13573,0.165893 0.13573,0.422273 0,0.346868 -0.2413,0.558004 -0.24129,0.211137 -0.69373,0.211137 -0.43736,0 -0.69374,-0.120649 z"
                 style="font-style:normal;font-variant:normal;font-weight:bold;font-stretch:normal;font-family:sans-serif;-inkscape-font-specification:'sans-serif Bold';fill:#959091;fill-opacity:1;stroke-width:0.86288452"
                 id="path1098" />
              <path
                 d="m 126.60592,85.823868 h -0.34687 v -2.443154 h -0.78422 v -0.316705 h 1.91531 v 0.316705 h -0.78422 z"
                 style="font-style:normal;font-variant:normal;font-weight:bold;font-stretch:normal;font-family:sans-serif;-inkscape-font-specification:'sans-serif Bold';fill:#959091;fill-opacity:1;stroke-width:0.86288452"
                 id="path1100" />
              <path
                 d="m 129.24513,85.823868 h -1.43271 v -2.759859 h 1.43271 v 0.316705 h -1.08585 v 0.844547 h 1.01044 v 0.301624 h -1.01044 v 0.980278 h 1.08585 z"
                 style="font-style:normal;font-variant:normal;font-weight:bold;font-stretch:normal;font-family:sans-serif;-inkscape-font-specification:'sans-serif Bold';fill:#959091;fill-opacity:1;stroke-width:0.86288452"
                 id="path1102" />
              <path
                 d="M 130.97947,85.823868 130.15,83.410877 h -0.0151 q 0.0302,0.527842 0.0302,0.769141 v 1.64385 h -0.3167 v -2.759859 h 0.51276 l 0.78422,2.247098 h 0.0151 l 0.76914,-2.247098 h 0.52784 v 2.759859 h -0.34686 v -1.674013 q 0,-0.25638 0.0151,-0.738978 h -0.0151 l -0.82947,2.412991 z"
                 style="font-style:normal;font-variant:normal;font-weight:bold;font-stretch:normal;font-family:sans-serif;-inkscape-font-specification:'sans-serif Bold';fill:#959091;fill-opacity:1;stroke-width:0.86288452"
                 id="path1104" />
              <path
                 d="m 134.82517,85.823868 -0.30162,-0.859628 h -1.02552 l -0.30163,0.859628 h -0.36195 l 1.01044,-2.77494 h 0.31671 l 1.02552,2.77494 z m -0.40719,-1.161252 -0.28654,-0.799303 q -0.0905,-0.256381 -0.12065,-0.437355 -0.0452,0.211137 -0.13573,0.437355 l -0.27147,0.799303 z"
                 style="font-style:normal;font-variant:normal;font-weight:bold;font-stretch:normal;font-family:sans-serif;-inkscape-font-specification:'sans-serif Bold';fill:#959091;fill-opacity:1;stroke-width:0.86288452"
                 id="path1106" />
              <path
                 d="m 136.57459,85.823868 v -2.759859 h 0.76914 q 0.58817,0 0.91995,0.361949 0.34687,0.346868 0.34687,0.995359 0,0.678654 -0.36195,1.040602 -0.34687,0.361949 -0.98028,0.361949 z m 0.34687,-2.458235 v 2.156611 h 0.30162 q 0.51276,0 0.75406,-0.271462 0.25638,-0.271461 0.25638,-0.814384 0,-0.542923 -0.2413,-0.799303 -0.22622,-0.271462 -0.69373,-0.271462 z"
                 style="font-style:normal;font-variant:normal;font-weight:bold;font-stretch:normal;font-family:sans-serif;-inkscape-font-specification:'sans-serif Bold';fill:#959091;fill-opacity:1;stroke-width:0.86288452"
                 id="path1108" />
              <path
                 d="m 140.64651,85.823868 h -1.43271 v -2.759859 h 1.43271 v 0.316705 h -1.08584 v 0.844547 h 1.01044 v 0.301624 h -1.01044 v 0.980278 h 1.08584 z"
                 style="font-style:normal;font-variant:normal;font-weight:bold;font-stretch:normal;font-family:sans-serif;-inkscape-font-specification:'sans-serif Bold';fill:#959091;fill-opacity:1;stroke-width:0.86288452"
                 id="path1110" />
              <path
                 d="m 142.60707,84.753103 v 1.070765 h -0.34687 v -2.759859 h 0.67865 q 0.4826,0 0.7239,0.211137 0.2413,0.196056 0.2413,0.603248 0,0.407192 -0.25638,0.648491 -0.25638,0.226218 -0.75406,0.226218 z m 0,-0.301624 h 0.2413 q 0.37703,0 0.52784,-0.135731 0.16589,-0.13573 0.16589,-0.422273 0,-0.25638 -0.16589,-0.392111 -0.15081,-0.135731 -0.46752,-0.135731 h -0.30162 z"
                 style="font-style:normal;font-variant:normal;font-weight:bold;font-stretch:normal;font-family:sans-serif;-inkscape-font-specification:'sans-serif Bold';fill:#959091;fill-opacity:1;stroke-width:0.86288452"
                 id="path1112" />
              <path
                 d="m 145.95509,85.823868 -0.30162,-0.859628 h -1.02552 l -0.30163,0.859628 h -0.36195 l 1.01044,-2.77494 h 0.31671 l 1.02552,2.77494 z m -0.40719,-1.161252 -0.28654,-0.799303 q -0.0905,-0.256381 -0.12065,-0.437355 -0.0453,0.211137 -0.13573,0.437355 l -0.27146,0.799303 z"
                 style="font-style:normal;font-variant:normal;font-weight:bold;font-stretch:normal;font-family:sans-serif;-inkscape-font-specification:'sans-serif Bold';fill:#959091;fill-opacity:1;stroke-width:0.86288452"
                 id="path1114" />
              <path
                 d="m 147.74975,84.360992 h 0.90488 v 1.357307 q -0.42228,0.135731 -0.91996,0.135731 -0.558,0 -0.88979,-0.361948 -0.33178,-0.361949 -0.33178,-1.055684 0,-0.663572 0.34686,-1.025521 0.36195,-0.37703 0.99536,-0.37703 0.42228,0 0.75406,0.150812 l -0.13573,0.316705 q -0.33178,-0.165893 -0.64849,-0.165893 -0.43735,0 -0.69373,0.286543 -0.25639,0.286542 -0.25639,0.829465 0,0.542923 0.22622,0.829466 0.2413,0.271461 0.7239,0.271461 0.22622,0 0.4826,-0.06032 v -0.814385 h -0.55801 z"
                 style="font-style:normal;font-variant:normal;font-weight:bold;font-stretch:normal;font-family:sans-serif;-inkscape-font-specification:'sans-serif Bold';fill:#959091;fill-opacity:1;stroke-width:0.86288452"
                 id="path1116" />
              <path
                 d="m 149.18247,84.436398 q 0,-0.693735 0.3167,-1.055684 0.31671,-0.361948 0.87471,-0.361948 0.54292,0 0.85963,0.37703 0.33179,0.361948 0.33179,1.040602 0,0.693735 -0.33179,1.055684 -0.31671,0.361948 -0.85963,0.361948 -0.558,0 -0.87471,-0.346867 -0.3167,-0.361949 -0.3167,-1.070765 z m 2.02088,0 q 0,-0.542923 -0.21114,-0.814384 -0.21114,-0.286543 -0.61833,-0.286543 -0.40719,0 -0.61833,0.286543 -0.21113,0.271461 -0.21113,0.814384 0,0.558004 0.21113,0.844547 0.21114,0.271461 0.61833,0.271461 0.40719,0 0.61833,-0.271461 0.21114,-0.286543 0.21114,-0.844547 z"
                 style="font-style:normal;font-variant:normal;font-weight:bold;font-stretch:normal;font-family:sans-serif;-inkscape-font-specification:'sans-serif Bold';fill:#959091;fill-opacity:1;stroke-width:0.86288452"
                 id="path1118" />
              <path
                 d="m 152.00265,85.733381 v -0.331787 q 0.36195,0.150812 0.69374,0.150812 0.30162,0 0.43735,-0.105568 0.15081,-0.105568 0.15081,-0.331786 0,-0.180975 -0.10557,-0.301624 -0.0754,-0.07541 -0.558,-0.286543 -0.31671,-0.150812 -0.45244,-0.331786 -0.13573,-0.180974 -0.13573,-0.467517 0,-0.316705 0.21114,-0.497679 0.22622,-0.196056 0.61833,-0.196056 0.40719,0 0.7239,0.150812 l -0.12065,0.286543 q -0.31671,-0.135731 -0.60325,-0.135731 -0.2413,0 -0.36195,0.105568 -0.12065,0.105569 -0.12065,0.286543 0,0.211137 0.0905,0.316705 0.10557,0.09049 0.49768,0.271461 0.40719,0.165894 0.52784,0.346868 0.13573,0.165893 0.13573,0.422273 0,0.346868 -0.2413,0.558004 -0.2413,0.211137 -0.69373,0.211137 -0.43736,0 -0.69374,-0.120649 z"
                 style="font-style:normal;font-variant:normal;font-weight:bold;font-stretch:normal;font-family:sans-serif;-inkscape-font-specification:'sans-serif Bold';fill:#959091;fill-opacity:1;stroke-width:0.86288452"
                 id="path1120" />
            </g>
            <g
               aria-label="ELECTRONICOS"
               style="font-style:normal;font-weight:normal;font-size:3.86078572px;line-height:2.41299081px;font-family:sans-serif;letter-spacing:0px;word-spacing:0px;fill:#ff9917;fill-opacity:1;stroke:none;stroke-width:0.86288452"
               id="text991-3">
              <path
                 d="m 121.7347,90.59642 h -1.43271 v -2.759858 h 1.43271 v 0.316705 h -1.08585 v 0.844547 h 1.01044 v 0.301624 h -1.01044 v 0.980277 h 1.08585 z"
                 style="font-style:normal;font-variant:normal;font-weight:bold;font-stretch:normal;font-family:sans-serif;-inkscape-font-specification:'sans-serif Bold';fill:#ff9917;fill-opacity:1;stroke-width:0.86288452"
                 id="path1123" />
              <path
                 d="m 122.33795,90.59642 v -2.759858 h 0.34687 v 2.443153 h 1.08584 v 0.316705 z"
                 style="font-style:normal;font-variant:normal;font-weight:bold;font-stretch:normal;font-family:sans-serif;-inkscape-font-specification:'sans-serif Bold';fill:#ff9917;fill-opacity:1;stroke-width:0.86288452"
                 id="path1125" />
              <path
                 d="m 125.67089,90.59642 h -1.43271 v -2.759858 h 1.43271 v 0.316705 h -1.08584 v 0.844547 h 1.01044 v 0.301624 h -1.01044 v 0.980277 h 1.08584 z"
                 style="font-style:normal;font-variant:normal;font-weight:bold;font-stretch:normal;font-family:sans-serif;-inkscape-font-specification:'sans-serif Bold';fill:#ff9917;fill-opacity:1;stroke-width:0.86288452"
                 id="path1127" />
              <path
                 d="m 128.00848,90.21939 v 0.301624 q -0.27146,0.105569 -0.67866,0.105569 -0.558,0 -0.87471,-0.346868 -0.3167,-0.361948 -0.3167,-1.070765 0,-0.663572 0.33179,-1.025521 0.34686,-0.37703 0.91995,-0.37703 0.42227,0 0.7239,0.150812 l -0.15082,0.301624 q -0.28654,-0.150812 -0.57308,-0.150812 -0.39211,0 -0.64849,0.301624 -0.2413,0.286543 -0.2413,0.814385 0,0.542923 0.22622,0.829465 0.22621,0.271462 0.66357,0.271462 0.2413,0 0.61833,-0.105569 z"
                 style="font-style:normal;font-variant:normal;font-weight:bold;font-stretch:normal;font-family:sans-serif;-inkscape-font-specification:'sans-serif Bold';fill:#ff9917;fill-opacity:1;stroke-width:0.86288452"
                 id="path1129" />
              <path
                 d="m 129.39595,90.59642 h -0.34687 v -2.443153 h -0.78422 v -0.316705 h 1.91531 v 0.316705 h -0.78422 z"
                 style="font-style:normal;font-variant:normal;font-weight:bold;font-stretch:normal;font-family:sans-serif;-inkscape-font-specification:'sans-serif Bold';fill:#ff9917;fill-opacity:1;stroke-width:0.86288452"
                 id="path1131" />
              <path
                 d="m 130.94931,89.45025 v 1.14617 h -0.34687 v -2.759858 h 0.66357 q 0.49768,0 0.73898,0.196055 0.2413,0.196056 0.2413,0.588167 0,0.542923 -0.54292,0.738978 l 0.75406,1.236658 h -0.40719 l -0.66358,-1.14617 z m 0,-0.286543 h 0.3167 q 0.31671,0 0.46752,-0.135731 0.15081,-0.135731 0.15081,-0.392111 0,-0.25638 -0.15081,-0.37703 -0.13573,-0.120649 -0.4826,-0.120649 h -0.30162 z"
                 style="font-style:normal;font-variant:normal;font-weight:bold;font-stretch:normal;font-family:sans-serif;-inkscape-font-specification:'sans-serif Bold';fill:#ff9917;fill-opacity:1;stroke-width:0.86288452"
                 id="path1133" />
              <path
                 d="m 132.74397,89.20895 q 0,-0.693735 0.31671,-1.055683 0.3167,-0.361949 0.87471,-0.361949 0.54292,0 0.85962,0.37703 0.33179,0.361949 0.33179,1.040602 0,0.693735 -0.33179,1.055684 -0.3167,0.361949 -0.85962,0.361949 -0.55801,0 -0.87471,-0.346868 -0.31671,-0.361948 -0.31671,-1.070765 z m 2.02088,0 q 0,-0.542923 -0.21113,-0.814384 -0.21114,-0.286543 -0.61833,-0.286543 -0.4072,0 -0.61833,0.286543 -0.21114,0.271461 -0.21114,0.814384 0,0.558005 0.21114,0.844547 0.21113,0.271462 0.61833,0.271462 0.40719,0 0.61833,-0.271462 0.21113,-0.286542 0.21113,-0.844547 z"
                 style="font-style:normal;font-variant:normal;font-weight:bold;font-stretch:normal;font-family:sans-serif;-inkscape-font-specification:'sans-serif Bold';fill:#ff9917;fill-opacity:1;stroke-width:0.86288452"
                 id="path1135" />
              <path
                 d="m 137.81125,90.59642 h -0.40719 l -1.35731,-2.27726 h -0.0151 q 0.0302,0.542923 0.0302,0.784222 v 1.493038 h -0.31671 v -2.759858 h 0.40719 l 1.34223,2.27726 h 0.0151 q -0.0302,-0.497679 -0.0302,-0.769141 v -1.508119 h 0.33178 z"
                 style="font-style:normal;font-variant:normal;font-weight:bold;font-stretch:normal;font-family:sans-serif;-inkscape-font-specification:'sans-serif Bold';fill:#ff9917;fill-opacity:1;stroke-width:0.86288452"
                 id="path1137" />
              <path
                 d="m 139.34954,90.59642 h -1.01044 v -0.196055 l 0.33178,-0.07541 v -2.216936 l -0.33178,-0.07541 v -0.196055 h 1.01044 v 0.196055 l -0.33179,0.07541 v 2.216936 l 0.33179,0.07541 z"
                 style="font-style:normal;font-variant:normal;font-weight:bold;font-stretch:normal;font-family:sans-serif;-inkscape-font-specification:'sans-serif Bold';fill:#ff9917;fill-opacity:1;stroke-width:0.86288452"
                 id="path1139" />
              <path
                 d="m 141.56647,90.21939 v 0.301624 q -0.27146,0.105569 -0.67865,0.105569 -0.55801,0 -0.87471,-0.346868 -0.31671,-0.361948 -0.31671,-1.070765 0,-0.663572 0.33179,-1.025521 0.34687,-0.37703 0.91995,-0.37703 0.42227,0 0.7239,0.150812 l -0.15081,0.301624 q -0.28655,-0.150812 -0.57309,-0.150812 -0.39211,0 -0.64849,0.301624 -0.2413,0.286543 -0.2413,0.814385 0,0.542923 0.22622,0.829465 0.22622,0.271462 0.66357,0.271462 0.2413,0 0.61833,-0.105569 z"
                 style="font-style:normal;font-variant:normal;font-weight:bold;font-stretch:normal;font-family:sans-serif;-inkscape-font-specification:'sans-serif Bold';fill:#ff9917;fill-opacity:1;stroke-width:0.86288452"
                 id="path1141" />
              <path
                 d="m 141.9435,89.20895 q 0,-0.693735 0.31671,-1.055683 0.3167,-0.361949 0.87471,-0.361949 0.54292,0 0.85962,0.37703 0.33179,0.361949 0.33179,1.040602 0,0.693735 -0.33179,1.055684 -0.3167,0.361949 -0.85962,0.361949 -0.55801,0 -0.87471,-0.346868 -0.31671,-0.361948 -0.31671,-1.070765 z m 2.02088,0 q 0,-0.542923 -0.21114,-0.814384 -0.21113,-0.286543 -0.61832,-0.286543 -0.4072,0 -0.61833,0.286543 -0.21114,0.271461 -0.21114,0.814384 0,0.558005 0.21114,0.844547 0.21113,0.271462 0.61833,0.271462 0.40719,0 0.61832,-0.271462 0.21114,-0.286542 0.21114,-0.844547 z"
                 style="font-style:normal;font-variant:normal;font-weight:bold;font-stretch:normal;font-family:sans-serif;-inkscape-font-specification:'sans-serif Bold';fill:#ff9917;fill-opacity:1;stroke-width:0.86288452"
                 id="path1143" />
              <path
                 d="m 144.76368,90.505933 v -0.331786 q 0.36195,0.150812 0.69374,0.150812 0.30162,0 0.43735,-0.105569 0.15082,-0.105568 0.15082,-0.331786 0,-0.180974 -0.10557,-0.301624 -0.0754,-0.07541 -0.55801,-0.286542 -0.3167,-0.150812 -0.45243,-0.331787 -0.13573,-0.180974 -0.13573,-0.467517 0,-0.316705 0.21113,-0.497679 0.22622,-0.196056 0.61833,-0.196056 0.40719,0 0.7239,0.150812 l -0.12065,0.286543 q -0.3167,-0.135731 -0.60325,-0.135731 -0.2413,0 -0.36195,0.105569 -0.12065,0.105568 -0.12065,0.286542 0,0.211137 0.0905,0.316705 0.10557,0.09049 0.49768,0.271462 0.40719,0.165893 0.52784,0.346867 0.13573,0.165893 0.13573,0.422274 0,0.346867 -0.2413,0.558004 -0.24129,0.211137 -0.69373,0.211137 -0.43736,0 -0.69374,-0.12065 z"
                 style="font-style:normal;font-variant:normal;font-weight:bold;font-stretch:normal;font-family:sans-serif;-inkscape-font-specification:'sans-serif Bold';fill:#ff9917;fill-opacity:1;stroke-width:0.86288452"
                 id="path1145" />
            </g>
            <g
               aria-label="INTERBANCARIOS"
               style="font-style:normal;font-weight:normal;font-size:3.86078572px;line-height:2.41299081px;font-family:sans-serif;letter-spacing:0px;word-spacing:0px;fill:#959091;fill-opacity:1;stroke:none;stroke-width:0.86288452"
               id="text991-7">
              <path
                 d="m 121.31243,95.605385 h -1.01044 v -0.196056 l 0.33178,-0.07541 v -2.216935 l -0.33178,-0.07541 v -0.196056 h 1.01044 v 0.196056 l -0.33179,0.07541 v 2.216935 l 0.33179,0.07541 z"
                 style="font-style:normal;font-variant:normal;font-weight:bold;font-stretch:normal;font-family:sans-serif;-inkscape-font-specification:'sans-serif Bold';fill:#959091;fill-opacity:1;stroke-width:0.86288452"
                 id="path1148" />
              <path
                 d="m 123.90639,95.605385 h -0.40719 l -1.35731,-2.277261 h -0.0151 q 0.0302,0.542923 0.0302,0.784223 v 1.493038 h -0.31671 v -2.759859 h 0.40719 l 1.34223,2.277261 h 0.0151 q -0.0302,-0.49768 -0.0302,-0.769141 v -1.50812 h 0.33178 z"
                 style="font-style:normal;font-variant:normal;font-weight:bold;font-stretch:normal;font-family:sans-serif;-inkscape-font-specification:'sans-serif Bold';fill:#959091;fill-opacity:1;stroke-width:0.86288452"
                 id="path1150" />
              <path
                 d="m 125.45976,95.605385 h -0.34687 v -2.443154 h -0.78422 v -0.316705 h 1.91531 v 0.316705 h -0.78422 z"
                 style="font-style:normal;font-variant:normal;font-weight:bold;font-stretch:normal;font-family:sans-serif;-inkscape-font-specification:'sans-serif Bold';fill:#959091;fill-opacity:1;stroke-width:0.86288452"
                 id="path1152" />
              <path
                 d="m 128.09897,95.605385 h -1.43272 v -2.759859 h 1.43272 v 0.316705 h -1.08585 v 0.844547 h 1.01044 v 0.301624 h -1.01044 v 0.980278 h 1.08585 z"
                 style="font-style:normal;font-variant:normal;font-weight:bold;font-stretch:normal;font-family:sans-serif;-inkscape-font-specification:'sans-serif Bold';fill:#959091;fill-opacity:1;stroke-width:0.86288452"
                 id="path1154" />
              <path
                 d="m 129.04908,94.459214 v 1.146171 h -0.34687 v -2.759859 h 0.66358 q 0.49768,0 0.73897,0.196056 0.2413,0.196055 0.2413,0.588166 0,0.542923 -0.54292,0.738979 l 0.75406,1.236658 h -0.40719 l -0.66357,-1.146171 z m 0,-0.286543 h 0.31671 q 0.3167,0 0.46751,-0.13573 0.15082,-0.135731 0.15082,-0.392111 0,-0.256381 -0.15082,-0.37703 -0.13573,-0.12065 -0.48259,-0.12065 h -0.30163 z"
                 style="font-style:normal;font-variant:normal;font-weight:bold;font-stretch:normal;font-family:sans-serif;-inkscape-font-specification:'sans-serif Bold';fill:#959091;fill-opacity:1;stroke-width:0.86288452"
                 id="path1156" />
              <path
                 d="m 130.97947,92.845526 h 0.75406 q 0.54293,0 0.75406,0.180975 0.22622,0.165893 0.22622,0.51276 0,0.512761 -0.558,0.603248 v 0.01508 q 0.63341,0.105569 0.63341,0.648492 0,0.361948 -0.2413,0.588166 -0.22622,0.211137 -0.64849,0.211137 h -0.91996 z m 0.34687,1.176333 h 0.46752 q 0.30162,0 0.42227,-0.105568 0.13573,-0.120649 0.13573,-0.346867 0,-0.211137 -0.15081,-0.316705 -0.15081,-0.105569 -0.45244,-0.105569 h -0.42227 z m 0,0.286543 v 0.995359 h 0.49768 q 0.30162,0 0.43736,-0.12065 0.15081,-0.13573 0.15081,-0.392111 0,-0.241299 -0.15081,-0.361948 -0.15082,-0.12065 -0.45244,-0.12065 z"
                 style="font-style:normal;font-variant:normal;font-weight:bold;font-stretch:normal;font-family:sans-serif;-inkscape-font-specification:'sans-serif Bold';fill:#959091;fill-opacity:1;stroke-width:0.86288452"
                 id="path1158" />
              <path
                 d="m 134.99107,95.605385 -0.30162,-0.859628 h -1.02552 l -0.30163,0.859628 h -0.36195 l 1.01044,-2.77494 h 0.31671 l 1.02552,2.77494 z m -0.40719,-1.161252 -0.28654,-0.799303 q -0.0905,-0.256381 -0.12065,-0.437355 -0.0453,0.211137 -0.13573,0.437355 l -0.27147,0.799303 z"
                 style="font-style:normal;font-variant:normal;font-weight:bold;font-stretch:normal;font-family:sans-serif;-inkscape-font-specification:'sans-serif Bold';fill:#959091;fill-opacity:1;stroke-width:0.86288452"
                 id="path1160" />
              <path
                 d="m 137.79617,95.605385 h -0.40719 l -1.35731,-2.277261 h -0.0151 q 0.0302,0.542923 0.0302,0.784223 v 1.493038 h -0.3167 v -2.759859 h 0.40719 l 1.34223,2.277261 h 0.0151 q -0.0302,-0.49768 -0.0302,-0.769141 v -1.50812 h 0.33178 z"
                 style="font-style:normal;font-variant:normal;font-weight:bold;font-stretch:normal;font-family:sans-serif;-inkscape-font-specification:'sans-serif Bold';fill:#959091;fill-opacity:1;stroke-width:0.86288452"
                 id="path1162" />
              <path
                 d="m 140.28457,95.228355 v 0.301624 q -0.27146,0.105568 -0.67865,0.105568 -0.55801,0 -0.87471,-0.346867 -0.31671,-0.361949 -0.31671,-1.070765 0,-0.663573 0.33179,-1.025521 0.34687,-0.37703 0.91995,-0.37703 0.42227,0 0.7239,0.150812 l -0.15081,0.301624 q -0.28655,-0.150812 -0.57309,-0.150812 -0.39211,0 -0.64849,0.301624 -0.2413,0.286542 -0.2413,0.814384 0,0.542923 0.22622,0.829466 0.22622,0.271461 0.66357,0.271461 0.2413,0 0.61833,-0.105568 z"
                 style="font-style:normal;font-variant:normal;font-weight:bold;font-stretch:normal;font-family:sans-serif;-inkscape-font-specification:'sans-serif Bold';fill:#959091;fill-opacity:1;stroke-width:0.86288452"
                 id="path1164" />
              <path
                 d="m 142.48642,95.605385 -0.30162,-0.859628 h -1.02552 l -0.30162,0.859628 h -0.36195 l 1.01044,-2.77494 h 0.3167 l 1.02552,2.77494 z m -0.40719,-1.161252 -0.28654,-0.799303 q -0.0905,-0.256381 -0.12065,-0.437355 -0.0452,0.211137 -0.13573,0.437355 l -0.27146,0.799303 z"
                 style="font-style:normal;font-variant:normal;font-weight:bold;font-stretch:normal;font-family:sans-serif;-inkscape-font-specification:'sans-serif Bold';fill:#959091;fill-opacity:1;stroke-width:0.86288452"
                 id="path1166" />
              <path
                 d="m 143.57227,94.459214 v 1.146171 h -0.34687 v -2.759859 h 0.66358 q 0.49768,0 0.73897,0.196056 0.2413,0.196055 0.2413,0.588166 0,0.542923 -0.54292,0.738979 l 0.75406,1.236658 h -0.40719 l -0.66357,-1.146171 z m 0,-0.286543 h 0.31671 q 0.3167,0 0.46751,-0.13573 0.15081,-0.135731 0.15081,-0.392111 0,-0.256381 -0.15081,-0.37703 -0.13573,-0.12065 -0.4826,-0.12065 h -0.30162 z"
                 style="font-style:normal;font-variant:normal;font-weight:bold;font-stretch:normal;font-family:sans-serif;-inkscape-font-specification:'sans-serif Bold';fill:#959091;fill-opacity:1;stroke-width:0.86288452"
                 id="path1168" />
              <path
                 d="m 146.28689,95.605385 h -1.01044 v -0.196056 l 0.33178,-0.07541 v -2.216935 l -0.33178,-0.07541 v -0.196056 h 1.01044 v 0.196056 l -0.33179,0.07541 v 2.216935 l 0.33179,0.07541 z"
                 style="font-style:normal;font-variant:normal;font-weight:bold;font-stretch:normal;font-family:sans-serif;-inkscape-font-specification:'sans-serif Bold';fill:#959091;fill-opacity:1;stroke-width:0.86288452"
                 id="path1170" />
              <path
                 d="m 146.63375,94.217915 q 0,-0.693735 0.31671,-1.055684 0.3167,-0.361948 0.87471,-0.361948 0.54292,0 0.85963,0.37703 0.33178,0.361948 0.33178,1.040602 0,0.693735 -0.33178,1.055684 -0.31671,0.361948 -0.85963,0.361948 -0.55801,0 -0.87471,-0.346867 -0.31671,-0.361949 -0.31671,-1.070765 z m 2.02088,0 q 0,-0.542923 -0.21113,-0.814385 -0.21114,-0.286542 -0.61833,-0.286542 -0.40719,0 -0.61833,0.286542 -0.21114,0.271462 -0.21114,0.814385 0,0.558004 0.21114,0.844547 0.21114,0.271461 0.61833,0.271461 0.40719,0 0.61833,-0.271461 0.21113,-0.286543 0.21113,-0.844547 z"
                 style="font-style:normal;font-variant:normal;font-weight:bold;font-stretch:normal;font-family:sans-serif;-inkscape-font-specification:'sans-serif Bold';fill:#959091;fill-opacity:1;stroke-width:0.86288452"
                 id="path1172" />
              <path
                 d="m 149.45394,95.514898 v -0.331787 q 0.36195,0.150812 0.69373,0.150812 0.30163,0 0.43736,-0.105568 0.15081,-0.105568 0.15081,-0.331786 0,-0.180975 -0.10557,-0.301624 -0.0754,-0.07541 -0.558,-0.286543 -0.31671,-0.150812 -0.45244,-0.331786 -0.13573,-0.180974 -0.13573,-0.467517 0,-0.316705 0.21114,-0.49768 0.22621,-0.196055 0.61832,-0.196055 0.4072,0 0.7239,0.150812 l -0.12065,0.286543 q -0.3167,-0.135731 -0.60325,-0.135731 -0.24129,0 -0.36194,0.105568 -0.12065,0.105568 -0.12065,0.286543 0,0.211137 0.0905,0.316705 0.10557,0.09049 0.49768,0.271461 0.4072,0.165894 0.52784,0.346868 0.13574,0.165893 0.13574,0.422273 0,0.346868 -0.2413,0.558004 -0.2413,0.211137 -0.69374,0.211137 -0.43735,0 -0.69373,-0.120649 z"
                 style="font-style:normal;font-variant:normal;font-weight:bold;font-stretch:normal;font-family:sans-serif;-inkscape-font-specification:'sans-serif Bold';fill:#959091;fill-opacity:1;stroke-width:0.86288452"
                 id="path1174" />
            </g>
          </g>
          <g
             aria-label="Pagos más rápidos y seguros"
             style="font-style:normal;font-weight:normal;font-size:6.66570902px;line-height:4.16606808px;font-family:sans-serif;letter-spacing:0px;word-spacing:0px;fill:#322f84;fill-opacity:1;stroke:none;stroke-width:0.86288452"
             id="text1041">
            <path
               d="m 27.220805,101.0849 h -0.982932 l 0.999205,-4.77145 h 1.939826 q 0.517504,0 0.81694,0.12368 0.302691,0.120426 0.478447,0.403588 0.175756,0.279908 0.175756,0.670477 0,0.361276 -0.139954,0.703024 -0.139954,0.341747 -0.345003,0.546796 -0.201794,0.205049 -0.436135,0.312455 -0.234341,0.104152 -0.63142,0.159482 -0.231086,0.03255 -0.865761,0.03255 h -0.628165 z m 0.543541,-2.610302 h 0.302691 q 0.777883,0 1.038263,-0.09764 0.260379,-0.09764 0.410097,-0.312455 0.149718,-0.214813 0.149718,-0.471938 0,-0.172501 -0.07811,-0.283162 -0.07486,-0.110662 -0.214813,-0.159483 -0.136699,-0.05208 -0.615146,-0.05208 h -0.703024 z"
               style="font-style:italic;font-variant:normal;font-weight:bold;font-stretch:normal;font-family:Arial;-inkscape-font-specification:'Arial Bold Italic';fill:#322f84;fill-opacity:1;stroke-width:0.86288452"
               id="path1177" />
            <path
               d="m 32.005273,98.608042 -0.911327,-0.07811 q 0.156228,-0.462173 0.543542,-0.722552 0.390569,-0.260379 1.031752,-0.260379 0.667222,0 0.986187,0.270143 0.318965,0.266889 0.318965,0.654203 0,0.156228 -0.02929,0.331984 -0.02604,0.175756 -0.19203,0.924346 -0.136699,0.618397 -0.136699,0.865757 0,0.22133 0.07811,0.49147 h -0.908073 q -0.05533,-0.18878 -0.06835,-0.39057 -0.205049,0.22783 -0.471938,0.35151 -0.266889,0.12043 -0.537032,0.12043 -0.429626,0 -0.709533,-0.27991 -0.279908,-0.28316 -0.279908,-0.72581 0,-0.494717 0.305945,-0.790898 0.309201,-0.296182 1.100103,-0.358022 0.667222,-0.05533 0.891799,-0.133444 0.05858,-0.195285 0.05858,-0.312455 0,-0.149718 -0.120425,-0.250615 -0.120426,-0.100897 -0.358022,-0.100897 -0.250615,0 -0.397078,0.104151 -0.143209,0.100897 -0.195285,0.289672 z m 0.888545,0.865761 q -0.08462,0.02278 -0.224578,0.04231 -0.703023,0.08462 -0.917836,0.24736 -0.152973,0.117171 -0.152973,0.315715 0,0.16273 0.11717,0.27665 0.117171,0.11066 0.309201,0.11066 0.211558,0 0.397078,-0.1009 0.188775,-0.10415 0.279908,-0.26363 0.09439,-0.162739 0.165992,-0.504487 z"
               style="font-style:italic;font-variant:normal;font-weight:bold;font-stretch:normal;font-family:Arial;-inkscape-font-specification:'Arial Bold Italic';fill:#322f84;fill-opacity:1;stroke-width:0.86288452"
               id="path1179" />
            <path
               d="m 34.348687,101.26717 0.986186,0.1432 q 0,0.14972 0.04882,0.22458 0.04882,0.0781 0.156228,0.13019 0.110661,0.0553 0.299436,0.0553 0.296181,0 0.475192,-0.11717 0.133444,-0.0911 0.218068,-0.29293 0.05208,-0.12693 0.133444,-0.5533 l 0.03255,-0.16274 q -0.484956,0.40359 -1.00246,0.40359 -0.507739,0 -0.833213,-0.35802 -0.325474,-0.35802 -0.325474,-1.048029 0,-0.608637 0.221322,-1.116376 0.221322,-0.50774 0.621655,-0.768119 0.400334,-0.260379 0.81694,-0.260379 0.345003,0 0.63142,0.182265 0.286417,0.182266 0.4459,0.510995 l 0.130189,-0.611892 h 0.875525 l -0.598872,2.880445 q -0.146463,0.69326 -0.24736,0.98944 -0.100897,0.29618 -0.231087,0.47194 -0.130189,0.17576 -0.328729,0.29293 -0.198539,0.12042 -0.468682,0.1725 -0.270144,0.0521 -0.585854,0.0521 -0.732316,0 -1.106611,-0.25061 -0.374296,-0.25062 -0.374296,-0.83322 0,-0.0618 0.0098,-0.13669 z m 1.100102,-1.669687 q 0,0.393824 0.175756,0.602127 0.179011,0.20505 0.4459,0.20505 0.244105,0 0.471937,-0.18552 0.231087,-0.18552 0.351512,-0.527269 0.12368,-0.341748 0.12368,-0.660712 0,-0.367786 -0.198539,-0.592363 -0.198539,-0.224577 -0.458919,-0.224577 -0.250615,0 -0.462173,0.198539 -0.208303,0.198539 -0.345002,0.611891 -0.104152,0.318965 -0.104152,0.572834 z"
               style="font-style:italic;font-variant:normal;font-weight:bold;font-stretch:normal;font-family:Arial;-inkscape-font-specification:'Arial Bold Italic';fill:#322f84;fill-opacity:1;stroke-width:0.86288452"
               id="path1181" />
            <path
               d="m 38.609143,99.649559 q 0,-0.960148 0.540287,-1.529728 0.543541,-0.572834 1.425576,-0.572834 0.764864,0 1.19449,0.423116 0.429626,0.419862 0.429626,1.13265 0,0.839723 -0.537032,1.451617 -0.537033,0.61189 -1.438596,0.61189 -0.488211,0 -0.865761,-0.19529 -0.37755,-0.19528 -0.56307,-0.5533 -0.18552,-0.35802 -0.18552,-0.768121 z m 2.662378,-0.667222 q 0,-0.331983 -0.195285,-0.530522 -0.192029,-0.201794 -0.497975,-0.201794 -0.302691,0 -0.537032,0.188775 -0.234342,0.18552 -0.364531,0.543541 -0.13019,0.354767 -0.13019,0.654203 0,0.37104 0.201794,0.58911 0.201794,0.21807 0.50774,0.21807 0.384059,0 0.644438,-0.32873 0.371041,-0.465431 0.371041,-1.132653 z"
               style="font-style:italic;font-variant:normal;font-weight:bold;font-stretch:normal;font-family:Arial;-inkscape-font-specification:'Arial Bold Italic';fill:#322f84;fill-opacity:1;stroke-width:0.86288452"
               id="path1183" />
            <path
               d="m 42.426952,100.11824 0.904818,-0.143207 q 0.120426,0.286417 0.299436,0.406847 0.179011,0.11717 0.488211,0.11717 0.318965,0 0.510995,-0.14321 0.133444,-0.0976 0.133444,-0.2376 0,-0.0944 -0.06835,-0.169245 -0.0716,-0.0716 -0.387315,-0.175756 -0.846232,-0.279907 -1.048026,-0.442644 -0.31571,-0.25387 -0.31571,-0.663967 0,-0.410098 0.305946,-0.706279 0.426371,-0.413352 1.266094,-0.413352 0.667222,0 1.008969,0.244105 0.341748,0.244106 0.432881,0.660713 l -0.862506,0.149718 q -0.06835,-0.188775 -0.221323,-0.283163 -0.208303,-0.126935 -0.50123,-0.126935 -0.292926,0 -0.423116,0.09764 -0.126935,0.09764 -0.126935,0.224577 0,0.130189 0.13019,0.214813 0.08137,0.05207 0.524013,0.182265 0.683496,0.198539 0.914582,0.390569 0.325474,0.270143 0.325474,0.650948 0,0.49147 -0.413352,0.85274 -0.413352,0.36128 -1.165197,0.36128 -0.74859,0 -1.158688,-0.2734 -0.406842,-0.27665 -0.553306,-0.77463 z"
               style="font-style:italic;font-variant:normal;font-weight:bold;font-stretch:normal;font-family:Arial;-inkscape-font-specification:'Arial Bold Italic';fill:#322f84;fill-opacity:1;stroke-width:0.86288452"
               id="path1185" />
            <path
               d="m 48.799735,97.628365 h 0.87878 l -0.08788,0.419862 q 0.514249,-0.50123 1.080574,-0.50123 0.390569,0 0.602127,0.162737 0.211558,0.162737 0.270143,0.449154 0.179011,-0.260379 0.514249,-0.436135 0.335239,-0.175756 0.696515,-0.175756 0.413352,0 0.644438,0.221322 0.231087,0.221322 0.231087,0.585853 0,0.179011 -0.09113,0.618401 l -0.442644,2.112327 h -0.934111 l 0.442645,-2.112327 q 0.08137,-0.397078 0.08137,-0.449154 0,-0.143209 -0.08788,-0.224577 -0.08462,-0.08462 -0.257124,-0.08462 -0.348258,0 -0.621656,0.367785 -0.198539,0.263634 -0.338493,0.934111 l -0.328729,1.568785 h -0.93411 l 0.436135,-2.089544 q 0.07486,-0.361276 0.07486,-0.468682 0,-0.136699 -0.09439,-0.224577 -0.09113,-0.08788 -0.25387,-0.08788 -0.152973,0 -0.31571,0.09113 -0.162737,0.09113 -0.286417,0.250615 -0.120426,0.159483 -0.208304,0.410098 -0.03906,0.11717 -0.126935,0.530522 l -0.331983,1.588314 h -0.934111 z"
               style="font-style:italic;font-variant:normal;font-weight:bold;font-stretch:normal;font-family:Arial;-inkscape-font-specification:'Arial Bold Italic';fill:#322f84;fill-opacity:1;stroke-width:0.86288452"
               id="path1187" />
            <path
               d="m 55.348275,98.608042 -0.911328,-0.07811 q 0.156228,-0.462173 0.543542,-0.722552 0.390569,-0.260379 1.031753,-0.260379 0.667222,0 0.986186,0.270143 0.318965,0.266889 0.318965,0.654203 0,0.156228 -0.02929,0.331984 -0.02604,0.175756 -0.192029,0.924346 -0.1367,0.618397 -0.1367,0.865757 0,0.22133 0.07811,0.49147 h -0.908072 q -0.05533,-0.18878 -0.06835,-0.39057 -0.205049,0.22783 -0.471937,0.35151 -0.266889,0.12043 -0.537033,0.12043 -0.429625,0 -0.709533,-0.27991 -0.279908,-0.28316 -0.279908,-0.72581 0,-0.494717 0.305946,-0.790898 0.3092,-0.296182 1.100102,-0.358022 0.667222,-0.05533 0.891799,-0.133444 0.05859,-0.195285 0.05859,-0.312455 0,-0.149718 -0.120425,-0.250615 -0.120425,-0.100897 -0.358021,-0.100897 -0.250615,0 -0.397079,0.104151 -0.143208,0.100897 -0.195284,0.289672 z m 0.888544,0.865761 q -0.08462,0.02278 -0.224577,0.04231 -0.703024,0.08462 -0.917837,0.24736 -0.152973,0.117171 -0.152973,0.315715 0,0.16273 0.117171,0.27665 0.11717,0.11066 0.3092,0.11066 0.211558,0 0.397079,-0.1009 0.188775,-0.10415 0.279907,-0.26363 0.09439,-0.162739 0.165992,-0.504487 z m 0.312455,-3.257995 h 0.995951 l -1.054536,0.976422 h -0.621656 z"
               style="font-style:italic;font-variant:normal;font-weight:bold;font-stretch:normal;font-family:Arial;-inkscape-font-specification:'Arial Bold Italic';fill:#322f84;fill-opacity:1;stroke-width:0.86288452"
               id="path1189" />
            <path
               d="m 57.620083,100.11824 0.904818,-0.143207 q 0.120425,0.286417 0.299436,0.406847 0.179011,0.11717 0.488211,0.11717 0.318965,0 0.510994,-0.14321 0.133445,-0.0976 0.133445,-0.2376 0,-0.0944 -0.06835,-0.169245 -0.0716,-0.0716 -0.387314,-0.175756 -0.846233,-0.279907 -1.048027,-0.442644 -0.315709,-0.25387 -0.315709,-0.663967 0,-0.410098 0.305945,-0.706279 0.426371,-0.413352 1.266094,-0.413352 0.667222,0 1.00897,0.244105 0.341748,0.244106 0.43288,0.660713 l -0.862506,0.149718 q -0.06835,-0.188775 -0.221322,-0.283163 -0.208304,-0.126935 -0.50123,-0.126935 -0.292927,0 -0.423117,0.09764 -0.126934,0.09764 -0.126934,0.224577 0,0.130189 0.130189,0.214813 0.08137,0.05207 0.524013,0.182265 0.683496,0.198539 0.914583,0.390569 0.325474,0.270143 0.325474,0.650948 0,0.49147 -0.413352,0.85274 -0.413352,0.36128 -1.165198,0.36128 -0.74859,0 -1.158687,-0.2734 -0.406843,-0.27665 -0.553306,-0.77463 z"
               style="font-style:italic;font-variant:normal;font-weight:bold;font-stretch:normal;font-family:Arial;-inkscape-font-specification:'Arial Bold Italic';fill:#322f84;fill-opacity:1;stroke-width:0.86288452"
               id="path1191" />
            <path
               d="m 63.970082,97.628365 h 0.872271 l -0.139954,0.670477 q 0.488211,-0.751845 1.05779,-0.751845 0.201794,0 0.432881,0.100897 l -0.358021,0.764864 q -0.126935,-0.04557 -0.270144,-0.04557 -0.240851,0 -0.491466,0.182266 -0.24736,0.182265 -0.387314,0.488211 -0.139954,0.302691 -0.276653,0.963402 l -0.227832,1.08383 h -0.93411 z"
               style="font-style:italic;font-variant:normal;font-weight:bold;font-stretch:normal;font-family:Arial;-inkscape-font-specification:'Arial Bold Italic';fill:#322f84;fill-opacity:1;stroke-width:0.86288452"
               id="path1193" />
            <path
               d="m 67.20855,98.608042 -0.911327,-0.07811 q 0.156227,-0.462173 0.543541,-0.722552 0.390569,-0.260379 1.031753,-0.260379 0.667222,0 0.986187,0.270143 0.318964,0.266889 0.318964,0.654203 0,0.156228 -0.02929,0.331984 -0.02604,0.175756 -0.192029,0.924346 -0.136699,0.618397 -0.136699,0.865757 0,0.22133 0.07811,0.49147 h -0.908072 q -0.05533,-0.18878 -0.06835,-0.39057 -0.205048,0.22783 -0.471937,0.35151 -0.266889,0.12043 -0.537032,0.12043 -0.429626,0 -0.709534,-0.27991 -0.279908,-0.28316 -0.279908,-0.72581 0,-0.494717 0.305946,-0.790898 0.3092,-0.296182 1.100102,-0.358022 0.667222,-0.05533 0.891799,-0.133444 0.05859,-0.195285 0.05859,-0.312455 0,-0.149718 -0.120426,-0.250615 -0.120425,-0.100897 -0.358021,-0.100897 -0.250615,0 -0.397079,0.104151 -0.143208,0.100897 -0.195284,0.289672 z m 0.888544,0.865761 q -0.08462,0.02278 -0.224577,0.04231 -0.703024,0.08462 -0.917837,0.24736 -0.152973,0.117171 -0.152973,0.315715 0,0.16273 0.117171,0.27665 0.117171,0.11066 0.3092,0.11066 0.211559,0 0.397079,-0.1009 0.188775,-0.10415 0.279908,-0.26363 0.09439,-0.162739 0.165991,-0.504487 z m 0.312455,-3.257995 H 69.4055 l -1.054536,0.976422 h -0.621655 z"
               style="font-style:italic;font-variant:normal;font-weight:bold;font-stretch:normal;font-family:Arial;-inkscape-font-specification:'Arial Bold Italic';fill:#322f84;fill-opacity:1;stroke-width:0.86288452"
               id="path1195" />
            <path
               d="m 70.294043,97.628365 h 0.88529 l -0.07486,0.354767 q 0.283162,-0.234341 0.530522,-0.335238 0.247361,-0.100897 0.530523,-0.100897 0.543542,0 0.872271,0.374295 0.331983,0.374295 0.331983,1.116376 0,0.934111 -0.569579,1.578552 -0.488212,0.55005 -1.155433,0.55005 -0.686751,0 -1.038263,-0.55656 l -0.374295,1.79336 h -0.93411 z m 0.56307,1.982137 q 0,0.403588 0.195285,0.628168 0.198539,0.22132 0.465428,0.22132 0.231086,0 0.445899,-0.16599 0.214813,-0.16925 0.354767,-0.556563 0.143209,-0.390569 0.143209,-0.722552 0,-0.387314 -0.185521,-0.592363 -0.18552,-0.208303 -0.471937,-0.208303 -0.266889,0 -0.488211,0.192029 -0.218068,0.188775 -0.338493,0.559816 -0.120426,0.367785 -0.120426,0.644438 z"
               style="font-style:italic;font-variant:normal;font-weight:bold;font-stretch:normal;font-family:Arial;-inkscape-font-specification:'Arial Bold Italic';fill:#322f84;fill-opacity:1;stroke-width:0.86288452"
               id="path1197" />
            <path
               d="m 74.67167,96.31345 h 0.934111 l -0.175756,0.846233 h -0.934111 z m -0.273398,1.314915 h 0.93411 L 74.60983,101.0849 h -0.934111 z"
               style="font-style:italic;font-variant:normal;font-weight:bold;font-stretch:normal;font-family:Arial;-inkscape-font-specification:'Arial Bold Italic';fill:#322f84;fill-opacity:1;stroke-width:0.86288452"
               id="path1199" />
            <path
               d="m 78.717314,101.0849 h -0.88529 l 0.07811,-0.3743 q -0.25387,0.24411 -0.50123,0.35152 -0.244105,0.10415 -0.553306,0.10415 -0.537032,0 -0.87227,-0.36453 -0.331984,-0.36779 -0.331984,-1.083831 0,-0.829959 0.468683,-1.500436 0.468682,-0.670476 1.240056,-0.670476 0.696515,0 1.044772,0.553306 l 0.374295,-1.786853 h 0.934111 z m -2.157893,-1.406048 q 0,0.371038 0.18552,0.579348 0.188775,0.2083 0.462173,0.2083 0.25387,0 0.471938,-0.1725 0.221322,-0.17576 0.351512,-0.53378 0.133444,-0.358021 0.133444,-0.68675 0,-0.374295 -0.201794,-0.605382 -0.201794,-0.231086 -0.465428,-0.231086 -0.410097,0 -0.673731,0.455663 -0.263634,0.455664 -0.263634,0.986187 z"
               style="font-style:italic;font-variant:normal;font-weight:bold;font-stretch:normal;font-family:Arial;-inkscape-font-specification:'Arial Bold Italic';fill:#322f84;fill-opacity:1;stroke-width:0.86288452"
               id="path1201" />
            <path
               d="m 79.736048,99.649559 q 0,-0.960148 0.540287,-1.529728 0.543542,-0.572834 1.425577,-0.572834 0.764864,0 1.19449,0.423116 0.429625,0.419862 0.429625,1.13265 0,0.839723 -0.537032,1.451617 -0.537032,0.61189 -1.438595,0.61189 -0.488211,0 -0.865761,-0.19529 -0.37755,-0.19528 -0.563071,-0.5533 -0.18552,-0.35802 -0.18552,-0.768121 z m 2.662378,-0.667222 q 0,-0.331983 -0.195284,-0.530522 -0.19203,-0.201794 -0.497976,-0.201794 -0.30269,0 -0.537032,0.188775 -0.234341,0.18552 -0.364531,0.543541 -0.130189,0.354767 -0.130189,0.654203 0,0.37104 0.201794,0.58911 0.201793,0.21807 0.507739,0.21807 0.384059,0 0.644439,-0.32873 0.37104,-0.465431 0.37104,-1.132653 z"
               style="font-style:italic;font-variant:normal;font-weight:bold;font-stretch:normal;font-family:Arial;-inkscape-font-specification:'Arial Bold Italic';fill:#322f84;fill-opacity:1;stroke-width:0.86288452"
               id="path1203" />
            <path
               d="m 83.553856,100.11824 0.904818,-0.143207 q 0.120425,0.286417 0.299436,0.406847 0.179011,0.11717 0.488211,0.11717 0.318965,0 0.510994,-0.14321 0.133445,-0.0976 0.133445,-0.2376 0,-0.0944 -0.06835,-0.169245 -0.0716,-0.0716 -0.387314,-0.175756 -0.846233,-0.279907 -1.048027,-0.442644 -0.315709,-0.25387 -0.315709,-0.663967 0,-0.410098 0.305945,-0.706279 0.426371,-0.413352 1.266094,-0.413352 0.667222,0 1.00897,0.244105 0.341748,0.244106 0.432881,0.660713 l -0.862507,0.149718 q -0.06835,-0.188775 -0.221322,-0.283163 -0.208304,-0.126935 -0.50123,-0.126935 -0.292927,0 -0.423117,0.09764 -0.126934,0.09764 -0.126934,0.224577 0,0.130189 0.130189,0.214813 0.08137,0.05207 0.524013,0.182265 0.683496,0.198539 0.914583,0.390569 0.325474,0.270143 0.325474,0.650948 0,0.49147 -0.413352,0.85274 -0.413352,0.36128 -1.165198,0.36128 -0.74859,0 -1.158687,-0.2734 -0.406843,-0.27665 -0.553306,-0.77463 z"
               style="font-style:italic;font-variant:normal;font-weight:bold;font-stretch:normal;font-family:Arial;-inkscape-font-specification:'Arial Bold Italic';fill:#322f84;fill-opacity:1;stroke-width:0.86288452"
               id="path1205" />
            <path
               d="m 89.52305,97.628365 h 0.930856 l 0.234342,1.721758 q 0.08788,0.663967 0.09764,0.930857 0.182265,-0.530524 0.50123,-1.119632 l 0.826704,-1.532983 h 0.989441 l -2.13511,3.795025 q -0.263634,0.47194 -0.416606,0.66072 -0.149719,0.18877 -0.364531,0.29618 -0.211559,0.1074 -0.510995,0.1074 -0.296181,0 -0.667222,-0.10415 l 0.08137,-0.69651 q 0.169246,0.0488 0.328729,0.0488 0.429626,0 0.706278,-0.65095 z"
               style="font-style:italic;font-variant:normal;font-weight:bold;font-stretch:normal;font-family:Arial;-inkscape-font-specification:'Arial Bold Italic';fill:#322f84;fill-opacity:1;stroke-width:0.86288452"
               id="path1207" />
            <path
               d="m 94.672054,100.11824 0.904818,-0.143207 q 0.120426,0.286417 0.299436,0.406847 0.179011,0.11717 0.488211,0.11717 0.318965,0 0.510995,-0.14321 0.133444,-0.0976 0.133444,-0.2376 0,-0.0944 -0.06835,-0.169245 -0.0716,-0.0716 -0.387315,-0.175756 -0.846232,-0.279907 -1.048026,-0.442644 -0.31571,-0.25387 -0.31571,-0.663967 0,-0.410098 0.305946,-0.706279 0.426371,-0.413352 1.266094,-0.413352 0.667222,0 1.008969,0.244105 0.341748,0.244106 0.432881,0.660713 l -0.862506,0.149718 q -0.06835,-0.188775 -0.221323,-0.283163 -0.208303,-0.126935 -0.50123,-0.126935 -0.292926,0 -0.423116,0.09764 -0.126935,0.09764 -0.126935,0.224577 0,0.130189 0.13019,0.214813 0.08137,0.05207 0.524013,0.182265 0.683495,0.198539 0.914582,0.390569 0.325474,0.270143 0.325474,0.650948 0,0.49147 -0.413352,0.85274 -0.413352,0.36128 -1.165197,0.36128 -0.748591,0 -1.158688,-0.2734 -0.406842,-0.27665 -0.553306,-0.77463 z"
               style="font-style:italic;font-variant:normal;font-weight:bold;font-stretch:normal;font-family:Arial;-inkscape-font-specification:'Arial Bold Italic';fill:#322f84;fill-opacity:1;stroke-width:0.86288452"
               id="path1209" />
            <path
               d="m 101.86828,99.646304 h -2.343408 q -0.0033,0.05533 -0.0033,0.08462 0,0.345002 0.195284,0.556562 0.19854,0.21156 0.481699,0.21156 0.46543,0 0.72581,-0.48171 l 0.83647,0.13996 q -0.24411,0.50448 -0.6542,0.75835 -0.40685,0.25062 -0.91459,0.25062 -0.696511,0 -1.132646,-0.43939 -0.436136,-0.44265 -0.436136,-1.168454 0,-0.709533 0.393824,-1.262839 0.537032,-0.74859 1.532978,-0.74859 0.63468,0 1.00897,0.393823 0.3743,0.390569 0.3743,1.096848 0,0.338493 -0.0651,0.608636 z m -0.78764,-0.569579 q 0.003,-0.06184 0.003,-0.09439 0,-0.384059 -0.1725,-0.576089 -0.1725,-0.192029 -0.46217,-0.192029 -0.28967,0 -0.52076,0.218067 -0.227832,0.218068 -0.309201,0.644439 z"
               style="font-style:italic;font-variant:normal;font-weight:bold;font-stretch:normal;font-family:Arial;-inkscape-font-specification:'Arial Bold Italic';fill:#322f84;fill-opacity:1;stroke-width:0.86288452"
               id="path1211" />
            <path
               d="m 102.16447,101.26717 0.98618,0.1432 q 0,0.14972 0.0488,0.22458 0.0488,0.0781 0.15623,0.13019 0.11066,0.0553 0.29944,0.0553 0.29618,0 0.47519,-0.11717 0.13344,-0.0911 0.21807,-0.29293 0.0521,-0.12693 0.13344,-0.5533 l 0.0326,-0.16274 q -0.48496,0.40359 -1.00246,0.40359 -0.50774,0 -0.83322,-0.35802 -0.32547,-0.35802 -0.32547,-1.048029 0,-0.608637 0.22132,-1.116376 0.22133,-0.50774 0.62166,-0.768119 0.40033,-0.260379 0.81694,-0.260379 0.345,0 0.63142,0.182265 0.28642,0.182266 0.4459,0.510995 l 0.13019,-0.611892 h 0.87552 l -0.59887,2.880445 q -0.14646,0.69326 -0.24736,0.98944 -0.1009,0.29618 -0.23109,0.47194 -0.13019,0.17576 -0.32873,0.29293 -0.19853,0.12042 -0.46868,0.1725 -0.27014,0.0521 -0.58585,0.0521 -0.73232,0 -1.10661,-0.25061 -0.3743,-0.25062 -0.3743,-0.83322 0,-0.0618 0.01,-0.13669 z m 1.1001,-1.669687 q 0,0.393824 0.17575,0.602127 0.17901,0.20505 0.4459,0.20505 0.24411,0 0.47194,-0.18552 0.23109,-0.18552 0.35151,-0.527269 0.12368,-0.341748 0.12368,-0.660712 0,-0.367786 -0.19854,-0.592363 -0.19854,-0.224577 -0.45891,-0.224577 -0.25062,0 -0.46218,0.198539 -0.2083,0.198539 -0.345,0.611891 -0.10415,0.318965 -0.10415,0.572834 z"
               style="font-style:italic;font-variant:normal;font-weight:bold;font-stretch:normal;font-family:Arial;-inkscape-font-specification:'Arial Bold Italic';fill:#322f84;fill-opacity:1;stroke-width:0.86288452"
               id="path1213" />
            <path
               d="m 107.00427,97.628365 h 0.93411 l -0.42638,2.047232 q -0.0781,0.367783 -0.0781,0.458923 0,0.14971 0.11066,0.25712 0.11066,0.10741 0.28316,0.10741 0.12368,0 0.24411,-0.0456 0.12043,-0.0488 0.24736,-0.14321 0.12694,-0.0976 0.22783,-0.22132 0.1009,-0.123681 0.18878,-0.325475 0.0618,-0.149718 0.13344,-0.488211 l 0.345,-1.646899 h 0.93411 l -0.72255,3.456535 h -0.87227 l 0.0976,-0.46868 q -0.57283,0.55005 -1.24656,0.55005 -0.42637,0 -0.67048,-0.24411 -0.2441,-0.2441 -0.2441,-0.6542 0,-0.17901 0.11066,-0.712788 z"
               style="font-style:italic;font-variant:normal;font-weight:bold;font-stretch:normal;font-family:Arial;-inkscape-font-specification:'Arial Bold Italic';fill:#322f84;fill-opacity:1;stroke-width:0.86288452"
               id="path1215" />
            <path
               d="m 111.03363,97.628365 h 0.87228 l -0.13996,0.670477 q 0.48821,-0.751845 1.05779,-0.751845 0.2018,0 0.43288,0.100897 l -0.35802,0.764864 q -0.12693,-0.04557 -0.27014,-0.04557 -0.24085,0 -0.49147,0.182266 -0.24736,0.182265 -0.38731,0.488211 -0.13996,0.302691 -0.27666,0.963402 l -0.22783,1.08383 h -0.93411 z"
               style="font-style:italic;font-variant:normal;font-weight:bold;font-stretch:normal;font-family:Arial;-inkscape-font-specification:'Arial Bold Italic';fill:#322f84;fill-opacity:1;stroke-width:0.86288452"
               id="path1217" />
            <path
               d="m 113.09063,99.649559 q 0,-0.960148 0.54029,-1.529728 0.54354,-0.572834 1.42558,-0.572834 0.76486,0 1.19449,0.423116 0.42962,0.419862 0.42962,1.13265 0,0.839723 -0.53703,1.451617 -0.53703,0.61189 -1.4386,0.61189 -0.48821,0 -0.86576,-0.19529 -0.37755,-0.19528 -0.56307,-0.5533 -0.18552,-0.35802 -0.18552,-0.768121 z m 2.66238,-0.667222 q 0,-0.331983 -0.19528,-0.530522 -0.19203,-0.201794 -0.49798,-0.201794 -0.30269,0 -0.53703,0.188775 -0.23434,0.18552 -0.36453,0.543541 -0.13019,0.354767 -0.13019,0.654203 0,0.37104 0.20179,0.58911 0.2018,0.21807 0.50774,0.21807 0.38406,0 0.64444,-0.32873 0.37104,-0.465431 0.37104,-1.132653 z"
               style="font-style:italic;font-variant:normal;font-weight:bold;font-stretch:normal;font-family:Arial;-inkscape-font-specification:'Arial Bold Italic';fill:#322f84;fill-opacity:1;stroke-width:0.86288452"
               id="path1219" />
            <path
               d="m 116.90844,100.11824 0.90482,-0.143207 q 0.12043,0.286417 0.29944,0.406847 0.17901,0.11717 0.48821,0.11717 0.31896,0 0.51099,-0.14321 0.13345,-0.0976 0.13345,-0.2376 0,-0.0944 -0.0683,-0.169245 -0.0716,-0.0716 -0.38732,-0.175756 -0.84623,-0.279907 -1.04802,-0.442644 -0.31571,-0.25387 -0.31571,-0.663967 0,-0.410098 0.30594,-0.706279 0.42637,-0.413352 1.2661,-0.413352 0.66722,0 1.00897,0.244105 0.34174,0.244106 0.43288,0.660713 l -0.86251,0.149718 q -0.0684,-0.188775 -0.22132,-0.283163 -0.2083,-0.126935 -0.50123,-0.126935 -0.29293,0 -0.42312,0.09764 -0.12693,0.09764 -0.12693,0.224577 0,0.130189 0.13019,0.214813 0.0814,0.05207 0.52401,0.182265 0.6835,0.198539 0.91458,0.390569 0.32548,0.270143 0.32548,0.650948 0,0.49147 -0.41336,0.85274 -0.41335,0.36128 -1.16519,0.36128 -0.74859,0 -1.15869,-0.2734 -0.40684,-0.27665 -0.55331,-0.77463 z"
               style="font-style:italic;font-variant:normal;font-weight:bold;font-stretch:normal;font-family:Arial;-inkscape-font-specification:'Arial Bold Italic';fill:#322f84;fill-opacity:1;stroke-width:0.86288452"
               id="path1221" />
          </g>
        </g>
      </g>
    </g>
  </g>
</svg>
