<svg version="1.1" id="Capa_1" xmlns="http://www.w3.org/2000/svg" xmlns:xlink="http://www.w3.org/1999/xlink" x="0px" y="0px"
	 width="100px" height="100px" viewBox="0 0 100 100" enable-background="new 0 0 100 100" xml:space="preserve" class="imgEscudo">
<g>
	<g>
		<path fill="#C8C7C7" d="M49.488,4.578c-0.157-0.2-0.311-0.403-0.463-0.606c1.773-0.287,3.445,0.456,4.979,1.238
			c2.396-1.23,5.416-1.607,7.783-0.099c0.244-0.193,0.49-0.379,0.738-0.562C62.694,5,63.068,4.78,63.343,4.58
			c0.195,0.268,0.352,0.562,0.511,0.854c-0.029-0.169-0.092-0.504-0.121-0.673c0.786,0.524,1.621,0.972,2.603,0.661
			c-0.403,0.299-0.936,0.299-1.353,0.562c-0.118,0.393-0.552,1.035-0.055,1.332c0.08,0.292,0.162,0.584,0.246,0.873
			c-0.012,0.297,0.135,0.524,0.417,0.622c-0.207-0.565-0.306-1.156-0.41-1.747c-0.07-0.058-0.21-0.179-0.28-0.239
			c-0.138-0.912,1.148-0.912,1.751-0.688l-0.531-0.261c0.174-0.109,0.345-0.215,0.521-0.318c0.441,0.398,0.562,0.951,0.485,1.522
			c0.193,0.109,0.386,0.217,0.581,0.326c0.027,0.145,0.077,0.434,0.104,0.577c0.331,0.072,0.661,0.15,0.989,0.234
			c0.634-1.276,2.644-1.445,3.457-0.27c0.666,0.953,0.437,2.265-0.287,3.119c1.037-0.328,2.299,0.166,2.661,1.23
			c0.331,0.82,0,1.722-0.593,2.326c0.055,0.285,0.111,0.572,0.171,0.859c0.47,0.046,0.842,0.311,1.148,0.651
			c1.151-0.437,1.73,0.929,1.592,1.85c0.509,0.659,0.926,1.387,1.257,2.149c-0.041,0.376-0.263,0.697-0.41,1.037
			c1.1,1.587,1.681,3.575,1.295,5.498c-0.282,2.396-1.773,4.731-4.142,5.498c0.147,1.064,0.618,2.108,0.413,3.201
			c-0.157,1.209-0.613,2.569-1.771,3.158c-0.613,0.352-1.327,0.157-1.966,0c-0.031,5.375,0.012,10.75-0.019,16.127
			c0,2.548-0.745,5.199-2.56,7.056c-2.147,2.217-5.278,3.1-8.263,3.426c-2.251,0.297-4.552,0.036-6.781,0.499
			c-1.573,0.347-2.811,1.445-3.937,2.533c-2.082-2.326-5.409-2.779-8.364-2.856c-3.64-0.077-7.58-0.651-10.427-3.124
			c-1.481-1.312-2.444-3.155-2.796-5.095c-0.304-1.443-0.195-2.924-0.285-4.388c-0.005-4.719-0.002-9.438,0-14.159
			c-0.625,0.179-1.334,0.297-1.92-0.06c-1.218-0.748-1.679-2.26-1.708-3.616c-0.058-0.919,0.311-1.78,0.451-2.675
			c-0.758-0.417-1.621-0.695-2.215-1.368c-2.4-2.535-2.745-6.825-0.634-9.647c-0.166-0.333-0.326-0.668-0.478-1.008
			c0.432,0.041,0.864,0.077,1.295,0.116c-0.398-0.162-0.832-0.186-1.254-0.234c0.391-0.7,0.813-1.38,1.213-2.07
			c0.096-0.688,0.135-1.616,0.919-1.884c0.193,0.007,0.579,0.022,0.774,0.029c0.304-0.321,0.683-0.533,1.11-0.647
			c0.41-0.946-0.671-1.624-0.519-2.564c-0.024-1.387,1.542-2.306,2.786-1.809c-0.557-0.721-0.951-1.691-0.601-2.596
			c0.21-0.502,0.596-1.129,1.209-1.119c0.299,0.152,0.818,0.063,0.977,0.379c-0.417,0.159-0.897,0.147-1.269,0.429
			c0.644,0.027,1.467-0.084,1.894,0.526c0.302,0.217,0.063,0.581,0.046,0.868c-0.282-0.099-0.562-0.195-0.847-0.287
			c0.01,0.552,0.733,0.938,0.994,0.328c0.521-0.49,0.154-1.175-0.376-1.46c-0.106-0.128-0.321-0.388-0.427-0.519l0.678,0.159
			L30.3,7.687c-0.181-0.075-0.362-0.15-0.543-0.224c-0.193-0.041-0.581-0.125-0.777-0.169l-0.051-0.101
			c0.909-0.183,1.829,0.28,2.253,1.093c0.289-0.118,0.584-0.232,0.881-0.34c0.27-0.647,0.965-1.069,0.796-1.855
			c0.497-0.666,1.327-0.668,2.077-0.596c0.374-0.236,0.76-0.458,1.16-0.649c0.051,0.157,0.154,0.473,0.205,0.632
			c-0.169-0.413-0.012-1.134,0.567-0.724l0.109,0.113c0.101-0.075,0.299-0.22,0.398-0.292c0.393,0.106,0.758,0.695,1.177,0.34
			c2.314-1.315,5.194-0.876,7.445,0.352c0.82-0.514,1.706-0.917,2.634-1.194c0.176,0.123,0.355,0.248,0.531,0.372
			c-1.797,0.169-3.399,1.276-4.473,2.687c-0.591,0.743-0.948,1.722-0.77,2.675c0.142,0.977,0.897,1.855,1.855,2.111
			c0.745,0.027,1.496-0.043,2.241,0.029c0.4-0.289,0.745-0.651,0.977-1.093c0.087,0.121,0.171,0.241,0.258,0.362
			c-0.104,0.179-0.311,0.536-0.415,0.714c0.765,0.017,1.532,0.012,2.301,0.014c-0.229-0.4-0.492-0.789-0.618-1.238
			c-0.128-0.777,0.396-1.44,0.608-2.154c0.236-0.726,0.702-1.339,1.151-1.947c-0.516-0.2-1.054-0.328-1.563-0.538
			c-0.456-0.495-0.565-1.189-0.697-1.824c-0.297,0.731-0.335,1.903-1.312,2.017c-0.297,0.157-0.844,0.072-0.938,0.454
			c0.912,1.165,1.46,2.589,1.776,4.022c-0.123,0.041-0.367,0.123-0.49,0.164c0.386-1.235-1.139-2.589-2.28-1.915
			c-0.63,0.347-0.608,1.346,0.041,1.662c0.403,0.275,0.825-0.029,1.059-0.362c-0.082-0.362-0.157-0.724-0.227-1.086
			c0.62,0.21,1.332,0.774,1.042,1.517c-0.352,1.216-1.964,1.349-2.89,0.738c-0.97-0.567-1.283-1.937-0.719-2.893
			c0.784-1.341,2.118-2.321,3.616-2.714c0.299-0.034,0.396-0.328,0.536-0.545c-1.305,0.359-2.574,0.977-3.558,1.918
			c-0.799,0.789-0.934,1.942-1.177,2.977c-0.446-0.234-0.306-0.76-0.331-1.158c0.029-1.356,1.013-2.485,2.121-3.163
			C47.252,5.222,48.391,4.927,49.488,4.578z M50.277,4.319c0.193,0.265,0.482,0.393,0.799,0.456c1.59,0.434,3.221,1.187,4.171,2.593
			c0.581,0.825,0.671,1.899,0.446,2.864c-0.673-0.622-0.4-1.684-0.943-2.398c-0.941-1.382-2.574-2.135-4.145-2.552
			c0.403,0.736,1.31,0.675,1.954,1.054c1.262,0.729,2.461,1.848,2.678,3.363c-0.183-0.051-0.548-0.152-0.731-0.203
			c-0.099,0.084-0.297,0.258-0.396,0.343c-0.171,0.437-0.403,0.844-0.632,1.25c0.801,0.157,1.337-0.75,1.254-1.452
			c0.147,0.125,0.292,0.251,0.441,0.374c-0.263,0.786-0.808,1.563-1.672,1.735c-0.917,0.27-2.191-0.164-2.277-1.245
			c-0.099-0.688,0.497-1.078,1.057-1.271c-0.07,0.345-0.159,0.688-0.207,1.037c0.171,0.425,0.731,0.649,1.117,0.357
			c0.591-0.302,0.608-1.211,0.065-1.568c-0.704-0.598-1.788-0.077-2.186,0.642c-0.516,0.741,0.022,1.783,0.755,2.142
			c0.63,0.15,1.288,0.07,1.932,0.096c1.011,0.055,1.858-0.774,2.169-1.681c0.403-0.958,0.077-2.046-0.473-2.873
			C54.301,5.656,52.345,4.493,50.277,4.319z M40.155,5.366c1.105-0.053,2.268-0.174,3.307,0.277c0.236,0.15-0.002,0.475,0.027,0.69
			c-0.818-0.391-1.735-0.456-2.625-0.422c0.873,0.531,2.012,0.89,2.444,1.908c0.396,1.117-0.183,2.335-1.011,3.098
			c0.422,0.082,0.902,0.089,1.213,0.432c0.287,0.191,0.495,0.651,0.929,0.398c-0.866-1.088-1.247-2.603-0.608-3.901
			c0.106-0.393,0.724-0.96,0.08-1.221c0.022-0.229,0.014-0.458,0.039-0.685c0.456-0.075,0.791,0.531,1.257,0.183L44.601,5.88
			c0.193-0.109,0.388-0.215,0.584-0.321c-0.244,0.012-0.482,0.041-0.719,0.089c-0.654-0.159-1.288-0.388-1.908-0.647
			c0.379-0.072,0.76-0.14,1.141-0.21C42.48,4.638,41.192,4.602,40.155,5.366z M56.13,4.783c0.427,0.08,0.859,0.15,1.283,0.256
			c-0.888,0.304-1.802,0.557-2.62,1.033c0.364,0.417,0.772-0.094,1.146-0.207c1.226-0.656,2.646-0.574,3.988-0.507
			C58.767,4.679,57.43,4.628,56.13,4.783z M36.698,5.42c-0.205,0.492-0.27,1.033-0.521,1.508c-0.036-0.345-0.109-1.035-0.145-1.38
			c-0.123,0.634-0.06,1.283,0.118,1.903l-0.437-0.273c0.403,1.033-0.507,1.706-0.796,2.601c0.439-0.458,0.876-0.922,1.295-1.399
			c0.302-0.333-0.581-0.688-0.408-1.006l0.61,0.15c-0.456-0.598,0.236-0.729,0.444-0.326c0.174-0.2,0.343-0.403,0.509-0.608
			c-0.326-0.27-0.842-0.579-0.569-1.098c0.166,0.014,0.497,0.043,0.663,0.058C37.305,5.253,36.951,5.41,36.698,5.42z M63.126,6.134
			C62.993,6.211,62.733,6.363,62.6,6.44c0.159,0.333,0.376,0.632,0.613,0.912c0.232-0.647,0.335-1.334,0.135-2.005
			C63.271,5.608,63.196,5.871,63.126,6.134z M33.376,6.083c0.707-0.154,1.373-0.041,1.872,0.504
			C35.156,5.654,33.962,5.47,33.376,6.083z M64.091,5.596c-0.171,0.531-0.314,1.071-0.519,1.592
			c0.381,0.268,0.589,0.748,0.408,1.228c-0.437-0.461-0.873-1.008-1.571-1.028c-0.13-0.251-0.253-0.504-0.381-0.755
			c-0.444-0.181-0.868-0.4-1.295-0.613c-0.76,0.096-1.532,0.179-2.222,0.538c1.074-0.27,2.183-0.152,3.168,0.367
			c-0.046,0.188-0.099,0.376-0.157,0.562c-0.656-0.2-1.351-0.142-1.952,0.183c-0.14-0.116-0.277-0.236-0.41-0.359l0.408,0.548
			l-0.864-0.13c0.191,0.099,0.384,0.2,0.577,0.299l-0.536,0.649c0.721-0.123,1.435,0.135,1.551,0.953
			c-0.598,0.364-1.076-0.157-0.963-0.794c-0.352,0.22-0.673,0.487-0.806,0.897c0.268-0.268,0.533-0.536,0.799-0.806
			c-0.294,0.536-0.287,1.052,0.215,1.416c0.248-0.06,0.504-0.053,0.75,0.019c1.505-0.946,3.344-0.62,4.851,0.135
			c-1.168-1.052-2.106-2.473-3.655-2.996c0.258-0.08,0.557-0.205,0.813-0.031c1.131,0.42,1.928,1.361,2.673,2.263l0.118-0.068
			c-0.311-0.528-0.685-1.016-1.02-1.529c0.135-0.458,0.097-0.989,0.458-1.356c-0.154,0.094-0.461,0.282-0.615,0.376
			C63.982,6.638,64.077,6.119,64.091,5.596z M39.173,6.069c-0.601,0.171-1.1,0.572-1.554,0.984c1.337-0.434,2.827-1.057,4.159-0.244
			C41.025,6.259,40.094,6.054,39.173,6.069z M56.207,6.334c-0.046-0.019-0.138-0.055-0.186-0.072
			c-0.555,0.818,0.138,1.549,0.466,2.282c0.082,1.061-0.183,2.15-0.842,2.999c0.075,0.092,0.227,0.273,0.302,0.362
			c0.403-0.56,0.946-0.999,1.669-0.994c-0.753-0.724-1.17-1.722-0.827-2.76c0.688,0.632,0.335,1.739,1.035,2.403
			c-0.203-0.803-0.487-1.585-0.774-2.359c0.318-0.598,0.77-1.105,1.327-1.488l-0.128-0.027c-0.656,0.302-1.03,0.979-1.544,1.38
			c-0.002-0.096-0.005-0.289-0.005-0.388c0.545-0.883,1.549-1.264,2.41-1.759C58.113,5.82,57.155,6.078,56.207,6.334z M33.168,6.515
			c0.106,0.343,0.34,0.569,0.697,0.678c-0.806,0.495,0.41,0.714,0.823,0.591c-0.055,0.27-0.166,0.808-0.222,1.078
			c0.331-0.663,0.692-1.378,0.408-2.128c-0.046,0.232-0.133,0.695-0.179,0.926c-0.171,0.014-0.519,0.043-0.69,0.058
			C34.425,7.111,33.643,6.662,33.168,6.515z M46.519,7.383c0.14,0.367,0.352,0.697,0.557,1.03c0.166,0.012,0.499,0.036,0.666,0.048
			C47.428,8.081,47.168,6.91,46.519,7.383z M34.864,10.517c1.517-0.825,3.655-1.218,4.996,0.133c0.446-0.311,0.803-0.731,1.18-1.119
			c-0.355-0.053-0.622,0.188-0.917,0.328c-0.109,0.227-0.227,0.449-0.347,0.666c-0.222-0.794,0-1.71,0.868-1.983
			c0,0.13-0.005,0.391-0.005,0.521c0.263,0.181,0.524,0.372,0.779,0.565c0.084-0.171,0.171-0.343,0.258-0.514
			C41.6,9.202,41.448,9.381,41.37,9.468c-0.157-0.113-0.47-0.338-0.627-0.451l0.068-0.326l0.328,0.068
			c-0.335-0.379,0.191-0.96-0.198-1.264c-0.808,0.246-1.602-0.376-2.405-0.036C36.982,7.989,35.957,9.371,34.864,10.517z
			 M52.842,7.393c-0.222,0.367-0.429,0.745-0.545,1.163c0.618-0.072,0.905-0.615,1.18-1.102C53.317,7.439,53.001,7.407,52.842,7.393
			z M69.521,7.752c0.087,0.159,0.263,0.473,0.352,0.63l-0.758-0.217c0.14,0.121,0.28,0.241,0.42,0.364
			c-0.603,0.531,0.029,1.674,0.801,1.363c-0.039,0.116-0.113,0.347-0.152,0.463c-0.897,0.046-1.387-0.632-1.626-1.394l-0.08,0.545
			c-0.133-0.164-0.268-0.323-0.405-0.482c-0.118,0.21-0.355,0.625-0.47,0.835c0.13-0.077,0.391-0.229,0.521-0.306
			c0.531,0.579,1.317,0.849,2.075,0.967c0.48,0.152-0.285,0.297-0.434,0.311l-0.039,0.06c0.186,0.002,0.555,0.005,0.738,0.007
			c0.094-0.075,0.285-0.224,0.379-0.299c-0.123-0.118-0.244-0.236-0.367-0.352l0.449-0.186c-0.195-0.275-0.384-0.552-0.562-0.832
			c-0.118,0.13-0.35,0.393-0.466,0.524c-0.096-0.128-0.285-0.384-0.379-0.511c0.118-1.028,1.276-1.057,2.07-1.054
			c-0.323-0.169-0.68-0.261-1.023-0.367c-0.335-0.176,0.359-0.299,0.468-0.396C70.501,7.388,69.992,7.521,69.521,7.752z
			 M45.838,9.159c0.444,0.051,0.538-0.849,0.169-1.02C45.626,8.257,45.665,8.879,45.838,9.159z M54.021,9.147
			c0.338-0.183,0.164-0.837-0.094-1.04C53.495,8.216,53.619,9.045,54.021,9.147z M66.197,8.061
			c-0.183,0.466-0.359,0.936-0.528,1.404c0.246,0.359,0.499,0.714,0.762,1.064C66.11,9.74,66.086,8.896,66.197,8.061z M33.815,8.179
			c0.01,0.796-0.058,1.59-0.248,2.364c0.212-0.335,0.478-0.649,0.606-1.028C34.174,9.045,33.979,8.609,33.815,8.179z M71.408,8.662
			c-0.198,0.292-0.133,0.47,0.191,0.528C71.789,8.896,71.726,8.72,71.408,8.662z M31.301,9.031
			c-0.145,0.384-0.234,0.837-0.601,1.081c-0.451,0.326-1.066,0.125-1.486-0.157c-0.08,0.162-0.162,0.323-0.234,0.487
			c0.113-0.031,0.343-0.089,0.458-0.121c0.019,0.659,0.502,0.666,0.977,0.577c-0.181-0.024-0.54-0.072-0.721-0.096
			c-0.029-0.094-0.089-0.277-0.121-0.369c0.823,0.232,1.481-0.355,2.178-0.659C31.602,9.526,31.455,9.277,31.301,9.031z
			 M32.348,10.833c0.545-0.48,0.938-1.124,0.924-1.872C32.551,9.289,32.565,10.179,32.348,10.833z M66.723,9.374
			c0.08,0.622,0.533,1.086,0.926,1.534c-0.186-0.56-0.261-1.165-0.543-1.689C67.078,8.896,66.547,9.152,66.723,9.374z M45.158,9.393
			c-0.051,0.782,0.405,1.406,0.967,1.891c0.55-0.449-0.193-0.979-0.258-1.474C45.631,9.668,45.394,9.53,45.158,9.393z
			 M58.402,10.073 M35.998,11.13c0.152,0.063,0.302,0.135,0.451,0.21c0.133-0.311,0.28-0.367,0.439-0.162l0.046,0.188
			c0.169,0.205,0.347,0.398,0.538,0.584c0.552-0.109,1.098-0.258,1.643-0.398c-0.536-0.297-1.122-0.463-1.722-0.557
			C36.985,10.594,36.398,10.877,35.998,11.13z M46.714,11.39c0.511,0.048,1.136,0.019,1.361-0.54
			C47.612,11.002,47.143,11.156,46.714,11.39z M62.663,11.048c-0.663-0.002-1.298,0.183-1.833,0.579
			c0.509,0.101,1.023,0.198,1.534,0.306c0.347-0.248,0.709-0.47,1.074-0.692l-0.818-0.075c0.203-0.111,0.61-0.335,0.813-0.446
			C63.169,10.819,62.914,10.927,62.663,11.048z M40.292,11.007c0.128,0.323,0.248,0.649,0.369,0.972
			c0.381-0.203,0.702-0.485,1.008-0.786C41.206,11.161,40.743,11.106,40.292,11.007z M52.075,10.985
			c-0.106,0.381,0.825,0.741,0.936,0.326C52.822,11.038,52.393,10.84,52.075,10.985z M58.349,11.188
			c0.275,0.306,0.552,0.613,0.888,0.854c0.157-0.335,0.311-0.675,0.47-1.011C59.259,11.118,58.803,11.161,58.349,11.188z
			 M42.036,11.538c-0.338,0.162-0.35,0.318-0.039,0.468C42.333,11.834,42.345,11.68,42.036,11.538z M26.826,11.96 M72.868,11.981
			 M73.681,12.071c0.084,0.675,0.104,1.915-0.849,1.882c-0.716,0.145-0.111-0.49-0.08-0.762c-0.391,0.051-0.7-0.152-0.893-0.47
			c-0.56,0.96,0.2,1.833,0.69,2.634c0.027-0.121,0.08-0.359,0.106-0.478l0.466,0.024c-0.69-0.244-1.322-0.671-1.402-1.469
			c0.13-0.055,0.391-0.169,0.521-0.224c-0.299,0.577,0.343,1.03,0.837,1.045C73.98,14.061,74.397,12.691,73.681,12.071z
			 M74.276,12.737c-0.152,0.294-0.157,0.596-0.014,0.9C74.568,13.571,74.617,12.751,74.276,12.737z M74.262,13.636 M30.276,13.873
			c-0.07,2.852-0.017,5.705-0.027,8.557c13.228-0.005,26.455,0.046,39.68-0.024c0-2.844,0-5.689,0-8.533
			C56.711,13.873,43.493,13.873,30.276,13.873z M26.609,16.78c0.569-0.125,1.11-0.352,1.597-0.673
			C27.632,16.203,26.835,16.075,26.609,16.78z M71.808,16.114c0.461,0.34,0.989,0.591,1.573,0.615
			C73.073,16.157,72.366,16.172,71.808,16.114z M25.115,16.353 M74.817,16.329 M24.158,16.876c0.268,0.277,0.562,0.533,0.9,0.724
			c-0.116-0.169-0.347-0.504-0.463-0.673l0.425,0.024l-0.005-0.01c-0.154-0.082-0.463-0.251-0.618-0.333
			C24.336,16.676,24.218,16.809,24.158,16.876z M23.745,18.309c0.444,0.188,0.692,0.598,0.823,1.045
			c-0.567-0.171-1.134-0.458-1.747-0.381c0.195,0.058,0.581,0.174,0.774,0.232c-0.311,0.258-0.632,0.507-0.977,0.719
			c0.169-0.019,0.502-0.058,0.668-0.077c0.152,0.159,0.396,0.868,0.717,0.454c0.121-0.099,0.364-0.292,0.485-0.388
			c-0.27-0.068-0.815-0.203-1.088-0.27c0.15-0.116,0.299-0.234,0.449-0.352c0.166,0.092,0.497,0.277,0.663,0.369
			c0.227-0.152,0.47-0.224,0.736-0.215c-0.048,0.275-0.251,0.495-0.367,0.743c0.704-0.593,1.346-1.254,2.116-1.768
			c-0.818,0.13-1.58,1.165-2.403,0.461c-0.012-0.096-0.039-0.285-0.051-0.379l0.162-0.133c0.417-0.169,0.854-0.294,1.286-0.422
			l-0.058-0.229c-0.092,0.068-0.277,0.205-0.369,0.273c-0.606,0-1.259-0.029-1.788,0.311c-0.215-0.521-0.28-1.069-0.15-1.624
			C23.27,17.125,23.038,18.061,23.745,18.309z M25.535,17.091c0.413,0.236,0.835,0.456,1.254,0.678
			c0.343-0.198,0.683-0.4,1.016-0.613C27.05,17.371,26.281,17.289,25.535,17.091z M72.129,17.137
			c0.331,0.207,0.661,0.417,0.992,0.625c0.408-0.188,0.811-0.388,1.192-0.63C73.591,17.308,72.848,17.366,72.129,17.137z
			 M24.56,21.277c0.647-0.15,1.298-0.289,1.964-0.318c0.34-0.854,0.654-1.722,1.131-2.511C26.572,19.33,25.405,20.143,24.56,21.277z
			 M72.293,18.396c0.439,0.767,0.748,1.595,1.088,2.405c0.569,0.331,1.312,0.261,1.947,0.461
			C74.537,20.097,73.352,19.296,72.293,18.396z M75.492,19.926c0.239,0.195,0.475,0.388,0.719,0.579
			c0.268-0.393,0.557-0.789,1.074-0.842C76.667,19.545,76.062,19.677,75.492,19.926z M71.796,21.335
			c0.369-0.22,0.154-0.808-0.031-1.093C71.463,20.394,71.463,21.178,71.796,21.335z M77.224,20.189 M75.917,21.05
			c0.162,0.536,0.562,0.909,1.02,1.201C76.686,21.781,76.387,21.325,75.917,21.05z M26.708,21.397
			c0.386,0.268,0.842,0.449,1.129,0.842c-0.847-0.162-1.689-0.526-2.567-0.374c-0.982,0.145-2.012,0.63-2.528,1.505
			c0.046,0.388,0.142,0.767,0.236,1.146c-0.014-1.39,1.206-2.417,2.545-2.434c-0.162,0.557-0.454,1.059-0.808,1.513
			c0.08,0.239,0.159,0.475,0.241,0.714c0.128-0.62,0.198-1.399,0.83-1.73c0.782-0.48,1.696-0.162,2.482,0.111
			c-0.166-0.328-0.35-0.647-0.511-0.977C27.407,21.607,27.057,21.499,26.708,21.397z M72.194,21.682
			c0.005,0.077,0.017,0.232,0.022,0.309c-0.318,0.183-0.644,0.388-0.637,0.801c0.152-0.072,0.454-0.222,0.603-0.297l0.142,0.227
			c-0.002-0.268-0.005-0.533-0.005-0.801c0.343-0.147,0.683-0.304,1.013-0.482C72.95,21.511,72.571,21.598,72.194,21.682z
			 M72.694,22.037c-0.075,0.092-0.224,0.275-0.299,0.367c0.651-0.06,1.431-0.154,1.966,0.323c0.54,0.333,0.468,1.04,0.625,1.578
			c0.376-0.446,0.222-0.97-0.166-1.351c-0.116-0.224-0.345-0.673-0.461-0.9c1.327,0.034,2.726,1.037,2.557,2.485
			c0.138-0.391,0.289-0.789,0.311-1.206C76.243,21.887,74.291,21.585,72.694,22.037z M21.251,25.942
			c0.06-0.152,0.183-0.458,0.244-0.613c0.492,0.931,0.449,2.051,0.941,2.994c0.41,0.774,0.721,1.732,1.578,2.128
			c0.087,0.222,0.171,0.444,0.251,0.668c0.251,0.096,0.502,0.193,0.753,0.289c-0.239-0.246-0.48-0.49-0.721-0.731l0.55-0.248
			c-0.905-0.463-1.792-1.093-2.193-2.067c-0.557-1.435-0.943-2.989-0.772-4.54c0.063-0.14,0.193-0.425,0.258-0.565
			C21.574,24.041,21.292,24.98,21.251,25.942z M77.934,23.284c0.463,1.737-0.031,3.537-0.668,5.163
			c-0.4,0.975-1.324,1.542-2.205,2.026l0.509,0.024c-0.195,0.304-0.388,0.608-0.581,0.917c0.311-0.176,1.09-0.212,0.779-0.765
			c1.616-1.151,2.253-3.25,2.451-5.141c0.106,0,0.318-0.005,0.422-0.005C78.597,24.707,78.264,23.993,77.934,23.284z M25.591,23.848
			c-0.186,0.292-0.113,0.478,0.212,0.557C25.972,24.111,25.902,23.926,25.591,23.848z M62.873,23.889
			c0.002,8.721-0.002,17.442,0.002,26.163c0.017,1.689-0.263,3.479-1.334,4.842c-1.206,1.566-3.189,2.297-5.102,2.494
			c-1.295,0.205-2.627,0.046-3.915,0.316c-1.025,0.212-1.73,1.028-2.453,1.715c-1.156-1.517-3.206-1.891-5.006-1.901
			c-2.42-0.055-5.153-0.632-6.663-2.704c-1.397-1.829-1.308-4.246-1.281-6.427c0-8.164,0-16.328,0-24.494
			c-2.285-0.005-4.569-0.043-6.854,0.022c-0.051,10.079-0.007,20.161-0.022,30.24c0.005,2.646,0.934,5.498,3.184,7.069
			c2.675,1.896,6.094,1.969,9.242,2.041c2.644,0.039,5.529,0.615,7.426,2.605c0.895-0.791,1.807-1.614,2.946-2.036
			c1.92-0.762,4.024-0.495,6.041-0.625c2.827-0.046,5.884-0.468,8.118-2.359c1.928-1.624,2.712-4.229,2.731-6.678
			c-0.012-10.099,0.014-20.197-0.014-30.296C67.57,23.897,65.22,23.875,62.873,23.889z M38.606,24.135
			c-0.039,1.609-0.104,3.23,0.022,4.832c0.331,0.094,0.663,0.176,1.001,0.246c0.253-0.372,0.456-0.777,0.569-1.216
			c0.449-0.634,0.999-1.185,1.602-1.674c0.036-0.125,0.109-0.374,0.145-0.499c0.946-0.552,1.935-1.474,3.11-1.175
			c0.644,0.207,1.168-0.34,1.749-0.528C44.07,24.135,41.337,24.111,38.606,24.135z M50.666,24.073
			c1.209,1.537,2.478,3.03,3.785,4.485c-0.837-1.385-1.684-2.765-2.564-4.12C51.643,23.974,51.095,24.082,50.666,24.073z
			 M52.159,24.051c0.697,1.112,1.411,2.215,2.089,3.339c-0.381-1.148-0.958-2.219-1.469-3.31
			C52.625,24.073,52.313,24.058,52.159,24.051z M54.668,24.14c0.125,0.994,0.871,2.058,0.347,3.023
			c-0.2-1.028-0.468-2.043-0.738-3.054c-0.268-0.017-0.803-0.048-1.071-0.063c0.642,1.32,1.151,2.712,1.913,3.968
			c-0.384-0.362,0.029-0.953,0.398-0.758l0.135,0.01l0.123-0.055c-0.075-0.08-0.222-0.239-0.294-0.318
			c-0.094-0.941-0.111-1.918-0.292-2.861C55.059,24.058,54.798,24.114,54.668,24.14z M57.184,24.244
			c-0.159,0.806-0.162,1.636-0.34,2.441l-0.14,0.022l-0.145-0.07c0.019-0.856,0.183-1.698,0.224-2.55
			c-0.405-0.014-0.811-0.024-1.213-0.031c0.123,1.172,0.285,2.34,0.408,3.513c0.183-0.186,0.396-0.314,0.63-0.384
			c0.048,0.08,0.147,0.234,0.195,0.314c0.367-0.994,0.632-2.024,0.784-3.071c0.2-0.012,0.403-0.024,0.606-0.039
			c-0.565,1.102-0.736,2.388-1.001,3.599c0.929-1.158,1.332-2.659,1.998-3.976c-0.369,0.022-0.731,0.094-1.078,0.215
			C57.799,24.188,57.399,23.872,57.184,24.244z M59.483,24.355c-0.497,1.052-1.033,2.089-1.443,3.177
			c0.094-0.121,0.28-0.364,0.374-0.487c0.62-1.018,1.3-2.005,1.846-3.066C60.002,24.09,59.613,24.051,59.483,24.355z M60.588,24.316
			c-0.663,0.958-1.235,1.976-1.862,2.955l-0.311-0.227l0.294,0.22c-0.217,0.372-0.434,0.745-0.62,1.134
			c0.567-0.581,1.083-1.213,1.544-1.882c0.077,0.188,0.15,0.381,0.215,0.577l0.024,0.072c0.603-0.801,1.792-1.254,1.87-2.362
			c-0.574,0.509-1.066,1.1-1.525,1.715c-0.145-0.002-0.437-0.007-0.581-0.01c0.77-0.748,1.452-1.58,2.089-2.444
			C61.343,24.116,60.844,23.938,60.588,24.316z M27.475,24.854c0.331,0.244,0.881-0.232,0.593-0.581
			C27.75,23.95,27.212,24.533,27.475,24.854z M50.584,24.857c0.367,1.016,1.274,1.713,2.092,2.362
			C52.084,26.355,51.438,25.479,50.584,24.857z M24.609,25.646c-0.333,0.326-0.068,0.678,0.092,1.001
			c0.166-0.2,0.533-0.299,0.524-0.606C25.123,25.749,24.918,25.619,24.609,25.646z M74.638,25.976
			c0.244,0.174,0.454,0.856,0.835,0.393c0.188-0.268-0.104-0.543-0.174-0.794C75.135,25.677,74.805,25.877,74.638,25.976z
			 M50.637,25.918c0.077,0.345,0.005,0.796,0.338,1.028c0.97,0.738,1.961,1.447,2.972,2.133
			C52.851,28.017,51.771,26.939,50.637,25.918z M58.829,28.811c0.967-0.637,1.874-1.361,2.825-2.022
			c0.007-0.273,0.014-0.545,0.024-0.818C60.694,26.881,59.703,27.79,58.829,28.811z M75.984,26.316 M23.808,27.839
			c0.639,0.101,1.293,0.022,1.928,0.174c-0.027-0.256-0.051-0.511-0.07-0.767C25.12,27.631,24.454,27.732,23.808,27.839z
			 M52.675,27.219 M59.847,27.093 M74.313,27.221c-0.053,0.265-0.096,0.536-0.15,0.801c0.591-0.142,1.204-0.113,1.807-0.169
			C75.391,27.716,74.8,27.583,74.313,27.221z M26.746,28.058l-0.318-0.007c-0.022,0.22-0.043,0.439-0.065,0.661
			c0.181,0.28,0.364,0.562,0.55,0.84c0.157-0.309,0.306-0.618,0.454-0.929c-0.314-0.019-0.627-0.039-0.938-0.053l-0.01-0.232
			c0.63,0.06,0.825-0.54,1.016-0.996C27.171,27.549,26.799,27.679,26.746,28.058z M50.564,27.322
			c0.425,0.647,1.187,0.936,1.841,1.295C51.862,28.097,51.257,27.624,50.564,27.322z M60.897,27.957
			c0.304,0.024,0.755-0.246,0.758-0.577C61.341,27.322,60.909,27.633,60.897,27.957z M54.844,28.683
			c-0.321,0.403-0.183,0.931-0.159,1.397c0.982-0.205,1.925-0.567,2.871-0.893c0.314-0.198-0.106-0.557-0.229-0.758
			C56.687,27.636,55.322,27.795,54.844,28.683z M60.996,28.601c0.263,0.205,0.868-0.051,0.704-0.422
			C61.449,28.005,60.887,28.28,60.996,28.601z M73.169,28.099 M27.935,28.357c-0.15,0.799-0.507,1.513-1.102,2.07
			c0.08,0.022,0.239,0.07,0.318,0.092C27.492,29.814,28.483,29.209,27.935,28.357z M50.683,28.114
			c0.024,0.181,0.077,0.543,0.104,0.724c1.153,0.521,2.323,1.02,3.517,1.447C53.134,29.503,51.913,28.796,50.683,28.114z
			 M71.941,28.237c-0.007,0.434-0.253,0.987,0.145,1.32c0.328,0.34,0.552,0.803,0.999,1.011
			C72.578,29.851,72.18,29.083,71.941,28.237z M42.857,29.969c0.323,0.005,0.647,0.01,0.97,0.014
			c0.027,0.799,0.989,0.521,1.496,0.41c1.37-0.434,2.782-0.724,4.21-0.883c0.036-0.323,0.065-0.647,0.094-0.97
			C47.293,28.529,45.047,29.252,42.857,29.969z M72.549,28.635c0.191,0.321,0.386,0.637,0.589,0.951
			c0.152-0.338,0.309-0.673,0.463-1.008C73.249,28.594,72.899,28.613,72.549,28.635z M55.129,30.444
			c0.909,0.029,1.819,0.012,2.726,0.019c1.305,0.031,2.557-0.393,3.845-0.526c0.014-0.314,0.027-0.627,0.041-0.938
			C59.469,29.018,57.228,29.6,55.129,30.444z M50.74,29.337c0.055,0.326,0.224,0.391,0.511,0.191
			C51.196,29.202,51.025,29.136,50.74,29.337z M38.64,29.383c-0.063,0.531-0.053,1.064-0.014,1.597
			c1.047,0.121,2.101,0.162,3.153,0.147c0.121-0.258,0.239-0.519,0.357-0.777C40.984,29.976,39.851,29.53,38.64,29.383z
			 M50.736,29.86c-0.036,0.555-0.055,1.115,0.01,1.667c0.357-0.236,0.302-0.68,0.384-1.045c0.603-0.022,1.206-0.014,1.809-0.055
			C52.246,30.101,51.479,30.005,50.736,29.86z M44.193,31.1c0.417,0.251,0.825,0.598,1.337,0.608
			c1.332,0.048,2.663-0.002,3.995,0.022c0.084-0.596,0.089-1.199,0.087-1.8C47.756,30.024,45.973,30.606,44.193,31.1z
			 M25.359,30.504c-0.087,0.333,0.034,0.451,0.362,0.355C25.808,30.519,25.687,30.401,25.359,30.504z M42.396,31.464
			c0.331,1.078,1.747,0.463,2.557,0.608c-0.644-0.584-1.609-0.868-1.947-1.737C42.541,30.492,42.048,30.953,42.396,31.464z
			 M74.276,30.526c-0.121,0.343-0.01,0.449,0.328,0.321C74.72,30.507,74.612,30.398,74.276,30.526z M51.447,30.818
			c-0.019,0.135-0.055,0.403-0.075,0.536c0.321,0.034,0.644,0.077,0.965,0.125c0.128-0.22,0.256-0.437,0.386-0.654
			C52.297,30.823,51.872,30.82,51.447,30.818z M53.136,30.801c-0.224,0.314,0.306,0.731,0.502,0.343
			C53.908,30.813,53.346,30.468,53.136,30.801z M58.371,30.914c0.181,0.299,0.367,0.596,0.557,0.893
			c0.263-0.118,0.439-0.654,0.786-0.495c0.109,0.104,0.326,0.314,0.434,0.417c0.181-0.299,0.362-0.601,0.545-0.897
			C59.92,30.806,59.141,30.806,58.371,30.914z M72.001,30.888c0.314,0.372,0.815,0.285,1.25,0.287
			C72.966,30.741,72.426,30.912,72.001,30.888z M54.938,31.79c0.304,0.053,0.803,0.13,0.692,0.55
			c-1.534-0.398-3.23-0.261-4.504,0.745c0.647,0.116,1.322,0.229,1.928-0.101c0.849-0.405,1.797-0.318,2.666-0.031
			c0.256-0.138,0.509-0.273,0.76-0.417l-0.847-0.118c0.926-0.422,2-0.323,2.999-0.355c-0.111-0.169-0.222-0.338-0.331-0.504
			c-0.4,0.417-0.856,0.147-1.119-0.251C56.482,31.655,55.703,31.723,54.938,31.79z M38.459,31.677
			c1.254,0.005,2.569,0.227,3.788-0.118c-1.148-0.147-2.314-0.019-3.467-0.176C38.7,31.455,38.541,31.602,38.459,31.677z
			 M60.578,32.275c0.449,0.138,0.731-0.651,0.253-0.765C60.482,31.493,60.137,32.154,60.578,32.275z M38.483,32.659
			c-0.092,0.893-0.024,1.792-0.019,2.687c0.34-1.047,0.926-1.973,1.445-2.936C39.467,32.492,38.734,32.152,38.483,32.659z
			 M40.623,32.461c0.07,0.166,0.212,0.499,0.282,0.666c0.282-0.174,0.531-0.4,0.789-0.608c0.321,0.331,0.642,0.661,0.955,1.001
			c0.422-0.133,0.796-0.116,0.929,0.376c0.251-0.256,0.492-0.521,0.77-0.75c0.157,0.082,0.475,0.248,0.634,0.331
			c0.326-0.321,0.654-0.637,1.001-0.931c0.22,0.222,0.441,0.444,0.661,0.671c0.147-0.087,0.441-0.261,0.589-0.347
			c-0.123,0.13-0.369,0.393-0.492,0.524c0.191,0.297,0.362,0.608,0.584,0.888c0.55,0.367,0.936-0.34,1.346-0.596
			c0.287,0.263,0.574,0.528,0.868,0.784c0.01-0.673,0.01-1.346-0.029-2.017C46.548,32.449,43.585,32.439,40.623,32.461z
			 M56.236,33.129c-0.639,0.345-1.305-0.072-1.964-0.082c-0.697,0.036-1.288,0.454-1.961,0.577c-0.596-0.005-1.38-0.495-1.681,0.294
			c1.194,0.188,2.405,0.068,3.607,0.099c2.352-0.029,4.709,0.06,7.059-0.051C59.985,32.584,57.93,32.514,56.236,33.129z
			 M60.484,32.849c0.357,0.352,0.864,0.521,1.262,0.116C61.343,32.803,60.909,32.803,60.484,32.849z M26.613,33.566
			c0.432-0.21,0.931-0.166,1.394-0.253C27.586,33.134,26.65,32.888,26.613,33.566z M40.208,32.883
			c-0.297,0.613-0.239,1.295,0.205,1.817C40.466,34.084,40.463,33.455,40.208,32.883z M72.19,33.245
			c0.094,0.352,0.76,0.263,1.018,0.099C73.111,32.992,72.445,33.076,72.19,33.245z M41.537,33.493
			c-0.251,0.287-0.186,0.77,0.193,0.917C42.311,34.398,41.942,33.409,41.537,33.493z M45.896,33.457
			c-0.089,0.123-0.265,0.369-0.352,0.492c0.147,0.251,0.297,0.502,0.451,0.75c0.082-0.321,0.157-0.639,0.229-0.96
			C46.142,33.667,45.978,33.527,45.896,33.457z M26.01,34.56c0.543-0.123,1.107-0.244,1.532-0.634
			C26.937,33.85,26.442,34.186,26.01,34.56z M72.441,33.853c0.347,0.429,0.895,0.555,1.399,0.707
			C73.49,34.14,72.998,33.87,72.441,33.853z M39.317,34.507c-0.251,0.224,0.005,0.876,0.352,0.601
			C39.892,34.888,39.65,34.265,39.317,34.507z M42.914,34.458c-0.258,0.2-0.046,0.893,0.309,0.625
			C43.448,34.876,43.274,34.244,42.914,34.458z M46.543,34.451 M50.907,34.934c-0.087,0.405,0.386,0.461,0.68,0.526
			c0.49-0.113,0.96-0.302,1.443-0.446c0.133-0.224,0.265-0.449,0.398-0.673C52.569,34.364,51.438,34.026,50.907,34.934z
			 M51.869,38.05c0.297,0.236,0.598,0.47,0.9,0.702c0.285-0.929,0.538-1.867,0.729-2.82c0.065-0.072,0.198-0.222,0.265-0.297
			c0.729,0.659,1.337-0.634,1.211-1.259c-0.753-0.253-0.644,0.931-0.989,1.327c-0.109-0.121-0.215-0.244-0.321-0.364
			c0.104-0.335,0.198-0.673,0.282-1.013C53.131,35.493,52.579,36.82,51.869,38.05z M57.544,42.432
			c-0.068,1.105-0.289,2.224-0.854,3.192c1.667,1.515,3.31,3.057,4.982,4.564c-0.14-1.691,0.335-3.467-0.343-5.081
			c-0.663-1.882-1.264-3.785-1.906-5.674c-0.207-0.639-0.859-1.02-1.045-1.672c-0.072-0.555-0.031-1.117-0.077-1.674
			c-0.514-0.497-1.074-0.97-1.102-1.749C57.573,37.018,57.628,39.73,57.544,42.432z M61.654,44.827
			c-0.055-1.165,0.265-2.432-0.338-3.5c-1.081-2.309-2.053-4.666-3.168-6.958C59.302,37.86,60.436,41.358,61.654,44.827z
			 M58.685,34.4 M61.278,34.417 M48.497,35.387c0.417,0.039,0.615-0.695,0.212-0.849C48.294,34.507,48.13,35.216,48.497,35.387z
			 M41.006,34.731c-0.077,0.326-0.35,1.534,0.321,0.982C41.713,35.365,41.288,34.948,41.006,34.731z M26.37,37.023
			c0.229,0.345,0.555-0.053,0.803-0.159c-0.063-0.174-0.188-0.521-0.251-0.695c-0.048,0.121-0.145,0.359-0.193,0.478
			c-0.217,0.326-0.27-0.381-0.328-0.509c0.253-0.234,0.516-0.461,0.784-0.68c-0.075-0.075-0.222-0.224-0.294-0.299
			C26.529,35.71,26.186,36.34,26.37,37.023z M43.904,35.102c-0.084,0.567-0.077,1.144-0.195,1.708
			c0.22-0.338,0.458-0.661,0.666-1.006C44.338,35.503,44.072,35.327,43.904,35.102z M45.421,35.148
			c-0.261,0.01-0.567,0.572-0.169,0.596C45.537,35.744,45.838,35.177,45.421,35.148z M48.873,35.551
			c0.15,0.475,0.318,0.958,0.28,1.464c0.154,0.258,0.309,0.516,0.463,0.774c-0.017-0.917-0.007-1.833-0.022-2.75
			C49.353,35.209,49.112,35.377,48.873,35.551z M51.187,35.865c0.152,0.509,1.197,0.285,1.264-0.193
			C52.043,35.703,51.563,35.698,51.187,35.865z M72.38,35.928c-0.649,0.314-0.786,1.011-0.719,1.667
			c0.171-0.625,0.333-1.65,1.242-1.392c0.01,0.275,0.027,0.55,0.051,0.823c0.031-0.302,0.055-0.603,0.077-0.905
			C72.814,36.058,72.597,35.993,72.38,35.928z M39.404,35.896c-0.094,0.326-0.188,0.651-0.287,0.977
			c0.014,0.179,0.043,0.54,0.06,0.721c0.169-0.207,0.338-0.415,0.507-0.622C39.588,36.613,39.501,36.253,39.404,35.896z
			 M41.814,36.106c-0.142,0.224-0.285,0.449-0.42,0.675c0.198,0.248,0.396,0.502,0.596,0.75
			C42.056,37.042,42.092,36.543,41.814,36.106z M50.668,36.128c0.019,0.509-0.005,1.023,0.068,1.532
			c0.176,0.084,0.531,0.258,0.709,0.345c0.287-0.507,0.567-1.018,0.849-1.529C51.715,36.555,51.148,36.461,50.668,36.128z
			 M53.79,36.383c-0.188,0.859-0.48,1.696-0.625,2.564c0.251,0.719,0.733,1.37,0.75,2.159c0.109,0.618-0.222,1.259-0.048,1.855
			c0.434,0.519,0.967,0.946,1.479,1.385c-0.347-2.943-0.49-5.944-0.096-8.89C54.936,36.005,54.328,36.171,53.79,36.383z
			 M56.065,35.99c-0.538,1.252-0.661,2.632-0.519,3.976c0.084-0.468,0.051-0.965,0.246-1.409
			C56.226,37.773,56.029,36.847,56.065,35.99z M46.548,37.271c0.736,0.055,1.476-0.087,2.164-0.347
			C48.051,36.605,46.902,36.494,46.548,37.271z M56.424,36.905 M42.811,37.872c-0.369,0.299-0.772-0.012-1.139-0.133
			c0.036,0.207,0.109,0.627,0.145,0.835c-1.107,0.072-2.222-0.051-3.322,0.111c0.355,1.035,1.66,0.917,2.521,1.235
			c-0.516,1.25-0.714,2.61-1.3,3.836c-0.087-0.111-0.261-0.333-0.347-0.444c-0.082,0.299-0.212,0.579-0.393,0.835
			c-0.135-1.416,0.507-2.743,0.77-4.108c-0.376-0.14-0.753-0.275-1.129-0.403c0.051,2.434-0.046,4.871,0.031,7.307
			c0.068-0.007,0.2-0.017,0.268-0.022c-0.359-0.871-0.053-1.824-0.08-2.731c0.222,0.031,0.673-0.287,0.741,0.075
			c-0.138,0.758-0.463,1.493-0.48,2.28c0.212-0.42,0.302-0.883,0.429-1.332c0.075-0.388,0.482-0.104,0.659,0.024l-0.403,0.089
			c0.005,0.2,0.014,0.596,0.019,0.796c0.562-1.057,1.25-2.106,1.139-3.363l-0.188,0.485c-0.138-0.14-0.273-0.28-0.41-0.417
			c0.434-0.83,1.206-1.539,1.322-2.502l-0.454,0.234c-0.039-0.15-0.121-0.451-0.159-0.603c0.7,0.195,1.402,0.427,2.135,0.439
			c0,0.166,0,0.331,0,0.497c-0.943,0.593-0.907,2.092-1.848,2.666c-0.031,0.258-0.058,0.516-0.082,0.774
			c0.649-1.139,1.334-2.265,2.186-3.266c-0.053-0.152-0.162-0.454-0.215-0.606c1.006,0.109,2.087,0.299,3.064-0.075
			c1.004-0.47,0.938-1.969,0.345-2.741C45.489,36.835,43.933,37.182,42.811,37.872z M47.339,38.224
			c0.014,0.229,0.031,0.458,0.048,0.688c0.458-0.545,1.452-0.651,1.587-1.392C48.287,37.107,47.896,37.981,47.339,38.224z
			 M38.543,38.161c0.982,0.104,1.973,0.094,2.96,0.048c-0.229-0.241-0.461-0.48-0.702-0.709
			C40.068,37.785,39.267,37.838,38.543,38.161z M47.546,41.375c-0.142,1.684,1.645,3.011,3.24,2.62
			c-0.461-0.413-1.238-0.181-1.587-0.719c-0.427-0.511,0.15-1.3-0.432-1.756c-0.08-0.545-0.777-1.001-0.504-1.549
			c0.369-0.082,0.774,0.169,1.115-0.043c0.4-0.164,0.779-0.572,1.245-0.34c1.088,0.236,1.378,1.472,2.309,1.961
			c-0.041-1.059-0.622-2.116-1.638-2.516C49.684,38.21,47.52,39.566,47.546,41.375z M60.914,39.438
			c0.188,0.601,0.482,1.16,0.75,1.73c0.007-0.808,0.005-1.614-0.005-2.422C61.399,38.96,61.02,39.083,60.914,39.438z M40.097,40.289
			c-0.285,0.758-0.473,1.563-0.458,2.376c0.427-0.803,0.642-1.696,0.854-2.574C40.393,40.14,40.196,40.239,40.097,40.289z
			 M50.531,40.082c-0.101,0.417-0.207,0.837-0.253,1.264c0.379-0.017,0.695-0.248,1.035-0.388
			C51.093,40.629,50.847,40.318,50.531,40.082z M41.228,43.31c0.478-0.893,0.941-1.795,1.353-2.719
			C41.535,40.996,41.18,42.282,41.228,43.31z M44.002,41.003c-0.302,0.593-0.468,1.245-0.654,1.882
			c0.654-0.601,1.252-1.254,1.785-1.964C44.755,40.943,44.376,40.941,44.002,41.003z M49.749,41.404
			c-0.094,0.386-0.207,0.77-0.229,1.17c0.183,0.188,0.398,0.345,0.606,0.516c-0.138-0.393-0.285-0.782-0.422-1.172
			c0.297,0.207,0.598,0.417,0.895,0.63c0.01-0.169,0.031-0.504,0.041-0.673C50.342,41.715,50.048,41.558,49.749,41.404z
			 M46.316,41.727c-0.232,0.268-0.039,1.008,0.374,0.878C46.813,42.34,46.685,41.664,46.316,41.727z M43.12,42.05
			c-1.02,1.457-1.894,3.02-2.521,4.687c0.35,0.203,0.716,0.379,1.112,0.485C42.331,45.544,42.702,43.787,43.12,42.05z
			 M44.215,43.319c-0.186,0.082-0.56,0.246-0.748,0.331c0.068,0.075,0.198,0.224,0.263,0.299c0.229-0.068,0.456-0.138,0.685-0.205
			c-0.154-0.466-0.123-0.948,0.053-1.399C44.133,42.583,43.761,42.984,44.215,43.319z M44.97,42.234
			c-0.055,0.478-0.072,0.958-0.068,1.44C45.546,43.425,45.153,42.682,44.97,42.234z M39.018,50.742
			c-0.224,0.222-0.509,0.432-0.569,0.767c0.273,1.877,1.648,3.508,3.423,4.159c2.026,0.842,4.304,0.222,6.362,0.936
			c0.743,0.203,1.404,0.649,1.843,1.286c0.555-0.574,1.1-1.216,1.882-1.479c1.747-0.647,3.64,0.036,5.421-0.434
			c1.874-0.359,3.517-1.72,4.145-3.534c0.145-0.437,0.396-1.045-0.048-1.39c-2.808-2.577-5.619-5.155-8.424-7.732
			c-0.695,0.89-1.737,1.607-2.905,1.561c-1.192,0.005-2.246-0.726-2.907-1.674C44.473,45.688,41.769,48.241,39.018,50.742z
			 M51.467,43.365c0.029,0.333,0.188,0.384,0.478,0.154C51.913,43.187,51.754,43.136,51.467,43.365z M42.659,45.532
			c0.446-0.335,0.958-0.697,0.984-1.315C43.001,44.335,42.873,45.022,42.659,45.532z M40.044,47.498
			c0.13,0.169,0.265,0.335,0.408,0.497c0.27-0.13,0.461-0.381,0.68-0.577C40.767,47.322,40.398,47.408,40.044,47.498z
			 M38.623,47.399c-0.077,0.9-0.08,1.805-0.01,2.707c0.456-0.671,0.902-1.346,1.349-2.022
			C39.629,47.645,39.216,47.276,38.623,47.399z"/>
	</g>
	<path fill="#C8C7C7" d="M70.018,7.931"/>
	<path fill="#C8C7C7" d="M35.175,15.979c0.104-0.08,0.309-0.239,0.413-0.318c0.017,0.393,0.043,0.784,0.075,1.175
		c-0.292,0.01-0.593,0.109-0.878-0.012c-0.244,0.007-0.49,0.017-0.733,0.027c-0.036,0.203-0.07,0.405-0.106,0.608
		c-0.111-0.186-0.331-0.555-0.439-0.741c-0.306,0.331-0.598,0.671-0.888,1.016c0.031-0.116,0.092-0.352,0.123-0.468
		c-0.159-0.092-0.475-0.273-0.634-0.364c-0.188,0.205-0.379,0.408-0.577,0.603c0.195-0.531,0.586-0.943,0.953-1.361
		c0.364-0.051,0.729-0.111,1.093-0.181C34.107,16.022,34.642,16.001,35.175,15.979z"/>
	<path fill="#C8C7C7" d="M40.557,15.964c0.099-0.08,0.297-0.239,0.396-0.318c0.01,0.528,0.053,1.076-0.265,1.532
		c-0.379-0.289-0.813-0.4-1.286-0.345c-0.048,0.2-0.094,0.403-0.14,0.603c-0.089-0.261-0.234-0.48-0.439-0.656
		c-0.179,0.14-0.355,0.287-0.524,0.437c-0.34,0.031-0.625-0.068-0.849-0.299c-0.203,0.2-0.405,0.4-0.618,0.591
		c0.246-0.473,0.521-0.953,0.946-1.283c0.396-0.138,0.808-0.217,1.209-0.338c0.039,0.055,0.116,0.164,0.154,0.22
		C39.607,16.003,40.082,15.976,40.557,15.964z"/>
	<path fill="#C8C7C7" d="M44.577,15.986c0.702,0.027,1.467,0.123,2.084-0.28c0.017,0.367,0.039,0.733,0.065,1.098
		c-0.14,0.022-0.422,0.065-0.565,0.087c-0.345-0.048-0.695-0.075-1.04-0.106c-0.029,0.162-0.089,0.487-0.118,0.649
		c-0.096-0.166-0.289-0.499-0.386-0.666c-0.215,0.147-0.422,0.304-0.622,0.466c-0.306-0.055-0.613-0.113-0.917-0.179
		c-0.195,0.154-0.391,0.306-0.591,0.454c0.318-0.463,0.632-0.941,1.042-1.327C43.875,16.092,44.232,16.071,44.577,15.986z"/>
	<path fill="#C8C7C7" d="M59.396,15.533c0.06,0.099,0.176,0.297,0.234,0.396c0.584-0.017,1.177,0.087,1.749-0.055
		c0.96,0.046,1.718,0.671,2.039,1.563c-0.263-0.176-0.511-0.367-0.755-0.565l-0.089,0.282l-0.432-0.046l-0.031,0.384
		c-0.188-0.282-0.381-0.565-0.632-0.796c-0.154,0.147-0.463,0.441-0.618,0.589l-0.055-0.678c-0.07,0.043-0.21,0.128-0.28,0.171
		c-0.47-0.041-0.919,0.289-1.329-0.113C59.259,16.288,59.326,15.909,59.396,15.533z"/>
	<path fill="#C8C7C7" d="M53.512,15.701c0.598,0.289,1.276,0.212,1.918,0.316l0.053-0.186c0.396,0.109,0.796,0.186,1.209,0.198
		c0.355,0.429,0.704,0.866,0.992,1.346c-0.152-0.121-0.458-0.362-0.61-0.48c-0.181,0.072-0.538,0.22-0.719,0.294
		c0.065,0.128,0.191,0.386,0.253,0.514c-0.338-0.294-0.528-0.955-1.042-0.9c-0.089,0.13-0.265,0.393-0.355,0.524
		c-0.036-0.224-0.072-0.449-0.109-0.673c-0.352,0.055-0.7,0.135-1.04,0.241c-0.179-0.053-0.355-0.109-0.531-0.164
		C53.524,16.389,53.52,16.046,53.512,15.701z"/>
	<path fill="#C8C7C7" d="M64.612,15.656c0.565,0.396,1.283,0.236,1.925,0.357l0.031-0.205c0.393,0.116,0.794,0.198,1.189,0.314
		c0.439,0.347,0.75,0.837,0.989,1.339c-0.195-0.176-0.388-0.359-0.574-0.545c-0.562,0.478-1.163,0.077-1.713-0.191l0.005,0.468
		c-0.075,0.01-0.222,0.031-0.297,0.041c0.01-0.142,0.024-0.425,0.031-0.567c-0.396,0.065-0.796,0.111-1.158,0.294
		C64.417,16.756,64.547,16.174,64.612,15.656z"/>
	<g>
		<path fill="#C8C7C7" d="M49.204,16.758c0.311-0.314,0.651-0.844,1.172-0.618c1.035,0.514,1.79,1.484,2.917,1.805
			c0.446,0.405,0.634,1.018,0.881,1.556c-2.697,0.068-5.399,0.07-8.094-0.002c0.207-0.615,0.381-1.505,1.197-1.529
			C48.089,17.926,48.678,17.313,49.204,16.758z M50.012,16.454c-0.569,0.615-1.112,1.291-1.853,1.703
			c-0.642,0.157-1.382,0.162-1.636,0.912c2.342,0.116,4.69,0.017,7.032,0.053c-0.181-0.321-0.364-0.639-0.548-0.958
			c-0.162-0.002-0.485-0.007-0.647-0.012C51.715,17.417,50.888,16.874,50.012,16.454z"/>
	</g>
	<path fill="#C8C7C7" d="M62.82,18.331c0.577,0.47,1.358,0.28,2.043,0.246c0.75,0.096,1.438,0.357,1.824,1.069l-0.572-0.121
		l0.031,0.299c-0.232-0.002-0.466-0.002-0.695-0.002c-0.222-0.164-0.425-0.367-0.702-0.425c-0.075,0.179-0.227,0.536-0.302,0.714
		c-0.055-0.248-0.106-0.497-0.157-0.745c-0.236,0-0.473,0.01-0.709-0.005c-0.154,0.157-0.306,0.318-0.454,0.485l0.029-0.468
		l-0.429,0.128C62.757,19.115,62.791,18.724,62.82,18.331z"/>
	<path fill="#C8C7C7" d="M34.345,18.838c0.362,0.002,0.721-0.058,1.042-0.229c0.654,0.14,1.337,0.135,1.971-0.087
		c0.072,0.316,0.142,0.634,0.212,0.953c-0.147,0.022-0.441,0.068-0.591,0.092c-0.359-0.051-0.721-0.068-1.081-0.116
		c0.005,0.166,0.012,0.499,0.017,0.663c-0.118-0.145-0.357-0.437-0.475-0.584c-0.504,0.186-1.028,0.519-1.563,0.215
		c-0.207,0.147-0.415,0.292-0.625,0.432C33.588,19.709,33.957,19.265,34.345,18.838z"/>
	<path fill="#C8C7C7" d="M41.525,18.587c0.63,0.323,1.365,0.077,2.026-0.014c-0.007,0.441,0.186,1.03-0.468,1.042
		c-0.359-0.072-0.721-0.116-1.083-0.166c-0.017,0.145-0.051,0.439-0.068,0.584c-0.109-0.138-0.323-0.415-0.429-0.552
		c-0.441,0.275-0.994,0.572-1.488,0.236c-0.222,0.152-0.441,0.306-0.668,0.451c0.314-0.413,0.615-0.84,0.992-1.199
		C40.734,18.838,41.149,18.773,41.525,18.587z"/>
	<path fill="#C8C7C7" d="M58.586,18.461c0.398,0.142,0.808,0.248,1.23,0.285c0.369,0.429,0.75,0.861,0.977,1.387
		c-0.222-0.205-0.434-0.417-0.642-0.634c-0.031,0.072-0.094,0.217-0.125,0.289c-0.157,0.051-0.473,0.15-0.63,0.2
		c-0.104-0.133-0.309-0.398-0.413-0.531c-0.297-0.029-0.42,0.28-0.608,0.444c-0.055-0.138-0.164-0.417-0.22-0.555
		c-0.304,0.084-0.606,0.174-0.907,0.27c-0.217-0.092-0.437-0.181-0.654-0.27c0.072-0.246,0.147-0.49,0.224-0.733
		c0.591,0,1.197-0.046,1.771,0.135L58.586,18.461z"/>
	<path fill="#C8C7C7" d="M46.244,20.167c0.391-0.027,0.784-0.055,1.177-0.092c-0.053,0.169-0.106,0.34-0.159,0.509
		c-0.461,0.099-0.926,0.082-1.387,0.01C45.998,20.452,46.118,20.309,46.244,20.167z"/>
	<path fill="#C8C7C7" d="M52.634,20.056c0.606,0.051,1.267,0.048,1.722,0.519c-0.519,0.07-1.042,0.099-1.563,0.034
		C52.74,20.425,52.687,20.242,52.634,20.056z"/>
	<path fill="#C8C7C7" d="M43.351,20.965c0.263-0.712,1.11-0.449,1.689-0.473C44.738,21.137,43.933,21.002,43.351,20.965z"/>
	<path fill="#C8C7C7" d="M55.121,20.9c0.157-0.823,1.163-0.35,1.655-0.104c-0.27,0.099-0.456,0.263-0.56,0.492
		c0.504,0.138,1.074,0.13,1.479,0.509c-0.581,0.183-1.18,0.063-1.751-0.08c0.039-0.273,0.084-0.543,0.135-0.813
		C55.84,20.905,55.36,20.903,55.121,20.9z"/>
	<path fill="#C8C7C7" d="M47.498,21.257c0.427-0.417,1.457-0.767,1.742-0.043C48.666,21.366,48.077,21.431,47.498,21.257z"/>
	<path fill="#C8C7C7" d="M51.054,20.794c0.417,0.034,0.832,0.07,1.252,0.101c0.06,0.106,0.183,0.316,0.246,0.422
		c-0.188,0.01-0.567,0.029-0.755,0.036c-0.261-0.087-0.521-0.171-0.784-0.248C51.023,21.028,51.044,20.871,51.054,20.794z"/>
	<path fill="#C8C7C7" d="M40.55,21.385c0.451,0.041,1.054-0.294,1.39,0.135c-0.135,0.089-0.4,0.268-0.536,0.357
		c-0.367-0.014-0.733-0.051-1.098-0.08C40.367,21.694,40.49,21.489,40.55,21.385z"/>
	<path fill="#C8C7C7" d="M45.182,21.315c0.552,0.024,1.259-0.323,1.677,0.183C46.359,21.626,45.221,22.177,45.182,21.315z"/>
	<path fill="#C8C7C7" d="M53.52,21.706c-0.019-0.181-0.036-0.362-0.053-0.543c0.545,0.055,1.095,0.094,1.628,0.239
		c-0.338,0.299-0.796,0.374-1.226,0.268C53.783,21.68,53.606,21.696,53.52,21.706z"/>
	<path fill="#C8C7C7" d="M58.142,21.337c0.61,0.012,1.394-0.169,1.766,0.456C59.283,21.824,58.492,22.005,58.142,21.337z"/>
	<path fill="#C8C7C7" d="M42.5,21.8c0.405-0.555,1.175-0.34,1.754-0.485C44.082,22.097,43.086,21.969,42.5,21.8z"/>
	<g>
		<path fill="#C8C7C7" d="M65.437,25.554c1.233-0.603,3.189,0.034,3.172,1.604c0.145,2.06-3.064,2.55-3.944,0.919
			C64.171,27.214,64.479,25.947,65.437,25.554z M65.929,26.068c-0.678,0.138-1.139,0.847-0.917,1.52
			c0.606,1.247,3.018,1.086,3.098-0.437C67.992,26.145,66.771,25.802,65.929,26.068z"/>
	</g>
	<path fill="#C8C7C7" d="M32.396,28.717c-1.233-0.369-1.175-2.516,0.113-2.757c0.972-0.138,1.966-0.111,2.943-0.043
		c0.068,0.133,0.207,0.398,0.275,0.528c-1.057,0.106-2.145-0.104-3.182,0.174c-0.683,0.193-0.688,1.291-0.012,1.505
		c0.97,0.28,1.995,0.133,2.989,0.159c0.024,0.128,0.075,0.379,0.099,0.507C34.55,28.886,33.455,28.943,32.396,28.717z"/>
	<path fill="#C8C7C7" d="M65.538,31.486c0.823-0.205,0.69-1.764,1.718-1.759c0.654-0.133,1.279,0.408,1.32,1.057
		c0.046,0.552,0.111,1.455-0.678,1.419c0.048-0.475,0.21-0.951,0.15-1.433c-0.121-0.403-0.55-0.531-0.914-0.391
		c-0.504,0.627-0.702,1.911-1.764,1.706c-0.963-0.138-1.102-1.363-0.786-2.104c0.125-0.019,0.374-0.058,0.497-0.077
		C65.046,30.425,64.711,31.448,65.538,31.486z"/>
	<path fill="#C8C7C7" d="M31.441,31.187c1.334-0.106,2.678-0.087,4.014-0.036l0.159,0.104c0.002,0.101,0.005,0.306,0.007,0.408
		c-0.883,0.774-1.978,1.262-2.938,1.932c0.936,0.017,1.87-0.034,2.803,0.022c0.06,0.116,0.181,0.352,0.241,0.47
		c-1.409,0.087-2.823,0.068-4.231,0.012c0.14-0.244,0.191-0.562,0.437-0.729c0.842-0.598,1.79-1.035,2.593-1.686
		c-0.9-0.053-1.797,0.005-2.697,0.019C31.733,31.575,31.537,31.317,31.441,31.187z"/>
	<path fill="#C8C7C7" d="M47.604,32.982"/>
	<path fill="#C8C7C7" d="M64.516,33.008c0.125,0,0.379,0.002,0.504,0.002c0.019,0.516,0.029,1.035,0.043,1.554
		c0.372-0.005,0.743-0.01,1.117-0.014c0.007-0.519,0.012-1.035,0.029-1.554h0.446c0.089,0.49-0.159,1.112,0.207,1.517
		c0.369,0.053,0.743,0.053,1.117,0.072c0.154-0.586-0.355-1.751,0.548-1.776c-0.121,0.738,0.338,1.79-0.28,2.328
		c-1.199,0.01-2.427,0.121-3.611-0.063C64.339,34.444,64.561,33.686,64.516,33.008z"/>
	<g>
		<path fill="#C8C7C7" d="M64.988,36.224c0.567-0.384,1.218-0.068,1.628,0.376c0.596-0.345,1.267-0.514,1.935-0.661
			c0.188,0.856-0.794,0.731-1.303,1.001c-0.47,0.106-0.364,0.673-0.444,1.025c0.61,0.174,1.841-0.372,1.792,0.61
			c-1.351,0.041-2.702,0.034-4.053,0.005C64.542,37.804,64.253,36.767,64.988,36.224z M65.013,37.964
			c0.456,0.022,0.912,0.034,1.37,0.043c0.005-0.557-0.048-1.365-0.794-1.365C64.931,36.753,64.955,37.455,65.013,37.964z"/>
	</g>
	<path fill="#C8C7C7" d="M31.648,36.432c1.281,0.017,2.567-0.048,3.845,0.027c0.048,0.13,0.14,0.391,0.188,0.519
		c-1.349,0.101-2.704,0.058-4.053,0.031C31.634,36.866,31.643,36.576,31.648,36.432z"/>
	<g>
		<path fill="#C8C7C7" d="M31.564,39.36c1.341-0.068,2.683-0.031,4.024-0.029c0.019,1.001,0.251,2.287-0.704,2.955
			c-0.922,0.55-2.34,0.415-2.975-0.516C31.448,41.054,31.593,40.164,31.564,39.36z M32.128,40.907
			c0.253,1.146,1.947,1.447,2.687,0.61c0.35-0.422,0.357-0.999,0.297-1.513c-0.912-0.309-1.959-0.058-2.921-0.138
			C32.085,40.205,32,40.559,32.128,40.907z"/>
	</g>
	<path fill="#C8C7C7" d="M66.484,39.594c0.627-0.007,1.337-0.181,1.915,0.116c0.212,0.736,0.265,1.58-0.089,2.285
		c-0.758,1.293-2.996,1.17-3.626-0.188c-0.318-0.702-0.174-1.493-0.058-2.222c0.772,0.171,0.244,1.013,0.388,1.542
		c0.256,1.124,1.911,1.529,2.668,0.666c0.473-0.408,0.369-1.071,0.355-1.626c-0.347,0.002-0.692,0.002-1.037,0.005
		c-0.096,0.287-0.193,0.574-0.287,0.861C66.209,40.767,66.286,40.019,66.484,39.594z"/>
	<path fill="#C8C7C7" d="M40.333,42.979c0.263,0.572,0.005,1.293-0.396,1.727C39.342,44.357,40.278,43.442,40.333,42.979z"/>
	<g>
		<path fill="#C8C7C7" d="M65.449,43.708c1.276-0.627,3.291,0.116,3.16,1.742c-0.005,2.002-3.148,2.381-3.971,0.743
			C64.173,45.326,64.511,44.094,65.449,43.708z M65.64,44.345c-0.538,0.229-0.83,0.871-0.603,1.419
			c0.608,1.254,3.042,1.033,3.081-0.495C67.908,44.207,66.496,43.886,65.64,44.345z"/>
	</g>
	<g>
		<path fill="#C8C7C7" d="M31.491,44.229c1.235,0.347,2.439,0.799,3.657,1.209c0.586,0.027,0.584,0.938,0.029,1.011
			c-1.204,0.417-2.415,0.813-3.619,1.226c0.014-0.166,0.041-0.502,0.055-0.668c0.403-0.138,0.806-0.273,1.213-0.403
			c-0.043-0.425,0.133-0.922-0.121-1.293C32.206,45.03,31.475,44.965,31.491,44.229z M33.318,45.435c0,0.34,0.002,0.68,0.002,1.02
			c0.507-0.162,1.013-0.326,1.501-0.54C34.321,45.746,33.819,45.592,33.318,45.435z"/>
	</g>
	<g>
		<path fill="#C8C7C7" d="M49.368,46.603c0.495-0.031,0.989-0.072,1.484-0.024c0.376,0.311,0.128,0.912,0.227,1.344
			c0.56,0.017,1.129,0.014,1.679,0.147c0.463-0.434,0.905-1.064,1.64-0.917c-0.461,0.743-1.23,1.226-1.715,1.942
			c-0.063,1.182-0.403,2.516,0.15,3.616c0.326-0.096,0.598-0.309,0.905-0.446c0.668,0.531,1.31,1.11,1.858,1.761
			c0.116,0.671-0.528,1.136-0.924,1.578c-0.849,0.316-1.385-0.758-2.133-1.008c-1.665-0.289-3.426,0.227-5.052-0.285
			c-0.244,0.101-0.41,0.432-0.704,0.367c-0.668-0.195-1.291-0.514-1.932-0.772c-1.891-0.637-3.071-2.552-3.402-4.446
			c0.473,0.622,0.748,1.385,1.315,1.94c1.134,1.071,2.396,2.159,4.01,2.35c0.413-0.171,0.806-0.557,0.777-1.035
			c-0.014-1.199,0.075-2.41-0.055-3.602c-0.589-0.613-1.312-1.081-1.908-1.686c0.109-0.164,0.222-0.326,0.343-0.482
			c0.475,0.381,0.943,0.77,1.409,1.165c0.618-0.176,1.262-0.145,1.891-0.217C49.31,47.466,49.32,47.03,49.368,46.603z M49.698,46.95
			c-0.014,0.326-0.027,0.654-0.034,0.979c0.343,0.007,0.685,0.01,1.028,0.01c-0.01-0.331-0.024-0.663-0.039-0.994
			C50.335,46.943,50.017,46.945,49.698,46.95z M47.961,48.499c0.273,0.316,0.584,0.598,0.905,0.868
			c0.002-0.2,0.007-0.603,0.012-0.803C48.572,48.53,48.265,48.511,47.961,48.499z M49.25,48.492
			c0.034,0.224,0.077,0.449,0.128,0.673c0.408,0.019,0.815-0.048,1.216-0.116C50.892,48.192,49.71,48.566,49.25,48.492z
			 M51.225,49.295c0.432-0.014,0.678-0.456,1.008-0.668C51.73,48.277,51.069,48.668,51.225,49.295z M47.937,49.818
			c-0.034,0.977-0.039,1.959,0.012,2.936c0.42-0.333,0.946-0.89,0.316-1.334c0.005-0.299,0.005-0.598-0.007-0.897
			c0.084-0.125,0.251-0.376,0.335-0.504C48.429,49.97,48.101,49.869,47.937,49.818z M49.266,50.677
			c-0.152,0.299-0.092,0.519,0.183,0.661C49.949,51.29,49.689,50.402,49.266,50.677z M51.469,52.61
			c-0.49,0.215-0.379,1.677,0.47,1.363C52.564,53.589,52.142,52.559,51.469,52.61z M47.889,53.932
			c0.331,0.019,0.663,0.029,0.996,0.027c0.017-0.41,0.024-0.818,0.019-1.226C48.516,53.087,48.133,53.459,47.889,53.932z
			 M49.238,53.985c0.437-0.002,0.873,0.012,1.31-0.029c0.241-0.22,0.101-0.598,0.162-0.883c-0.072-0.053-0.217-0.157-0.287-0.207
			c-0.364,0.157-0.719,0.111-1.025-0.169C49.238,53.109,49.235,53.548,49.238,53.985z"/>
	</g>
	<g>
		<path fill="#C8C7C7" d="M65.208,47.961c0.536-0.246,1.028,0.147,1.423,0.458c0.586-0.338,1.25-0.49,1.906-0.632
			c0.169,0.919-0.996,0.77-1.558,1.083c-0.082,0.304-0.157,0.608-0.227,0.914c0.613,0.031,1.226,0.034,1.841,0.051
			c-0.036,0.133-0.111,0.396-0.15,0.528c-1.291,0.128-2.593,0.039-3.891,0.041C64.528,49.597,64.25,48.337,65.208,47.961z
			 M64.988,49.802c0.466,0.01,0.934,0.012,1.399,0.005c-0.039-0.538-0.07-1.346-0.808-1.332
			C64.938,48.632,64.959,49.271,64.988,49.802z"/>
	</g>
	<g>
		<path fill="#C8C7C7" d="M31.67,49.671c1.24-0.205,2.56-0.07,3.829-0.068c0.21,0.649,0.171,1.365,0.041,2.026
			c-0.417,1.749-3.346,1.698-3.831,0.022C31.561,51.015,31.424,50.296,31.67,49.671z M32.382,50.202
			c-0.504,0.092-0.318,0.733-0.234,1.083c0.302,1.102,1.918,1.337,2.661,0.557c0.403-0.454,0.302-1.09,0.326-1.645
			C34.218,50.188,33.298,50.142,32.382,50.202z"/>
	</g>
	<g>
		<path fill="#C8C7C7" d="M65.201,51.403c0.47-0.188,1.052-0.096,1.419,0.261c0.331,0.432,0.314,1.008,0.487,1.508
			c0.466,0.128,0.955,0.065,1.431,0.125c0.35,0.659-0.456,0.511-0.774,0.565c-1.028-0.012-2.055,0.034-3.078-0.027
			C64.335,53.133,64.318,51.78,65.201,51.403z M65.003,53.249c0.507,0.005,1.013,0,1.522-0.029
			c-0.036-0.485-0.039-1.267-0.707-1.286C65.037,51.77,64.904,52.689,65.003,53.249z"/>
	</g>
	<path fill="#C8C7C7" d="M33.926,57.029c0.232-0.234,0.357-0.888,0.806-0.678c0.579-0.007,0.692,0.953,0.181,1.117
		C34.497,57.719,34.203,57.246,33.926,57.029z"/>
	<path fill="#C8C7C7" d="M65.671,56.465c0.497-0.528,1.368,0.507,0.719,0.902C65.828,57.987,64.959,56.887,65.671,56.465z"/>
	<path fill="#C8C7C7" d="M39.156,61.529c-1.85-0.56-1.566-3.756,0.359-3.981c0.543,0,1.498-0.27,1.534,0.548
		c-0.538-0.002-1.107-0.181-1.624,0.031c-1.158,0.446-1.185,2.412-0.041,2.89c0.543,0.215,1.136,0.012,1.701,0.036
		C40.818,61.83,39.781,61.69,39.156,61.529z"/>
	<g>
		<path fill="#C8C7C7" d="M61.266,57.823c0.174-0.012,0.519-0.036,0.692-0.048c0.463,1.344,0.943,2.683,1.365,4.041
			c-0.796,0.15-0.808-0.7-1.112-1.185c-0.391-0.121-0.811-0.106-1.201-0.012c-0.306,0.49-0.316,1.288-1.074,1.279
			C60.289,60.51,60.8,59.174,61.266,57.823z M61.092,60.064c0.335,0.005,0.671,0.007,1.006,0.014
			c-0.159-0.519-0.321-1.033-0.492-1.544C61.437,59.044,61.264,59.555,61.092,60.064z"/>
	</g>
	<path fill="#C8C7C7" d="M42.005,58.252c0.152,0.01,0.456,0.027,0.606,0.036c0.053,1.008-0.145,2.055,0.135,3.037
		c0.241,0.666,1.286,0.651,1.513-0.014c0.304-0.979,0.104-2.034,0.162-3.045c0.15,0.007,0.449,0.022,0.596,0.029
		c-0.017,1.035,0.104,2.094-0.15,3.11c-0.273,1.223-2.461,1.271-2.726,0.024C41.896,60.39,42.039,59.309,42.005,58.252z"/>
	<g>
		<path fill="#C8C7C7" d="M56.627,58.291c0.716,0.007,1.546-0.195,2.171,0.256c0.524,0.507,0.292,1.356-0.205,1.795
			c0.323,0.613,0.509,1.281,0.625,1.964c-0.827,0.111-0.721-0.803-0.979-1.317c-0.113-0.405-0.692-0.596-1.004-0.292
			c-0.145,0.596,0.294,1.59-0.62,1.628C56.598,60.981,56.579,59.635,56.627,58.291z M57.206,58.684
			c-0.005,0.454-0.005,0.907-0.002,1.361c0.586,0.13,1.361-0.063,1.327-0.796C58.34,58.67,57.7,58.72,57.206,58.684z"/>
	</g>
	<path fill="#C8C7C7" d="M46.287,58.947c0.135-0.007,0.408-0.022,0.543-0.029c-0.005,1.168-0.022,2.335,0.08,3.5
		c0.606,0.063,1.435-0.248,1.725,0.504c-0.779,0.065-1.563,0.051-2.345,0.022C46.282,61.613,46.289,60.279,46.287,58.947z"/>
	<path fill="#C8C7C7" d="M52.311,60.445c0.036-0.606-0.217-1.435,0.574-1.65c0.099,1.018-0.065,2.055,0.14,3.064
		c0.128,0.745,1.303,0.893,1.554,0.154c0.275-1.02,0.109-2.094,0.152-3.139c0.145,0.022,0.434,0.065,0.579,0.087
		c0.031,0.965,0.089,1.944-0.053,2.905c-0.13,1.213-1.918,1.539-2.62,0.649C52.26,61.9,52.335,61.138,52.311,60.445z"/>
	<path fill="#C8C7C7" d="M48.642,60.105c0.994-0.08,1.998-0.036,2.994,0.002c-0.195,0.586-0.82,0.429-1.305,0.475
		c-0.022,1.144,0.034,2.287-0.024,3.428c-0.285,0.13-0.468,0.063-0.55-0.2c-0.084-1.069-0.002-2.142-0.039-3.211
		c-0.427-0.039-0.861-0.043-1.276-0.164C48.492,60.354,48.591,60.187,48.642,60.105z"/>
	<path fill="#C8C7C7" d="M19.053,77.125c0.417,0.01,0.837,0.017,1.257,0.027c0.644,1.742,1.358,3.462,1.918,5.235
		c0.572-1.785,1.324-3.503,2.014-5.242c0.413-0.005,0.827-0.005,1.242-0.002c0.162,2.21,0.311,4.422,0.441,6.634
		c-0.326-0.002-0.651-0.005-0.975-0.002c-0.075-1.855-0.256-3.706-0.265-5.563c-0.671,1.848-1.428,3.665-2.13,5.5
		c-0.268-0.002-0.536-0.005-0.801-0.005c-0.627-1.826-1.394-3.602-1.925-5.459c-0.089,1.848-0.191,3.696-0.345,5.539
		c-0.316-0.007-0.634-0.012-0.951-0.017C18.727,81.557,18.872,79.34,19.053,77.125z"/>
	<path fill="#C8C7C7" d="M27.291,77.127c0.345,0.01,0.688,0.019,1.033,0.031c0,1.496-0.043,2.991,0.012,4.485
		c0.06,0.893,0.914,1.624,1.814,1.464c0.878-0.024,1.462-0.888,1.469-1.706c0.039-1.426-0.005-2.849,0.014-4.275
		c0.345,0.01,0.688,0.019,1.033,0.031c-0.039,1.411,0.036,2.823-0.036,4.234c-0.039,0.955-0.557,1.947-1.505,2.27
		c-0.943,0.316-2.099,0.328-2.926-0.289c-0.678-0.499-0.888-1.385-0.907-2.183C27.279,79.837,27.291,78.481,27.291,77.127z"/>
	<path fill="#C8C7C7" d="M34.167,77.132c0.379,0.005,0.758,0.01,1.139,0.019c1.134,1.768,2.453,3.421,3.464,5.271
		c-0.063-1.754-0.099-3.505-0.092-5.259c0.323-0.017,0.644-0.031,0.967-0.043c0.014,2.219,0.01,4.441,0,6.661
		c-0.333-0.005-0.668-0.007-1.001-0.01c-1.194-1.826-2.54-3.556-3.599-5.467c0.166,1.817,0.051,3.645,0.084,5.469
		c-0.241,0-0.724,0-0.965,0C34.167,81.559,34.162,79.345,34.167,77.132z"/>
	<path fill="#C8C7C7" d="M41.165,77.137c0.338,0,0.678,0,1.018,0c0,2.217,0.012,4.437-0.007,6.654
		c-0.343-0.014-0.683-0.027-1.023-0.041C41.173,81.547,41.151,79.342,41.165,77.137z"/>
	<path fill="#C8C7C7" d="M44.743,77.68c1.194-0.808,2.745-0.772,4.089-0.41c-0.048,0.193-0.142,0.581-0.191,0.774
		c-0.965-0.265-2.051-0.403-2.97,0.089c-1.761,0.842-1.764,3.788-0.017,4.646c0.931,0.48,2.017,0.306,2.991,0.07
		c0.041,0.188,0.125,0.565,0.166,0.753c-1.351,0.34-2.909,0.468-4.135-0.321C42.811,82.046,42.876,78.886,44.743,77.68z"/>
	<path fill="#C8C7C7" d="M49.911,77.135c0.338,0.002,0.678,0.002,1.018,0.005c0,2.212,0.007,4.424-0.002,6.637
		c-0.34-0.002-0.678-0.002-1.018,0C49.903,81.562,49.903,79.349,49.911,77.135z"/>
	<g>
		<path fill="#C8C7C7" d="M52.436,77.214c1.194-0.113,2.49-0.328,3.604,0.241c1.146,0.557,1.235,2.352,0.246,3.102
			c-0.784,0.659-1.858,0.639-2.823,0.632c0,0.866,0.002,1.73-0.002,2.596c-0.345-0.012-0.69-0.022-1.033-0.031
			C52.448,81.574,52.436,79.393,52.436,77.214z M53.464,77.861c0,0.856-0.002,1.715,0.005,2.574
			c0.637,0.014,1.337,0.077,1.908-0.268c0.731-0.422,0.796-1.667,0.027-2.084C54.82,77.733,54.111,77.82,53.464,77.861z"/>
	</g>
	<path fill="#C8C7C7" d="M58.118,77.123c0.34,0.012,0.68,0.024,1.02,0.039c-0.014,2.203,0,4.408-0.007,6.613
		c-0.34,0-0.68,0-1.02,0.002C58.111,81.559,58.098,79.34,58.118,77.123z"/>
	<g>
		<path fill="#C8C7C7" d="M62.713,77.13c1.39-0.367,3.073,0.15,3.749,1.484c0.777,1.561,0.482,3.812-1.095,4.772
			c-1.194,0.702-2.864,0.671-3.961-0.207C59.406,81.566,60.065,77.649,62.713,77.13z M62.783,77.919
			c-1.583,0.649-1.887,2.868-1.037,4.21c0.622,1.049,2.183,1.315,3.124,0.545c1.185-1.02,1.254-3.001,0.28-4.186
			C64.578,77.82,63.594,77.629,62.783,77.919z"/>
	</g>
	<g>
		<path fill="#C8C7C7" d="M70.228,77.214c1.505-0.13,3.134-0.338,4.528,0.384c2.195,1.158,1.87,4.941-0.422,5.812
			c-1.295,0.543-2.733,0.441-4.101,0.343C70.226,81.574,70.233,79.393,70.228,77.214z M71.254,77.89
			c0.007,1.722-0.007,3.445,0.01,5.17c0.849-0.024,1.756,0.082,2.543-0.311c1.435-0.642,1.785-2.692,0.948-3.93
			C73.953,77.75,72.457,77.731,71.254,77.89z"/>
	</g>
	<path fill="#C8C7C7" d="M77.35,77.137c1.308,0.002,2.618,0.002,3.925,0c-0.01,0.265-0.017,0.528-0.027,0.796
		c-0.96-0.014-1.918-0.01-2.876-0.01c-0.002,0.666,0,1.329,0.005,1.995c0.917-0.007,1.833-0.005,2.753-0.007
		c0.012,0.256,0.024,0.511,0.039,0.77c-0.931,0.027-1.865,0.017-2.796,0.017c0,0.762,0,1.527,0,2.292c1.023,0,2.048,0,3.071-0.002
		c0.002,0.261,0.005,0.524,0.01,0.786c-1.37,0.002-2.736-0.002-4.104,0.002C77.347,81.562,77.347,79.349,77.35,77.137z"/>
	<path fill="#C8C7C7" d="M38.432,87.282c0.654-0.012,1.308-0.014,1.961-0.002c-0.499,0.475-1.018,0.931-1.537,1.387
		c-0.497-0.007-0.994-0.012-1.488-0.022C37.716,88.184,38.075,87.733,38.432,87.282z"/>
	<path fill="#C8C7C7" d="M2.508,88.956c0.726,0.005,1.452,0.002,2.178,0.012c0.977,1.578,2.08,3.086,2.868,4.774
		c-0.174-1.59-0.094-3.189-0.106-4.784c0.562,0,1.122,0,1.681-0.002c0.012,2.333,0.002,4.668,0.005,7.001
		c-0.647,0-1.291,0-1.937-0.002c-1.033-1.631-2.099-3.24-3.016-4.941c-0.019,1.648,0.111,3.293,0.068,4.943
		c-0.584-0.002-1.165-0.002-1.749,0C2.503,93.621,2.494,91.289,2.508,88.956z"/>
	<path fill="#C8C7C7" d="M10.643,88.961c0.622,0,1.245-0.002,1.867-0.005c0.007,2.335,0,4.668,0.002,7.001
		c-0.625,0-1.25-0.002-1.872-0.005C10.645,93.621,10.641,91.291,10.643,88.961z"/>
	<path fill="#C8C7C7" d="M15.019,89.701c1.44-1.011,3.353-1.03,4.996-0.572c-0.133,0.434-0.265,0.868-0.393,1.305
		c-1.025-0.241-2.234-0.427-3.155,0.215c-1.269,0.837-1.172,3.066,0.207,3.744c0.919,0.473,1.998,0.309,2.965,0.104
		c0.084,0.434,0.169,0.868,0.251,1.305c-1.549,0.393-3.298,0.449-4.726-0.367C13.157,94.27,13.145,90.994,15.019,89.701z"/>
	<g>
		<path fill="#C8C7C7" d="M22.746,89.055c1.267-0.379,2.75-0.287,3.85,0.49c2,1.397,1.814,4.948-0.391,6.05
			c-1.718,0.852-4.195,0.659-5.339-1.033C19.562,92.685,20.459,89.653,22.746,89.055z M23.487,90.271
			c-1.831,0.762-1.674,4.111,0.359,4.47c1.597,0.294,2.487-1.638,2.089-2.958C25.764,90.678,24.58,89.805,23.487,90.271z"/>
	</g>
	<path fill="#C8C7C7" d="M29.103,88.958c0.62,0.002,1.24,0.002,1.86-0.002c0.012,1.872,0.002,3.742,0.005,5.614
		c1.045,0,2.089,0,3.136,0c0,0.461,0,0.924,0,1.387c-1.669,0-3.336,0-5.006,0C29.101,93.624,29.091,91.291,29.103,88.958z"/>
	<g>
		<path fill="#C8C7C7" d="M36.953,88.961c0.806,0.012,1.616-0.048,2.417,0.041c0.847,2.311,1.662,4.632,2.482,6.953
			c-0.671,0.002-1.344,0.002-2.017-0.002c-0.188-0.586-0.388-1.165-0.593-1.742c-0.753-0.005-1.503-0.007-2.256,0.012
			c-0.176,0.579-0.352,1.158-0.536,1.735c-0.647,0-1.293,0-1.94,0C35.325,93.624,36.15,91.296,36.953,88.961z M37.296,92.941
			c0.548,0,1.095,0,1.645,0c-0.302-0.864-0.574-1.735-0.827-2.613C37.831,91.197,37.585,92.075,37.296,92.941z"/>
	</g>
	<path fill="#C8C7C7" d="M43.467,89.424c1.269-0.825,2.893-0.649,4.282-0.263c-0.14,0.441-0.282,0.883-0.425,1.327
		c-0.84-0.198-1.826-0.565-2.625-0.039c-0.244,0.256-0.241,0.516,0.005,0.779c0.953,0.606,2.248,0.642,2.987,1.575
		c0.675,0.837,0.347,2.188-0.565,2.716c-1.394,0.808-3.146,0.661-4.61,0.123c0.125-0.449,0.253-0.893,0.376-1.341
		c0.967,0.292,2.2,0.762,3.102,0.087c0.425-0.42-0.051-0.926-0.473-1.074c-0.926-0.396-2.082-0.574-2.661-1.493
		C42.34,91.028,42.683,89.909,43.467,89.424z"/>
	<g>
		<path fill="#C8C7C7" d="M51.609,89.072c1.534-0.186,3.187-0.379,4.663,0.205c1.035,0.367,1.404,1.802,0.745,2.654
			c-0.239,0.326-0.603,0.514-0.931,0.729c1.078,0.745,1.078,2.186,1.544,3.298c-0.644-0.002-1.291,0-1.935,0
			c-0.277-0.724-0.413-1.493-0.716-2.205c-0.302-0.577-1.025-0.495-1.568-0.545c-0.01,0.917-0.007,1.833-0.007,2.75
			c-0.603-0.002-1.206,0-1.809,0C51.607,93.662,51.573,91.366,51.609,89.072z M53.406,90.157c-0.002,0.627-0.002,1.252-0.007,1.879
			c0.586-0.01,1.242,0.075,1.749-0.289c0.446-0.309,0.482-1.066,0.005-1.365C54.634,90.053,53.983,90.201,53.406,90.157z"/>
	</g>
	<g>
		<path fill="#C8C7C7" d="M60.612,89.055c1.271-0.379,2.76-0.289,3.862,0.495c2.002,1.399,1.807,4.96-0.408,6.055
			c-1.677,0.815-4.041,0.666-5.23-0.91C57.421,92.84,58.277,89.677,60.612,89.055z M61.372,90.268
			c-1.93,0.772-1.645,4.408,0.579,4.49c1.561,0.084,2.253-1.838,1.826-3.105C63.56,90.606,62.41,89.834,61.372,90.268z"/>
	</g>
	<path fill="#C8C7C7" d="M67.297,88.953c0.806,0.017,1.614-0.024,2.42,0.029c0.581,1.546,1.1,3.122,1.479,4.731
		c0.434-1.609,0.953-3.204,1.609-4.736c0.796-0.048,1.597-0.014,2.396-0.005c0.128,2.328,0.285,4.654,0.415,6.982
		c-0.606,0-1.209,0.002-1.812,0.002c-0.046-1.78-0.217-3.556-0.183-5.339c-0.577,1.754-1.216,3.484-1.838,5.221
		c-0.492-0.002-0.984-0.005-1.474-0.007c-0.519-1.679-1.071-3.348-1.51-5.049c-0.099,1.722-0.181,3.447-0.282,5.172
		c-0.581,0-1.16,0.002-1.739,0.002C66.959,93.624,67.119,91.286,67.297,88.953z"/>
	<path fill="#C8C7C7" d="M76.928,88.958c1.648,0.005,3.295-0.002,4.943,0.005c0,0.439,0,0.881,0.002,1.322
		c-1.025,0.005-2.053,0.002-3.078,0.002c0,0.461,0,0.924,0,1.387c0.963,0,1.928,0,2.89-0.002c0.002,0.439,0.007,0.881,0.012,1.322
		c-0.967,0.01-1.932,0.007-2.9,0.007c-0.002,0.54-0.002,1.083-0.005,1.626c1.086,0.005,2.171,0.002,3.259,0.002
		c-0.002,0.441-0.002,0.883,0,1.327c-1.71,0-3.418,0-5.126,0C76.928,93.624,76.92,91.291,76.928,88.958z"/>
	<g>
		<path fill="#C8C7C7" d="M83.193,89.062c1.522-0.154,3.119-0.355,4.596,0.154c0.926,0.314,1.481,1.435,1.076,2.345
			c-0.174,0.516-0.649,0.808-1.09,1.069c0.979,0.84,1.066,2.195,1.505,3.327c-0.647,0-1.293,0-1.937-0.005
			c-0.282-0.733-0.417-1.522-0.745-2.234c-0.287-0.569-1.008-0.446-1.53-0.507c0,0.917,0.002,1.833-0.005,2.75
			c-0.622-0.005-1.245-0.007-1.865-0.007C83.195,93.658,83.203,91.359,83.193,89.062z M85.07,90.157
			c-0.002,0.632-0.002,1.267-0.002,1.899c0.762,0.01,1.969,0.039,2.075-0.977C87.079,90.041,85.815,90.14,85.07,90.157z"/>
	</g>
	<g>
		<path fill="#C8C7C7" d="M92.235,89.067c1.368-0.427,2.994-0.28,4.123,0.659c1.742,1.539,1.469,4.827-0.663,5.889
			c-1.73,0.837-4.234,0.627-5.336-1.105C89.106,92.637,89.994,89.684,92.235,89.067z M92.975,90.28
			c-1.971,0.83-1.515,4.68,0.84,4.475c1.602-0.138,2.034-2.195,1.486-3.445C94.975,90.398,93.868,89.901,92.975,90.28z"/>
	</g>
</g>
</svg>
