<svg xmlns="http://www.w3.org/2000/svg" xmlns:xlink="http://www.w3.org/1999/xlink" width="170" viewBox="0 99.568 169.996 226" enable-background="new 0 99.568 169.996 226"><defs><path id="8" d="m73.29 109.37c-.152 1.288-.458 2.843-.988 4.522-.526 1.677-1.262 3.441-2.161 5.131-.889 1.652-1.847 3.066-2.78 4.156-.905 1.062-1.777 1.809-2.518 2.297-1.422.932-2.347.943-2.344.974.005-.004.183.186.552.406.38.22.971.479 1.79.455.852-.021 1.968-.355 3.242-1.321 1.329-.996 2.821-2.693 4.082-4.986 1.305-2.345 2.15-4.929 2.53-7.146.386-2.207.319-3.991.074-5.275-.237-1.257-.636-2.05-.938-2.536-.299-.47-.51-.661-.51-.667-.025.006.265 1.441-.031 3.99"/><path id="9" d="m86.09 100.75c-1.969.326-3.956 2.096-4.565 3.974-.602 1.874.333 3.338 2.211 3.271 2.02-.075 4.336-1.867 5.04-4.01.631-1.931-.332-3.289-2.072-3.289-.196.001-.401.017-.612.052"/><path id="A" d="m95.19 105.21c-1.873 1.269-3.992 2.451-6.139 3.253-2.01.758-4.02 1.167-5.844 1.187-1.708.001-3.128-.345-4.217-.94-1.037-.56-1.791-1.351-2.302-2.157-.978-1.548-1.139-3.167-1.163-3.127.002.004-.118.512-.23 1.383-.108.87-.206 2.118-.054 3.462.152 1.374.585 2.885 1.522 4.118.976 1.302 2.571 2.328 4.732 2.527 2.352.247 5.097-.513 7.646-1.862 2.771-1.455 5.22-3.52 7.137-5.552 2.01-2.125 3.384-4.139 4.266-5.568.896-1.457 1.278-2.29 1.293-2.296-.06-.001-2.637 2.844-6.647 5.572"/><path id="B" d="m101.68 117.87c-2.912.526-5.173 3.563-5.242 6.903-.066 3.427 2.182 6.247 5.244 6.214 3.323-.038 6.156-3.364 6.06-7.317-.084-3.476-2.406-5.876-5.188-5.876-.288 0-.582.026-.877.079"/><path id="C" d="m102.68 103.87c-1.557.952-3.686 2.381-5.865 4.396-2.066 1.912-4.193 4.388-5.815 7.36-1.581 2.88-2.726 6.359-2.899 9.95-.21 3.698.611 7.28 2.025 10.262 1.513 3.229 3.715 5.86 5.972 7.858 2.45 2.176 4.929 3.616 6.776 4.558 1.959.989 3.142 1.394 3.148 1.412.088-.023-3.684-3.103-6.933-8.095-1.478-2.278-2.812-4.94-3.673-7.819-.828-2.744-1.234-5.727-1.159-8.777.1-2.98.651-5.854 1.567-8.464.91-2.623 2.203-5.04 3.571-7.091 2.843-4.26 5.967-7.01 5.896-7.01-.007.015-.979.471-2.609 1.458"/><path id="D" d="m70.3 135.69c-.991 2.457-.211 5.366 1.915 6.492 2.295 1.209 5.102-.166 6.072-3.05.929-2.769-.304-5.605-2.565-6.391-.395-.136-.799-.201-1.2-.201-1.741 0-3.443 1.222-4.222 3.15"/><path id="E" d="m71.46 125.69c-2.104.934-3.927 2.359-5.355 3.773-1.432 1.421-2.507 2.859-3.225 3.893-.724 1.055-1.086 1.701-1.095 1.704-.009.054 1.786-1.781 4.428-3.188 1.347-.717 2.938-1.322 4.632-1.565 1.763-.262 3.672-.137 5.612.452 2.054.647 3.999 1.783 5.694 3.305 1.83 1.633 3.375 3.712 4.59 5.849 2.713 4.779 3.699 9.416 3.75 9.345-.011-.015.14-1.251.127-3.452-.02-2.104-.192-5.03-.996-8.195-.738-2.925-2.01-5.971-4.02-8.407-1.806-2.21-4.212-3.87-6.933-4.417-.718-.153-1.438-.223-2.155-.223-1.779 0-3.521.435-5.061 1.125"/><path id="F" d="m67.23 116.17c-.853 1.669-1.073 3.521-.489 4.186.611.693 1.871-.136 2.814-1.911.96-1.812 1.161-3.798.458-4.383-.129-.107-.282-.158-.446-.158-.693 0-1.637.893-2.337 2.266"/><clipPath id="6"><use xlink:href="#E"/></clipPath><clipPath id="5"><use xlink:href="#D"/></clipPath><clipPath id="7"><use xlink:href="#F"/></clipPath><clipPath id="4"><use xlink:href="#C"/></clipPath><clipPath id="3"><use xlink:href="#B"/></clipPath><clipPath id="0"><use xlink:href="#8"/></clipPath><clipPath id="2"><use xlink:href="#A"/></clipPath><clipPath id="1"><use xlink:href="#9"/></clipPath></defs><g opacity=".8"><g opacity=".7" fill="#727176"><path opacity=".8" d="m56.58 107.31h11.241l14.673 21.557v-21.557h11.353v38.967h-11.352l-14.594-21.394v21.394h-11.321v-38.967"/><path opacity=".8" d="m82.52 146.28v-38.967h20.07c3.719 0 6.566.319 8.531.957 1.967.638 3.553 1.821 4.758 3.549 1.205 1.728 1.809 3.833 1.809 6.312 0 2.162-.461 4.03-1.385 5.596-.921 1.567-2.189 2.839-3.803 3.813-1.026.621-2.438 1.134-4.228 1.542 1.435.479 2.479.958 3.135 1.437.442.319 1.083 1 1.926 2.048.84 1.046 1.403 1.853 1.687 2.421l5.83 11.291h-13.605l-6.434-11.908c-.814-1.542-1.541-2.542-2.18-3-.867-.602-1.851-.903-2.949-.903h-1.062v15.815h-12.09m12.09-23.18h5.077c.548 0 1.612-.178 3.188-.531.798-.16 1.448-.567 1.954-1.223.506-.655.758-1.409.758-2.258 0-1.258-.398-2.223-1.195-2.898-.798-.673-2.295-1.01-4.493-1.01h-5.29v7.919z"/></g><g opacity=".8"><path opacity=".8" fill="#727176" d="m73.29 109.37c-.152 1.288-.458 2.843-.988 4.522-.526 1.677-1.262 3.441-2.161 5.131-.889 1.652-1.847 3.066-2.78 4.156-.905 1.062-1.777 1.809-2.518 2.297-1.422.932-2.347.943-2.344.974.005-.004.183.186.552.406.38.22.971.479 1.79.455.852-.021 1.968-.355 3.242-1.321 1.329-.996 2.821-2.693 4.082-4.986 1.305-2.345 2.15-4.929 2.53-7.146.386-2.207.319-3.991.074-5.275-.237-1.257-.636-2.05-.938-2.536-.299-.47-.51-.661-.51-.667-.025.006.265 1.441-.031 3.99"/><g><path clip-path="url(#0)" fill="#727176" d="m62.5 105.38h12.584v21.951h-12.584v-21.951"/></g></g><g opacity=".8"><path opacity=".8" fill="#727176" d="m86.09 100.75c-1.969.326-3.956 2.096-4.565 3.974-.602 1.874.333 3.338 2.211 3.271 2.02-.075 4.336-1.867 5.04-4.01.631-1.931-.332-3.289-2.072-3.289-.196.001-.401.017-.612.052"/><g><path clip-path="url(#1)" fill="#727176" d="m80.931 100.7h8.48v7.363h-8.48v-7.363"/></g></g><g opacity=".8"><path opacity=".8" fill="#727176" d="m95.19 105.21c-1.873 1.269-3.992 2.451-6.139 3.253-2.01.758-4.02 1.167-5.844 1.187-1.708.001-3.128-.345-4.217-.94-1.037-.56-1.791-1.351-2.302-2.157-.978-1.548-1.139-3.167-1.163-3.127.002.004-.118.512-.23 1.383-.108.87-.206 2.118-.054 3.462.152 1.374.585 2.885 1.522 4.118.976 1.302 2.571 2.328 4.732 2.527 2.352.247 5.097-.513 7.646-1.862 2.771-1.455 5.22-3.52 7.137-5.552 2.01-2.125 3.384-4.139 4.266-5.568.896-1.457 1.278-2.29 1.293-2.296-.06-.001-2.637 2.844-6.647 5.572"/><g><path clip-path="url(#2)" fill="#727176" d="m75.09 99.64h26.749v15.523h-26.749v-15.523"/></g></g><g opacity=".8"><path opacity=".8" fill="#727176" d="m101.68 117.87c-2.912.526-5.173 3.563-5.242 6.903-.066 3.427 2.182 6.247 5.244 6.214 3.323-.038 6.156-3.364 6.06-7.317-.084-3.476-2.406-5.876-5.188-5.876-.288 0-.582.026-.877.079"/><g><path clip-path="url(#3)" fill="#727176" d="m96.37 117.79h11.467v13.229h-11.467v-13.229"/></g></g><g opacity=".8"><path opacity=".8" fill="#727176" d="m102.68 103.87c-1.557.952-3.686 2.381-5.865 4.396-2.066 1.912-4.193 4.388-5.815 7.36-1.581 2.88-2.726 6.359-2.899 9.95-.21 3.698.611 7.28 2.025 10.262 1.513 3.229 3.715 5.86 5.972 7.858 2.45 2.176 4.929 3.616 6.776 4.558 1.959.989 3.142 1.394 3.148 1.412.088-.023-3.684-3.103-6.933-8.095-1.478-2.278-2.812-4.94-3.673-7.819-.828-2.744-1.234-5.727-1.159-8.777.1-2.98.651-5.854 1.567-8.464.91-2.623 2.203-5.04 3.571-7.091 2.843-4.26 5.967-7.01 5.896-7.01-.007.015-.979.471-2.609 1.458"/><g><path clip-path="url(#4)" fill="#727176" d="m87.89 102.42h18.221v47.25h-18.221v-47.25"/></g></g><g opacity=".8"><path opacity=".8" fill="#727176" d="m70.3 135.69c-.991 2.457-.211 5.366 1.915 6.492 2.295 1.209 5.102-.166 6.072-3.05.929-2.769-.304-5.605-2.565-6.391-.395-.136-.799-.201-1.2-.201-1.741 0-3.443 1.222-4.222 3.15"/><g><path clip-path="url(#5)" fill="#727176" d="m69.31 132.54h9.906v10.85h-9.906v-10.85"/></g></g><g opacity=".8"><path opacity=".8" fill="#727176" d="m71.46 125.69c-2.104.934-3.927 2.359-5.355 3.773-1.432 1.421-2.507 2.859-3.225 3.893-.724 1.055-1.086 1.701-1.095 1.704-.009.054 1.786-1.781 4.428-3.188 1.347-.717 2.938-1.322 4.632-1.565 1.763-.262 3.672-.137 5.612.452 2.054.647 3.999 1.783 5.694 3.305 1.83 1.633 3.375 3.712 4.59 5.849 2.713 4.779 3.699 9.416 3.75 9.345-.011-.015.14-1.251.127-3.452-.02-2.104-.192-5.03-.996-8.195-.738-2.925-2.01-5.971-4.02-8.407-1.806-2.21-4.212-3.87-6.933-4.417-.718-.153-1.438-.223-2.155-.223-1.779 0-3.521.435-5.061 1.125"/><g><path clip-path="url(#6)" fill="#727176" d="m61.779 124.56h28.857v24.764h-28.857v-24.764"/></g></g><g opacity=".8"><path opacity=".8" fill="#727176" d="m67.23 116.17c-.853 1.669-1.073 3.521-.489 4.186.611.693 1.871-.136 2.814-1.911.96-1.812 1.161-3.798.458-4.383-.129-.107-.282-.158-.446-.158-.693 0-1.637.893-2.337 2.266"/><g><path clip-path="url(#7)" fill="#727176" d="m66.16 113.91h4.56v7.147h-4.56v-7.147"/></g></g></g><path fill="#455828" d="m44.06 307.2c1.108.037 2.229.043 3.313.018 3.988-.092 7.448-.591 7.879-1.442.194-.384-.43-.89-2.249-1.528-.214-.076-.43-.152-.646-.23-5.908-2.141-11.804-5.24-15.958-8.329-4.211-3.132-6.647-6.268-5.553-8.433.015-.029.03-.059.047-.088.112-.201.236-.391.373-.566 1.136-1.473 3.13-2.207 5.522-2.328h.002c1.554-.079 3.274.102 5.03.508l.065-.357c.076-.41.79-.569 1.587-.354l2.238.606.391.106.512.138 3.452.935c.558.15.97.51.918.796-.053.287-.552.397-1.109.247l-3.453-.935-.146.802 3.452.934c.557.152.97.51.918.797-.053.287-.552.397-1.109.246l-3.453-.934-3.141-.85c-.798-.217-1.389-.729-1.314-1.141l.102-.556c-1.584-.36-3.128-.519-4.525-.448-2.188.109-4.02.787-5.065 2.146-.129.169-.248.346-.352.531-.014.026-.029.053-.042.079-1.01 1.992 1.314 4.936 5.301 7.9 4.045 3.01 9.788 6.03 15.539 8.113.209.075.419.15.629.225 2.462.862 3.264 1.633 2.936 2.283-.503.994-4.184 1.567-8.4 1.666-1.207.027-2.46.018-3.699-.032v-.526m66.33-13.421l-2.844-1.836c-.838-.541-.979-1.23-.313-1.533l.942-.428.581-.263c1.402-.636 3.272-.313 4.7.386 1.631-.877 4.03-1.298 6.801-1.139 2.734.157 5.826.879 8.896 2.285.548.25 1.045.519 1.493.802 2.209 1.396 3.215 3.134 3.25 4.931.031 1.757-.871 3.574-2.492 5.172-1.078 1.061-2.473 2.025-4.123 2.812-.916.437-1.062.769-.682 1.01 1.191.753 5.658 1.187 10.11 1.247.272.003.545.006.816.006v.539c-.159 0-.318-.002-.478-.004-4.714-.064-9.55-.589-11.02-1.516-.839-.531-.808-1.122.51-1.75 1.605-.765 2.963-1.703 4.01-2.736 1.566-1.545 2.441-3.296 2.41-4.98-.03-1.645-.924-3.219-2.884-4.457-.391-.247-.825-.481-1.305-.701-2.848-1.305-5.712-1.973-8.241-2.119-2.56-.146-4.779.241-6.291 1.047 1.396.941 1.985 2.222.408 2.971l-1.31.594-.214.098c-.665.301-1.895.105-2.732-.436"/><path fill="#678333" d="m58.26 288.45c-.553-.211-1.095-.42-1.628-.627-.111.017-.06.141.215.412 1.172 1.156-4.072-1.329-6.439-2.832-.508-.322-1.01-.627-1.469-.894-.604-.292-1.183-.584-1.733-.872-.7-.268-1.076-.227-.885.32.404 1.156-3.566-2.369-4.967-3.814-.593-.61-.944-1.305-1.229-1.823-.133-.19-.252-.378-.355-.563-.24-.287-.49-.329-.887.076-1.017 1.041-1.279-2.484-.371-2.891.36-.16.786-.531 1.054-.888.073-.153.157-.306.249-.456.085-.312-.119-.493-.871-.273-1.788.52 1.726-1.502 1.538-1.965-.014-.035-.041-.065-.078-.091-.151-.052-.331-.089-.538-.11-.857-.012-2.424.377-3.615 1.125-1.657 1.041-1.984.982-2.186.404-.202-.578-.91-.115-1.127 1.677-.217 1.791-2.496.981-2.472.173s-.726-.173-.759 1.561c-.033 1.733-1.116 1.271-1.73.462-.616-.809-.565.578 1.035 2.081 1.599 1.502 2.555 1.964.633 1.444-1.921-.521 1.413 1.04 5.127 2.081 1.26.352 1.565.552 1.315.662 1.664.582 3.03 1.26 3.464 1.553 1.203.807-.233.902-1.402.203-2.217-1.326-3.567-.379-1.443.137 2.421.59 2.99 1.658.234 1.013-1.151-.366-2.157-.032-.888.247 1.358.297.791 1.178-1.372.488-1.868-.595-1.056-.09-.577.1 1.513.598.265.922-2.093-.164-1.202-.554-2.336-1.138-3.408-1.738 0 .203.021.412.048.62.149 1.155-3.62-1.792-4.521-2.832s-2.417-2.89-3.45-1.965-2.335-3.236-1.743-4.103c.127-.187.318-.408.514-.638.108-.503.357-.985.737-1.446-.119-.182-.462-.277-1.165-.229-2.472.174 2.193-1.85 4.748-2.369.328-.066.675-.142 1.021-.221.852-.32 1.792-.62 2.813-.896.096-.16-.445-.238-2.078-.154-4.447.231 3.233-1.213 6.05-1.213 2.814 0 8.638-.463 4.997-.924-2.362-.301 2.905-.309 8.318-.23.352-.229 2.48-.484 5.05-.286 1.375.106 2.339.28 2.825.455 1.221-.021 2.423-.008 3.597.025 1.804-.153 4.116.04 5.213.243 2.333.132 4.439.25 6.199.196 3.822-.115 7.764.694 3.828.925-.16.01-.295.02-.411.028.815.099 1.63.202 2.444.309 2.278.088 5.298.155 6.922.183 3.397.059 3.927.694 2.748.982-1.178.289 4.21.404 7.522.809 3.313.406 2.02.811.288.752-1.733-.059 4.058 1.213 8.21 1.676s2.805.925 1.781.925 1.824.751 5.621 1.444c3.799.693 3.035 1.214 1.6.982-1.437-.231 1.624.693 5.794 1.791 4.171 1.098 2.966 1.676 1.371 1.214-1.594-.462.628.405 4.388 1.792 3.762 1.387 2.924 1.85.845 1.098-2.079-.751.929.752 3.664 2.137 2.214 1.122 2.02 1.449.155.859.892.747 1.539 1.409 2.035 1.986.885 1.029-.312 1.302-1.076.514-.302-.312-.859-.477-.381.031.497.525.209.582-.282.611-.705.043-1.489-.176-2.412-.655-1.737-.902.368.987-2.354.247-1.236-.335-1.312-.912-1.561-1.294-.289-.44-1.811-1.374-2.525-.538-.273.32 1.59 1.068.401 1.152-2.116.146-2.853-1.394-2.512-2.229.149-.368.286-.625.364-.847-1 .11-1.641-.365-1.242-.879.494-.635-.354-2.254-1.174-1.676-.822.578-1.467-.463-2.439-1.561s-5.688-2.947-4.703-2.254c.985.693-1.207.059-3.131-.982-1.925-1.039-5.286-2.311-4.343-1.444.942.867-3.361-1.271-5.782-2.196-2.422-.924-5.254-1.56-3.74-.751 1.51.809-3.829-.925-5.964-1.618-2.135-.693-4.753-1.156-5.946-.982-1.192.174 1.729 1.503 6.113 2.774 4.384 1.271 4.669 1.503 2.451 1.155-2.219-.346.601.693 3.751 1.792 3.146 1.099 8.229 2.832 4.842 1.849-3.388-.982-1.434.289 2.582 1.677 4.02 1.386 1.814 1.676.404 1.155-.188-.068-.307-.102-.369-.104.418.31.808.62 1.164.93.764.489 1.814 1.123 2.93 1.775 2.766 1.618 1.335 2.427.05 1.388-1.285-1.041-.14.404 1.434 2.195s.196 2.023-.675 1.214c-.456-.423-.824-.577-.957-.372-.016.053-.031.104-.05.156-.026.249.083.695.388 1.371.807 1.792-.702 1.503-1.104.867-.402-.637-.497.115-.721.866-.223.751-.717 1.388-1.486.867-.771-.521.217.693 2.593 1.271 1.087.265 1.171.432.743.491 1.746.321 3.611.653 4.779 1.168 1.998-.553 2.243-.643 2.31.305 1.466.366 2.724 1.536 1.067 1.483.363.914-.092 1.501-1.979 1.233-3.274-.467-5.818-.863-8.342-.791-1.996.057-5.509-2.072-5.78-3.223-.025-.107-.03-.235-.021-.378-.133.019-.268.038-.406.058-2.074.289-2.166-.924-.66-1.154.792-.123 1.326-.597 1.42-.951 0-.008 0-.016 0-.023-.014-.087-.029-.174-.045-.258-.116-.137-.404-.182-.899-.039-1.604.463.458-1.907-.265-1.561-.723.346-7.303.404-10.5.404-3.198 0-10.705-.693-8.201-.115 2.504.578 1.041.635-1.062.173-2.105-.462.172.347 3.417 1.214 3.245.865 2.365.982.131.52-.198-.041-.353-.071-.47-.092.551.197 1.116.396 1.675.592 1.025.3 2.376.688 3.863 1.118 1.892.548 1.751.743.794.791 1.659 1.056 1.41 2.13-1.299 2.103-1.714-.019-3.269.562-3.083 1.141.5 1.547-4.369 1.01-5.05.068-1.714.305-2.762.011-3.116-.718-2.958.233-4.934-2.354.307-1.911.19-.352 1.299-1.041-.246-.895-1.544.146.393-.925 2.951-.925 2.558 0-.244-.404-.958-.982-.714-.577-4.813-2.136-3.715-1.04 1.1 1.098-3.118-.867-5.512-2.08-.91-.462-1.889-.964-2.689-1.348"/><path fill="#455828" d="m73.44 284.69c-5.849-7.629-9.675-14.873-10.324-21.508-.76-7.762 2.807-14.163 7.661-19.236 9.545-9.977-19.56 2.729-20.596 14.624-.204 2.341 1.309 4.979 3.156 6.894 1.349 1.398 2.101 3.424 2.191 4.209.207 1.785-1.348 1.997-1.653.449-.579-2.935-3.099-.838-1.613.304 1.695 1.302.942 3.669-1.016 2.239-.699-.811-2.117-.07-1.192.545.99.66-.665 2.607-1.977 1.083-1.134-1.315-.945-.2-.699.22.775 1.322-.874 2.041-1.891-.362-1.585-3.745-2.176-8.129-2.468-12.197-1.302-18.13 24.724-29.829 48.2-27.694 19.06 1.732 36.58 11.431 42.969 25.03 4.111 8.758 3.9 15.337 3.16 19.703-.387 2.277-1.92 2.883-1.71 1.138.083-.689-.272-1.054-.419.069-.152 1.162-.511 1.288-1.039 1.354-.758.095-1.271-.388-1.604-1.449-.623-1.997-.853 2.188-2.662.548-.82-.743-.182-2.02.039-2.864.256-.977-.113-3.041-1.86-1.191-.671.71.269 2.365-1.021 2.547-2.297.324-1.133-3.082.24-4.932 1.99-2.678 2.328-2.689 2.883-6.01 2.678-16.06-33.734-41.08-20.07-19.768 3.258 5.079 6.482 14.14 4.114 21.931-2.599 8.547-6.224 11.899-12.376 17.643h.002c-.96.911-.589 3.092.504 3.719 1.53.881 3.564 1.668 4.215 3.062 2.684-1.222 4.535.241 3.432 2.337 1.013.812.826 3.402-.765 3.286-.767 2.02-3.442 1.655-4.999 1.062-2.699-1.029-3.559-3.826-6.171-3.666-2.066.127-4.142-2.672-2.993-5.217.6-1.328 2.699-4.2 3.357-5.42 4.166-8.604 4.191-12.02-8.768-12.213-12.959-.195-13.86 4.293-10.613 10.895 1.11 2.069 3.234 4.37 4.085 6.257 1.184 2.626-.445 5.87-3.559 5.797-1.691-.042-3.964 1.245-4.491 2.524-1.411 3.422-5.61 2.224-5.135.15-2.089.672-3.22-.444-2.672-2.057-3.419.545-1.884-5.834 3.444-4.01-.123-1.172 3.553-3.892 5.621-3.796 2.358.109-2.114-4.978-2.915-6.02"/><path fill="#f3ddb7" d="m127.06 279.14c-.881.12-1.248-.313-1.287-.997.04-.005.082-.007.123-.007.574 0 1.052.432 1.164 1"/><path fill="#a01127" d="m55.55 269.92c.018.748-.305 1.162-.676 1.223-.038-.103-.06-.215-.06-.332 0-.457.321-.834.736-.891"/><g fill="#455828"><path d="m88.54 233.94c-4.988-.384-19.18-.896-16.12.128 3.07 1.023-3.325 2.046-6.139 2.046-2.814 0-12.277 3.198-7.546 2.687 4.732-.512-.128 1.662-3.326 2.813-3.198 1.151-10.36 5.628-7.674 5.244 2.686-.384-1.279 3.198-2.942 5.116-1.663 1.918-5.5 11.127-3.326 9.08 2.174-2.046 1.407 2.047 1.023 4.35-.384 2.302-.256 8.824 1.023 6.268 1.279-2.559 2.814-5.244 5.5-5.244s6.906.639 4.477-1.663c-2.431-2.303-3.837-5.756-2.558-4.604 1.279 1.15.895.127 1.151-3.199.256-3.325 1.918-6.396 1.535-4.604-.383 1.791.128 2.813 2.302-1.023 2.175-3.838 3.709-5.244 2.686-3.453-1.023 1.791.256 3.581 2.686-.384 2.43-3.964 3.709-4.987 3.198-3.709-.512 1.279-.256 1.407 2.686-.896 2.941-2.303 5.755-3.069 5.372-2.046-.384 1.022-6.396 5.5-3.965 4.349 2.43-1.151-1.023 2.686-2.431 3.581-1.407.896-5.499 8.698-3.198 6.396 2.302-2.303 0 1.919-.384 5.116-.383 3.197-.768 10.999.255 8.441 1.023-2.559 1.791-.129 2.303 3.197s2.686 8.826 2.941 6.268c.256-2.558 1.279.768 2.174 3.453.896 2.686 2.686 7.04 2.942 4.604s2.43 1.023 2.43 2.303c0 1.278 2.303 2.175-.255 2.175s-6.139 2.43-4.093 2.046-3.325 1.918-.767 2.302c2.558.385 5.627-2.047 8.186-2.047 2.558 0 7.674 1.152 4.988-1.534s-4.732-4.604-3.069-3.582c1.663 1.023 2.686.769.511-1.151-2.174-1.918-3.453-3.709-1.918-2.686 1.535 1.023 3.069.895 1.279-.384s4.861.257 8.06.257c3.198 0 9.85-.129 11-.896s-3.837 4.477-1.662 3.453c2.174-1.022-.256 2.303-2.047 2.814s-3.198 3.197-.768 2.558c2.43-.64 4.093-1.279 5.627-.255 1.535 1.022 4.094.767 2.432-.512-1.664-1.279-1.152-3.966-1.024-2.814s1.407-.256 2.558-1.918c1.151-1.662 2.175-3.326 1.791-1.918-.383 1.406.768 2.045 2.175-1.919 1.407-3.965 2.175-4.349 2.046-2.558-.128 1.791 1.535 1.279 2.175-2.687s1.279-7.163 1.279-4.86 2.43.512 1.663-3.069c-.768-3.581-1.279-6.906-.512-5.756.767 1.151 3.324.512 1.023-2.558-2.303-3.07-2.687-5.881-.512-3.709 2.174 2.174-.768-1.664-2.559-4.094s-3.326-4.732-1.535-3.965c1.791.767 1.791.256-1.022-2.559-2.814-2.813-4.093-5.756-2.687-6.139 1.408-.384 3.454.639 4.732 2.174 1.279 1.535 4.477 5.373 3.965 3.582s1.535-.385 2.814 1.662c1.278 2.047 2.941 6.779 3.069 4.86s1.919.896 2.558 3.198c.641 2.303 2.047 3.709 1.92 2.174-.129-1.534 2.301 2.559 1.918 4.988-.384 2.43-1.023 4.732.512 3.453 1.534-1.279.383 2.303-.896 3.709-1.279 1.408-.896 2.687 1.151 1.535 2.046-1.15 5.499-1.406 7.162 1.406 1.663 2.814 2.814 2.432 1.791-.639s-2.174-6.396-1.023-4.732c1.152 1.662 2.559.639.512-2.43-2.046-3.07-3.197-4.988-2.174-3.966 1.023 1.023 2.941-.256.128-2.687-2.813-2.43-4.733-4.477-3.581-3.965 1.15.512 2.558-.64-.385-2.174-2.941-1.535-4.859-3.199-3.837-3.199 1.023 0 2.942-1.022-.64-2.045-3.581-1.023-7.803-3.838-6.14-3.71s3.454-.767.64-1.663c-2.813-.895-8.06-1.15-6.523-1.791 1.535-.639 1.791-2.046-1.534-2.174s-12.534-.64-8.313-1.151 1.278-2.302-2.686-2.046c-3.964.26-8.567-1.274-14.58-1.017"/><circle cx="95.19" cy="246.3" r="9.156"/><circle cx="80.26" cy="246.37" r="7.686"/></g><path fill="#fff" d="m81.1 239.36c3.34.465 5.671 3.551 5.205 6.891s-3.551 5.67-6.891 5.204c-3.34-.465-5.67-3.55-5.205-6.89.466-3.341 3.551-5.671 6.891-5.205"/><path fill="#030104" d="m83.89 241.28c1.222.171 2.075 1.299 1.905 2.521-.171 1.222-1.3 2.074-2.522 1.903-1.222-.17-2.075-1.299-1.904-2.52.171-1.222 1.299-2.074 2.521-1.904"/><g fill="#fff"><circle cx="84.89" cy="244.71" r=".724"/><path d="m96.24 237.86c4.131.576 7.01 4.393 6.438 8.521-.576 4.131-4.392 7.01-8.521 6.439-4.132-.576-7.02-4.393-6.438-8.521.576-4.132 4.391-7.02 8.521-6.439"/></g><path fill="#030104" d="m99.23 240.69c1.512.211 2.566 1.604 2.355 3.118-.211 1.511-1.609 2.565-3.117 2.355-1.512-.211-2.566-1.604-2.355-3.118.21-1.511 1.609-2.566 3.117-2.355"/><circle fill="#fff" cx="100.47" cy="244.91" r=".895"/><path fill="#455828" d="m89.85 284.02c13.215 0 23.992-6.361 23.992-14.16s-10.777-14.16-23.992-14.16c-13.213 0-23.991 6.361-23.991 14.16s10.778 14.16 23.991 14.16"/><g fill="#678333"><path d="m92.23 234c3.172-.55 6.559.854 4.886 1.195-1.673.342 1.01.574 3.321.707s3.123 1.443 1.363 1.412c-1.758-.031 1.197.391 2.287 1.613 1.09 1.224 1.539 1.973-.387.92s-8.173-3.847-11.505-3.904c-3.331-.059-3.162-1.391.035-1.943"/><path d="m86.42 232.93c-3.291-.625-6.836.779-5.102 1.162 1.734.383-1.059.578-3.466.678s-3.272 1.449-1.443 1.446c1.83-.002-1.251.387-2.406 1.64-1.154 1.254-1.635 2.024.386.963 2.02-1.061 8.218-3.57 11.685-3.575 3.468-.005 3.662-1.684.346-2.314"/></g><path fill="#263714" d="m88.71 267.27c1.276 0 2.317-1.653 2.317-3.68 0-2.027-1.041-3.68-2.317-3.68-1.275 0-2.316 1.652-2.316 3.68-.001 2.027 1.041 3.68 2.316 3.68"/><g fill="none" stroke="#a01127" stroke-miterlimit="22.926"><path stroke-width="6.24" d="m128.97 278.4c-1.504.34-2.93.975-4.175 1.861"/><path stroke-width="7.2" d="m53.31 270.64c2.299.084 4.54 1.039 6.386 2.688"/></g><g fill="#455828"><path d="m86.84 242.53c-9.84-.438-15.09 3.607-16.291 5.354.611-8.07 11.598-16.661 16.291-5.354"/><path d="m86.47 241.16c9.84-.438 18.625 3.664 19.831 5.414-1.32-8.461-11.693-15.518-19.831-5.414"/></g><g fill="#f3ddb7"><path d="m66.757 295.38c.529 0 .883.531.792 1.188-.091.655-.594 1.187-1.123 1.187-.528 0-.883-.531-.792-1.187.091-.656.595-1.188 1.123-1.188"/><path d="m69.17 297.43c.583.157.814.849.518 1.542-.296.695-1.01 1.131-1.591.973-.583-.158-.814-.85-.518-1.543.296-.695 1.01-1.129 1.591-.972"/><path d="m72.72 299.06c.87.158 1.335.85 1.039 1.543-.296.695-1.242 1.13-2.112.973-.87-.158-1.335-.85-1.039-1.543.295-.696 1.241-1.13 2.112-.973"/><path d="m108.89 294.58c-.529 0-.883.531-.792 1.187.092.656.595 1.188 1.124 1.188.528 0 .883-.531.791-1.188-.092-.656-.595-1.187-1.123-1.187"/><path d="m108.55 297.31c-.582.158-.814.848-.518 1.543.297.693 1.01 1.129 1.592.971.581-.157.813-.848.517-1.543-.298-.696-1.01-1.129-1.591-.971"/><path d="m106.19 298.92c-.869.157-1.334.849-1.038 1.543.297.694 1.242 1.129 2.112.972s1.335-.849 1.039-1.544c-.297-.693-1.242-1.129-2.113-.971"/></g><path fill="#263714" d="m130.13 260.67v-.409c.002 0 .006.002.009.002-.003-.002-.007-.002-.009-.003v-.182c.26-1.146-.584-4.255 2.104-2.56 1.499.947-.393-1.609-.568-1.812.61.445.971.847 1.261 1.565.581 1.444-1.188.29-1.346.216-1.851-.878-.499 3.325-1.451 3.183m5.654 7.632c.344.612 2.305 4.709 1.413 5.373-.805.6-1.356-3.092-2.884-1.26-.692.83-2.555 2.234-3.74 1.779-1.416-.544 3.275-4.203 1.727-4.787-.215-.081-.537-.033-.756-.016.26-.086.41-.16.688-.121 1.974.267-2 4.441-1.532 4.604.985.337 2.691-1.045 3.285-1.729 1.662-1.914 2.316.771 3.042 1.242.404-.62-1.012-4.503-1.243-5.085m-5.656-8.223v.182c-.004-.001-.006-.001-.01-.001l.01.002v.409c-.051-.007-.107-.026-.172-.061-1.062-.554-1.671-4.409-1.684-5.511.125.682 1.15 4.843 1.804 5.146.021-.048.038-.105.052-.166m-5.448-8.266v-.431h.001l-.001-.001v-.304c.154-.896-.011-1.163 1.662-1.717.388-.129 1.521-.337 1.813-.528.001.001.001.001.002.003.004-.08-.608-.396-.61-.398 1.511.322.589.674-.341.984-3.035 1.012-1.697 1.355-2.268 2.197-.083.125-.169.184-.258.195m-20.39 29.571c-.083.988-.261 3.535-1.385 4.172-.379.216-.479-.136-.502-.471v-.794c.418-.153.334.489.385.824.827-.763 1.273-2.817 1.502-3.734m20.39-30.31v.303h-.001.001v.431c-.758.081-1.614-3.616-1.614-3.616.107.254 1.08 2.766 1.561 3.15.021-.095.038-.185.053-.268m-22.277 45.07v-.369l.002-.002-.002.002v-.008l.006.003c.161-.122.126-.541-.006-1.077v-1.024c.424 1 .678 2.01.225 2.384-.072.06-.146.089-.225.091m0-25.03v-.214c.104-.1.222-.215.354-.342 2.563-2.468 1.231 1.955 2.641 2.379 1.248.374.949-3.076 1.457-3.713 1.235-1.555 3.336 3.723 3.516 3.787h-.001c.002 0 .003 0 .009-.005.862-.671-.177-5.772-.395-6.649.541 1.5 1.511 5.108.764 6.678-.506 1.062-1.042-.559-1.652-1.707-.821-1.545-1.984-3.12-2.182-.61-.049.626-.43 3.173-1.743 2.485-1.666-.873.054-4.582-2.284-2.508-.169.15-.333.296-.484.419m6.612-20.02c.135.359 1.87 6.06.189 5.338-1.266-.543-2.496-3.826-2.746-1.74-.211 1.758-.384 4.01-1.966 5.178-.905.668-1.032-.697-1.05-1.268.089.395.242 1.666.928 1.104 1.457-1.195 1.528-3.357 1.689-5.05.271-2.84 2.512.76 3.03 1.264 1.352 1.322-.055-4.744-.072-4.828m-6.611 33.982c-.012-.171-.004-.338-.002-.422-.344.26-2.184 2.096-1.865.717.206.618.25.447.977-.338.43-.465.708-.684.891-.752v.795m-.001-14.18v.215c-.582.473-.982.598-.898-.639.121 1.073.26 1.037.898.424m0 22.769v1.024c-.303-1.234-1.123-3.09-1.262-3.384.207.306.825 1.327 1.262 2.36m0 2.098c-1.244-.607-2.01-4.611-3.586-2.121-.938 1.488-1.876 3.051-2.399.812-.114 3.551 3.12-1.163 3.125-1.166.774-.561 1.968 2.884 2.86 2.852v-.369h-.002l.002-.003v-.006m-28.468-12.189v-.435h.002-.002v-.078c.252-.593 1.671-4.489 2.553-1.862.292.869.215 1.455.186 2.355-.824-6.174-1.889-.691-2.449-.15-.105.101-.202.156-.29.17m0-16.02v-.559c.684-1.457 1.25-4.527 2.588-3.042.464.516.648 1.165.878 1.801-1.418-2.832-1.946-2.627-2.896.52-.172.569-.365.991-.57 1.28m6.01 22.789c.435.838 1.436 3.557.629 4.431-.934 1.01-1.634-2.95-2.575-2.169-1.294 1.072-3.668 4.797-3.505 1.371.108.717.107.816.217 1.062.326.742 2.381-2.056 2.861-2.561 1.553-1.635 2.111 2.2 2.722 2.074.708-.145-.222-3.812-.349-4.213m2.786-16.471c-.026.549-.195 6.03 1.25 5.617 1.157-.331 2.388-5.219 4.347.27.605 1.695 2.055 2.148 2.762.29-.156 1.702-2.146 2.089-3.054-.194-2.104-5.299-2.417.398-4.301.004-1.763-.369-1.194-4.913-1-5.987m-8.796-6.875v.56c-.707.997-1.55.385-2.119-1.417-.463-1.469-.083-6.04-2.648-2.727-.002.002-1.847 3.369-2.186 1.781-.497-2.324.705-7.129 1.699-9.25-.446 1.293-2.141 8.333-1.297 9.293l.013.012.003.002h-.001c.388-.082 2.791-5.211 4.142-2.819.477.843.319 5.04 1.698 5.272.261.043.484-.254.696-.707m.001 16.07v.078h-.002.002v.435c-1.056.163-.905-5.537-.895-5.712.072.68.392 4.791.869 5.256.006-.012.015-.032.026-.057m-18.579-39.35c-.189.308-2.324 3.915-1.833 4.152.279.021 6.743-4.546 4.861-1.61l.119-.395c.45-1.789-4.01 2.611-5.05 2.397-1.513-.312 1.65-4.275 1.898-4.544m-10.295 11.02c-.115.606-.844 3.776-.718 4.458 1.261-.92 2.371-5.285 3.14.145-.434-1.328-.583-1.793-.583-1.793-.625-1.689-1.068.994-2.284 1.959-1.637 1.3.416-4.694.445-4.769m1.573 11.628c.057.57.561 5.372 1.307 5.573.725-.767-.792-7.556 2.17-5.701 1.091.683 1.105.604.442-.937l-.77-1.599.942 1.514.482 1.108c.406 1.27-1.495.035-1.568.002-1.989-.894-.315 5.98-1.689 5.973-1.291-.006-1.326-5.251-1.316-5.932"/><path fill="#a01127" d="m57.24 270.48l-1.171 2.226c-.345.656-.09 1.476.565 1.82l2.582 1.358 2.426-4.611-2.582-1.358c-.656-.345-1.475-.091-1.82.565"/><g fill="#aeadb3"><path d="m59.63 271.27c-.241.458-.063 1.029.395 1.271l3.58 1.883c.458.242 1.03.064 1.271-.395.241-.458.063-1.03-.395-1.271l-3.58-1.883c-.458-.242-1.03-.064-1.271.395"/><path d="m58.08 274.22c-.241.458-.063 1.03.395 1.271l3.58 1.884c.458.24 1.03.062 1.271-.396s.063-1.03-.395-1.271l-3.58-1.885c-.458-.239-1.03-.061-1.271.397"/></g><g fill="#a01127"><path d="m124.02 285.01l-1.701.95-3.391-6.075 1.7-.949c4.261-2.378 7.624 3.629 3.392 6.074"/><path d="m119.59 285.42l-1.638-2.933c-.481-.864-.17-1.966.694-2.448l1.225-.683 3.391 6.074-1.225.683c-.863.483-1.965.171-2.447-.693"/></g><path fill="#aeadb3" d="m121.89 281.51l-1.767.986c-1.19.664-2.185-.937-.917-1.645l1.766-.985c1-.56 2.12.973.918 1.644"/><path fill="#9a999e" d="m123.51 284.42l-1.766.986c-1.312.732-2.136-.965-.918-1.644l1.767-.985c1.196-.668 2.075.997.917 1.643"/><g fill="#a01127"><path d="m55.93 185.78h-14.461l-1.63-7.04 14.673-18.02h11.155v17.977h3.604v7.079h-3.604v5.191h-9.74v-5.191m.001-6.949v-7.979l-6.391 7.979h6.391"/><path d="m70.778 176.04v-.085c0-8.281 5.406-15.66 14.503-15.66s14.417 7.293 14.417 15.576v.086c0 8.281-5.406 15.66-14.502 15.66-9.1 0-14.418-7.294-14.418-15.577m18.963.001v-.085c0-4.119-1.845-6.949-4.547-6.949-2.703 0-4.462 2.746-4.462 6.865v.086c0 4.119 1.845 6.949 4.548 6.949 2.702-.002 4.461-2.748 4.461-6.866"/><path d="m116.81 185.78h-14.46l-1.63-7.04 14.673-18.02h11.154v17.977h3.604v7.079h-3.604v5.191h-9.739v-5.191h.002zm0-6.949v-7.979l-6.391 7.979h6.391"/></g><path d="m39.844 198.99h15.02v4.829h-9.233v1.787h8.604v4.25h-8.604v1.912h9.359v4.829h-15.15v-17.612"/><path d="m56.57 198.99h8.604c3.12 0 5.107.78 6.34 2.01 1.057 1.057 1.609 2.365 1.609 4.176v.05c0 2.566-1.333 4.353-3.472 5.384l4.101 5.988h-6.717l-3.321-5.03h-1.258v5.03h-5.886v-17.61m8.427 8.376c1.409 0 2.264-.629 2.264-1.71v-.051c0-1.132-.88-1.686-2.239-1.686h-2.566v3.447h2.541"/><path d="m74.56 198.99h8.604c3.12 0 5.107.78 6.339 2.01 1.057 1.057 1.61 2.365 1.61 4.176v.05c0 2.566-1.334 4.353-3.472 5.384l4.1 5.988h-6.717l-3.321-5.03h-1.258v5.03h-5.886v-17.61m8.428 8.377c1.409 0 2.264-.629 2.264-1.71v-.051c0-1.132-.88-1.686-2.239-1.686h-2.566v3.447h2.541"/><path d="m92.15 207.84v-.051c0-5.107 4.202-9.183 9.637-9.183 5.434 0 9.583 4.03 9.583 9.132v.05c0 5.107-4.201 9.183-9.637 9.183-5.434.001-9.583-4.02-9.583-9.131m13.281 0v-.051c0-2.088-1.435-3.975-3.698-3.975-2.238 0-3.647 1.861-3.647 3.925v.05c0 2.088 1.434 3.975 3.698 3.975 2.238.001 3.647-1.861 3.647-3.924"/><path d="m112.98 198.99h8.604c3.119 0 5.106.78 6.34 2.01 1.057 1.057 1.609 2.365 1.609 4.176v.05c0 2.566-1.334 4.353-3.473 5.384l4.102 5.988h-6.717l-3.321-5.03h-1.258v5.03h-5.886v-17.61m8.428 8.376c1.408 0 2.264-.629 2.264-1.71v-.051c0-1.132-.881-1.686-2.238-1.686h-2.566v3.447h2.54"/><g fill="#727176"><path d="m17.278 321.38c0-1.883 1.528-3.838 3.974-3.838 1.301 0 2.202.627 2.583 1.609l-1.528.818c-.254-.52-.655-.818-1.282-.818-1.055 0-1.901.991-1.901 2.101 0 .81.537 1.31 1.273 1.31.555 0 .955-.236 1.364-.646l1.191 1.055c-.618.7-1.455 1.191-2.667 1.191-1.765.001-3.01-1.081-3.01-2.782"/><path d="m23.609 321.86c0-1.483 1.246-2.856 2.892-2.856 1.51 0 2.419.992 2.419 2.283 0 1.492-1.246 2.865-2.901 2.865-1.501 0-2.41-.991-2.41-2.292m3.656-.509c0-.555-.345-.91-.854-.91-.682 0-1.146.719-1.146 1.355 0 .564.346.918.855.918.681.001 1.145-.717 1.145-1.363"/><path d="m30.32 319.12h1.728l-.146.545c.336-.345.791-.654 1.374-.654.673 0 1.101.346 1.282.855.464-.527 1.062-.855 1.782-.855.938 0 1.455.564 1.455 1.465 0 .264-.063.582-.146.892l-.719 2.673h-1.719l.682-2.574c.036-.128.064-.291.064-.4 0-.328-.164-.52-.527-.52-.464 0-.746.328-.901.893l-.7 2.601h-1.728l.691-2.574c.036-.128.063-.291.063-.4 0-.327-.172-.519-.527-.519-.464 0-.746.327-.9.892l-.7 2.601h-1.729l1.321-4.921"/><path d="m39.13 319.12h1.728l-.146.52c.391-.383.864-.629 1.4-.629.973 0 1.746.746 1.746 2.02 0 1.765-1.236 3.119-2.646 3.119-.737 0-1.191-.318-1.492-.781l-.573 2.131h-1.728l1.71-6.375m2.984 2.18c0-.527-.336-.863-.836-.863-.664 0-1.219.654-1.219 1.4 0 .527.355.873.854.873.646-.001 1.201-.627 1.201-1.41"/><path d="m45.25 319.12h1.728l-.264.992c.473-.701 1.046-1.129 1.846-1.074l-.491 1.82h-.146c-.946 0-1.556.527-1.865 1.699l-.4 1.483h-1.729l1.321-4.92"/><path d="m48.27 322.67c0-.264.055-.572.136-.882l.718-2.673h1.729l-.691 2.574c-.037.127-.063.291-.063.4 0 .327.19.52.554.52.482 0 .764-.328.91-.893l.7-2.601h1.728l-1.31 4.921h-1.728l.146-.564c-.336.354-.818.673-1.401.673-.891-.001-1.427-.573-1.427-1.474"/><path d="m56.55 322.86c.354 0 .673-.118 1.046-.391l.801.945c-.5.437-1.155.736-2.01.736-1.455 0-2.347-.854-2.347-2.182 0-1.455 1.137-2.965 2.956-2.965 1.455 0 2.092.973 2.092 2.037 0 .336-.073.691-.19 1.01h-3.265c.035.492.326.811.917.811m.955-1.692c.027-.082.045-.172.045-.264 0-.336-.218-.627-.673-.627-.464 0-.918.299-1.128.891h1.756"/><path d="m60.966 323.36l-.182.673h-1.728l1.773-6.639h1.729l-.601 2.236c.391-.381.864-.627 1.4-.627.973 0 1.746.746 1.746 2.02 0 1.764-1.237 3.119-2.646 3.119-.736 0-1.19-.318-1.491-.782m2.392-2.066c0-.527-.336-.863-.837-.863-.664 0-1.218.654-1.218 1.4 0 .527.354.873.854.873.646.001 1.201-.626 1.201-1.41"/><path d="m65.37 322.8c0-1.082.864-1.737 2.165-1.737.446 0 .855.073 1.246.19l.019-.062c.018-.082.045-.183.045-.301 0-.318-.246-.527-.846-.527-.464 0-.982.109-1.328.246l-.246-1.256c.519-.182 1.229-.299 1.938-.299 1.473 0 2.192.582 2.192 1.563 0 .228-.037.464-.1.71l-.728 2.711h-1.701l.137-.528c-.418.392-.846.628-1.419.628-.809 0-1.374-.519-1.374-1.338m3.184-.618l.045-.164c-.19-.063-.41-.108-.646-.108-.545 0-.9.264-.9.709 0 .281.2.455.491.455.446 0 .873-.392 1.01-.892"/><path d="m73.77 322.97c0-.199.036-.409.091-.646l.491-1.819h-.582l.373-1.391h.583l.336-1.246h1.728l-.336 1.246h1.146l-.373 1.391h-1.146l-.418 1.547c-.027.117-.045.227-.045.299 0 .201.119.311.391.311.191 0 .4-.047.655-.137l-.382 1.437c-.309.108-.664.173-1.018.173-1 0-1.494-.437-1.494-1.165"/><path d="m77.46 322.67c0-.264.055-.572.137-.882l.719-2.673h1.728l-.691 2.574c-.037.127-.064.291-.064.4 0 .327.191.52.555.52.482 0 .764-.328.91-.893l.7-2.601h1.728l-1.31 4.921h-1.728l.146-.564c-.336.354-.819.673-1.401.673-.891-.001-1.428-.573-1.428-1.474"/><path d="m85.75 322c0-1.655 1.318-2.983 2.956-2.983 1.146 0 1.828.592 2.092 1.346l-1.355.701c-.164-.383-.4-.619-.846-.619-.654 0-1.183.719-1.183 1.465 0 .5.327.818.755.818.364 0 .628-.154.928-.455l1.055.919c-.5.583-1.118.964-2.101.964-1.327-.001-2.301-.828-2.301-2.156"/><path d="m92.25 317.39h1.729l-1.783 6.64h-1.728l1.782-6.64"/><path d="m93.37 322.8c0-1.082.863-1.737 2.164-1.737.445 0 .855.073 1.246.19l.019-.062c.019-.082.046-.183.046-.301 0-.318-.246-.527-.847-.527-.464 0-.981.109-1.327.246l-.246-1.256c.52-.182 1.229-.299 1.938-.299 1.473 0 2.191.582 2.191 1.563 0 .228-.036.464-.1.71l-.728 2.711h-1.7l.137-.528c-.42.392-.848.628-1.42.628-.809 0-1.373-.519-1.373-1.338m3.184-.618l.045-.164c-.191-.063-.41-.108-.646-.108-.546 0-.9.264-.9.709 0 .281.2.455.491.455.445 0 .873-.392 1.01-.892"/><path d="m99.18 319.12h1.772l.183 2.865 1.7-2.865h1.838l-3.284 4.957h-1.573l-.636-4.957"/><path d="m106.7 322.86c.354 0 .674-.118 1.046-.391l.801.945c-.5.437-1.155.736-2.01.736-1.455 0-2.347-.854-2.347-2.182 0-1.455 1.138-2.965 2.956-2.965 1.455 0 2.092.973 2.092 2.037 0 .336-.073.691-.191 1.01h-3.265c.036.492.327.811.918.811m.955-1.692c.028-.082.046-.172.046-.264 0-.336-.219-.627-.674-.627-.464 0-.918.299-1.128.891h1.756"/><path d="m112.17 322c0-1.655 1.318-2.983 2.955-2.983 1.146 0 1.828.592 2.092 1.346l-1.354.701c-.164-.383-.4-.619-.847-.619-.654 0-1.182.719-1.182 1.465 0 .5.326.818.754.818.365 0 .629-.154.929-.455l1.054.919c-.5.583-1.117.964-2.1.964-1.329-.001-2.301-.828-2.301-2.156"/><path d="m117 322.8c0-1.082.864-1.737 2.165-1.737.445 0 .854.073 1.246.19l.019-.062c.018-.082.045-.183.045-.301 0-.318-.246-.527-.846-.527-.464 0-.982.109-1.328.246l-.246-1.256c.52-.182 1.229-.299 1.938-.299 1.474 0 2.191.582 2.191 1.563 0 .228-.035.464-.1.71l-.727 2.711h-1.701l.137-.528c-.419.392-.847.628-1.419.628-.81 0-1.374-.519-1.374-1.338m3.184-.618l.045-.164c-.19-.063-.409-.108-.645-.108-.546 0-.9.264-.9.709 0 .281.199.455.49.455.446 0 .873-.392 1.01-.892"/><path d="m122.81 322.97c0-.199.037-.409.092-.646l.49-1.819h-.582l.373-1.391h.582l.337-1.246h1.728l-.336 1.246h1.146l-.373 1.391h-1.146l-.418 1.547c-.027.117-.046.227-.046.299 0 .201.118.311.392.311.189 0 .4-.047.654-.137l-.383 1.437c-.309.108-.664.173-1.018.173-1 0-1.492-.437-1.492-1.165"/><path d="m126.27 322.8c0-1.082.863-1.737 2.164-1.737.445 0 .854.073 1.246.19l.018-.062c.019-.082.045-.183.045-.301 0-.318-.245-.527-.846-.527-.463 0-.982.109-1.327.246l-.246-1.256c.519-.182 1.229-.299 1.937-.299 1.474 0 2.192.582 2.192 1.563 0 .228-.036.464-.1.71l-.728 2.711h-1.7l.136-.528c-.418.392-.846.628-1.418.628-.81 0-1.373-.519-1.373-1.338m3.182-.618l.046-.164c-.19-.063-.409-.108-.646-.108-.545 0-.9.264-.9.709 0 .281.201.455.491.455.447 0 .873-.392 1.01-.892"/><path d="m131.36 323.3l.854-1.01c.474.428 1.138.664 1.638.664.291 0 .437-.118.437-.3 0-.173-.191-.273-.674-.464-.782-.309-1.383-.654-1.383-1.438 0-.982.791-1.746 2.146-1.746.891 0 1.682.328 2.131.691l-.828 1.037c-.428-.318-.946-.527-1.393-.527-.281 0-.428.109-.428.281 0 .164.174.264.683.465.71.281 1.374.617 1.374 1.437 0 .946-.71 1.765-2.131 1.765-.934 0-1.834-.327-2.426-.855"/><path d="m136.73 322.97c0-.199.035-.409.09-.646l.492-1.819h-.582l.371-1.391h.583l.337-1.246h1.729l-.338 1.246h1.146l-.373 1.391h-1.146l-.419 1.547c-.027.117-.045.227-.045.299 0 .201.118.311.391.311.191 0 .4-.047.655-.137l-.383 1.437c-.31.108-.664.173-1.019.173-.999 0-1.489-.437-1.489-1.165"/><path d="m141.31 319.12h1.729l-.265.992c.474-.701 1.047-1.129 1.847-1.074l-.49 1.82h-.146c-.945 0-1.555.527-1.864 1.699l-.399 1.483h-1.729l1.317-4.92"/><path d="m143.94 322.8c0-1.082.864-1.737 2.164-1.737.446 0 .854.073 1.247.19l.018-.062c.018-.082.045-.183.045-.301 0-.318-.246-.527-.846-.527-.464 0-.982.109-1.328.246l-.246-1.256c.52-.182 1.229-.299 1.938-.299 1.473 0 2.191.582 2.191 1.563 0 .228-.035.464-.1.71l-.728 2.711h-1.7l.137-.528c-.419.392-.847.628-1.42.628-.808 0-1.372-.519-1.372-1.338m3.183-.618l.045-.164c-.189-.063-.408-.108-.646-.108-.545 0-.899.264-.899.709 0 .281.199.455.491.455.446 0 .872-.392 1.01-.892"/><path d="m150.99 317.39h1.729l-1.783 6.64h-1.729l1.783-6.64"/></g><g fill="#a01127"><path d="m59.24 272.4c-2.069-1.574-4.528-2.362-7-2.168-2.473.193-4.95 1.367-7.05 3.719-.253.282-.501.584-.746.904-.036.047-.071.094-.104.141-2.518 3.458-2.141 8.467.01 13.47 2.122 4.933 5.981 9.882 10.482 13.303.165.126.33.249.495.368 1.399 1.02 1.69 1.829 1.244 2.441-.99 1.361-4.779 2.157-8.828 2.305-4.09.15-8.397-.378-10.361-1.668-.939-.618-1.264-1.437-.586-2.468 1.151-1.751.668-3.068-.745-3.996-1.829-1.202-5.371-1.661-8.707-1.515-3.365.147-6.569.922-7.683 2.184-.755.857-.707 1.866.562 2.984.803.709.884 1.303.467 1.775-.668.759-2.339 1.35-4.451 1.727-2.174.387-4.781.536-7.257.396-3.281-.182-5.795-.466-8.976-.562v.911c3.06.101 5.793.341 8.928.515 2.542.142 5.223-.01 7.454-.406 2.292-.409 4.142-1.093 4.949-2.01.771-.874.716-1.885-.542-2.996-.812-.715-.893-1.305-.487-1.764.954-1.082 3.915-1.754 7.07-1.893 3.184-.14 6.525.275 8.195 1.372.979.644 1.309 1.565.498 2.8-1.014 1.543-.546 2.758.833 3.664 2.118 1.392 6.625 1.967 10.866 1.811 4.282-.156 8.339-1.072 9.495-2.661.757-1.039.461-2.27-1.434-3.647-.162-.119-.323-.238-.481-.358-4.381-3.332-8.14-8.151-10.208-12.958-2.038-4.736-2.423-9.438-.108-12.619.031-.043.063-.085.095-.127.227-.299.461-.581.701-.85 1.942-2.172 4.217-3.254 6.477-3.432 2.26-.177 4.513.549 6.412 1.993.231.175.458.363.682.563l.577-.645c-.236-.212-.482-.414-.735-.607"/><path d="m168.28 306.12c-2.37-.332-4.19-.868-4.671-1.552-.184-.262-.021-.612.613-1.059 1.141-.801 1.326-1.566.838-2.264-.85-1.207-4.436-1.939-8.164-2.043-3.694-.104-7.581.393-9.09 1.635-.92.759-1.088 1.732-.096 2.936.484.585.41 1.062-.049 1.443-1.516 1.249-6.146 1.782-10.602 1.684-4.41-.096-8.596-.789-9.29-1.99-.223-.385.143-.915 1.346-1.612 2.167-1.256 4.197-2.798 5.972-4.493 2.672-2.551 4.769-5.454 5.891-8.26 1.148-2.869 1.284-5.647-.008-7.875-.262-.453-.583-.883-.965-1.283-2.146-2.245-4.764-3.396-7.395-3.648-2.881-.274-5.775.531-8.07 2.172l.501.705c2.136-1.52 4.818-2.271 7.491-2.02 2.433.232 4.857 1.301 6.848 3.384.335.351.615.726.844 1.12 1.146 1.976 1 4.492-.047 7.119-1.076 2.691-3.102 5.487-5.686 7.955-1.727 1.649-3.701 3.149-5.809 4.371-1.73 1-2.15 1.947-1.66 2.795.858 1.48 5.35 2.318 10.02 2.421 4.627.102 9.488-.495 11.167-1.882.875-.722 1.037-1.604.168-2.662-.603-.73-.531-1.297-.022-1.717 1.336-1.104 4.993-1.537 8.516-1.438 3.49.098 6.793.7 7.48 1.678.18.256.017.605-.627 1.057-1.129.793-1.32 1.559-.824 2.265.629.896 2.666 1.548 5.261 1.911.577.081 1.195.168 1.833.254v-.879c-.594-.078-1.173-.157-1.714-.233"/></g></svg>