<?xml version="1.0" encoding="utf-8"?>
<!-- Generator: Adobe Illustrator 17.0.0, SVG Export Plug-In . SVG Version: 6.00 Build 0)  -->
<!DOCTYPE svg PUBLIC "-//W3C//DTD SVG 1.1//EN" "http://www.w3.org/Graphics/SVG/1.1/DTD/svg11.dtd">
<svg version="1.1" id="Capa_1" xmlns="http://www.w3.org/2000/svg" xmlns:xlink="http://www.w3.org/1999/xlink" x="0px" y="0px"
	 width="296.632px" height="150px" viewBox="0 0 296.632 150" enable-background="new 0 0 296.632 150" xml:space="preserve">
<g>
	<g>
		<g opacity="0.7">
			<path fill="#FFFFFF" d="M156.638,40.657v7.672h-0.06c-0.636-0.985-1.996-1.594-3.733-1.594c-3.388,0-6.366,2.75-6.336,7.524
				c0,4.4,2.69,7.265,6.047,7.265c1.823,0,3.529-0.811,4.429-2.403h0.056l0.203,2.084h3.906c-0.058-0.956-0.115-2.635-0.115-4.226
				V40.657H156.638z M156.638,54.898c0,0.375-0.028,0.693-0.115,1.012c-0.262,1.244-1.276,2.113-2.548,2.113
				c-1.825,0-3.01-1.507-3.01-3.909c0-2.229,1.042-4.023,3.037-4.023c1.362,0,2.318,0.984,2.577,2.172
				c0.032,0.229,0.06,0.549,0.06,0.78V54.898z"/>
			<path fill="#FFFFFF" d="M169.862,61.496c1.91,0,3.676-0.289,5.123-0.869l-0.581-2.981c-1.185,0.377-2.401,0.58-3.904,0.58
				c-2.057,0-3.851-0.868-3.996-2.69h9.117c0.058-0.319,0.145-0.984,0.145-1.74c0-3.501-1.737-7.058-6.31-7.058
				c-4.918,0-7.149,3.963-7.149,7.551C162.308,58.717,165.057,61.496,169.862,61.496z M169.198,49.66
				c2.024,0,2.487,1.792,2.487,2.864h-5.207C166.592,51.339,167.345,49.66,169.198,49.66z"/>
			<polygon fill="#FFFFFF" points="184.128,61.206 188.557,61.206 188.557,45.405 193.881,45.405 193.881,41.699 178.891,41.699 
				178.891,45.405 184.128,45.405 			"/>
			<path fill="#FFFFFF" d="M197.471,54.028c0-0.346,0.028-0.694,0.083-0.983c0.29-1.36,1.39-2.228,3.014-2.228
				c0.489,0,0.865,0.058,1.185,0.115v-4.138c-0.32-0.059-0.525-0.059-0.926-0.059c-1.36,0-3.097,0.869-3.821,2.924h-0.115
				l-0.145-2.606h-3.791c0.058,1.217,0.115,2.577,0.115,4.66v9.493h4.402V54.028z"/>
			<path fill="#FFFFFF" d="M210,59.789h0.087l0.26,1.417h3.964c-0.145-0.782-0.203-2.084-0.203-3.444v-4.918
				c0-3.33-1.505-6.108-6.22-6.108c-2.576,0-4.517,0.695-5.499,1.245l0.811,2.837c0.922-0.579,2.457-1.071,3.904-1.071
				c2.171,0,2.576,1.071,2.576,1.823v0.203c-5.006-0.03-8.306,1.736-8.306,5.411c0,2.256,1.708,4.341,4.572,4.341
				C207.626,61.524,209.073,60.917,210,59.789z M209.824,54.521v1.535c0,0.259-0.028,0.521-0.083,0.752
				c-0.292,0.897-1.185,1.621-2.286,1.621c-0.986,0-1.738-0.551-1.738-1.681C205.717,55.042,207.511,54.493,209.824,54.521z"/>
			<path fill="#FFFFFF" d="M216.134,40.657V56.98c0,1.591-0.058,3.3-0.115,4.226h3.733l0.171-1.968h0.059
				c1.014,1.679,2.604,2.286,4.254,2.286c3.24,0,6.481-2.547,6.481-7.641c0.032-4.341-2.457-7.148-5.845-7.148
				c-1.966,0-3.443,0.782-4.282,1.997h-0.06v-8.075H216.134z M220.619,52.292c0.29-1.272,1.39-2.17,2.577-2.17
				c2.055,0,3.038,1.736,3.038,3.936c0,2.546-1.157,3.992-3.038,3.992c-1.272,0-2.286-0.896-2.577-2.081
				c-0.058-0.232-0.087-0.493-0.087-0.782v-2.082C220.532,52.813,220.562,52.554,220.619,52.292z"/>
			<path fill="#FFFFFF" d="M231.068,57.184c0,2.256,1.706,4.341,4.57,4.341c1.68,0,3.127-0.607,4.051-1.736h0.09l0.258,1.417h3.964
				c-0.143-0.782-0.201-2.084-0.201-3.444v-4.918c0-3.33-1.505-6.108-6.224-6.108c-2.574,0-4.513,0.695-5.499,1.245l0.811,2.837
				c0.928-0.579,2.461-1.071,3.908-1.071c2.171,0,2.575,1.071,2.575,1.823v0.203C234.364,51.742,231.068,53.509,231.068,57.184z
				 M239.517,54.521v1.535c0,0.259-0.028,0.521-0.085,0.752c-0.29,0.897-1.187,1.621-2.288,1.621c-0.984,0-1.733-0.551-1.733-1.681
				C235.41,55.042,237.203,54.493,239.517,54.521z"/>
			<path fill="#FFFFFF" d="M248.547,45.318c1.475,0,2.372-0.984,2.372-2.2c-0.03-1.272-0.897-2.227-2.312-2.227
				c-1.447,0-2.348,0.954-2.348,2.227C246.258,44.334,247.159,45.318,248.547,45.318z"/>
			<path fill="#FFFFFF" d="M243.336,67.254c2.113,0,4.167-0.52,5.469-1.734c1.304-1.217,2-3.098,2-6.194V47.054h-4.429v11.231
				c0,2.805-0.231,3.933-0.869,4.6c-0.551,0.578-1.447,0.839-2.604,0.924L243.336,67.254z"/>
			<path fill="#FFFFFF" d="M259.31,61.524c3.791,0,7.467-2.373,7.467-7.553c0-4.254-2.895-7.235-7.236-7.235
				c-4.541,0-7.55,2.924-7.55,7.496C251.99,58.803,255.171,61.524,259.31,61.524z M259.425,49.861c2,0,2.809,2.143,2.809,4.254
				c0,2.548-1.101,4.254-2.809,4.254c-1.879,0-2.893-1.822-2.893-4.254C256.532,52.033,257.314,49.861,259.425,49.861z"/>
			<path fill="#FFFFFF" d="M155.886,75.994l-1.737,6.946c-0.205,0.809-0.433,1.88-0.638,2.633h-0.086
				c-0.175-0.754-0.461-1.796-0.696-2.633l-2.111-6.946h-4.892l5.179,12.934c0.175,0.349,0.205,0.58,0.205,0.725
				c0,0.203-0.086,0.434-0.23,0.635c-0.435,0.724-1.159,1.42-1.823,1.766c-0.666,0.406-1.362,0.667-1.911,0.754l0.926,3.731
				c1.099-0.144,2.717-0.607,4.254-1.938c1.592-1.417,2.95-3.676,4.976-9.29l3.3-9.318H155.886z"/>
			<path fill="#FFFFFF" d="M165.55,70.9v19.244h4.37v-7.67h1.332c1.795,0.031,2.632,0.696,3.153,3.127
				c0.581,2.403,1.044,3.994,1.362,4.543h4.513c-0.378-0.751-0.982-3.299-1.59-5.497c-0.493-1.794-1.244-3.096-2.604-3.647v-0.087
				c1.678-0.608,3.443-2.314,3.443-4.805c0-1.794-0.636-3.154-1.793-4.079c-1.392-1.099-3.415-1.535-6.31-1.535
				C169.079,70.494,166.967,70.668,165.55,70.9z M175.158,76.486c0,1.708-1.304,2.807-3.503,2.807h-1.735V73.91
				c0.318-0.058,0.924-0.145,1.998-0.145C173.941,73.793,175.158,74.691,175.158,76.486z"/>
			<path fill="#FFFFFF" d="M193.765,82.736c0-3.502-1.737-7.06-6.31-7.06c-4.92,0-7.149,3.964-7.149,7.552
				c0,4.427,2.751,7.206,7.552,7.206c1.911,0,3.676-0.289,5.123-0.869l-0.577-2.982c-1.189,0.378-2.402,0.58-3.908,0.58
				c-2.056,0-3.849-0.869-3.994-2.689h9.115C193.678,84.154,193.765,83.489,193.765,82.736z M184.474,81.463
				c0.119-1.186,0.871-2.865,2.719-2.865c2.028,0,2.493,1.793,2.493,2.865H184.474z"/>
			<path fill="#FFFFFF" d="M198.714,87.366c-1.302,0-2.982-0.579-3.791-1.071l-0.783,3.156c1.072,0.578,2.72,0.984,4.574,0.984
				c4.05,0,6.135-1.939,6.135-4.573c-0.03-2.085-1.159-3.444-3.847-4.368c-1.74-0.609-2.288-0.957-2.288-1.623
				c0-0.724,0.606-1.158,1.678-1.158c1.215,0,2.429,0.463,3.068,0.812l0.779-3.038c-0.867-0.436-2.342-0.812-3.992-0.812
				c-3.501,0-5.759,1.997-5.759,4.63c-0.028,1.68,1.099,3.27,4.022,4.254c1.652,0.551,2.085,0.896,2.085,1.621
				C200.594,86.903,200.044,87.366,198.714,87.366z"/>
			<path fill="#FFFFFF" d="M210.982,90.463c2.546,0,3.878-1.445,4.425-2.315h0.091l0.203,1.996h3.819
				c-0.058-1.186-0.117-2.689-0.117-4.543v-9.607h-4.425v8.421c0,0.348-0.028,0.694-0.147,0.954
				c-0.288,0.697-0.982,1.534-2.199,1.534c-1.531,0-2.199-1.243-2.199-3.298v-7.611h-4.427V84.3
				C206.006,88.67,208.119,90.463,210.982,90.463z"/>
			<rect x="221.488" y="69.598" fill="#FFFFFF" width="4.398" height="20.548"/>
			<path fill="#FFFFFF" d="M236.074,79.234v-3.24h-3.155v-4.052l-4.314,0.984v3.068h-1.883v3.24h1.883v5.788
				c0,1.997,0.404,3.357,1.217,4.197c0.694,0.723,1.881,1.216,3.298,1.216c1.244,0,2.286-0.147,2.867-0.378l-0.03-3.327
				c-0.318,0.059-0.753,0.114-1.302,0.114c-1.332,0-1.736-0.78-1.736-2.488v-5.122H236.074z"/>
			<path fill="#FFFFFF" d="M236.245,86.121c0,2.258,1.706,4.342,4.572,4.342c1.68,0,3.125-0.607,4.052-1.736h0.087l0.259,1.417
				h3.966c-0.145-0.78-0.201-2.083-0.201-3.442v-4.919c0-3.33-1.507-6.107-6.224-6.107c-2.575,0-4.515,0.694-5.497,1.243
				l0.809,2.837c0.928-0.58,2.459-1.072,3.906-1.072c2.171,0,2.576,1.072,2.576,1.823v0.204
				C239.545,80.682,236.245,82.448,236.245,86.121z M244.694,83.46v1.535c0,0.259-0.028,0.52-0.083,0.75
				c-0.294,0.899-1.189,1.622-2.288,1.622c-0.984,0-1.736-0.551-1.736-1.679C240.587,83.981,242.38,83.432,244.694,83.46z"/>
			<path fill="#FFFFFF" d="M260.324,69.598v7.67h-0.06c-0.636-0.984-1.996-1.592-3.732-1.592c-3.385,0-6.367,2.75-6.34,7.523
				c0,4.399,2.694,7.264,6.049,7.264c1.823,0,3.529-0.81,4.427-2.402h0.056l0.205,2.083h3.906c-0.058-0.954-0.115-2.633-0.115-4.223
				V69.598H260.324z M260.324,83.838c0,0.375-0.032,0.694-0.117,1.011c-0.26,1.244-1.272,2.114-2.545,2.114
				c-1.825,0-3.012-1.507-3.012-3.908c0-2.229,1.042-4.023,3.038-4.023c1.364,0,2.316,0.984,2.577,2.171
				c0.028,0.231,0.06,0.549,0.06,0.781V83.838z"/>
			<path fill="#FFFFFF" d="M273.317,90.463c3.791,0,7.465-2.373,7.465-7.553c0-4.253-2.897-7.234-7.234-7.234
				c-4.544,0-7.554,2.923-7.554,7.495C265.993,87.742,269.174,90.463,273.317,90.463z M273.43,78.8c1.998,0,2.809,2.142,2.809,4.254
				c0,2.546-1.099,4.253-2.809,4.253c-1.881,0-2.893-1.821-2.893-4.253C270.538,80.972,271.317,78.8,273.43,78.8z"/>
			<path fill="#FFFFFF" d="M285.818,87.366c-1.304,0-2.982-0.579-3.791-1.071l-0.783,3.156c1.072,0.578,2.722,0.984,4.574,0.984
				c4.049,0,6.135-1.939,6.135-4.573c-0.032-2.085-1.159-3.444-3.849-4.368c-1.737-0.609-2.286-0.957-2.286-1.623
				c0-0.724,0.606-1.158,1.678-1.158c1.215,0,2.431,0.463,3.069,0.812l0.779-3.038c-0.867-0.436-2.346-0.812-3.992-0.812
				c-3.503,0-5.761,1.997-5.761,4.63c-0.028,1.68,1.101,3.27,4.022,4.254c1.652,0.551,2.085,0.896,2.085,1.621
				C287.698,86.903,287.149,87.366,285.818,87.366z"/>
			<path fill="#FFFFFF" d="M16.252,135.72c0,2.944,0.09,5.596,0.38,8.191h-0.088c-0.875-2.216-2.04-4.665-3.207-6.733l-4.081-7.201
				H4.067v19.649h4.081v-5.918c0-3.207-0.062-5.976-0.175-8.57l0.09-0.03c0.958,2.302,2.242,4.84,3.407,6.939l4.199,7.579h4.666
				v-19.649h-4.083V135.72z"/>
			<path fill="#FFFFFF" d="M24.878,129.161c-1.427,0-2.36,0.962-2.334,2.243c-0.026,1.227,0.906,2.217,2.306,2.217
				c1.457,0,2.39-0.99,2.39-2.217C27.212,130.123,26.307,129.161,24.878,129.161z"/>
			<rect x="22.663" y="135.369" fill="#FFFFFF" width="4.429" height="14.256"/>
			<path fill="#FFFFFF" d="M36.829,146.447c-2.157,0-3.908-1.372-3.908-3.994c-0.028-2.333,1.487-3.994,3.819-3.994
				c1.167,0,1.954,0.206,2.479,0.437l0.7-3.294c-0.934-0.35-2.215-0.556-3.379-0.556c-5.308,0-8.163,3.412-8.163,7.581
				c0,4.489,2.942,7.289,7.548,7.289c1.692,0,3.179-0.292,3.966-0.643l-0.525-3.264C38.694,146.272,37.879,146.447,36.829,146.447z"
				/>
			<path fill="#FFFFFF" d="M47.352,135.047c-4.576,0-7.608,2.947-7.608,7.552c0,4.606,3.205,7.346,7.374,7.346
				c3.819,0,7.521-2.392,7.521-7.609C54.638,138.051,51.724,135.047,47.352,135.047z M47.235,146.768
				c-1.893,0-2.915-1.836-2.915-4.286c0-2.097,0.785-4.285,2.915-4.285c2.012,0,2.827,2.16,2.827,4.285
				C50.061,145.05,48.954,146.768,47.235,146.768z"/>
			<rect x="55.918" y="128.926" fill="#FFFFFF" width="4.433" height="20.699"/>
			<polygon fill="#FFFFFF" points="69.444,133.591 73.001,129.161 68.892,129.161 66.387,133.591 			"/>
			<path fill="#FFFFFF" d="M74.371,141.199c0-3.352-1.515-6.152-6.266-6.152c-2.594,0-4.548,0.701-5.539,1.255l0.815,2.857
				c0.934-0.582,2.479-1.08,3.936-1.08c2.187,0,2.592,1.08,2.592,1.838v0.204c-5.041-0.029-8.365,1.75-8.365,5.452
				c0,2.273,1.722,4.372,4.606,4.372c1.692,0,3.151-0.613,4.081-1.75h0.088l0.262,1.429h3.992c-0.143-0.787-0.203-2.099-0.203-3.469
				V141.199z M70.057,144.436c0,0.262-0.028,0.526-0.088,0.758c-0.29,0.903-1.195,1.632-2.302,1.632c-0.99,0-1.75-0.555-1.75-1.692
				c0-1.719,1.807-2.272,4.139-2.244V144.436z"/>
			<path fill="#FFFFFF" d="M82.502,140.909c-1.747-0.613-2.302-0.962-2.302-1.634c0-0.729,0.612-1.165,1.69-1.165
				c1.225,0,2.449,0.467,3.089,0.815l0.791-3.06c-0.875-0.437-2.364-0.815-4.026-0.815c-3.527,0-5.799,2.009-5.799,4.663
				c-0.032,1.691,1.105,3.294,4.051,4.285c1.662,0.553,2.099,0.903,2.099,1.633c0,0.729-0.557,1.195-1.897,1.195
				c-1.312,0-3.002-0.583-3.817-1.078l-0.787,3.177c1.077,0.583,2.739,0.991,4.604,0.991c4.083,0,6.181-1.952,6.181-4.606
				C86.35,143.21,85.213,141.841,82.502,140.909z"/>
			<path fill="#FFFFFF" d="M195.229,147.934l1.248-1.153c3.29-3.17,5.381-5.5,5.381-8.379c0-2.235-1.417-4.54-4.783-4.54
				c-1.799,0-3.334,0.672-4.415,1.585l0.672,1.49c0.72-0.601,1.896-1.322,3.316-1.322c2.326,0,3.095,1.465,3.095,3.051
				c-0.024,2.353-1.825,4.37-5.811,8.165l-1.658,1.609v1.297h9.968v-1.753h-7.014V147.934z"/>
			<path fill="#FFFFFF" d="M208.608,133.862c-3.171,0-5.427,2.883-5.427,8.118c0.048,5.163,2.111,8.021,5.163,8.021
				c3.457,0,5.429-2.929,5.429-8.237C213.773,136.793,211.896,133.862,208.608,133.862z M208.463,148.368
				c-1.92,0-3.171-2.306-3.171-6.365c0-4.25,1.344-6.507,3.195-6.507c2.187,0,3.169,2.52,3.169,6.363
				C211.655,145.845,210.624,148.368,208.463,148.368z"/>
			<polygon fill="#FFFFFF" points="215.934,135.952 216.341,137.559 219.057,136.096 219.104,136.096 219.104,149.737 
				221.146,149.737 221.146,134.126 219.347,134.126 			"/>
			<path fill="#FFFFFF" d="M231.378,139.458c-1.73,0-3.028,0.817-3.769,1.799h-0.074c0.362-2.568,2.113-4.995,5.425-5.546
				c0.602-0.094,1.155-0.119,1.586-0.094v-1.731c-0.382,0-0.91,0.024-1.535,0.121c-1.97,0.238-3.698,1.032-4.996,2.304
				c-1.537,1.538-2.642,3.964-2.642,7.036c0,4.06,2.187,6.653,5.523,6.653c3.242,0,5.187-2.641,5.187-5.499
				C236.084,141.451,234.14,139.458,231.378,139.458z M230.897,148.367c-2.209,0-3.386-1.898-3.435-4.468
				c0-0.382,0.099-0.695,0.242-0.935c0.576-1.128,1.753-1.922,3.026-1.922c1.944,0,3.217,1.345,3.217,3.577
				C233.947,146.855,232.722,148.367,230.897,148.367z"/>
			<rect x="240.292" y="142.46" fill="#FFFFFF" width="5.928" height="1.563"/>
			<path fill="#FFFFFF" d="M253.67,147.934l1.248-1.153c3.29-3.17,5.38-5.5,5.38-8.379c0-2.235-1.416-4.54-4.781-4.54
				c-1.797,0-3.336,0.672-4.417,1.585l0.672,1.49c0.722-0.601,1.898-1.322,3.316-1.322c2.33,0,3.097,1.465,3.097,3.051
				c-0.024,2.353-1.825,4.37-5.811,8.165l-1.658,1.609v1.297h9.966v-1.753h-7.012V147.934z"/>
			<path fill="#FFFFFF" d="M267.047,133.862c-3.169,0-5.427,2.883-5.427,8.118c0.048,5.163,2.113,8.021,5.165,8.021
				c3.457,0,5.427-2.929,5.427-8.237C272.212,136.793,270.337,133.862,267.047,133.862z M266.904,148.368
				c-1.92,0-3.171-2.306-3.171-6.365c0-4.25,1.346-6.507,3.195-6.507c2.187,0,3.169,2.52,3.169,6.363
				C270.096,145.845,269.063,148.368,266.904,148.368z"/>
			<polygon fill="#FFFFFF" points="274.375,135.952 274.784,137.559 277.496,136.096 277.545,136.096 277.545,149.737 
				279.587,149.737 279.587,134.126 277.784,134.126 			"/>
			<path fill="#FFFFFF" d="M291.284,141.428v-0.074c1.92-0.912,2.569-2.33,2.569-3.651c0-1.945-1.511-3.842-4.537-3.842
				c-2.739,0-4.829,1.681-4.829,4.154c0,1.347,0.745,2.693,2.475,3.507l0.022,0.072c-1.918,0.818-3.095,2.21-3.095,4.179
				c0,2.281,1.968,4.228,5.232,4.228c2.978,0,5.308-1.826,5.308-4.54C294.43,143.565,293.229,142.195,291.284,141.428z
				 M286.482,137.872c0-1.346,0.958-2.499,2.712-2.499c1.898,0,2.644,1.297,2.644,2.548c0,1.416-1.034,2.377-2.38,2.834
				C287.658,140.275,286.482,139.433,286.482,137.872z M289.171,148.462c-1.994,0-3.195-1.393-3.123-2.976
				c0-1.49,0.986-2.691,2.811-3.218c2.111,0.599,3.435,1.513,3.435,3.409C292.294,147.286,291.068,148.462,289.171,148.462z"/>
			<path fill="#FFFFFF" d="M101.714,140.267v-0.087c2.067-0.7,3.702-2.419,3.702-5.014c0-1.516-0.555-2.858-1.547-3.73
				c-1.225-1.109-2.972-1.604-5.686-1.604c-1.745,0-3.582,0.145-4.867,0.409v19.386h2.537v-8.512h2.39
				c2.304,0.086,3.354,1.107,3.936,3.819c0.553,2.449,0.99,4.14,1.312,4.693h2.622c-0.408-0.758-0.875-2.654-1.517-5.393
				C104.131,142.192,103.228,140.791,101.714,140.267z M98.449,139.188h-2.596v-7.171c0.41-0.117,1.28-0.233,2.507-0.233
				c2.682,0.028,4.519,1.136,4.519,3.673C102.879,137.701,101.157,139.188,98.449,139.188z"/>
			<path fill="#FFFFFF" d="M113.546,135.194c-3.908,0-6.998,2.769-6.998,7.493c0,4.459,2.946,7.259,6.763,7.259
				c3.411,0,7.027-2.275,7.027-7.494C120.339,138.14,117.598,135.194,113.546,135.194z M113.429,148.022
				c-2.507,0-4.284-2.333-4.284-5.422c0-2.682,1.312-5.481,4.342-5.481c3.032,0,4.227,3.032,4.227,5.421
				C117.713,145.718,115.878,148.022,113.429,148.022z"/>
			<path fill="#FFFFFF" d="M137.621,135.195c-1.34,0-2.27,0.349-3.117,0.99c-0.58,0.438-1.137,1.049-1.574,1.837h-0.058
				c-0.614-1.661-2.069-2.827-3.994-2.827c-2.334,0-3.642,1.254-4.433,2.595h-0.086l-0.117-2.274h-2.246
				c0.089,1.165,0.119,2.362,0.119,3.818v10.292h2.505v-8.512c0-0.439,0.06-0.875,0.207-1.254c0.41-1.281,1.573-2.565,3.177-2.565
				c1.952,0,2.944,1.631,2.944,3.878v8.454h2.507v-8.716c0-0.467,0.088-0.932,0.205-1.283c0.435-1.252,1.572-2.332,3.032-2.332
				c2.068,0,3.062,1.631,3.062,4.344v7.988h2.505v-8.308C142.257,136.418,139.487,135.195,137.621,135.195z"/>
			<path fill="#FFFFFF" d="M150.563,135.194c-4.111,0-6.616,3.352-6.616,7.609c0,4.255,2.594,7.112,6.936,7.112
				c2.245,0,3.791-0.466,4.696-0.874l-0.44-1.836c-0.962,0.408-2.069,0.728-3.904,0.728c-2.567,0-4.783-1.428-4.841-4.897h9.91
				c0.032-0.26,0.089-0.669,0.089-1.193C156.393,139.249,155.171,135.194,150.563,135.194z M146.424,141.199
				c0.205-1.778,1.34-4.168,3.936-4.168c2.886,0,3.584,2.538,3.555,4.168H146.424z"/>
			<path fill="#FFFFFF" d="M165.079,135.282c-0.234-0.06-0.437-0.087-0.73-0.087c-1.72,0-3.266,1.195-3.906,3.09h-0.117
				l-0.086-2.769h-2.246c0.087,1.31,0.117,2.738,0.117,4.401v9.707h2.535v-7.523c0-0.436,0.06-0.846,0.119-1.194
				c0.35-1.924,1.63-3.294,3.439-3.294c0.35,0,0.612,0.027,0.875,0.088V135.282z"/>
			<path fill="#FFFFFF" d="M171.87,135.194c-3.907,0-6.998,2.769-6.998,7.493c0,4.459,2.946,7.259,6.763,7.259
				c3.411,0,7.026-2.275,7.026-7.494C178.661,138.14,175.921,135.194,171.87,135.194z M171.754,148.022
				c-2.509,0-4.286-2.333-4.286-5.422c0-2.682,1.312-5.481,4.344-5.481c3.03,0,4.224,3.032,4.224,5.421
				C176.037,145.718,174.2,148.022,171.754,148.022z"/>
			<path fill="#FFFFFF" d="M26.561,49.458l28.589,41.921h0.056h22.182h1.513V60.392h2.084c2.153,0,4.079,0.591,5.779,1.769
				c1.253,0.904,2.676,2.866,4.272,5.886l12.61,23.331h26.657l-11.425-22.122c-0.553-1.112-1.658-2.694-3.304-4.743
				c-1.65-2.052-2.906-3.388-3.773-4.014c-1.284-0.938-3.332-1.876-6.141-2.815c3.509-0.798,6.272-1.805,8.284-3.021
				c3.161-1.909,5.646-4.401,7.451-7.472c1.809-3.075,2.712-6.728,2.712-10.965c0-4.859-1.183-8.983-3.543-12.368
				c-2.362-3.384-5.469-5.702-9.322-6.953c-3.853-1.25-9.427-1.874-16.717-1.874H77.389H55.206h-0.056v42.239L26.405,15.032H4.376
				v76.347h22.186V49.458z M78.901,30.448h10.364c4.306,0,7.24,0.66,8.803,1.978c1.563,1.321,2.342,3.212,2.342,5.678
				c0,1.665-0.493,3.141-1.483,4.425c-0.99,1.285-2.266,2.083-3.829,2.396c-3.089,0.695-5.175,1.043-6.248,1.043h-9.948V30.448z"/>
			<path fill="#FFFFFF" d="M154.141,35.652c2.729,0,5.04-0.69,6.21-1.11v-9.72h-6.66v2.1h4.11v6.03c-0.601,0.3-1.771,0.54-3.48,0.54
				c-4.709,0-7.799-3.03-7.799-8.16c0-5.07,3.209-8.13,8.129-8.13c2.04,0,3.391,0.39,4.47,0.87l0.63-2.13
				c-0.869-0.42-2.699-0.93-5.039-0.93c-6.78,0-10.92,4.41-10.95,10.439c0,3.15,1.08,5.85,2.82,7.53
				C148.561,34.873,151.081,35.652,154.141,35.652z"/>
			<path fill="#FFFFFF" d="M170.49,35.742c2.311,0,3.9-0.48,4.83-0.9l-0.45-1.89c-0.989,0.42-2.13,0.75-4.02,0.75
				c-2.64,0-4.92-1.47-4.979-5.04h10.199c0.03-0.27,0.09-0.69,0.09-1.23c0-2.67-1.26-6.84-6-6.84c-4.229,0-6.81,3.45-6.81,7.83
				S166.02,35.742,170.49,35.742z M169.95,22.483c2.971,0,3.69,2.61,3.66,4.29h-7.71C166.11,24.943,167.28,22.483,169.95,22.483z"/>
			<path fill="#FFFFFF" d="M179.43,35.443h2.641v-8.729c0-0.45,0.06-0.9,0.18-1.23c0.45-1.47,1.8-2.7,3.54-2.7
				c2.489,0,3.359,1.95,3.359,4.29v8.37h2.641v-8.669c0-4.98-3.12-6.18-5.13-6.18c-2.4,0-4.08,1.35-4.8,2.73H181.8l-0.149-2.4h-2.34
				c0.09,1.2,0.119,2.43,0.119,3.93V35.443z"/>
			<path fill="#FFFFFF" d="M196.561,30.853c0,1.71,0.27,3,1.02,3.78c0.63,0.72,1.62,1.11,2.851,1.11c1.02,0,1.829-0.15,2.34-0.36
				l-0.12-1.98c-0.33,0.09-0.84,0.18-1.53,0.18c-1.47,0-1.979-1.02-1.979-2.82v-7.83h3.779v-2.01h-3.779v-4.17l-2.58,0.69v3.479
				h-2.25v2.01h2.25V30.853z"/>
			<path fill="#FFFFFF" d="M211.8,35.742c2.311,0,3.9-0.48,4.83-0.9l-0.45-1.89c-0.989,0.42-2.13,0.75-4.02,0.75
				c-2.64,0-4.92-1.47-4.979-5.04h10.199c0.03-0.27,0.09-0.69,0.09-1.23c0-2.67-1.26-6.84-6-6.84c-4.229,0-6.81,3.45-6.81,7.83
				S207.33,35.742,211.8,35.742z M211.26,22.483c2.971,0,3.69,2.61,3.66,4.29h-7.71C207.42,24.943,208.59,22.483,211.26,22.483z"/>
		</g>
		<g opacity="0.9">
			<path fill="#FFFFFF" d="M57.588,16.377c3.952-0.147,8.497-3.659,9.868-7.854c1.236-3.782-0.648-6.443-4.06-6.443
				c-0.38,0-0.781,0.033-1.195,0.101c-3.859,0.639-7.751,4.107-8.946,7.786C52.077,13.639,53.91,16.507,57.588,16.377z"/>
			<path fill="#FFFFFF" d="M43.907,24.985c1.913,2.553,5.038,4.562,9.272,4.951c4.608,0.483,9.988-1.004,14.982-3.648
				c5.427-2.851,10.226-6.896,13.981-10.877c3.932-4.167,6.63-8.111,8.364-10.91c1.755-2.854,2.505-4.487,2.535-4.5V0
				c-0.119,0-5.169,5.574-13.027,10.919c-3.67,2.487-7.821,4.802-12.027,6.374c-3.94,1.485-7.866,2.288-11.453,2.326
				c-3.346,0.003-6.129-0.677-8.262-1.841c-2.032-1.097-3.509-2.647-4.511-4.227c-1.916-3.033-2.231-6.206-2.278-6.127
				c0.004,0.007-0.231,1.003-0.451,2.71c-0.213,1.704-0.403,4.15-0.105,6.784C41.223,19.609,42.072,22.57,43.907,24.985z"/>
			<path fill="#FFFFFF" d="M92.73,35.709c-5.708,1.031-10.135,6.981-10.272,13.525c-0.131,6.714,4.274,12.24,10.276,12.175
				c6.511-0.073,12.061-6.591,11.878-14.337c-0.165-6.809-4.716-11.518-10.164-11.518C93.883,35.555,93.308,35.606,92.73,35.709z"/>
			<path fill="#FFFFFF" d="M87.658,82.167c-2.895-4.463-5.511-9.681-7.197-15.321c-1.622-5.376-2.417-11.22-2.27-17.197
				c0.195-5.84,1.276-11.467,3.069-16.584c1.783-5.138,4.318-9.878,6.998-13.893c5.57-8.347,11.691-13.727,11.55-13.732
				c-0.014,0.029-1.92,0.922-5.113,2.855c-3.049,1.865-7.222,4.665-11.491,8.614c-4.051,3.745-8.218,8.597-11.395,14.422
				c-3.097,5.643-5.34,12.46-5.682,19.496c-0.411,7.244,1.199,14.264,3.968,20.107c2.964,6.328,7.28,11.476,11.701,15.397
				c4.801,4.263,9.658,7.084,13.276,8.93c3.841,1.938,6.157,2.73,6.171,2.767C101.417,97.981,94.028,91.948,87.658,82.167z"/>
			<path fill="#FFFFFF" d="M41.867,64.86c-0.773-0.265-1.567-0.394-2.35-0.394c-3.411,0-6.745,2.394-8.272,6.169
				c-1.942,4.814-0.413,10.513,3.751,12.72c4.497,2.369,9.995-0.324,11.896-5.976C48.712,71.953,46.296,66.396,41.867,64.86z"/>
			<path fill="#FFFFFF" d="M61.242,57.925c-3.538-4.33-8.254-7.583-13.582-8.655c-1.408-0.299-2.819-0.437-4.223-0.437
				c-3.485,0-6.898,0.852-9.916,2.204c-4.123,1.829-7.694,4.623-10.491,7.392c-2.805,2.784-4.912,5.601-6.314,7.628
				c-1.417,2.067-2.127,3.333-2.145,3.338c-0.018,0.106,3.499-3.489,8.676-6.247c2.64-1.405,5.757-2.591,9.075-3.067
				c3.453-0.513,7.195-0.268,10.995,0.885c4.024,1.269,7.835,3.493,11.157,6.477c3.586,3.2,6.614,7.273,8.994,11.465
				c5.316,9.363,7.248,18.448,7.354,18.31c-0.022-0.029,0.272-2.451,0.249-6.763c-0.04-4.123-0.378-9.85-1.952-16.057
				C67.673,68.665,65.174,62.698,61.242,57.925z"/>
			<path fill="#FFFFFF" d="M20.56,54.211c1.67-0.041,3.857-0.697,6.352-2.587c2.604-1.951,5.529-5.276,7.998-9.769
				c2.556-4.594,4.212-9.658,4.958-14c0.755-4.324,0.624-7.82,0.145-10.336c-0.465-2.462-1.246-4.016-1.839-4.969
				c-0.586-0.922-0.998-1.294-0.998-1.307c-0.048,0.013,0.521,2.823-0.06,7.818c-0.298,2.523-0.899,5.571-1.936,8.861
				c-1.032,3.286-2.473,6.743-4.234,10.053c-1.741,3.238-3.618,6.007-5.447,8.143c-1.773,2.081-3.483,3.545-4.934,4.5
				c-2.787,1.827-4.598,1.849-4.592,1.907c0.01-0.007,0.358,0.364,1.081,0.795C17.798,53.751,18.956,54.256,20.56,54.211z"/>
			<path fill="#FFFFFF" d="M29.8,36.853c1.881-3.551,2.274-7.441,0.899-8.588c-0.254-0.211-0.553-0.31-0.875-0.31
				c-1.36,0.001-3.208,1.75-4.58,4.441c-1.672,3.27-2.103,6.898-0.958,8.201C25.482,41.958,27.951,40.332,29.8,36.853z"/>
		</g>
		<g opacity="0.7">
			<polygon fill="#FFFFFF" points="-0.21,112.767 137.695,114.923 137.695,114.923 137.695,114.916 137.695,110.613 
				137.695,110.613 137.686,110.613 			"/>
			<polygon fill="#FFFFFF" points="158.935,110.613 158.935,114.923 296.842,112.767 			"/>
		</g>
	</g>
</g>
</svg>
