<?xml version="1.0" encoding="utf-8"?>
<!-- Generator: Adobe Illustrator 17.0.0, SVG Export Plug-In . SVG Version: 6.00 Build 0)  -->
<!DOCTYPE svg PUBLIC "-//W3C//DTD SVG 1.1//EN" "http://www.w3.org/Graphics/SVG/1.1/DTD/svg11.dtd">
<svg version="1.1" id="Capa_1" xmlns="http://www.w3.org/2000/svg" xmlns:xlink="http://www.w3.org/1999/xlink" x="0px" y="0px"
	 width="65px" height="49.179px" viewBox="0 0 65 49.179" enable-background="new 0 0 65 49.179" xml:space="preserve">
<g>
	<g opacity="0.8">
		<polygon opacity="0.8" fill="#FFFFFF" points="0,6.686 11.371,6.686 26.209,28.488 26.209,6.686 37.687,6.686 37.687,46.094 
			26.209,46.094 11.452,24.456 11.452,46.094 0,46.094 		"/>
		<path opacity="0.8" fill="#FFFFFF" d="M26.237,46.094V6.686h20.295c3.763,0,6.64,0.322,8.629,0.967
			c1.989,0.645,3.593,1.843,4.812,3.588c1.218,1.748,1.829,3.876,1.829,6.384c0,2.187-0.466,4.073-1.4,5.66
			c-0.932,1.585-2.215,2.871-3.846,3.857c-1.038,0.627-2.465,1.147-4.276,1.559c1.45,0.485,2.507,0.968,3.17,1.453
			c0.447,0.323,1.096,1.013,1.947,2.072c0.849,1.058,1.42,1.874,1.705,2.448L65,46.094H51.241l-6.508-12.043
			c-0.824-1.559-1.559-2.571-2.205-3.039c-0.878-0.608-1.872-0.914-2.983-0.914h-1.075v15.995H26.237V46.094z M38.468,22.653h5.135
			c0.554,0,1.63-0.18,3.225-0.539c0.807-0.161,1.465-0.574,1.977-1.236c0.511-0.663,0.765-1.425,0.765-2.284
			c0-1.272-0.402-2.248-1.209-2.931c-0.807-0.68-2.321-1.021-4.544-1.021h-5.349V22.653z"/>
	</g>
	<g opacity="0.9">
		<g>
			<g>
				<g>
					<defs>
						<path id="SVGID_1_" d="M16.9,8.764c-0.154,1.302-0.463,2.875-1,4.574c-0.532,1.697-1.277,3.48-2.186,5.189
							c-0.898,1.672-1.868,3.101-2.812,4.203c-0.915,1.074-1.798,1.83-2.547,2.322c-1.438,0.943-2.374,0.954-2.37,0.985
							c0.005-0.003,0.184,0.188,0.558,0.41c0.385,0.222,0.982,0.483,1.81,0.46c0.862-0.021,1.991-0.36,3.279-1.336
							c1.344-1.007,2.853-2.724,4.128-5.043c1.319-2.372,2.174-4.985,2.559-7.226c0.39-2.232,0.323-4.037,0.075-5.335
							c-0.24-1.271-0.643-2.073-0.95-2.565c-0.301-0.475-0.512-0.668-0.512-0.675C16.906,4.735,17.199,6.187,16.9,8.764"/>
					</defs>
					<use xlink:href="#SVGID_1_"  overflow="visible" fill="#FFFFFF"/>
					<clipPath id="SVGID_2_">
						<use xlink:href="#SVGID_1_"  overflow="visible"/>
					</clipPath>
					<rect x="5.983" y="4.729" clip-path="url(#SVGID_2_)" fill="#FFFFFF" width="12.728" height="22.203"/>
				</g>
			</g>
		</g>
		<g>
			<g>
				<g>
					<defs>
						<path id="SVGID_3_" d="M29.849,0.052c-1.992,0.33-4.001,2.12-4.618,4.019c-0.608,1.895,0.338,3.376,2.236,3.308
							c2.04-0.076,4.385-1.889,5.094-4.054C33.199,1.374,32.227,0,30.466,0C30.27,0,30.062,0.017,29.849,0.052"/>
					</defs>
					<use xlink:href="#SVGID_3_"  overflow="visible" fill="#FFFFFF"/>
					<clipPath id="SVGID_4_">
						<use xlink:href="#SVGID_3_"  overflow="visible"/>
					</clipPath>
					<rect x="24.623" y="0" clip-path="url(#SVGID_4_)" fill="#FFFFFF" width="8.577" height="7.447"/>
				</g>
			</g>
		</g>
		<g>
			<g>
				<g>
					<defs>
						<path id="SVGID_5_" d="M39.043,4.562c-1.894,1.283-4.037,2.478-6.209,3.29c-2.034,0.767-4.061,1.181-5.912,1.2
							c-1.727,0.001-3.163-0.349-4.264-0.95c-1.049-0.566-1.811-1.366-2.328-2.182c-0.989-1.566-1.151-3.203-1.175-3.163
							c0.002,0.003-0.119,0.518-0.233,1.399c-0.11,0.88-0.208,2.141-0.055,3.501c0.154,1.389,0.592,2.918,1.54,4.164
							c0.987,1.317,2.601,2.355,4.786,2.556c2.379,0.25,5.155-0.518,7.733-1.883c2.801-1.472,5.278-3.56,7.217-5.614
							c2.03-2.15,3.423-4.187,4.317-5.632c0.906-1.473,1.293-2.316,1.308-2.322l0,0C45.705-1.074,43.099,1.803,39.043,4.562"/>
					</defs>
					<use xlink:href="#SVGID_5_"  overflow="visible" fill="#FFFFFF"/>
					<clipPath id="SVGID_6_">
						<use xlink:href="#SVGID_5_"  overflow="visible"/>
					</clipPath>
					<rect x="18.712" y="-1.074" clip-path="url(#SVGID_6_)" fill="#FFFFFF" width="27.054" height="15.701"/>
				</g>
			</g>
		</g>
		<g>
			<g>
				<g>
					<defs>
						<path id="SVGID_7_" d="M45.607,17.359c-2.946,0.532-5.232,3.604-5.302,6.982c-0.068,3.466,2.206,6.318,5.305,6.285
							c3.361-0.038,6.226-3.402,6.131-7.4c-0.085-3.514-2.434-5.945-5.247-5.945C46.202,17.279,45.905,17.305,45.607,17.359"/>
					</defs>
					<use xlink:href="#SVGID_7_"  overflow="visible" fill="#FFFFFF"/>
					<clipPath id="SVGID_8_">
						<use xlink:href="#SVGID_7_"  overflow="visible"/>
					</clipPath>
					<rect x="40.237" y="17.279" clip-path="url(#SVGID_8_)" fill="#FFFFFF" width="11.597" height="13.379"/>
				</g>
			</g>
		</g>
		<g>
			<g>
				<g>
					<defs>
						<path id="SVGID_9_" d="M46.622,3.208c-1.574,0.963-3.728,2.408-5.932,4.447c-2.091,1.933-4.243,4.438-5.881,7.444
							c-1.598,2.912-2.756,6.431-2.933,10.063c-0.213,3.739,0.619,7.362,2.048,10.378c1.53,3.267,3.757,5.924,6.04,7.948
							c2.478,2.2,4.985,3.657,6.853,4.61c1.982,1.001,3.178,1.41,3.185,1.428c0.089-0.024-3.725-3.138-7.012-8.186
							c-1.494-2.304-2.845-4.997-3.715-7.908c-0.837-2.775-1.247-5.792-1.172-8.877c0.1-3.015,0.659-5.919,1.584-8.56
							c0.92-2.652,2.229-5.099,3.612-7.171c2.875-4.308,6.035-7.085,5.962-7.088C49.253,1.749,48.269,2.21,46.622,3.208"/>
					</defs>
					<use xlink:href="#SVGID_9_"  overflow="visible" fill="#FFFFFF"/>
					<clipPath id="SVGID_10_">
						<use xlink:href="#SVGID_9_"  overflow="visible"/>
					</clipPath>
					<rect x="31.663" y="1.734" clip-path="url(#SVGID_10_)" fill="#FFFFFF" width="18.427" height="47.791"/>
				</g>
			</g>
		</g>
		<g>
			<g>
				<g>
					<defs>
						<path id="SVGID_11_" d="M13.869,35.387c-1.002,2.485-0.214,5.427,1.936,6.566c2.321,1.222,5.16-0.167,6.141-3.085
							c0.939-2.801-0.307-5.67-2.594-6.463c-0.399-0.137-0.809-0.203-1.212-0.203C16.378,32.203,14.658,33.438,13.869,35.387"/>
					</defs>
					<use xlink:href="#SVGID_11_"  overflow="visible" fill="#FFFFFF"/>
					<clipPath id="SVGID_12_">
						<use xlink:href="#SVGID_11_"  overflow="visible"/>
					</clipPath>
					<rect x="12.867" y="32.203" clip-path="url(#SVGID_12_)" fill="#FFFFFF" width="10.018" height="10.972"/>
				</g>
			</g>
		</g>
		<g>
			<g>
				<g>
					<defs>
						<path id="SVGID_13_" d="M15.045,25.27c-2.128,0.944-3.971,2.387-5.415,3.816c-1.448,1.437-2.535,2.891-3.259,3.937
							c-0.732,1.066-1.098,1.721-1.107,1.723c-0.009,0.055,1.806-1.801,4.478-3.224c1.363-0.725,2.971-1.338,4.684-1.583
							c1.783-0.265,3.714-0.138,5.675,0.457c2.077,0.655,4.044,1.803,5.759,3.343c1.851,1.652,3.414,3.754,4.643,5.917
							c2.743,4.834,3.741,9.522,3.796,9.451c-0.011-0.015,0.141-1.265,0.129-3.491c-0.021-2.128-0.195-5.084-1.007-8.288
							c-0.746-2.958-2.036-6.038-4.066-8.503c-1.826-2.235-4.26-3.914-7.011-4.467c-0.726-0.155-1.456-0.226-2.18-0.226
							C18.364,24.133,16.603,24.572,15.045,25.27"/>
					</defs>
					<use xlink:href="#SVGID_13_"  overflow="visible" fill="#FFFFFF"/>
					<clipPath id="SVGID_14_">
						<use xlink:href="#SVGID_13_"  overflow="visible"/>
					</clipPath>
					<rect x="5.254" y="24.133" clip-path="url(#SVGID_14_)" fill="#FFFFFF" width="29.185" height="25.046"/>
				</g>
			</g>
		</g>
		<g>
			<g>
				<g>
					<defs>
						<path id="SVGID_15_" d="M10.772,15.649c-0.862,1.688-1.086,3.561-0.495,4.234c0.618,0.702,1.892-0.137,2.847-1.933
							c0.97-1.833,1.174-3.84,0.463-4.433c-0.131-0.109-0.286-0.16-0.451-0.16C12.435,13.357,11.48,14.26,10.772,15.649"/>
					</defs>
					<use xlink:href="#SVGID_15_"  overflow="visible" fill="#FFFFFF"/>
					<clipPath id="SVGID_16_">
						<use xlink:href="#SVGID_15_"  overflow="visible"/>
					</clipPath>
					<rect x="9.686" y="13.356" clip-path="url(#SVGID_16_)" fill="#FFFFFF" width="4.611" height="7.228"/>
				</g>
			</g>
		</g>
	</g>
</g>
</svg>
